<mxfile host="app.diagrams.net" modified="2020-09-28T14:30:06.368Z" agent="5.0 (Macintosh; Intel Mac OS X 10_15_6) AppleWebKit/605.1.15 (KHTML, like Gecko) Version/14.0 Safari/605.1.15" etag="lB9x1RU1LqkCyCyOGtux" version="13.7.5" type="github">
  <diagram id="C5RBs43oDa-KdzZeNtuy" name="Page-1">
    <mxGraphModel dx="4914" dy="1814" grid="1" gridSize="10" guides="1" tooltips="1" connect="1" arrows="1" fold="1" page="1" pageScale="1" pageWidth="827" pageHeight="1169" math="0" shadow="0">
      <root>
        <mxCell id="WIyWlLk6GJQsqaUBKTNV-0" />
        <mxCell id="WIyWlLk6GJQsqaUBKTNV-1" parent="WIyWlLk6GJQsqaUBKTNV-0" />
        <mxCell id="RhfSra3kzSBtpRzGON0T-0" value="" style="shape=image;verticalLabelPosition=bottom;labelBackgroundColor=#ffffff;verticalAlign=top;aspect=fixed;imageAspect=0;image=data:image/png,iVBORw0KGgoAAAANSUhEUgAAAWYAAADCCAYAAAB63GhaAAAACXBIWXMAAAsTAAALEwEAmpwYAAAAAXNSR0IArs4c6QAAAARnQU1BAACxjwv8YQUAAEpOSURBVHgB7Z0NlBTVmfdv93wB04ig0IOCIowSQGcwYzbCcDYYPZI9u36sbMgr7kLMHjHBmBVciSYKgZhVSKJudsGIu66QV30jQqLJewS/4BhGeE+YAzOIHzgzoCAzAyKY6ZGPme5+7/9WPTW3b9/q7pmpBoTnd07NVFfdul9166mnnnvvc4VgGIZhGIZhGCb/hNxN7SeTyZD+393CP/nJT8I4hg372Ogc/mu/VVwynNDjon39OoTRz1MaRjwhMxzlh9LWy0HxU/p6vum49l/Pc9hS7pAZv3temHVjuSat7Jb61fMqjDL5xS+0/AqtfMLIv/ApS0irf+9emfkz7xWFt5RFGPWuX6vnVb/OmjctPb1cKZvtHlD9UZ1mqG8vvKWtmXkw6ynsE1b43Gc9T/qz4N1n8xqzrtz7ImznzPKZbcdIx1bfwvb7TH/+RQD0JBJkKBkKhVShxo4dG37nnXdCI0aMCPXr1y8xbtw4sWPHDnHhhReGXn75ZTFhwoTwZ599Fv/888/DY8aMSUYikeSqVatC5eXl4vLLL0/GYrHQBx98IBoaGpIyLnUdfnd2doYQ/sMPP1SlP378uMprcXFxctKkSck33ngjTL/xH9e9++67od27dycRt4xPfPOb30xu3bo1NGDAgMSRI0dCffv2VWFlftS1CIOww4YNC+3fvz9hxos8Y7+wsDBJ4VFO/Kb8EqgD+dvLC/6j/Iif4kLecBz5Qh3MmjUrsXHjxhDKRnnEeapDxPk3f/M3Asf37t2bRH3huqqqqsSQIUPCqBuqexl3Qqal4jl48GDBV77ylcSf//znMP6jDpBfGS6Me0Txop7dciVlnEktToGyIc8oK/KPPCFtXIdyIQ+1tbVhShvhUQ7UEZUR/3F/EZ7qDWVA2aie0B6QP/z++te/nti5c2cBykpp4nrkCXFffPHFKm2qE9wz5Hnw4MGqjFQ/qHO6h3q+0T7oflI+cB7XIizln9rEhg0bEtTm6T4iDP7T/cZvva2izq699to43VeE1cupt0tEjHzgPtH9c+P20qRyoO3K+kY5Qlr9e8KH2h7KM3DgQLV/6NChEPZRp7ge+UNehg8f7rU7Kq/+HKFeUb+Uf1yL38gX2hCVD7+RZ3ou+PnvugdyS0iBDlGZkLISh703ZC4U5hqQ3trTpk0L19fXn3P06NF/kglOLioqqpD/LxAMwzAMXirbpUzc/aMf/eilK664YoWUnXEcl8dyFs65asxKbb/99tsLH3rooZsGDRr0a3nsbMEwDMP4kkgkPmpra/vZjTfe+NT69etzFtBZBTM0ZWjJTU1N4TfffPMx+bkyWzAMwzA5Iy0M/ybNUAukeSwOJTebcM4mmJUNS9qzCqRQ/okUyj8SDMMwTLc5duzY0i9/+ctzpQ2+A78zCeew3wmyKaNHUqrgt7JQZhiG6TklJSV3yM7Fm6666qqCkNMj6KsYWwWzM+giBKEc2rdvX6i0tPTHgmEYhukVQ4YM+fX9999/jsgySsMqmN3hHRguFP7FL35xazgc5lEXDMMwvUTK1gETJ078p8mTJxdoY//TSBPM2oB0IXsTQ1L9vk4wDMMwgVBQUDAZsnXhwoX6BKAU0gSza/uAGUMN4peRVAqGYRgmEAoLCy+rqqpSMhbiVpuF6mEKZk+Cy55DzOwJS8E8XDAMwzCBANPw8uXLCyGYXXmbpjanzfwj+zL+jBgxQjAMwzDBMmzYMKX8uvKW8AR0isacNAweu3fvFgzDMEywDB8+HP40PHlryt4Uwazbl1etWsUaM8MwTB7Ys2cPee5Tw5JN1Tmt8w+BsE2ePFl5zRIMwzBMoMTjcU8JxmZiE8z4p9TqaDTKgplhGCYPkGtcG7YJJkmS4Pv27RMMwzBMsBQUFCi/1KQxm+OZTcGcdE0ZYvDgwUm5scbMMAwTMHv37s1oykgZLuf6yIDoDh04cABbt7zuMwzDMDkRytmUgSmC0JjpN9RtwTAMwwTKsGHDElB+qU/PdAFqmio8wYz/8uLiPXv2fC4YhskbrS37xbp1r4nq6ivFqPKR3vE1q18UkdJSce03rhF127aLmprNIlo2REyqnqD+myCOehkOVIy/TEyZck1aGq0traI0EhFTp97gxRGLtau0TG6SYSKRUtHY0KTS1sFxnAft8vrV8npb3IDy3h6LpZ3PJe61Mt9NMpxfuZC2Le5M9Z3pmkz1GBRSEEcmT558TG6JBQsWJF2lOOGdN8MLRzgrwTx06NAS2QHYLnqJ0yD2ZwxzrSx8WZYK7QlodI8vXa4aPG72yhXPqgb0vTtmqQbAMCcbCK67596nhMMTy//Da5e3TP9n9UzMmzdH7n9HPiNXi7q6t0VZdIj45aMPpcSxbOmTSriinaPNo43PvuM21ebx7M2V8cekICqX51vkb5z/5SMPiUopeCh9k2eefUrlCc8MNh0cx3nKp1/cePZ/vvgxKQBL1XmkpZczl7gRn1+5Zs26U4WzxW3DrAtcg7C4Btfa6hFpIc0gmThxYr9NmzbBYX6CJpfoWrNtMVbVASjtH+LNN98MpPPvlbWvywa1PWOYysrL8iSYY7JxvC4qW/erCsaNQF5mzLyFBTNzSgGhASFlCoFtdfVKaMz74RylXS544MGU86TxQnAjDLjx+m8prRBtvmbjJnXsESksR7nCCIIYzwGEZ6zd0b2eWP6rFI1djx/Pyu9f+m3aOeQHwmvevLuUZt8gNdvvzvqBeEUKZEfov63ihKDWBTE0ZZW2jFsXxDqNrpZMghhh/1G+oJAmfjtab7v43/JayA7UAQTrWzWblKJngzR7KivVZ417jVmPeDGgLEELZgAbMybyAc0VhhLOhT4XqM6/cDgcqI0Zwhc3Q8d8WwZNRH6qUKMA35MV3O42BoY5lYiWRZVggElDf07KolFPaJNWqIO2DcFWaigaaPvgpn+4QW1EY2OTGy+ZMmLeOQg2xIfPd0oHggx5I5PEqPKLZB4nqHB4pvW0SZMrddOe98O7vLjx3LUoc0epio/iRj5tcUNwPvPsf6dcD+E8apTz8pgxc3qKGYLyECmNCD/Ma6jsMBn51WNpHhQ4zPwrKSmBdSLpzvpLCs1Xhi6YVZ1Cq542bZrYsGFDUpoyRJCgsaFidEzBjMrHWxeVVCZvHuxLOGYKdTRU3GSEoUqmayktEHE/oTZKrUHdeHlTyw2tAG9m3HD9OqLOtTVRQ/ED4Rpkg293G071pCt9z+NGm3ZCSgdpIC2EQ55RPspTtjj0MKBc5sNWHooD146vrOCX1CnCFJgq5P1ZsuRR9WlN4B5CI615a7NqH/e42pyOfg+XLH5Uted5M9KfNXre8BxCwwVkZpz/wM9E+cUXSQ1xu3pB0Oc94sIzsmyZI7Rxbs2ol8QTT/5K/SalB/HMn/8zdQ3ZiAkySYCFi+73vo4zxU3ophY8W6S96mmrOORLBfUz0X32TPMp8mXmd+WK59Rxqgu9HsnsiboPGkzekzIWclY/bNWYYepQzpvhXAODn8877zxxotkoPylgk4Igbmnd791MgMZEgn2FrDR8YujHlkpb8ivSbAFee+OP6j/ZlPR4UPmLZOMgQYsbSqYWso0B3GxqEDiGczZsdjLkn+yAtvOPyzTpEw1QOkgDwpjyjIcVaecSBx5IKr+tzsh+poNGigfFFODMyQFC97vSbop7RaAdrnPva6ytSd1Dv09ragM4P9FQDvCpjnYJBQVtiTrZcEwJarefhwThajcdKBnQ4knrpnaEcNRu6DmDXPnlIw+nmSVJuCHdBfMf9J4zxI02ToLRFjeZQvA8QIDfPee+FBs76gdpU1smYJcnTHOJmV8Tyof+Assn5srZphMjdPqpmX+wMdfW1p604XIQlKNGXaQqmgQLfcrZQCeDKZQACTg0QNxcxOW82R+0xqP3EK+29FSb4I1PveWwW8HehQaC/JMmrmspyAMJUr/4YVOkTg50UupxoD70OOiBdWznb6t8wBaIvAi3zkgrQUPDeYoD2gfO4QXHnBpAoM2Qmu4r7ggKgE/9sqFDvM2vb4SEMswHusaKtrFu7Wsqbgg7Eup6+0NbIGFqxl9amvq1WKZ9oYJMQhnpkpDVv5ipzSFuMmuYcasX0lonHK6FgEQ+8WyRNkxCGcoMNHw97Xvky4C22bNnecdxjdNpaH+JoB7p5Wd+4QeMJ18NH0ZpE0zUWGb4CcVv+Aw9WaBxLPqp8/bDW5U67SAETe2OPklKXRMAgWuocVNjdHqKX1fHcYNM8wRp4Y5wdQRdphElTo/ur7wOEgD7WozsYfIYtHfEgbjIzgb0vBLtSgg/l/Y5aMZBLyiykaFcKfY418bnfb7JckJgI09lbhw4B3sjvkyYUwdopmjn9BWH+3TPvDkZryGhDO0Xffwk0KZgqJ2MR32Wy/tMGjMocwUinUe7x/l1rtAsl4oRQLxoJ+ifgf129eqX1PGRsk3pX6S4vm5bvahz40abNK+luJFO9rhbxc+XPCY78zZ7nX8ww6E+VNt1hTLaMjrsqJMTpko811Msmq5+jS2/ej3ipUH1WD1pQqCDBTDzD47iYDLGb1djtnf+uRozXH4m0QHY0dERFicJU2Cq3mTZgNq1jgpixYpnnIYhNY2VK7s+91tau8wXt9z8z95+rN2JAw1CTwc3VzUU106NONWxlnRN3EQJciksoYnjpuNFoH/mQTup2Sh7sLU82SBN3vxUpc/ZXOJAWvSpqn/aIQ68eLbJnvJscTAnFzJp5AJe9PS1iGdEHwEF4QShhjC6KQxtk4S97bz+CY+8wLQBEyOAAgStHC/4dZpmb8b/y/EPpV1L6eUSt/p6kPlAvPQyoS8+4IyNdpSbxzXTD67x6w/yu4ZMhn71OH58RaCCWdqYpRY/O2nYmP2Hy8GUIf+FYGOWnX8nzZQRM7TJWMw+nJo0aedT5+oUwUyoXmZ5zoR6dwm8JXFj0BCoEwC90zYTiQ28dcfLfEB4QjgiPnyGkkYBIV9ZebOI9I+oITq23l6EgYawWvXOT/A0dl0zqK6+TXUTmMOmiKHRrnzAnodPPKSPB6DU7XGHzRCNdE0O5homv6DtUp8IUeaapHIB7c68XieihN0c+bKfpV7Oeoe5fh5DSKH4wLSgC6EyZZ/9b09h0c+jLWWagJHp2lzOQ8hCkNvyrfef5Eq2azLVY5AMGjQoTkPl3LX/UmRtmikD6jQCWnoMTyi4EfTpDujtZb4J6bjz9k99j9DnEoS6PvwHhn3ncyiaEh5vRcQPTbrR/WTK1ikGYbnNNSvA5IK3OXUcYJsoP4Gc4UZDvLGRfnZyMEV1wETVywFfAs7Y1U3OaA+ZN4pjnWEXRl1tk59l5W6vNLbbZ/1A1SPGdTY07HLKWNllY1zHtuUzCjW8LUN7dmyt/iN0Mo1Kyka2azOdz5bvLyJStoZhyhCuN0/NT5HCasrAJi8SJ5u5c+9VWqMjpB3hNlH+NsEbEI2qpSX181zZjaQggvBGXBB6pGEjrqnGkB4ATVLvrMsGhudBK0XjibU7djLvs0tqrhgfCSA46YWwxrWj+dmuoSFAqENTVy+UqPMCQT1Q3syOQwhZ0vTR0QEzDmkhyBNpISg7DczP9UuAYZhgkf13uhaZ5isjzYaMeduwL8PtZ9DjmLuDGkojhbAaOuMKUn38IxF17VB+LJQdiPj89wbou2YP2xAZgLCE7SVgy+fs2bepDj/YySCk8RKZ6A4vwnnqxFvj2n6nTr2+S1BatGeco5lLCA9NnOLAbwjWqa4fg1Y1BXa/98mHfeQB9jOYLWjYFM7hpeNMUX/SGQo129Gc9XHcDMPkH/TfQca6P0PQmPXzvr4yMDLjzTff7NPS0hITJxCaW0/jhiEwgpipR/GAfE2oIA24VBvEbqZvO5crucShl9MWjvLIk0oY5uRx3nnnlcqto7a2Nu4e8p35RzZmMmWEZM/9SXf7GemFIMtHPJnIJOyCSD+XOLKFYYHMMCefRCIR6t+/f1Jzkh9yB14obBNM1D7G11VVVQmGYRgmWOCHiAZXuP16Gf0xq2voXFBuP7vDiTA5MAwTPGqMcFvMG6NMHe06Nve+uj9nm/9j8o+czd9ypnDIC8bwZzuHwQK6nxvdd3OQvpmlElz6/PPPH5s2bRqZMDJ2/pFHfeX282Ss+RdRnqeGsFBmmC8IEKwYcYRt3StdI30gqGlkUCbI6RI629/auDnFT4gz9PQldQ4zEW+fdae1wxzhMG5/ouuZDqOwqEMb+YBjKIrjbnmO+lrMc/DFgXgAzR+gznjMyA1q3D8GVkihDDmr+vW0TZFmYxauP2bBMMwZBQRei+uGk7RGCKmYMdvWnJ68VArF8vKLxIyZN6cMwSQfNZnGIJO3w4Wu+wWEhc9l0mohOBct+rE3zrmhcZc3skoH4RwHYENU3vGb/DKveeFFMXPGdK9McEFADprqtm5POYexEdCe8Rs+ayorL/VGfcERE0Y83WQZZttd4CBu9OjRwnUYR4f9bcyuM40kL8bKMGcO0AShOcKfBiY0wTOb8vfSHlPHVq58znEeJPfNoZU0VNOE/MWQiwDbuH1M5CrXZuCSj+c6KRQBfEaToy7yEUN+pHUwe1A3kSgH/NEuXyCY6EWQewcw+/u3pXiPa2zY5U08g/Y+XnsB6C4Weos0Eav/tOafeT5FMMPvJ2nL5FyDYZjTHzgPwth+CFnMLoVwhLCGTVVN4JLC0Ns3zIx+Kw9hZRTEgakT0MRhhjBNGzF3RqsOOQEDyAuE8Q3Xf0tMly8L8jKXCbwEoOkibIvnoa9Lw4fXypjF546z/uAm7yWjC3c9b+ZEtp7Q3NzsyVjIXNda4WGukh2mURmwMTMMc/oDQYPOLV3AQqi19lIAwakYnBRhohUELM1oNck0uQk2XpgV4EsZPl/Ifa0f5PAIfkH8sGm8OLZk8WNpk9hsHiCDGHbrTt5TfXqY1GeeTxHMGLLhas3wMKekOsMwZx7tAcwEdVYh6hJysBmbLmbJfaeOWnx11Ei3ky/pueElb3N+fsxhG8bIDAhXEp5lrlMkXRjDXUGZ5ieHOvnu+eFdKasbwaShe6ikxVlNHzs9ATZmuL3QxjGnoAvmkDnB5GROyWYY5sQAIQVB+Irre9gZvvaS5wSsp6CjTB9Bgf3qiU4nG4QrBB3cLsAFLQlOtWSc/A2NHSaOdiUMu4QqbMMkVB2Xo/u9uLGqkc3xPToAdWG+5oWXxJRrr/bSg1CeKTsuzSXn4AqU8glogdkgNGbYmNva2rxBFpkc5dOigCoc/mB2iggAVC7W7muSb0bYaFDg3niqyjeU33btDRnESgbo4UZnB+LEMu/mEvQMc7Igv8gQyBCMsCf3dkkljJLAGoCwT6O9Y/WV2e6KPPDXAve08OMCkweGt2HRWYS7wzVDQADCn4taoSTqrD0Y6V/q+ZHG8LX2m9qVqYT8oP+jtpwUufjERp4WHZv2RV7ZaPw0zBhLXJ/QtAxVpTtuGbZxOAJDR6ifj53uos/8w+IkwugATPOVAUO0u7RUqKmpqWTLli3topdgjS50BOAthaExGFKjr613KkFvULx1oUVQL3Fv84qGoRZ0deOMojPlBKwlxjDdAe2/N/5cbDSqxZUjGecm6GYCW9q5xBFEPjLlLUhlUurA/aSMPY79559/PpHRHzPQbR61tbWit6gezFDqyrjt7jpz+urP+EQxV37Gsi40ZpL8DdNvv2t0bde2WjWB+LDwK0hJE/mSPbp4a8OlJz5vSrVVdVEeHEMayIe+yjStbI0hRXra5AYUC8DSyt66k3w9z/QSUGsJukvl6KD8jcZK4AQ0cuRNjf/Uxp/q41L90stUL7axrLR8T6a4aFysLQ/MqUk+JnblItBo+bPexBFEPmxky1tPqKqqwnBkLC2VcDVm4AnnAiO80pgxh/udd96Bjbnw7rvv/rHoBRFlurjGewviAV6x8jnPnIFeVMy2ueCC4aJJatPPPbdKhS8uLhbflVrmV75SJeV6yFtw8St/VZXxmlu//T1x6NAhle5vVj6rjo0Z+6WUPEFQ3nvvfAHDDYToY48uVYL0gguGqbhRS0tl/OvXv6kEdX93MUoMpUG669/4k7p23bo31Hk9bcSHc3/4w1o1JhLC6I9/eFmV/7+eXCHWb/iT/P+0yofT871ffP/7/+rl+b//62kVF9L7v398WZo+don/89wLKk6EuWD4MBU3yl09KdUt6X33LnA0fXkt9pGXdvmlgvAYkwkNHel9+9vfVfEdP35cPL7M8RENQQtBSvUMDQHnUP8wv7z33vtqBtaePR+Ljo7jYtDAQSqflHekg3xSfWMm1n/JspSUFKu1E1GXUwMYmM8wpwP333//w1LGdsrdJDoB169fn5QC2jc8ZBI6BOFdv3DYsGF9kwEhNcnk9P/1neT1101LLn74Ue/4Bx80JpubW73fV1/1t8ltW+tT9mfddmdyxdPPZLym5k+bkm1tseTal1/1js+//6fJpf+5PC0viG/xw494vxE3joHpN39HbrequACuv0HmGaxd+6pKi9JGGJxbJ49jn/JN5aXrUF7ESdchHOJpkb9xXYMsj56XuXPu9X43N7ek1AnFN/eue1VZN8pyE8g78mLu63lBHvT0ENcSty4Qp15fqKMlWj3hvH4fcJ7qjcq1dKlzvZ5n1BvKzzCMg1R6+0HGkrxNGv6YraYMMmfE4/HApmZDI8Uii9DEoDHTqrz9IxHPAG8bz4jZSDC8651vtmtgmHfW9nN6YF9Z+7rq7f21ZTwjTAGYhunlzdXcCXJCD26aer0aN6n7MdaXeUe50GFB4X+++FH1m2Y9AYwRLdeWh6eeXcxuQo9xTaMzNrPF7ZEuy2E4DsLV129XS0YtW7ZcjfE0QUfOOlkPCEv1hzysXr3JSw82/0nVjokBpiH0BaBPgNLIBOqkurrLPEFL1Dv1FFVfJmplF3bCzzApjB49OkH7Wdf8o0C05l8QozJguoCtFg+sI5guUw8/hCeEhRpALh9uZ6xiRE0F1YGQhNDEUB7qSc12DWydEIQQPhCU5ugHZxkou/9/s+OBxnOSjbU9w6Kw6NWGLR1mAcyz/7nXyxu1ru5Ny7mjfFgOCtehXmA6yAbW7kPvdMztia63OHZRnrJkPdGSVMpvgIwfaVJ6y5YuTyn7FLXYa/aVWyi8n9BF5y7qA2mVBTDuk2FOJ9ra2sL9+/cXrhMjKNEpa/6FbReRxhyEo3wIZTyg1AFGi5fSwwqtF0IGWmuDxRMVNFIMp4Ftlzq9/K7BeWh70KjxIoBAxEvAFufqF15SGh/yAycntKQUBNlqTUPGPP2oa7cFEEQ088hboVvmBdolBBWEHf6ThyqKE+WnONe4YyNHYuFXqfFSx5i6rmaz6A40BMi24jYcy6gluqQtGmEQFlpyudsxifTgFIZQ2rvMN3n3g1Ctqdnkmzbq5BVtLCmEP0afqHy5wwKhyeOrg2GYLjCwAktLrVq1KulqzCnnC20XuUtLJY0FA3sEBAM02wUPPKiEh+q9H3+ZNxYR5zAGEXPSK8dfap1Vg3GKmDGEcI+48/lt14xyRwpAg8Y5Z9xh+lhhjNn8uTSRkKbt5PEWJy2poWMkAZ2jtQYJNXtJCqJrvv53Xv7VYPjYSDWuktJGvvQ6QLwUZ6laLv4u9QWB4xDG8AWAcZzQWE0ftjbwwsBG6/rZhvPR2EyEIS9fEMYYW4r0aCigV88yDOoF5wBeMnSfbKDsEPhmXdHCs+RXoa5OMAyjgcl7GJUh3JEYrsrsnfdd8w+jMyoqKvrU1dUFsuYfaWzQlM0hOfQ53J2xk5muyXWdwEzhbOfI7IDB537p9zRfEGYn0gd1pvS6u85iUOsyMsyZQllZWWTMmDHHMFxOdA2T8xRhq2Cm/ZOxgsmpjC6YGYZhekplZWVk0KBBJJhJY7bamOErwztxslYwOZVBp9gjAU3JZBjmzEUK5ThszH5OjFJ8ZcDtJ/2A/aO+vl4wXZyIlbYZhjn9wagM0bWUX3a3n7Q/efLkxNixY1ljZhiGCRhtBRO1EGsuozIQMLRjx47QgAED4oJhGIYJHKxggvkiSdfdsk7a0lLC7fzDIoF79uwRDMMwTLC4/XchdwxzirtlYE4w8cbVQWPeu3cvmzIYhmECRvbfKedFwNYBmGLKgOAmtXrVqlWhqqoqwTAMwwSPZVSG/5Rs3Tcoa8wMwzDBg5l/UH79zqcJZnJihDX/ioqKEoJhGIYJlObm5hCZMgBmWuvnzeFyysYMwQw1WzAMwzCBIzVmNSLDIJS2A1zXc+o43NFt3LiRp2QzDMMEjJSzpVLGHsN6f+5vOqUU4rARWP2j3yNGjGCtmWEYJmAwgQ+zqyVhGnQhtM6/lFEZNCJDW8WEO/8YhmECpqGhAcORsavmjpgrmFi9y7mejsLRaLRPS0tLIG4/GYZhGAe4/WxtbT0quvwxJ/TZf9bOv2nTpikHG4JhGIYJnHA4nJw1a5aSv0mtc49I05ghnGHGQOff+++/H5ijfIZhGMbhvPPOK21ubj4ud62O8sM+16kApaWlPI6ZYRgmD2hTsrP6ykjp9GMnRgzDnO4cPnwYM57F7t271W/8nzNnjlixYkVKOBx/+umnRRDAiRFNydamZftrzBRw1apVIh6Ps52ZYZjTFkzyuOqqq8Rjjz3mCea///u/FzfccIPYtm2bEtgEwo0fP14EBTx4mjP+CNtwOTV8A0tLQTgHQfK9X4hE43IhOv6Scjxe+iVx7MI7RMe5VwuGYZjegP6z4uJimGBzCg9BfOutt4r169cLfXo0BDJ+f/bZZ+L3v/+9OgYBPXPmzMAEc319fUJunjdPE9sEEwUGP8PRRm9Jbn9AJKRgNoUyKGh/T/Td+SMRPvqxYBiG6Q1QLI8dOyaOHDmSU/izzz5bbN26FRPpUo5DKP/7v/+7Mlt87WtfU/8hoP3W5+sJUraqockYZCGyLS2FYRu6al1QUNDrmX+Jj36b8Xyos00UHnxdMAzDBMHRo0dzCgfBjM3kd7/7nRgwYIDSkCGkYWvGsSCBjRlxS6uEslBo62ArTH/M5MQIS0sl8fY5EUA4MwzDnApAWH/7299W+5dffrn4l3/5F/Hiiy8qzRnnIKRtAr07tLa2wpxBfXpJzR1GknZ0QtoxmDJ67cQIZgzYmDPR9levikSf8wXDMExv6dOnj+jXr1+3roE5A4JXtzXDrgxNFsJz4MCBYteuXcrEAaEMYd0bMI559OjRx2XnY8Jd0i/pO/OPCNKWEv7Sv4rQqNtEqOistHPxyJdEe+XTLJQZhuk1EGx9+/bttlC2gQ5ACGrIQgynA2T6oN+9AQ7iZs+enaRZf+bMv7RVskkow1F+W1swJobwZT8VAptBgdyKBcMwzKmDPloDkIaMYXQQyv/zP/8jektJSQlcX5CFggzMuZky2IkRwzCMAwS2X4dhdxk+fHi/8vLyDpgy3ENJkWVKdtIdwhFKJBI8wYRhGEY4dugghDLo6OgI57xKtjvBJIQZKfi9ceNG9pXBMAwTMPAuR0tL2QSzdYIJAmKCSRDjmBmGYZhUIFtlH56vRSJk2dftzCVSi+Y1/xiGYQJk4sSJ/YYNG3bc9ZeR1NxhKHSNWdeOkxiVUVVVJRiGYZhg2bRpk5K9CxYsIKGcct6ckq3+w5QBl3S1tbXc+ccwDBMwQ4cOdYbFpQ9hVuiCOWTamIWP5yOGYRimd0DG+i167WfKEDBMR6NR1pgZhmHyAKwSO3bsUItfZ3RiBGiK4HXXXRdft24dD5djGIYJmObmZvJ3TwuxpkjmTDP/oE1jVAbP/GMYhgkQzPybMGHCcZozgpEZwm/mn6ZPK+FcUVEhGIZhmGAxl+0zbRlWjRkG6Q0bNoQ//fTTkrq6OtaYGYZhAgRuP6U5Aw7vSSBn9ZXhDZfDulSCYRiGCRR3VrVNMVakCGasXEIqNQzTY8eOLRAMwzBMoGDE2ze/+U1dW04hoynj/fffL+7tCiYMwzBMKqFQKCL/HZdbnJaXEtlMGYA8HzEMwzB5QZmKs3qXo0DY4CuU/TEzDMMEz7BhwxLSlKH2c5pgQtIbnX/SlJH3KdmdnXFx6HBMHDh4WBw5elwd6x/pIwYOOEsMPneAYBiGOR0htxeYX5JVMBOy8y/v3uUOfHJYvN+4VxyVArmwsED0LSlW//e1fCo+2ntA9OlTLEZdOFQMLTtH9JbWlv1i3brX5P9WURqJiKlTbxDRsiHiZLNm9YsiFks345dFh4hrv3GNOJG0y3xs3LhJtLbuV3kqk/Vzk6ynLxI1Gzer/9WTrkw5vnLFs2LGzOmCSaWmZrNob4ultDU8J/XbtqvnZMqUq8Wo8pGCCZa9e/eGJkyYoKRxVu9yOugxrK2tFfmi6cNmUbejSQniqspLxOTqSvHVK8aIqvHOPo6BHe9/qML2BgjlWbPuVPsVlZep/7fL340NTeJks3r1S6JFvix08HvdK6+LE4lTRz8QjY27RKS0VIwadZG4dsqJfTEEQSRSKpYtW55yDIKmrm67YLrAS3jZ0ifVprc1vMDWyDY5sXqCKJdtYP78n4m6bVx3QSMtEp7sxZRs15bhSWfb0lIi3zS3HBRNu5vF0Og5YtyXLrSGGXh2REz66qVix3u7Vdj+pX2laaNn620tWfyomCm1JV37Q6NDo/zlow+p32h8EIgRqSWUSw2BtOl1a18TUzRtAhpZ5fjLvGtIM4OQJ83XFLSIL5PWMUUKQIqT4l258lnvN2myYPz4CpU3yq8tHQpvloXyjrziWooLrJaa+8wZN8vyTFDloOMQ2A0yvK6BUjxIB/EgDUqPwuG6bdvqvWv0cyaoY6QLoUrXIl7Ka4P2Ai0ri6bUlQnOlUWjqn4o3CtrX1dfSHq8ZjoIj7j1cuMc6rPGrXsdahN0H8x8mfeH7g3VHZVVh+oMdUVhcC9s7Yzqn9qF2cb0c7Y6WyrbPr6IZsy8Wbyy7vWUfM+efZsXPtbeLs+/lrHOme4jzRgJ17tcEj6ZFy5cCEHtzRsxNeYk2Zgxh1saqPNiY26UGjDMFLpQ/mjvfqVB19Z9oAQ3Me5LI6TNua8yecAe3V1Uw5bakqn94dNt3g/nqH1oVEuWPKo+4WtqNom5c+/1hOzPlzyWct2yZU+qRh+LxTzNDA8UhHxUPgC4DvFA63hLfiaSWaCnIC1osigD4po79z718FA6eKiwUTq65ouyzJ//oDoGYDZZ8MCD6vMV5/HVQNqQEoDyGOJHXdwy/TvqulIpHB6X5dTLgDrA72119UrDWrzYqTscX7LYqS8IJbxccNzZWn3LiPy/VdMl/FaseEaZnADySvWI/xAS2cDnN/IFlICVaU+Ugo3yRCD/FN86mYe6uq4XCeqBzlEZ0BZoHyANlJnKTmlSXdM9Q/lQDjpu+1LDeXzV0X3DvYkZ7QzXoX7RzoDeLqDZrnPzq8eF83qZCZh1bKYdCGDKq6ojvOAqWSjngw0bNih5C2XYHS5n15iFM4YZgUNwRzd8+HARNLArw6ZMpgqwufZd2QCPKK0YwHzx4cf7xZVVY9TvS0YNUwL70OG2bmvNeMChBdk0FNKORo0aKZ5Y/h9emNtlg8d1kRxsa3jw50thd88P71IaCLZqJQT2S4300l6bAzbKh7Sy8lLvJYKHBAIAmj7SWSmch44eMnwdTJ16vfd1gLArpaC7x70eWtXsO25T+9XVVzpxjX9ICq/96qF8Yvmv1Lk1L7yo4kI6qB8ITpTF0SydctbVCSX0nnn0KXUN0vxHJdCdvEBTy8WuizDIB9VVXd3b8tgtah/1iHLiHNk+szFRat/08oCQnzmje7Zl5KXMbRtoE1QG3U5NfRbUbqjs+PpBu0LaOIY6pXtENDY6glnX0PFiX7Tofk8zhQBvkoJ4iKbBQygv/On9Km+If9GiH3taMuJ5S2rjSB/3bt68Od6XgE0wl/n0r+DLYu6c+8QN139L/S6X9/5E93WciZhLS6UIZpyQQllp0Zj5F41GwyJgMAIDdmWYKgC0YwhlCN8LhjmNBdrzTqkh4z+ODTy7vyiS1xw4+Fm3BTM0vvYsGutQ+YDgUx7COOZ+nusa4t2yoRKt2ucp4oVmNW/eXepTMhOIf80LL3m/Z3//NiUYs1G37W1HW5NCEiBf9GDbwAOM8KSVKa2rvassepp4mPW49HN4GCHcAAQMCU4IoynXXu2FG69pUxBQEOLQPGXbEbkC4QKNWpVN5htmJhIc7VJj7E5clA/kWWmnUmskIY90ED+EFcLgv2m4Q/05X1hXZ3wJoI3g/j++tMuejc6yFlcRQJ2Xldnz3eCaI5ZIDRwvUdRrq2ZiAfRipXTQziCI9RdGozxO7WJb3XYvPWUykVpvmfsF1x2QDvLxy5kPqWvxUsdLg17mTLBojvJT3F/YNGa1gzX/8jFcrq29SzMG+1o/lY2sryeUAfabWw8qIU7HYfo4cuSY6C7UWHWbIyB7HmyF0HjRmOkBxue/DmmrAA2XgNDHZzMa7hNP/kpkAprMJNmhol+bK9CSp+SoeeOBhYZZWWn3DKi/pPT9SIb8oN5al7iCUwo6vT5s9ESQorMJWjk+nfUXRE/NQKTBTpRx6cLsHqlJQoPEfmlpepnRFqCV6mYNvzxH1RfBLd6xGaLrvjqjf+x1Sn0KyNsC2dboSwFltd0HamfoKJ4nv8wABO8y+VKAZow2PlLW3VuuCQJaPc7BnIFzkRzbGl4CyPds96uJvha+K78gWTAHy9ChQ8WkSZNIMCfNSSYpS0vpvjIw86+5uTnwnsCiwrDoiMdTfvvR2dnp7RcW+o7sywoeUghPsrWC1a4NEOAzHsKgq+Mn1R6K47SZoOHiISPbqh/Og9wVT64PCx5IdBiVutfD5rgug50VLxgIN0oHAqZB04r1a/FwT3SFIMq/TusEgrYJrZGA8IB2iNEaOoiD6pW0zaiPpogXgd/Xi0pfdtIhDvp0bne/Dmwdp2RK8IPS0QWnSke+tH75yENioWY2ICD4pnzjat/PfB2U0fnCinn3E9ol/pNtPts9Rjh09CEcXr6ocwJfaTT0zykHTChJ1Y6da1uVmQFlUF8+mt26XfWrvK3MLOjIyxXkBehxQdjT/cx0/5ju445jBroffIUu7ZI0649+izys+denpER8erjLk+jZA/qL/Z90mS3AR9K+3CbNG2NHd3UOxmKfy972no1nRqOOqU60O1VjhqCC6QEPJ5h60/VKS0ZvviPQuqfxQZtAp1o+xsriwYMwQWdQpDQiP5FjXr5tOC+h5arzDuEj/R0tkYDAwEMP223Z0CHeOf06kQylnFP5kILjbtijH3koNX/yOL4iMMQO9uZ5rq3dfLkB2KxRHtvYaByPLWtPEfzTZV5g87QJOAhlZVaxfEmoIWDyHEbi5CJkCTKB5BoW9YNON4w5R31O/YfrldaJPoqpGeJBW+u6N44GjD6Au+c6whj1iHJVux2WxOw7Zql7h3aGfOJFcvttP1DnRpV31RvqGS90v/uQa5kcM1hM3vOHvXj97h/TPQYPHqwEMeQtRmVkGw0Xcm3M2ArlJ2lpMmA+PfSX5KsbatV/YvOWd9SxTVveVZuz/452TZs61nrgULI3tLXFkg0fNKr/tnMtza3JU5Xu5g/hzXLOveve5Lat9WrfLy7bdRR++s23phxbu/bV5JKHH/HO267TmXXbnar+/Zh+83e8/H2RCLLd+NV/prS7Ez5XcJ/McmW7f0zuSFNGP2kuhmIcdmWur8YsSILjQnQEFhUVBe6PuX+kn+rIw6SRKtmpB75aNUbsk52A6AjEufOiw1Jszns+blU25iE9HMdMQCPwG2kRyeHT82TS3fxlC+s369F2HTQ0mDkyjW7IZRYlPvttZgmYPzCSAKNPvojjZYOcQdrdNpiv2au2++R3/5ju4/pjVpie5UCmNf9CUqqX5MPtJyaMKMFcebEacZGJA598Jup2NCqzxnkBTM0+k6GOtO4+/BhFgEZhPpTdjQ82VZsggRmgnR/6Ux6/+8d0H6z5V15e3iG15oRryvAXzI6irAY7q3HMq1atwmKsgQtmTBTB2GWAscoYPmcD45231O1U+5gFyDAMczqApaWuu+66DvlfjYQwtWZzHLM3LRsu6TCkIx9AEI+TGjAmjexs3CO14RHWcE0f7lPCmYUywzCnEwMHDgwvX77cd3CF75p/IJ/+mGHCwKQSeJKzOSnCMZwbeeFQZV9mGIY5XSgsLFRCmfr0zPPWxQARbtq0aWFpyugj9/O6SvbOhr1qeNzIEUOVEAYQyrBDDz9/iBhdPkwwDMOcTpSVlUX++q//+qiUsdZVsm2zNkLumDp0/uXdUf4lUvB2dHYqQUyQ57kzVShjgD8mbpxo/8GYHQnHPTZ/1ZhYsFaewxRs6qTDMZrKXjE+99mJDHOmAwdx5ChfuIuY6GOZU2b+uYGUeg1/zDQIOt/Ag9zQ6CBntEYWd6CnO5j9hQkbuqeyEwF52CM/vKbnOXgye3zpkym+NZYudbzOqenUGzdnnf3IMIzDRx99FNbXVTUnmKTM/BOucMaoDPjKyMeUbD8gnPv2KVEdg/oY5iDQfSqb/oV1P8ymz+HxUgv082uMMZ068CdMTpD0sbi6/12/tLywUktG3jC7Dv4JskFTZ0mDRVrYx00jX8hm3v2AsyTySAYalPvJzd50czhq0l8WKAvGHz/zrONZDuHIsxwPqWKYzMAfM9ZVdYUzyVnfVbKT5C8DF+BicQKBnTlooQzIpzK56CTBofvThQ9c3YscfOAiLPnH1X004xocJ9+8K1c+5zkwh9ZJKD/NMh4IZdJIKT5MfTYd9GB6MxwE5TouGIKTfOeiLIgX03B1X8gQnndrefcDU6n1FwpePOXu9Gi4/jQnfkBzxvR2gvw9ZHP+wzCM48QI/piNwxn9MYsdO3aEYcrAun/iNAFCEiaChYt+rDRI/IbZ4NfL/8PzpwDBTF7ocB7+cUkbhZ8AhCe7r26DpU9+RzOOeHHUKF/KjkBbueI55XOA0iJ/uxXjU91m9gQIZQhj3eub7gsZmjxeHLnOqoOwh0CHbwa/fEHQmxNCHLeX+wXDMJnBzL9Zs2ZhyFzc5i8jRWOmURvPP/+80pQrKirE6QKEMhy7kN9kWjZId3KD3/racLrgcYR1docw8JJGcWAaM7ybOT51YylpwRFMRQDTj5EGTBimK04IYrxo4OTGNK9kAtetfPpZ9RLJ9qKwaeGn8rR2hjlVOOusswqkUFZyllYx0UkRzHQSwzLQY1hff/p8lkIow5ygC5Nsn/cxw3dxLr6BIXCd1bgdzbFMuYSMiHwB/xJqXba1qS4w8VKBsIaJgkwp2XBMPT/zVsnIhOlq0rm+VXnoYxgmM++8804ck/g0UiSzbYIJ+WNOjhgxovuL7J2i4LMew7nIjqxWzXA/8QGEEj7h9aWgyD+uMyzspZxWHIEQhHCCC024E6VjWNmDOs8QH5lNciGTH1yYLNBZuELauc34IDxHuYt0NjbsUscwvM32giH7+8Kf/jgnV5nV1ROUnVn3xUxr6zEMkx3NH3Mapo0ZQpmEdWj37t2BLy11MiG/zGqUgdQkyfcsfAnjOPzpmkIJpgAIHAjlXNc+w4gL+AT+nmujBTZ/u7maFyAwYdP2E3rIM5YdwmoY5KsZQvqWm//ZOe/6VkYZfyNfDkPli8OMCzZ0CFp9NIhaYsjwv0zgZQMn7OgUxYsItuU7tPIyDJOR0ODBg73OP3KF4Z3UQ7pOjKgDMNTU1FSyZcuW037JAtuKE9d8/e/Ea2/8sUce2WA2gGC0LcGU6+oWOjde/62UTspTCWdl7la1uADblxkmNzDzr7W19ahwFyiRnX8J384/94S3/lRHR8dpMyojE5mWeuquH2Royiuffi5tSaNc0rIBwQehdyoKZaDMNNJUwkKZYXKHfN1LO3PI7fxLWV4qbRyzcXHep2SfqtDEie4CkwcWZg1KkELg+ZkTGIb54oLOP/KVgfkjQpO/VidGosthft6dGDEMw5xpwB9zc3PzcbkLzVl3ZKTI2Lk3bNiwEzrzj2EY5kxAX1pKpCvI1gkmXqBoNHpG2JgZhmFOJMeOHdOXbUozGad1/rlOm0Owf+zbt08wDMMwwXLgwAFvkIVrXwaeIpxpMdawNGUU7dmz53PBMAzDBMYVV1xR2r9//+MbNmzIbmMmz3IUaNCgQafVBBOGYZhTgdraWoEJJq7WnKYxm4LZ83AEU4YUzKfNlGyGYZhTBVrBBBP53EMpS0ulde5J4RzWpHiJVKBP+5l/DMMwJxKpAMOzmZr55x5KEczmqIwQGaQNz0cMwzBMgGCVKL9zfp1/5MyINWaGYZiA0SeYaAuxZp1gokJh+ROGYRgmeLBKFP6HTC/5wmeVbPciMWLEiDPWVwbDMEy+SCQSIX3pPm0ssyKTKaOAxzEzDMMEz8SJE/uVlJR05DSOWTuJTsDE3r17eUo2wzBMwBw/flzJVmMcs4fNUT4dP6HD5Y4ePS7ajxyDii8GDoiIwsICwTAMczpieJcDKVpzytJSJJQhxbFhELTII52dcfHRx/vFvpZPpWA+JloOfCpCyZCIDhko+vQpFqMuHCqGlp0jGIZhTifQfycFM/1MM2X4+sqAYH788cf7trS05MUfcyx2RGzb0ag0ZWjIg889W2nJJcVFov3zo+LAJ4fFoc9iSkBfUXmJ+s8wDHM6oPvKsA2X0wWzuZ83UwaE8ebad5UgHjd6hBh4dsQ73iYF9uBzB6jfhw63iR3vf6g066rKi0X/SD/BMAzzRQeCuba2VpkyXAtFxinZIXe1ViWYJ0yYUPzWW28FPipj4/9728mcoQk37W4WTR82i2u+9mXvGIT1lrqdav/KqjF5tT23x9rF2nWviaaGJlEaiaiVqaPaElGN8via1S9az+lgMdb6bdut4bBI6yvyPKgYf5laLdsGhUMcU6ZcrdbVI7Cg62qZj/ZYLC2OTOdQPpzD4qmZ0mYYJr9IEdtv8uTJGJVBAhm2Zm/IsjklO6kPdt69e3fgozKaWw4qYQtNORfzBMKMG32huuajvftFPlm6dLkSvhOrJ4iy6BAxd+693irZEHhz594nKiovE+WjLhK3z7pTCU+TlSuelcL7JRUH1uvT44DAXrLkUXXuWikU17zwkhL0Jno4pDV//s+8tCgfiBvnV654TtRs3Jx2juLH4rB6+ZAXXPeWvGbJ4scEwzAnHtl/hynZSlPWRmb49umh4w/COiwvKpQX900GzJ82b09u2fq+9Vzjrn3JVzfUWs9t2fa+ujafzJ1zb8rvWbfdmVy39lW1v/jhR5LrXn7VO7f6hd8n59//07Q4pt/8HWnUb+2K8657VVgnjke9fbBx46a0NClczZ82paS1RKYPlv7ncpUXYtvWepUG7S/RzjU3tyRvuG6a2m/4oFHm7VbvXFtbTJ1r0fLKMMyJIRqNlkLGCkc5TlkhWwjLOOYFCxYoCQ4VOx6PB6oxw1YMzRcdfd1l8Dlnq2uxdRd8wtu0WxN9NWpon9AuKyor1O+6urdTzAkTq6+Ux1LjhLaNl56+Qnb1pCvd40KMr7w0JR84PmrUyLR8zPvhXWKivI5okOEqpaZO10ySGi9RKU0SyAfyiv17fjgnpQzRsqib/+1S++5KizTuurp6wTDMiQf+mN3dNG250Ay8cOFCz8Nc0KBjD/SkE6+va/Y4IgVzd0ZoqM/7OfeJsqFDRGxpu1j00/vFihXPiHIpZG+S9l8TCLBl//mkaGltFTNnTPeELOyykUjEC4d9MlEQ+F3mCkKiVApACnftN64RNTWbxQ3Xf0v9LotGxRNP/kpkAuGRpxkzb1G/W1r3qzh1IHzx8olox1HuJUseE/Pm3eXlTX+xEC0t+TUPMQyTTmtraxJuL8aNGydspgyrEyMSzNo4u0Dp6OxMO3bocEzsaz3oe01hYaHoCdA2p069XmnD0F5vmf4d0di4S2mLNqDBQngvWnS/WL3mJWXvBRFDGMZi9lGEprDWgb0XQvWZZ59SG/Jzt3xp+AHteOXTz8q8P5yihZu0G3mBkJ4//0HVaQgtmsDLxcQsF8Mw+aeioiI0bdo0b85IMplqXk6RdrB9uJ1/SWn/CEtzRqCmDNJ6dXME9nc27hH7P/lMacJVlZdYr22LOYND+kf6iu5QrZkEZsycrjYbEGYtUnBBq4SwwkiKGTNvVp1kGL0ArRTno54GvT9NA8U5U/g1NuzyzAkYZYEXBAlD5OWaFX/nmhxSBa/SeGXn3D3SrKELZXQGNjY2eQKXTC769YsXPyqqpalFLyvOm+Yc5HVS9ZWCYZgTCxZjReef2wEoTCuFuUo2qdMh2Jhl519CBAgEL7YDBw87mfvksBrP/KnUlkdeOFQNh6MxzWkFOegI7nwNl0Oh7557nxJ0RJ0a8uYIUQg6fQQFNOlqV6hhH9fBjAGNm8JB2MMUQeEgoMneDBrVsLxStWHfHF0BoVxuCH/EReEo7WulZkwskUIZ15gvoGr5hQCBTuXDf5hrKjSNmmGYE8PAgQOh+Ao/s3GmVbLxv1gq0YGOY8ZY5YZdH4vLK8rFkSPHxeHDbeKS8uEZ7cYwc9TW7RRjR18ozsvjFO01L7woli17UnW0wfYKu/RCadKIuHbiBQ88qIRZpDQiIv1LvXO3z/qBqJ4oNdRvT1fXQcBjuF1DY5Max0xCEsIXQ99wDvEhrjvuuE0NbUPcsfZ2pVHDvGF2LEJDps5JmERqajapfMTaY56pAy8BxGMCswk05lfWviZWrHxW2baRT6StdzIyDHNiIO9yUmNWyi8GXUi92H/NPwmt+SeeeOKJPvv27Qt05h9GZrz48lsq5b+95qtZO/L0CSaTvnqpyDcQmBCg0H5tE0hwDh1/0Qw2XwoHDdlmw6U4oCn31MYLwYqbly0fJihfqzLJRNm+zDAnCTgxkltHbW0tLXideeafdiwcjUZL8uErA6Mz/rz1fVFcXKgmjww8u781HDTlHe/vVsIcZg72l8EwzOkABPPo0aOPQ2N2FeEUwWwb6qBszFj2ZOPGjXnxLocOvIlfGas04dq6D5RgHnzOAFFa2lccP94hOjo6lU0ZvjLYiRHDMGcaGb3LyQ0z//LiXY7Y13JQ+ceAySLF7WdJsbInXzBsCPtmZhjmtELak2FHNP0xZ9eYd+zYEZKmDJFvIHyxwVwBDTkcDovSfn1YQ2YY5rSlqqoKW2j58uXW87YJJkpjXrVqFWaniBMFtGJM1T5n0FkslBmGOa2RnX5i586dSkO2TTBJ8y6XdENIo3Qo6HHMDMMwjMMll1yiTMfwMKc59VSYE0xoeSnlYGPQoEFhwTAMwwSKNBPDjKHsyqa2DEwbM6S3kszSxizq6+vzuuYfwzDMmYjsS1NTsjH7DySdBUq882mdf9oUwRAM1AzDMEywJBKJEKwSkLeaKwwPX1MFpDlc0wmGYRgmUKAxHzhwwNdJXJp3Ofhjxr40ZSSD9i7HMAzDOBoz/mNYsrAsKZUieF0jdIgWY5Vbn3xPMGEYhjnTGDJkSP9x48YdXb9+fRzy1nW5nNFXBv2Hjblky5YtgToxYhiGOdORQhj+jY8Jn5l/vhNMwL59+wTDMAwTLJgjAn9E9NsdM+fJXl0wh1xThvqD9ahGjBiB8B8JhmEYJhDi8fge/F+1apVusfBd8y9FlZYXJTdt2pTo6OjgZZQZhmECQgrm+j59+iQw8o3INvPPO0s+Qo8dO/YnwTAMwwTCkSNH/iBNGWr5Ptt6fyCt8w8z/7TltMO/+c1vzr3lllvelTJ7gGAYhmF6DMwY559//hgpmI/X1tai44+sFCl+iUwnRpDeypER/uPQAw88cGj//v3fFQzDMEyvOHTo0L/179+/U26+HX9C+A+Xo30MmQvv3bu3uKGh4ReRSIQFNMMwTA/47LPPFt94440/ueSSS+KuAyN9qJz+P324HDkxIqS6nWxtbe0YM2bMXEQsGIZhmG7x+eef//rqq69eJK0PCQhlrePP6vbCFMxJLKOtXaD2pdacRC/i2WefveiTTz75Hg33YBiGYfxJJBJ/2bdv3y0TJkz4V6nYxt955x0lV+HASAuWMiIOpPnCMKZlq304zYffjPLy8nBnZ2forLPOKnjjjTdmSDvJ34bD4QsLCwsvFQzDMIzq4Ovo6Ngutzd/+9vfPvPUU08d3LRpUxwKLiwQoksQm8LZw+akKETGaDg00kZoUNjwiBEjwtK0kZRqeYFMPFRfX1/gnk9K4S0+/fRTUVFRkZDHw84UcJoK7swFx9tCZj50+PDh5DnnnCPOPfdcITVxAW9LgwYNEtKerd4ouGb06NHwchdCnNhk2CQcgMA7EzkCwT7+678R77Fjxwp2796dGDhwoJcHnB8yZEgCaSE+pIcNeZF5CsuXTFyeC7tlCSEvuAb5wDWUlvx6UPl340u2tLSEEQ+BuPUyy99YeMCr74svvlgcPHgQmwojX3bhv/zlLwlcU1BQkKB4kfeamhq4CFTnqIyoH1wPZN2hnpKUP4ShMiFe+bUTR33TeQqPPCFO2UNc8OGHHyIt0dbWFne9XqkwSANxIC7k+YMPPhBlZWUJlBdpox3g/sh6UvcG9a7nA/VAbeKiiy4KSa0hibhwv1EfFE6/n8iXzEsY9YLjuC9Dhw6NI03UDdUD7oHsTEGHSpLuI9KhNoByyf6ROMqLPFAeqX70sEgD5affOIfyNjY2qvrCdZdeemkSbZrKRPef8iefB5Uv5FEqMAXUztRTJ/M8cuRIIes5gfC6XwSUA//dsiTGjx9fsG3btjieCzqPvI8dOzZx/PhxVe9ol+5z4917hEMbongpHeSX7iXuD+p3wIABYSq//szIMqiyUDpURtwvtDmUC3Hi+W5ubkZZk1ILDPPz3/X8FxcXJ3AfsS/rKIH75mrKKpv4g8EVsE64+m+aOcO6/DQJZNhBXG9zuvaclDcNhmzlSF9WGhJKSGEdlxlNyMLGjxw5kkCFyP/xo0ePqt/4LwuTLCkpwbHkRx991CntLom+ffsmd+zYgf8JGVe8X79+CflAJGWFxFGB27dvh3CJywLGkQ6uQbyyEpJf/vKXO6UgSaCyZMdk58cff5yQNwRCQ8Un01BvKZnfeFFRUUJWWBzbrl27VDg0YvxHXmV8CdkokScyyqu8yOPIdwIPaDQajcvPEpUHWc6EzB9+J8eNG6fydMEFF8RR/qamJvxOyEak0sWGeFB2PLSoMwmETicaTGlpaaesv8533303cfnll8cRvxRiia1bt0IIQeiodFEfuB7xoQwIh3zLcsTlQ5dEmsiTKxgSspFBCMRlA01CmEqhqq7BdFBcjzqE0I7FYhAqcfmwdqI87r2Myy+iBNJFI0PcMq/qHskGmkBdoNHJtFBedW+QtiSBciIehJGCGw9oHPsonzyHF7pqM259qnC4h64rxE6ZvyTuE8qJMsj70CkVAFV2+RsPgYoPx5BvlAdhcc+QJ9xTlOu9996LU/3gXuJ+yzKqNoj6wX1AuVAnuFdSaHZWVlaiLlSbktdTe1D3BHlGO5SCK3n++eerY5Q/GY+qS+RRnhNoc8gf4sH9RZ6RLn4jz/QsIN9IV4ZR8eBhl2E7kZbMq5DHICQT8hlI4D4i39hQFqSPeyXbJoQ57lMceUAayBfaM+oC1+KZgxBFW8d1qA8qP/KCdBC/FCKdsowqHVnOxM6dO+P0TOA62Y5UGeV+HO0JbQHn5D2II094Ls7E51/ea7RbJf9kveCZwjOnlB8pF5KoU0zBlgJaCWLI1quuukr0BBLIYSmkwzJSCPFCGSFchRZhk4XGf6ycWuL+17cS2mTj6WMewybfSOo62RiK3TD6+ZTwCGOed6/39s3NlqaWbsq+mT6OI036b8uTkYe8bHq5s5VJK7cXzsyfHsZS577x03HLfUhLzw1T7BeW0qewyIeeJ6p3Kq8ePlPZstWjJR5rvjIcL87QhoqNdNKeAzN9n/o376M1nNHGU9qhWe/mb4rP0mZKsrUZ27OTbTsDnv9in63I3QrdDTI07G4hkWqJyA2o/a7qr4SztikBjc0VzEX0IGqC2jtOm0+mM51T11MaFN7YV7+NMEVm/Jb8WTcKi3BGvop88pRSZss1ev6K9Tqx5NvLox6PpX6KjP962YrMes10D/QwlEfjnqbkizbtXJGljlLqS2RutGn3JFNbofSNcLZ8ZLqHaffblrbRln3r3yc/Zpx+cWW8L7Yy6/dKL5fl3mS6R0Vm2bV0sj23XlyUFj//Qn9mKLwnjKHYClcoY59MKvS/JyjB7HYIkpSnRDwB7WrRBcJoJMLQsCnDOEbn6b++716Tcp1eAbqQ0CrBTFs/nvbfuJlmHoso35QXLU+Flmu8/GMz8p9yzsy7WVZLvgqNPJmbGdZ2vjCH+5J2H8x4LPen0CdPZvx+eVNp4WvMFo+tHi3xFdnujX7fjDovtNRBWp7peqMtpcRPm1+dW84VWeozYzsU/m0ipQ1b6qDIrAO97FnStZXDdg/0/NmewTPq+TfaRIG2KYsDCWVdOPcY0po1DTpFe3ZNHAWUsO2cvunHsG8LI7pU/oIsW9i83ozf71pKG5Xol089f5niMrZCn/1ubX51Y+ZZD0cNwnZMz48Rr3ee3ux+cQqfeqZr/eoo0322nAuLrgeAflvT1zQRv7Kl5FU75xs2U1vL5Rr9vJ4/W7u0tTG6xnatJe1Cow6s+dGeS3WNmZ55r/3StpVdbx/8/Kc8T2Htv2m6CHxlKC9iEtQ2ge0WIkw3Cv/1fTPT7rGQLTw2ywsh21ZgpOXt0xvLaETWsHpZbGH0c1q6BZay+m56XfnlyRaP7RyVzS8Ns97NsviUKaTHYTlvrX+/vOd4vW/+hKVdmXVnERL6dQVmHWTKkxZ3ga08wqfdZWpfelgjDwUZ8lTg8xyZ+QzTM+mXV1s9ZgtjO29of2n1eaY//5opOK9CWVCkmhYttMT0DIb0/34F1SrcC0dx6zfcp3F4LwgjvpCZfqbN54aEbGWhBmQ5n/FFZRMgGR7wtLLr6Rp2/5CtHn3q3/bFY+Yn5HM/w373TGiCwBImnOE+hIT9Pnj333I/Qj77tntmy0PIkp533nxJGnWfcn986iStXNmESqZ2IOzt2K9uvPgoTT3tTMLXUldhn/4lvfwhW1sQ/u1PbWfQ828qsSLvaAkLIaxvg5DPJmxvEf2YsS+yhdPCCGGppFzj8cuvm2fhF84vDb8tUzyWc0KP2yiX8AmbKb5ubz5xCJ9zXl1pm8hSb95/y8shpHWUWNO0/M6pjdnCaWmZ9Udkqieh14GtLHoaejp+YY382sprdiD5lVnk0j5t6diexxyeGd9zZ+Dzf9IJZTme7Xw+yJZ2T68NOs9mo7ad703c+n89vd7em56cz+Uas1EHVd8hn//duTbIfJj7mcJ2p30EkddQN/PCzz/DMAzDMAzDMCeI/w9SGu6ClctefwAAAABJRU5ErkJggg==;" vertex="1" parent="WIyWlLk6GJQsqaUBKTNV-1">
          <mxGeometry x="827" y="40" width="358" height="194" as="geometry" />
        </mxCell>
        <mxCell id="zkfFHV4jXpPFQw0GAbJ--17" value="Order" style="swimlane;fontStyle=0;align=center;verticalAlign=top;childLayout=stackLayout;horizontal=1;startSize=26;horizontalStack=0;resizeParent=1;resizeLast=0;collapsible=1;marginBottom=0;rounded=0;shadow=0;strokeWidth=1;" parent="WIyWlLk6GJQsqaUBKTNV-1" vertex="1">
          <mxGeometry x="550" y="60" width="160" height="340" as="geometry">
            <mxRectangle x="550" y="140" width="160" height="26" as="alternateBounds" />
          </mxGeometry>
        </mxCell>
        <mxCell id="zkfFHV4jXpPFQw0GAbJ--18" value="id:String" style="text;align=left;verticalAlign=top;spacingLeft=4;spacingRight=4;overflow=hidden;rotatable=0;points=[[0,0.5],[1,0.5]];portConstraint=eastwest;" parent="zkfFHV4jXpPFQw0GAbJ--17" vertex="1">
          <mxGeometry y="26" width="160" height="26" as="geometry" />
        </mxCell>
        <mxCell id="zkfFHV4jXpPFQw0GAbJ--19" value="statusRus:String" style="text;align=left;verticalAlign=top;spacingLeft=4;spacingRight=4;overflow=hidden;rotatable=0;points=[[0,0.5],[1,0.5]];portConstraint=eastwest;rounded=0;shadow=0;html=0;" parent="zkfFHV4jXpPFQw0GAbJ--17" vertex="1">
          <mxGeometry y="52" width="160" height="26" as="geometry" />
        </mxCell>
        <mxCell id="zkfFHV4jXpPFQw0GAbJ--20" value="statusAdditionalRus:String" style="text;align=left;verticalAlign=top;spacingLeft=4;spacingRight=4;overflow=hidden;rotatable=0;points=[[0,0.5],[1,0.5]];portConstraint=eastwest;rounded=0;shadow=0;html=0;" parent="zkfFHV4jXpPFQw0GAbJ--17" vertex="1">
          <mxGeometry y="78" width="160" height="26" as="geometry" />
        </mxCell>
        <mxCell id="zkfFHV4jXpPFQw0GAbJ--21" value="progress:float" style="text;align=left;verticalAlign=top;spacingLeft=4;spacingRight=4;overflow=hidden;rotatable=0;points=[[0,0.5],[1,0.5]];portConstraint=eastwest;rounded=0;shadow=0;html=0;" parent="zkfFHV4jXpPFQw0GAbJ--17" vertex="1">
          <mxGeometry y="104" width="160" height="26" as="geometry" />
        </mxCell>
        <mxCell id="zkfFHV4jXpPFQw0GAbJ--22" value="destinationAddress:Address" style="text;align=left;verticalAlign=top;spacingLeft=4;spacingRight=4;overflow=hidden;rotatable=0;points=[[0,0.5],[1,0.5]];portConstraint=eastwest;rounded=0;shadow=0;html=0;" parent="zkfFHV4jXpPFQw0GAbJ--17" vertex="1">
          <mxGeometry y="130" width="160" height="26" as="geometry" />
        </mxCell>
        <mxCell id="zkfFHV4jXpPFQw0GAbJ--24" value="expectedDate:Date" style="text;align=left;verticalAlign=top;spacingLeft=4;spacingRight=4;overflow=hidden;rotatable=0;points=[[0,0.5],[1,0.5]];portConstraint=eastwest;" parent="zkfFHV4jXpPFQw0GAbJ--17" vertex="1">
          <mxGeometry y="156" width="160" height="26" as="geometry" />
        </mxCell>
        <mxCell id="RhfSra3kzSBtpRzGON0T-4" value="orderDate:Date" style="text;align=left;verticalAlign=top;spacingLeft=4;spacingRight=4;overflow=hidden;rotatable=0;points=[[0,0.5],[1,0.5]];portConstraint=eastwest;" vertex="1" parent="zkfFHV4jXpPFQw0GAbJ--17">
          <mxGeometry y="182" width="160" height="26" as="geometry" />
        </mxCell>
        <mxCell id="RhfSra3kzSBtpRzGON0T-15" value="status: OrderStatus" style="text;align=left;verticalAlign=top;spacingLeft=4;spacingRight=4;overflow=hidden;rotatable=0;points=[[0,0.5],[1,0.5]];portConstraint=eastwest;rounded=0;shadow=0;html=0;" vertex="1" parent="zkfFHV4jXpPFQw0GAbJ--17">
          <mxGeometry y="208" width="160" height="26" as="geometry" />
        </mxCell>
        <mxCell id="RhfSra3kzSBtpRzGON0T-61" value="isFavourite: Bool&#xa;" style="text;align=left;verticalAlign=top;spacingLeft=4;spacingRight=4;overflow=hidden;rotatable=0;points=[[0,0.5],[1,0.5]];portConstraint=eastwest;rounded=0;shadow=0;html=0;" vertex="1" parent="zkfFHV4jXpPFQw0GAbJ--17">
          <mxGeometry y="234" width="160" height="26" as="geometry" />
        </mxCell>
        <mxCell id="zkfFHV4jXpPFQw0GAbJ--23" value="" style="line;html=1;strokeWidth=1;align=left;verticalAlign=middle;spacingTop=-1;spacingLeft=3;spacingRight=3;rotatable=0;labelPosition=right;points=[];portConstraint=eastwest;" parent="zkfFHV4jXpPFQw0GAbJ--17" vertex="1">
          <mxGeometry y="260" width="160" height="8" as="geometry" />
        </mxCell>
        <mxCell id="RhfSra3kzSBtpRzGON0T-5" style="edgeStyle=orthogonalEdgeStyle;rounded=0;orthogonalLoop=1;jettySize=auto;html=1;exitX=1;exitY=0.5;exitDx=0;exitDy=0;entryX=1;entryY=0.25;entryDx=0;entryDy=0;dashed=1;dashPattern=1 2;" edge="1" parent="WIyWlLk6GJQsqaUBKTNV-1" source="RhfSra3kzSBtpRzGON0T-4" target="RhfSra3kzSBtpRzGON0T-0">
          <mxGeometry relative="1" as="geometry" />
        </mxCell>
        <mxCell id="RhfSra3kzSBtpRzGON0T-6" style="edgeStyle=orthogonalEdgeStyle;rounded=0;orthogonalLoop=1;jettySize=auto;html=1;entryX=0.75;entryY=0;entryDx=0;entryDy=0;dashed=1;dashPattern=1 2;" edge="1" parent="WIyWlLk6GJQsqaUBKTNV-1" source="zkfFHV4jXpPFQw0GAbJ--18" target="RhfSra3kzSBtpRzGON0T-0">
          <mxGeometry relative="1" as="geometry" />
        </mxCell>
        <mxCell id="RhfSra3kzSBtpRzGON0T-8" style="edgeStyle=orthogonalEdgeStyle;rounded=0;orthogonalLoop=1;jettySize=auto;html=1;entryX=0;entryY=0.25;entryDx=0;entryDy=0;dashed=1;dashPattern=1 2;exitX=1;exitY=0.5;exitDx=0;exitDy=0;" edge="1" parent="WIyWlLk6GJQsqaUBKTNV-1" source="zkfFHV4jXpPFQw0GAbJ--20" target="RhfSra3kzSBtpRzGON0T-0">
          <mxGeometry relative="1" as="geometry">
            <Array as="points">
              <mxPoint x="720" y="151" />
              <mxPoint x="720" y="140" />
              <mxPoint x="790" y="140" />
              <mxPoint x="790" y="89" />
            </Array>
          </mxGeometry>
        </mxCell>
        <mxCell id="RhfSra3kzSBtpRzGON0T-9" style="edgeStyle=orthogonalEdgeStyle;rounded=0;orthogonalLoop=1;jettySize=auto;html=1;entryX=-0.008;entryY=0.149;entryDx=0;entryDy=0;entryPerimeter=0;dashed=1;dashPattern=1 2;" edge="1" parent="WIyWlLk6GJQsqaUBKTNV-1" source="zkfFHV4jXpPFQw0GAbJ--19" target="RhfSra3kzSBtpRzGON0T-0">
          <mxGeometry relative="1" as="geometry">
            <Array as="points">
              <mxPoint x="780" y="125" />
              <mxPoint x="780" y="69" />
            </Array>
          </mxGeometry>
        </mxCell>
        <mxCell id="RhfSra3kzSBtpRzGON0T-10" style="edgeStyle=orthogonalEdgeStyle;rounded=0;orthogonalLoop=1;jettySize=auto;html=1;entryX=-0.003;entryY=0.412;entryDx=0;entryDy=0;entryPerimeter=0;dashed=1;dashPattern=1 2;exitX=1;exitY=0.5;exitDx=0;exitDy=0;" edge="1" parent="WIyWlLk6GJQsqaUBKTNV-1" source="zkfFHV4jXpPFQw0GAbJ--21" target="RhfSra3kzSBtpRzGON0T-0">
          <mxGeometry relative="1" as="geometry">
            <Array as="points">
              <mxPoint x="730" y="177" />
              <mxPoint x="730" y="150" />
              <mxPoint x="800" y="150" />
              <mxPoint x="800" y="120" />
            </Array>
          </mxGeometry>
        </mxCell>
        <mxCell id="RhfSra3kzSBtpRzGON0T-11" style="edgeStyle=orthogonalEdgeStyle;rounded=0;orthogonalLoop=1;jettySize=auto;html=1;entryX=-0.003;entryY=0.598;entryDx=0;entryDy=0;entryPerimeter=0;dashed=1;dashPattern=1 2;exitX=1;exitY=0.5;exitDx=0;exitDy=0;" edge="1" parent="WIyWlLk6GJQsqaUBKTNV-1" source="zkfFHV4jXpPFQw0GAbJ--22" target="RhfSra3kzSBtpRzGON0T-0">
          <mxGeometry relative="1" as="geometry">
            <Array as="points">
              <mxPoint x="720" y="203" />
              <mxPoint x="720" y="190" />
              <mxPoint x="790" y="190" />
              <mxPoint x="790" y="156" />
            </Array>
          </mxGeometry>
        </mxCell>
        <mxCell id="RhfSra3kzSBtpRzGON0T-12" style="edgeStyle=orthogonalEdgeStyle;rounded=0;orthogonalLoop=1;jettySize=auto;html=1;entryX=-0.008;entryY=0.83;entryDx=0;entryDy=0;dashed=1;dashPattern=1 2;exitX=1;exitY=0.5;exitDx=0;exitDy=0;entryPerimeter=0;" edge="1" parent="WIyWlLk6GJQsqaUBKTNV-1" source="zkfFHV4jXpPFQw0GAbJ--24" target="RhfSra3kzSBtpRzGON0T-0">
          <mxGeometry relative="1" as="geometry">
            <Array as="points">
              <mxPoint x="800" y="229" />
              <mxPoint x="800" y="201" />
            </Array>
          </mxGeometry>
        </mxCell>
        <mxCell id="RhfSra3kzSBtpRzGON0T-13" value="" style="shape=image;verticalLabelPosition=bottom;labelBackgroundColor=#ffffff;verticalAlign=top;aspect=fixed;imageAspect=0;image=data:image/png,iVBORw0KGgoAAAANSUhEUgAAAWYAAADWCAYAAADimyjXAAAACXBIWXMAAAsTAAALEwEAmpwYAAAAAXNSR0IArs4c6QAAAARnQU1BAACxjwv8YQUAAE45SURBVHgB7Z0NdFXVmff3vfkCcqOAhSS8YaSQyqvUhDZ2VQLL0uqSfkzVEUuX2JG2Vpzi2CX4SrW1ULB9rbR+TDtgxTWdwjva9YIw1TVrFKst44C4Vs2SoMFXTRCFkgTkq7mRr+Ted//33c/JPvvuc+5NchIgPL+1bu7NOfvss88+5/zPc56997OFYBiGYRiGYRhm4Inpj/qdTqdj5rf+xH/84x/HsQwf/MaH1uHb+F/lJdMJMy/6bW6HNOZ62oeVT8xOR+WhfZvHQfnT/s1y03Lj2yxz3HHcMTt/vV7YdePYJuvYHfVrllVYxxSUvzDKK4zjE1b5RcCxxIz6986VXT77XFF6x7EIq97Nbc2ymts5y2bszzwu38d1Dqj+qE5D6ttL77jW7DLY9RQPSCsCzrNZJvNe8M6zvY1dV/q8CNc6+/jsa8faj6u+hev/c/3+FxHQl0xQoHQsFlMHdckll8R37twZmzBhQmzEiBGpKVOmiKamJnHhhRfGnnvuOTFt2rT40aNHuz/66KP4xRdfnE4kEun169fHqqurxac+9al0MpmMvfvuu6K5uTkt81Lb4f+urq4Y0r///vvq6E+ePKnKWlxcnJ4xY0b6j3/8Y5z+xze2e+utt2K7d+9OI2+Zn/ja176Wfv3112Pnn39+6tixY7Hhw4ertLI8alukQdqqqqrY/v37U3a+KDN+FxYWpik9jhP/U3kJ1IH83ysLvnH8yJ/yQtmwHOVCHcyfPz+1ZcuWGI6Nyoj1VIfI80tf+pLA8r1796ZRX9iurq4uNXbs2Djqhupe5p2S+1L5HDx4sOAzn/lM6s9//nMc36gDlFemi+McUb6oZ31caZln2shT4NhQZhwryo8yYd/YDseFMjQ0NMRp30iP40Ad0THiG+cX6anecAw4NqonXA8oH/7/whe+kHrnnXcKcKy0T2yPMiHvT3ziE2rfVCc4ZyjzmDFj1DFS/aDO6Rya5cb1QeeTyoH12BZpqfx0TWzevDlF1zydR6TBN51v/G9eq6izq6++upvOK9Kax2lel8gY5cB5ovOn8/b2SceBa1fWN44jZtS/Jz507eF4Ro0apX4fPnw4ht+oU2yP8qEs48eP9647Ol7zPkK9on6p/NgW/6NcuIbo+PA/ykz3Bd//PedAflJS0CGVKamVWOw9IfOhMN+E9NSeM2dOfMeOHRccP3787+UOZxYVFdXI778RDMMwDB4qb0hN3P2DH/zg2csuu2yN1M5uLJfL8hbnfC1mZbbfdttthQ888MD1o0eP/rVcNlIwDMMwgaRSqQ86Ojp+et111/3mT3/6U94CnVOYYSnDSt61a1f85ZdfflS+riwQDMMwTN5ID8P/lm6opdI91g0jN5c45xJm5cOS/qwCKco/lqL8A8EwDMP0mhMnTqz89Kc/vUj64E/h/zBxjgetIJ8yWiSlCf4tFmWGYZi+U1JScrtsXLz+85//fEEs0yIYaBg7hTnT6SIGUY7t27cvVlpa+kPBMAzD9IuxY8f++r777rtA5Oil4RRm3b0D3YXiv/jFL74Vj8e51wXDMEw/kdp6fn19/d/PnDmzwOj7n0WWMBsd0oVsTYxJ8/urgmEYhomEgoKCmdDWZcuWmQOAfGQJs/Z9wI2hOvHLTGoFwzAMEwmFhYWX1tXVKY2F3BqjUD1sYfYUXLYcYmRPXArzeMEwDMNEAlzDq1evLoQwa73NMpuzRv6Rfxl/JkyYIBiGYZhoqaqqUsav1lvCE2ifxZy2HB67d+8WDMMwTLSMHz8e8TQ8vbW11yfMpn95/fr1bDEzDMMMAHv27KHIfapbsm06ZzX+IRE+M2fOVFGzBMMwDBMp3d3dnhGMj41LmPGlzOry8nIWZoZhmAGAQuO6cA0wSZOC79u3TzAMwzDRUlBQoOJSk8Vs92e2hTmtXRlizJgxaflhi5lhGCZi9u7dG+rK8HWX0zEyIN2xAwcO4NOrqPsMwzBMXsTydmVgiCAsZvof5rZgGIZhIqWqqioF45fa9OwQoLarwhNmfMuNi/fs2fORYBhmwGhv2y82bXpRTJ9+uZhUPdFbvnHDMyJRWiqu/uJVonH7G2Lr1ldFecVYMWP6NPVtgzx2yHSgZuqlYtasq3z72CDz60wmRWkiIWbPvtbLg/Zvc71Mk0iUqn03Nr7hW4flWA86k50q7/a29qy8AbZ/Qec/UR6fWf7e5l1be6mYPuPyvI4rrL7Dtgmrx6iQQpyYOXPmCflJLV26NK2N4pS33k4vMuKshLmysrJENgB2in6CA0VlhHG1PPiKHBXKMEMRiNNdi+5V4vD46l8pYQI3zb1F3ROLFy+Uv78t75ErpYi9KSrKx4qHHnnAl8eqlU8oIYewJ6WYQcgW3H6rEjjce/Pn36HSVcv1zc27lOA9vvqXKj3t3+bJp36jyrR2zVPqY4LlWI+8F8ltsT/k1Sa/kfdDDz8gaqWo4d7/+YOPSgEsVfvGvszjpHK78qY6oLxzHZedtwvXNkiLbbBtWD1GSX19/Yht27YhYH6KBpeYVrNrMlbVACj9H+Lll1+OpPHvhedfynoq2uBJyMLMnMtANCCAEAKT7Y07lGgs/v5CZTUv/dFPfOshIBATCDfS4P9vSCGHVQhB2bplmxSfhFi+/Ic+IUZeSkzb21U+JMQ2bbJcpliaNLfsUuK1ePGdnmWPvGEhQ5gbt7+p9gGhhgCSyLfIhwPWo6xBeSMNIGGk40K58X/G6u0U/ya3rTAeIK9s3aYMPRe0DT2UqD636m3MegR4MCDPqIUZwMeMgXzACIWhxLkwYAPV+BePxyP1MUN8cTJM7Ccxw5yrQLggDPbrekV5uSfaZBXa20HYSrWVCOHJLE+o7+tvuFZ9iJaWXTrfsb70sKTXrnnS4epol8JX7r3il8vfeL3HepTV3DdRqve9+Pt3esuwH+wDaZFHrrwhnE8+9S895ZbbQpwnTcq4e26eN9dXTrKSE6UJEYS9TVK6MzLblAbWI5U1SjDyr6SkBN6JtB71lxZGrAxTmJVkw6qeM2eO2Lx5c1q6MkSUQJRRMSa2MNPJQyXhhD0vTxiW2aKOC7VNn1SqZNqW9mWCCxpPd1de5r5pfzj5eNVB3ma+LnAB0UVh7gd5mDcYrbe3oWPB/6aPEXlskdZOe3vGYplaW+O7KcPKlauuUA4sm/XFq7L2pV47ZdlddcQMHLDYYMH9fMUj8tr7lbcc5wEW6aYXXhIVlWPF3dqaMzGvi5UrVysBW7bAb3mbLgns62p97pNagPAaj/xbZBlg8dLrPcD1gnS4RjdtekkJKUQM/5vX8YoVj6ptbAvzroX3em/Ny5bf53s7DsrbXE+uFtxT9EZh7huijfKjrur1PUf3mlmPrm1wz1Fd2PWIB8ftsrxRg8F7UmOhs+Zip8UMV4cK3ozgGuj8PG7cODHYbJGvFPBJQTzbpEigYgiIOgn7GnmB4eIxl6EiX5AnFrz4x/9Q3xCcJfJVxXal4ATDT0cnCZYKTpIJTtJyeVJw0bh8cAT501Y8+Ii3fzOPhx/+mXfCKR/axjyWWfIVim46/L9Sloee2q46oLpyYfra7Loy/XoQZvK72fvCzWtaPMzAgnMFd8Nt87+nriUCArJJX1dtrfvVubPdHcC81nHe7AdrvWxcLJdWMtbjeqiu/rgSUNwLuC6onYeEcIPeD4wLXJskXiTwSEf7IF8zdOUheb3bbsm/R/7yXt644VmxdMlPvOs/n7whnHfLB5N6a1j7lBJ508eO+sG+kW6ZIaLmPWu7S2gb1Pkyh/DSvYx6qbeMq4HAnjnb58rQfg7Vjxk+ZinOp627HC4eXEgL5FMfr150woKsXTxlbVEEEGvkhRMz+/pMK/Oatb9TecK3hBOME06ijAsVreO4+GG9YDn8TSSGW7e8qrY1rWG86qxV4veSsjbn3TxXLVu16gn1YMFJthtrwkB5SJRRB7OUJbVN5e+qAxJ/ACsYFz7ycPnasBzHhnxvv32+WrZK1hH2RceuLAlZdty88+bNzdnKzUQHxAXXPOofQODgkoAlS7gatnD+IDQ4dxBl87ybb0d4C8Q3riXyQav9yuuZxLRCv7p36tf80tJS3+u8+YYKwkR50/Mvqvymquv1UvXb9EGH5Y18t2/fIbet8d7scC/j06793shnhTROTD82ATHvqbMe9waJMspiW++ARNmuxwHA01crhlHWABPVlxlxQvE/YoaeLpT1cH/mSQYBpG41EEtbmDP+t98pUTStPli6JNZo2abtyvXFQSeYugphPVkiONG18qKapN0ZJMxoCIEww9ow3TJk0dwubyp6+mNbNFaoi8mwAAD5+TLlb/cdzybtTlEWu1EHAMej/JBWHdh+NrWsPNs3tkFbyqafbZncBy5W043SU4dJUS5YmAcT+INxndNbHs7T3YsXhm5DopzpGbHfc1ngGkU+qsGt5T314EXeAA94QIYP0mKZdz/o9bjmkOa78t6A/xb3GkDXN7NXBhrNqFsc/NdX6wcA9n+3FDlsS29q+eSNh8nPV2TenlE2uAjJyMIHx7FCvzEijZk37g8ScxMSZXJpUnnJ0CJRtuuRug5GBUb+IVAcXMb4X1vM7sY/PTO2spTRAHjq1Km4OE3YIqFak+VJoae4yRrZYIEL42ZpqeJVh2gx/K+mkJGvCcLdKFu823RXPmoMAaov5Q35tcTiAiJxrZVPd6JCXUDlal27avnuKYPtNvHnlynP1Fq/+KLcuGiaW/x+ZdwcN914i/qd7Ex61q8t3tQiba/DMno7IP84kUz2u7ck0wfg0voH3a0rF7j+6FrHt3ndQ9BwvtuUG+GZHvFS7T03qd+03mzvUa4NLWwoCwwZcpvBAII1ies70xU2c+2bb6zIH9vb29L+8sm7QhtEKBe5JSDI5Howj9PscqceMAHtI7jO6fo2t4E7BcJMx2DXI95aoxRmGE0LFixIWz7m4O5yaCWUXzH4mGXj32lzZdiCECQQZElnLoQrfcJsViQ1Ltj5ZazKN5154wSW9vNkdHqtvv6WYlgX9MpI7pHceflb2wkc1yx57AA3GC4u8lmbDzg06MFvjwuyetLHvZtjvvRp4uZCHcINM33GNNVvFlQMQIs04wf1Tm0iBETp98/+37y2xzmytzdJKLFbKN8G5yuxMRuBzfUQalyvMCbMe6VC+Wf/xRMqcz0EK2wARti2+aynB4ur3GZ7S77k2iasHqNk9OjR3dRVTs/9Fxwon/o5I6E0s0Vra6s4XeBEmINS6LXOtqRpuetVzzzJ5tPR/I384JYAeJqSYGP/117zdfXJZTVWGPvZYOQNwaVtJ1rlxsVMF4l9TGZ5zDrYIBtOVJknfdyXHg8Pygs3GF5XqW+rCbXuA/gwkYY60QP4NvN9S2DOPnCN4hoIajOo0F3UgixDrAtbH0aubcPW5yr32Yi0lOPokozfOrqcz8nsdGWQMJ9uFi26R4rMNC3S7erE1Mv/bSBIuKjaLF8tTijcGxAh6tQOyMeG7ZAGDn6IHvZxm3x9hAthi04DkcvnQqT9bNTDR7EN5YEnfm8Gz5jlQR2gPM3SP0h1QK+gBCxpNLIAdHfbrh9WpYns/py4wOFbwwNto278IbcO6giNghs3Puulb9P7ZBgmOmT7nWkhZ8XKyHJlYNy2bPyDJR15P+beAAGBQ56sPvIt2QJnNsy5gAWY7OxUjXMkyKrnhH5FAhAmtOjepRsxNrW95JVhge65kAvsh3p8mPvpy+sWlQed/eGWMMuDNwO7DiCqaCQhSrWFEbRfLMexkjDDUkb/U5QbH4gz/O3UAMX9mRkmWtB+h9DK+t+Y3V0uMFYGema8/PLLw9ra2pJiEKGx9RADiBNEh3oo9BdyC4TlRfsrNTqi93U//cnDLg8YSMs1iuNmGCY/xo0bVyo/pxoaGrr1osCRf9Rlg1wZsfb29tMe9jMRoVDkI2xR7C9KAU0MklAmWJAZZtBIpVKxsrKytBEkP6Y7XijsWbK9aProX1dXVycYhmGYaEEcIuoqp9v1QuMxq21oXVRhP3vDYL26MwwTLaqPcEfS64bpirXsCu9rxlx2xT+mAEe54i2HpaOY0LnWhcV7jjI2szSCS9etW3dizpw55MII7i4ntH9Z6CHZp2POv4SKPDWWRZlhzhIgrBichA8CLREQ6pbm3P3zMdouqcIPTBOvbOkZzQcycV2eVevQ9x69puzgRJQO3VORDhqC3kzUVVWNEFzxiJfHXXIdtQPZ69CzCvkAGtVIPbcwKtHugtpX0LFCijJ0VrXrGR9Flo9Z6HjMgmGYcwqKqYEBTGQ1Zvri+9v/MQDJbI9AXJdMiIIbfaP/YAG7RqDa+8Ro02U69ADSIoxBMnlrZvYUBGRafKfX1x/dRl09hSCw6CwAaxxlx/8UK2bj08/ogVOZY8IgKwrQ1Pj6G7516E0M6xn/Iw52be0nvd5NKAfi0EQRmxkB4iZPnix0wDhaHOxjpkBGPBkrw5w7wBKE5Yh+8AiYdZMSx041xB/L1q79XSa2jPyddEQ8dIkVDWCCCKKPvGsWIxV3ZlLPACs1mES6EyCq6v/SUi8ODSxzCLkZOoHA6EHTRaIC8OtYMSog2oye8Q8U3gEs+Mee2DaqPM3veUGVYL1PtUI5gFyzMeWDdBGrb5rzz15vj/zzrGUKrsEwzNAHA5oQGY5Gj1JQIBqhCjH0fltuxqDBUxg/gDzQO7dND96yXRsq8L018hW+XhJ/lAVijBG4c+XDgmJwhJGJwPhJlZYGnZkWPkbOJh0xd1A2PJToIWOKu1k2eyBbX8CoatJYaK72VnjYs2THqVcGfMwMwwx9MvP0JX0CC1Fr76cAYTQsghRh8BUEFoLn8tGGhTyAjxduBcRSRnxxiGeYnxeiDDdG2MAwl8WrgvxL37Y9iK3TUbYoupXqwXuqTQ+D+uz1PmFGlw1tNSPC3GmNlcEwzOmjM4KogplZiHpEDg368O+aYJltRavJVydN1I18aS90AkWb2xAgzPANo2cGxJXEk+LYmGKMOQ7N4FzUyIfQpNWG9Q6XBs2HCCiuTBRTTcHHjLAXRj9mH6Ywx+wBJqdzSDbDMIMDRApC+IKOt5LpvvasFzO5r6ChzOxBgd/T6zONbBBXCB1i4SAkLgmnmgatPRPpEC4OCpjv5SF9wySqmZCj+728MVOPa/aUTOwZI4jZ08+KWVdf6e0PojxPNlxWZwUau9IrJ6Dg/lFYzPAxd3R0eJ0swgLl06SAKh3+YHSKiACaRNHGDuPnmg8vKK+guf7y2Yc5Jx/N6xe0f3t/QfPz5VN2VzcfusgoT3OeQ5qUMui4zeVUnnzmCaT1qryOeQmZcw+KiwxBhjDOMuYE7CvoJbFkyU+VfxoxxjELC1wMuF4fW/mEqJT+W0zbBJcHurdh0lmko5l1cE0jjouabUTmoa7zslIvkiS6r3Ve36lcJUvkQ6BTz6JNUJwafDBdlzeZa3VPyFvqPw03BnXTo2moanW/ZfjGEbYXDaEP6ZmC+os58g+TkwirATArVgYc0UiM/nW7du0qee211zpFP8EU4EH+KpqaHFz1hb9V3+Z8eDY0qaMZHMicrNHGnB6GTo6JOSefa/+0P8qHprgy5+czJ7kMKjuE9xtzb3GWj2ZKCJvnkObpQxpzmiqqW3TlQZB+e+4+mrdwkjXbhAnE+fEnfikYBtdI1PFSWtTkyomcMWrITeDadz55RFGOsLK5ZvjpK9IGHiE19iR+r1u3LhUajxmYPo+GhgYRJRDhjBP/l54Yb4igwzb5gWhSyZvnzc3yA6lg9PLEUJQ6CGhmdpFM9yDQl4ux3Zh+Jl/MJ/kko6sQHgAIM4ryUf3QxJRYTmno7QPLKcQoLACaoQT1jIDfyIPm+ANkHSB6HI4fYo5t0WUpn4EAzNCnXM0xGG3MlEnGW2kQ9MYXFq+5v4PO+pqH/XYcBXV1deiOjAlJ0tpiDo7HDCgeMxr/ovYxe6P6xFhRofsRJhwxg3sLWYh4JTetaNMyxDrMCJFxB2RcEng9QhoSOuqmY08DFQbNZkwxjfPBDsdJYUJRNzTnoJrnUNaRmuJGCqfqqK/jKMPXhf9pbrZ6LdrY1jV7MsVlxjrat+q8v70nDU8hxTCDxwcffIBA+d7/6HRh+pmdwgzQ+Nfc3BxpX2aMEFrz28xkixC/oKnD4S+iqZgyT6uPS+f8TYFPO5ojL9eTnsbEb1dzB2YLEc2OjUaE5ub31LLmkCmfkBZCCZE0Zz/pK/Y0TrCmzbnH4CJRE9JK6x/7bGzMTInlGr9PLhgcE4lxp57VxPSzMwwz+BQWFqbQKwOBjHSXOZ+fOdSV0d3dHenQbMzEgbnp8MGrQaYRYHVWOogJ0sBqRCd1DPMky9QFCZfpFrCBdYlWYogygpjgVZ7cA4SagFL6jmlaJohtUAXgYQABzxWovzfYwu5NH68tXnJvkDjTjCYun3bmta1cHQO5MlbKuoZrBHWKYahwKUXR9YdhmN4xefLkFP3OOecfJSJxjqpXBkGuBnyWLf+hWuYKdEIjjMxXcztKFQGXBE1pHjYm/4XnM8M6IcpBs+jSpJTPSJcHfLQY5hkk9o3a6obAReWTU7Npa+tf9TRpyVjt1XqOPxquCn6+IvOgmm5MtQVLmHz2qDea34+EmeIY0Nx+mV4cgzoPAsMwko6ODqW9OohR+Jx/BM35F3Wg/O1SOGjkoSm09tx0EGsa9kjzz7ncGLCC0VuBwOs7QS4IdP+BuCrLUO5zkwrvV6qHX1IUqb6NcIJ13d8uRSawmF1z/NVMrfHS0LRQZF2bMQowPVS7nsoegk2NmjTTN/nBIdQ0mzbl0xu/OsMw/QMdK6QoI4CRCmJkDzQJFOampqa0NWFgv4EQmNGnIJazZ1+T1SHcHHJJ89e5ZsGGdUl+Uvx2BknRfRchaCoIixQk9KGEtQjLEWH+2voQlMQ1KWp/UTMFS+uYgra45jmkDu44Jvw219G8hWY9I8+7teWMvMy5/bA9Gg5fkb/hU796lmAYZhBAxwo9S3YmpKfV+GeDNYiXATO7oKampjR9BrPmt0+mr/z8V9LbX9+R9/q21nb1OZOgci5aeI/6v6MjGVrGuTd+W6Xf9NwfnOtp+6A8zsQ6YJhzifLy8lLplYBhHBdWLGYQaDGDoRj282wIwO+afw+Wf7N2v5DrxXRx5NrehCchYJjTixW1DuEwArvL0Uq1FtHl3n777TM6YD78q2goLA0QoVzrzybguvj5ip6ZHVzhFxmGOTsYPXp095gxY9JmZwsTn/DChWH0Y45v3ry5RGo1N9sPMPnMc5jUQcIRR9aeQYJhmLOLyy67rLSsrOykjsmc1kax56HIipVByyDQ69atGyEbATsEwzAMExnjxo0rnTx58klpAKeMGbI9YXb5mLEyJgU5dv7553cLhmEYJnJgLWPkX1qHWzbJmlpKaIsZkwTu2bNHMAzDMNEi/cvKO6FH/fnCLQN75J/Xrw4W8969e3m2bIZhmIjZsWNHGoP4gKvxz+fKgHCTWb1+/fpYXV2dYBiGYaKHemUYBAcx0rFBVSK2mBmGYaIHI/9g/AatDwxihLCfRUVFKcEwDMNESmtra4xcGQAzR5nrfa4MPa0UzOsYAmw0NzeL/tK9e7c48dprznUln/ucKBgzRvSHkzLvLrmP1IEDolt+zl+yRDAMw5zJSItZ9ciw8Nr4fMK8dOnSdNTxmLs//FCc2rkz8/v999V3wYUXqu/iz3xG9IfONWvEiZdfFsWXXSZiI0aob4ZhmDMdaTGr6HLr1q1TQhw2Szat9FJMmDCh37EyIJYkmEeXL1cWcuK73/XWw6JOffSRWn7iz38WsdJSMUxa0iZkFRdOmODlBbHH8pE/+5m3PcSZ0hd87GOiQKYHsKZPyvSUL7bFJy63oWXH/+u/sspeIh8cyJPS4zeWxbWVn5b7RZmJIvnAoX2aYFuUn/Kk7bG825heBuA4ii65xDuOVGenc52rTKjLU/rhZ2+Dsh5Hn0n5bdYjwzCDDwaWILqcBO7klO504R5gQj0yjPHbA974BzfHCSmKKBGErUsKC/4nlwTEHMIKcemUy09KIYSwQ5Sw7IhcD5BmxA03qM+ppiZxTOZDeRz7z/9U+UKEP3r6aXH8ueeUMGE/x+W6kQ8+KLq0VQ+Bxrq4fEBAwLpkXsm1a9UyiBq2HyXTA+xbpZPlhogO+9KXxAhLmLH8r7/4Rcaql/93yrxQLpQd+6fjABBvPJio3NgXhBfiSunwMY8Bwn5M/kaZ8HbSpR8CKKsSZLkttj+iH4pxmR/2271/vxj+5S8LhmEGH+kmRndk/FRjR+wZTFwWM7k0YuXl5YPSKwNWIcQRwgGhOXzHHZ77AyJjr4P4puU2ENFRv/qVJ1wQcYgRXCQQK4iTsnjfekuJJsRbCaveBnkc/t731MOBrHjkCcEisYSolt58sydiycceU9Y3BBnbj5R5gaP6AWGTlO6W4XLfpfPmqf9jcnuUgcQX+6F9YzkdN9VLmdw30mC/BI7P9M8fuuUW9cDCMog15UP5opxl8jcdEx5GH8n6YWFmmNPDqVOnYCl7YhwWXc5r/JszZw7FCB0UYJmSyCirTn7I6gOmKAG8rpNFSNvhN20HwcFviBWWYxm+yW1g5oeagQtAOF7tkV5Z61OmeMtI7CB8yj0ghVyJvC6rDbY3femFsJSlWOdDynJzELB68RaA8mG/prvDBaxwpD0hj7tbN5IyDHP6iMfj6fnz58dXr17dbUT1dLsyqEcGvnXYTzEYZIma/F9ZpCIjKmWGT1roZRDTLsufKox84LaAaMJahBWpBFyvh/Ua1/5oys8FpYGQFeoGS0JZutKahcjjIaAEOMBvmzKPrzO/manTOp2r1wrcEtgXHkDKTXHPPaF5oR6OSSsaxw3fOx4qsJgZhjl9SFF2NvyBeMA2aoPS0tJB6ccMixYWIMBrOCxAWJaF0lKF4FFDHQSyQ1u7ZAlTVzy8nmM7sk7xWo/1x9FrQy+LS1GC4MOSpgY4uBqoYc4Ggo39qLy19XxIulKooRDlgTCOlu4MchPYYPmx9evVtspHLQWxJEdvFNWoKPcBN0zc1Z1QN3aqOpAPp1wWMz0M8HCJjx0b2H2RYZjBwxiSnRUrIyu6nNnoN1hBjCAYaLT6UDaMQTjh0yVLEf5kNJhBkLFu+OzZSrAgSljXIX3AiEtqb4dv1XgnRZd6Xijr+667lJWLBwCA7zlIVAFcF3+VFioEGSAthFVZoWh00z7m3mw/XJY7DJQZDY4jAtKhzKgTfPAAiufoC16kfe4oA+qp5Ior2J3BMKcRBDFyBMoPjsdM6o3vysrKkn379uX37t1HqKEKjWHk0ogZbgYCFmeQAAWtc3XPM7eBULv25SKsbAOxPTVcRpUfCKtDhmEGj9ra2sT1119/TOtt2vgoXN3llGsXPmZMqz2YhIlMmKDY6+B/hoWd+vBDpyjnyq+3ZRuI7XOl70t5WJQZ5sxgx44dKfnxNfiZxAL+xzjuuGz8Kx5oixmWHxq6ohQN5AffK1wZ/RVUhmGYqMEMJq2trScx+k8awNSW544uh24bZjCNgoKCAZ8lO7CBqz956kY7FmWGYc5E4GNG458UZeWhyMxR0oM9wESZ1hDnpqam9IkTJwTDMAwTLe3t7XBn0CjrtBEOI00/TGLGskFp/GMYhjnXoMlYN2/enNJT+vlG/jn7MbumOmEYhmGiAQHiFixYkKZRfzFrlElQP2YVKL+jo0MwDMMw0VJSUoLQF+ShIAdzfq6M8vLyYW1tbUnBMAzDRMb48eNHVFdXn4IrQy/y9WN2uTIQJ0MJdCqV4jn/GIZhIgbR5fKeJVsPMIlNmTJFKfeWLVt4zj+GYZiIQXQ5mlrKJcw+i5n8z0iI6PqD0Y+ZYRjmXAPaKtvwAj0SMcdv089cIq1o7i7HMAwTIfX19SOqqqpOwjuBfsz21FKmxWxax2n0yqirqxMMwzBMtGzbtk1pL2aLoin9TOwh2eobrgyEpGtoaODGP4ZhmIiprKykIPmxXIHyY7aPWQREPmIYhmH6BzQ2aNLrIFeGgGN6sCZjZRiGOdeAV6KpqSmWzuBblzXyj4YIfvWrX+3etGkTd5djGIaJmNbWVop3nzURKwgb+QdrGr0yeOQfwzBMhGDk37Rp007SmBH0zBBh8Zj1TyXONTU1gmEY5mzlt7/9rfjWt74lFi5cKHZbky5v377duQ6/sWzNmjW+9FiO/KKgu7vbZxTbvgx7gAnN95em4YIMwzBnI8uWLRP/9E//JK699lrMsSc+//nPKzEGENm/+7u/U8vx+dSnPiVoJB6WYxukRR4Etp86daqICrgyaDLWnNHlABJiyhMjwEa/wISrmKUZUz4NGS64QMRuuEHE5EllGGZwgH4VFxeL0tLSnGkhrP/6r//qiWljY6N45pln1P8Q3KVLl4pvfvObat3Ro0fVMhik2A7fWPb73/9erce6efPmRSbMelS17Vv2/vdZzJi5hExqqPkll1xSIPpJp3wdgDAPKVEGBw+K9OOPi/SePYJhmMEB8oSZlY4dO5Yz7b//+7/7hBRW8oUXXqh+Q3zNdWQhA4gyLG24LT73uc+pbwh0lHHq0eMNxq/+N6tbsrPxDwWQ1nIkk7EeuuUWkRpqomwQk683soYFwzCDByznUaNG5Z0eQvvoo4+K9957z9sevydMmODLE8J/5MgRJcQjR45U4g0/NCxvM20E5U/Ir5Py003TS4kcYT8V5G9hGIY5m4HIQpT/9Kc/ecsguiYQY3MdXBzXXXed8jfDhQEXCPzQ+N9M20+UqzhndDlKhA/M+SjiMQ/70pfEUCb2hS8IhmEGl5KSkrzSUQMeRNm0ePHb7IlhuzYAtoOLAyINTUQeSGP31ugLVVVVqa/pN+28BpiQemNUinRl9HtI9gjZQAb/8omXXx5aLo2qKhH7yldUIyDDMIMD3A3Dhg0Tw4cPz5mWel7YogxgDVNjH4DYwp9MQKjhW4a7gyxkWNL4RGUxU9gLcqGEgYRx/Smsq6sbkWYYhjkLkdYt+W29j7R+1brDhw+npTinMSkq0kmBVsuAFGO1DN8EosAhPdKZy/uKLMsIaTGjc0Vc/msO7POE2P5fLcP0UuvXr+d4zAzDDFlgGcMKzqdhDxY4Wc39ZezYsWVS5I9JjVWmstTZlDk02xn2k2EY5lwAPuN8e1sgXRSiDKQbI0XR5WBBS7cKtDiwV0aafMwYwy0d1KzUDMMwA8DmzZvTetQfdZfzPBj2eO2YThRDOLq9e/cWv/LKKx8JhmEYJjKkzmLo4gmhfd9pa2qpQisxFFxZ0Rj5V15eHhcMwzDMgGAEyveFvwhs/JOO6UhG/jEMwzB+xo0bVzpjxowTuvHPN+oP+KaWMmNlYORfa2srz2DCMAwzAOh+zCCv7nJmQu4uxzAMEzG1tbWJ0aNHn5CeiRT6SOuon8GxMmA165885x/DMMwAIK1lmrkEIxCzdNbpY05numfEq6qqivfs2cO9MhiGYSIEU0tVV1ef0jHvQ33MHhRN357+hGEYhokOPcAka7lr5F9az2CiZnJlGIZhogVG70UXXaQMX+3KCJ5aiqIc4RvCXFlZKRiGYZhoGTVqVHz16tWBI6udrgwalh1FPGaGYRjGT2Fhodf4l3b4Mpzd5ZBuzpw58fXr1w+Tv5OCYRiGiYyKiorEFVdccZyiywmrAdA1Sza1/cWkK4ODGDEMw0QMAsRRoHyhJzHRuqswhZkSqVB0TU1NmMGEXRkMwzAR88EHH8SlMHv/m6IMTB8zhZ1TvTKg5jwkm2EYJnoQj5mmtRJ5DMmGMzquhwhi2pPigR6S3dXVLQ4fSYoDB4+IY8dPqmVliWFi1PnniTEfO18wDMMMNRDESBq+FPZT2N/OkX+YVgr/DHTj34EPj4i3W/aK41KQCwsLxPCSYvXd0XlMCfawYcVi0oWVorKi/xOetrftF5s2vSi/20VpIiFmz75WlFeMFaebjRueEclk9rOvonysuPqLV4nBpFOWY8uWbaK9fb8qU4Wsn+tlPZ1NbN3yqvqePuNy3/K1a54SN8+bKxg/W7e+Kjo7kr5rDffJju1vqPtk1qwrxaTqiYKJFoz8+/KXv9y1evXqbngopDGcMt0Zzqml1q1bp2KD1tTUiIFi1/utorFplxLiutqLxMzpteKzl10s6qZmfmMZaHr7fZW2P0CU58+/Q/2uqb1Ufd8m/29p3iVONxs2PCva5MPCBP9veuElMZhk6uh7oqXlPZEoLRWTJn1cXD1rcB8MUZBIlIpVq1b7lkFoGhvfEEwPeAivWvmE+pjXGh5gG+U1WT99mqiW18CSJT8Vjdu57qLmvPPOK5CirHSWZjExyRpgor9j0v8R27FjhxgIWtsOil27W0Vl+QViyv+80Jlm1MiEmPHZT4qm/7dbpS0rHS5dG32bb2vFg4+IedJaMq0/XHS4KB965AH1Py4+CGJCWgnV0kIga3rT8y+KWYY1AYusduql3jZkmUHkyfK1hRb5hVkds6QAUp6U79q1T3n/kyULpk6tUWWj8rr2Q+ntY6Gyo6zYlvICG6TlPu/mG+XxTFPHQcsh2M0yvWmBUj7YD/LBPmh/lA7bbd/ec/2Y62xQx9gvRJW2Rb5U1mbjAVpRUe6rKxusqygvV/VD6V54/iX1hmTma+8H6ZG3edxYh/rcquvehK4JOg92uezzQ+eG6o6O1cQ8b1RXOBeu64zqn64L+xoz17nqbKW89vFGdPO8G8ULm17ylXvBglu99MnOTrn+xdA6Z3rPzp07uzGIDxOSaLyJWIFrgAnFY8bU3t1iAGiRFjDcFKYof7B3v7KgGxrfVcJNTPmfE6TPebhyecC90VvUhS2tJdv6w6vb4u8vVL9hUa1Y8Yh6hd+6dZtYtOgeT2R/vuJR33arVj2hLvpkMulZZriJIfLl8gbAdsgHVscr8jWR3AJ9BfuCJYtjQF6LFt2rbh7aD24qfGg/puWLY1my5CdqGYDbZOmPfqJeX7Eebw1kDSkBlMuQP+riprnfVtuVSgF5TB6neQyoA/y/vXGHsrAefDBTd1i+4sFMfUGU8HDB8synPfAYUf5XtvaI35o1TyqXE0BZqR7xDZHIBV6/US6gBFbuu14KG5WJQPkpv02yDI2NPQ8S1AOto2PAtUC/AfaBY6Zjp31SXdM5w/HhOGi5600N6+fKOqfzhvpPWtcZtkP94joD5nUBy3aTLi/ywhsi8sJ685gJuHVcrh0IMJVV1REecLUsygOBEY85C7sfM0SZxDq2e/fuyKeWgl8ZPmVyVYBXG96SF+AxZRUDuC/e/8t+cXndxer/iyZVKcE+fKSj11YzbnBYQS4LhayjSZMmisdX/8pLc5u84LFdIg/fGm78JVLs7v7+ncoCwWe6EoH90iL9ZL/dAVvkTVpb+0nvIYKbBAIASx/7WSsyNx3dZHg7mD37Gu/tAGlhDS+4/dbMscpjot/Tp1+eyWvqA1K89qub8vHVv1TrNj79jMoL+0H9QDhxLBnLMnOcjY1Cid6Tj/xGbYN9fkMJeqYssNTy8esiDcpBddXY+KZcdpP6jXrEcWId+T5zUS+tb3p4QOTn3dw73zLKUqGvDVwTdAymn5raLOi6oWPH2w+uK+wby1CndI6IlpaMMJsWOh7sy5ff51mmEPBdUojHGhY8RHnZ/fepsiH/5ct/6FnJyOcVaY1j/zh3ixcv9N4EXMJcEdC+gjeLRQvvFdde83X1f7U894Pd1nGOEBszZoxnIVMoDMInzMZkrKof865d0ftg0QMDfmW4KgCsY4gyxPdvqjIXC6znd6SFjG8sGzWyTBTJbQ4cPNprYYbF15nDYq2UNwjEC2Kc1K/npoV4l7xQiXbj9RT5wrJavPhO9SoZBvLf+PSz3v8L/vFWJYy5aNz+ZsZakyIJUC66sV3gBkZ6ssqU1dXZcyzmPnEzm3mZ63AzQtwABIaEE2I06+orvXRTDWsKAgURh+VZXl4u8gXiAotaHZssN9xMJByd0mLsTV5UDpRZWafSaiSRx36QP8QKafBtmyyov8wb1pWhDwFcIzj/j63s8WejsaxNGwKo84oKd7mbtTtihbTA8RBFvbYbLhZAD1baD64zCLH5wGiRy+m62N74hrc/5TKRVm+FfoPrDdgPyvHQvAfUtmvlgw0PDXqYM9GAWPfkxtAhMHyD+Vw+ZvRjRs8McerUqcj7MaPHBVnGYF/7IXmRDfdEGeB3a/tBJeK0HK6PY8dOiN5CF6vpcwTkA4WvEBYvLma6gfH6b0LWKsCFS0D08dqMC/fxJ34pwoAlM0M2qJjb5gus5Fl5Wt64YWFh1ta6G27Nh5T5236jwDpahnprX6GFUwqdWR8u+iKkaGyCVY5XZ/MB0Vc3EFmw9TIvU8zulpYkLEj8Li3NPge4FmCVmm6NoDKXqzeCm7xlN4ue84pyB51jalNA2ZbKa43eFJJGnZvQdYaG4sXyzQxAeFfJhwIsY1zjE2XdvaJdELDqsQ7uDKxL5Hmt4SGAB8QC/dZEbwv/IN8gWZijpaioSDX8oQec1Nu0MUGJEmjbVZG2No58SHZRYVyc6u72/R9EV1eX97uwsFD0FdykEE/ytYIN2gcI8BoPMehp+PH7Q7GcPja4cHGTkW81iMyN3JNPvjcLbkg0GJXq7eFz3BTiZ8UDBuJG+4HANBtWsbktbu56LYI4/k1GIxDS1ZsWtBQPWIforWGCPKheydosD7AUIfZBby9q/7KRDnnQq3OnfjtwNZySKyEI2o8pnGo/8qH10MMPiGWG24CA8M364pWBr/kmOMbMG1bSO5+wLvGdqY90znOMdGjoQzo8fGHhE3hLo65/meOYq/LEdQywX7gZcAzqzcfwW3eqdpU3lZsFDXn5grIAMy+IPZ3PsPPH9B7d+EfBjHyNf7baeRayNrMjt5iHlZSIQ0d6ukaPPL9M7P+wx20BPpD+5Q7p3rhkck/jYDL5kWxt71t/ZlzUSdWIdoe6mCFUcD3g5gSzr79GWclozc8IWu8sPlgTaFQbiL6yuPEgJmioS5Qm5Cty0iu3i8xDaLVqPEL6RFnGSiQg8Ljp4butqBzrrTO3E+mYb50qhxSOu+CPfvgBf/nkcrxFoIsd/M2Lta/dfrgB+KwhwC6fJY4zuarTJ/xoDIPP0yVwEGXlVnG8SaguYHIdeuLkI7IEuUDyTYv6QaMb+pyjPmffcI2yOtFGMTskH1xrPecmYwHfLd9C7lqUEWPUI45rum6wJBbcPl+dO1xnGffS78Rtt35PrZtU3VNvqGc80IPOQ77HlHGDJeU5/5mXb9D5Y3oH4jFLjfViZVBEzyBoaCDM2IKqqqrh6Yg5dPiv6T9sblDfxKuv7VTLtr32lvpkfu80tulQy9oPHE73h46OZLr53Rb17aKttT19poIy96Z8SG8f56I770lvf32H+h2Ul2s7Sj/3xm/5lj3//B/SK372sLc+qF6J+bfekW4NOYa5N37bK9/ZRJTXTVD9h+27N+nzBfeJfVy5zh+TP9BWkTGM4/oTHCg/nWkZ9BIMxGSsZYkRqiEPg0bqZKMe+GzdxWKfbAREQyDWjSuv8vmc9/ylXfmYx/axHzMBiyCsp8WZMBIwCFX2Xvilc6UNOlbXdrDQ4OYI692QT93h9dtlwcL9gZ4E6H1yNvaXjfK66c05jnrfJi73UdD5Y3rPiRMnEPLilP43dzxmLc5x+D+2bNlSsm/fvsidShgwooS59hOqx0UYBz48KhqbWpRbY1wEQ7PPZaghrbc3P3oR4EKxb9be5gefqktI4AZA7wse+ntmE3T+mN4jNTYh3Rcn5CcFNwYaAPWq4FgZ+jdmyS4aiFmyMVAEfZcB+iqj+5wL9Hd+rfEd9RujABmGYYYCl112WWlZWdlJY5ZsIYJG/qFlEP4PSjR69OjIB5gACPEUaQFDeN9p2ROYbtf7+1Say4zBKAzDMGc7DQ0NAgNMdKMfGcOeoWwLsxdFH64MKcwDMiQbwIWBQSX72g45gxRhGdZNvLBS+ZcZhmGGCjSDSVNTk9l/2bOYnfGYDRUvSQ9wPOZ3mveq7nETJ1QqEQYQZfihx/+PsWJydZVgGIYZSsDHLL+OC78bw92POa2HZAMr8tGAcZEU3lNdXUqICYo8d66KMjr4Y+DGYMcPxuhIBO5xxavGwILn5ToMwaZGOiyjoew1U/MfncgwjBCI4Ilgca51PleG0VMuPRiiTCCCXGX56ExvjRzhQIc6GP2FARtmpLLBgCLsURxeO/IcIpk9tvIJX2yNlSszUefUcOotr+Yc/cgwTAZMdC1FWf022vU8gsY5x/TGYrCAOA8fVqIaBs0+zFFgxlS24wubcZjtmMNTpRUYFNcYfTpNEE+YgiCZfXHN+LtB+/LSSisZZcPoOsQnyAUNnSULFvvCb5w8ioVslz0IBEuiiGSgWYWffNUbbo5ATebDQgUDanxDPPlUJrIc0lFkOe5SxTC5kV4JZQBrN4VPnE2L2bcSrowJEyZEHisjDPiZoxZlQDGVKUQnCYcZTxcxcM0ocoiBi7QUH9eM0YxtsJxi865d+zsvgDmsTkLFaZb5QJTJIrXj7ZpgeDMCBOXbLxjCSbFzcSzIFwMAzFjIEM+7jLIHgaHU5gMlE4shM8wXoT/tgR/IF8PbCYr3kCv4D8MwQqRSKRqSrTCCGClMi5lmyVa/5UboxyyGChBJuAiWLf+hsiDxP9wGv179K280E4SZotBhPeLjkjWKOAFIT35f0wdLr/wZyzjh5bFVxVLOCBriGiDmAO2L4u3WTPWHzewLEGWIsRn1zYyFDEseD458R9VB7CG8iM0QVC4IvT0gJBP2cr9gGCaciRMnpi6++GKh3RlZsTKCZjBBKLrU3r17Ix+SfbqAKCOwC8VNpmmDzCGm+N+cG84UnoxY5w4IgyAvlAeGMSO6WSamrn84K4LQ1EQw/Bj7gAvDDsUJIcaDBkFubPdKGNhu7W+fUg+RXA8KlxXe14cLw5xLnDx5Ummr1Y/ZwzkZq95gyIgygCjDnWCKSa7X+6QVuzif2MAQ3Mxs3BnLsUKFhEyIgQLxJdS8bM/7Q2DioQKxhouCXCm5yLh6furNkhGGHWoys327itDHMEw4+/btU9ayZSm7B5joXhkxSoxO0GKIgNd6dOciP7KaNUO/4gOIEl7hzamgKD5uplvYs3nNOAIRhDghhCbCidIyzOxBjWfIj9wm+RAWBxcuCzQWrpF+bjs/iOckPUlnS/N7ahm6t7keMOR/X3b/D/MKVDN9+jTVQ8OMxUxz6zEME47Vfpc1JNvZK4OCajz22GMDMiT7dEFxmVUvA2lJUuxZxBLGcsTTtUUJrgAITm/i0KLHBWICf1f7aIEr3m6+7gUIJnzaQaKHMmPaIcyGQbGaIdI33XhLZr2OrYxj/D/y4VApHxx2XvChQ2jN3iBqiiEr/jKBhw2CsKNRFA8i+JZvN46XYZhg4MqYOXOmsprT1nx/IBbye1BG/p0J0GzQpn/0qi/8rXjxj//Rp4hscBugXy9cAjZ9ye+6a74u/u2p35yR/tvMzNztanIB9i8zTH4giFFDQ8NJ+dOMLue0mFWjn6ne06ZNGzKujDDC+t32VmxgKcMqRhezKPKj3g9nqujlinHNMEw2UpTT2mKOGaLsdVn22c8Ui1n/G6usrByQeMxnA32NPQsXQtRCGjRJJ8MwZyfjx48f8Z3vfAeB8tWkrLbFnBWPGb0xYFpLNY83NzcPSDxmhmGYc5mKiorExRdffCIoHnNW49/SpUupH3NaWsxDqsscwzDMmQLiMeuf0NmUuS6r18WyZctiuWZsZRiGYfpOe3t7GmEvDK31GcHO7nCUuLW1VTAMwzDRUlNTE5szZ05M98gQdoC5oMY/tBgWSP8HusslBcMwDBMZ48aNK508efJJqbMpbQiHN/4Z37GqqqpibvxjGIaJlilTppTt3LkTM5iQbzmnMJviXCwtZhZmhmGYCKmvrx9RUlJyChYz/kenC+mtCJ7zT0Jz/onHH3982Lnaj5lhGGaggCtDfk41NDTQhNd5W8zx8vLykra2NvYxMwzDREguH3NQPGY17Uk8Hj8nhmQzDMOcSbiiyymLWTqn0+bUJwzDMEw0oCsyPjQhq02gxdzU1BQr56DnDMMwkVNXVyfmz58faPi6hFklxuyt7e25p1JiGIZheods9BPvvPOOMoJdA0zsqaUU+C2d0ujHnBIMwzBM5Fx00UWqswXiEtmB8n0+ZnMlAmwcOnRo0GYwOX78pOg8dgLTeotR5ydEYWGBYBiGGYpIN3Fs9erVqieGawYTu/EvRpOwSh+z2LFjx4D2yujq6hYf/GW/2Nd2SArzCdF24JCIpWOifOwoMWxYsZh0YaWorLhAMAzDDCXQ442mlgK2OIf2Y5YO6uLXXnttQAaYJJPHxPamFmUpw0Ie87GRykouKS4SnR8dFwc+PCIOH00qgb6s9iL1zTAMMxRAPOYrrrjiOHq/ufoxFwZtCDVvbm4eEIsZYvxa4ztKiOuk6I4amfCWd0jB/puqsepz+EiHaHr7ffFqw1sy3SdEWWKEYBiGOduBxXzgwAFvKikbnzDD2YF4zPgtXRlpzEclBgASZdsS3td2UOx6v1Vc9blPq/9HjSxTaZC+sWmXuLzu4gH1PXcmO8Xzm14Uu5p3idJEQs1MbU4v1SKXb9zwjHOdCSZj3bH9DWc6TD31glwPaqZeqmbLdkHpkMesWVeq6aoITHu1QZajM5nMyiNsHY4P6zB5ati+GYYZWGRbGumsU5yzGvcQTAOmNbrLCXcsjX7RKsUXlvGUyRPyck8gzZTJF6ptPti7XwwkK1euVoJYP32aqCgfKxYtuseb1RqCt2jRvaKm9lJRPenj4rb5d6i0NmvXPCXF+1mVB+bpM/OAYK9Y8Yhad7UUxY1PP6uE3sZMh30tWfJTb19UDuSN9WvX/E5N/mqvo/wxOax5fCgLtsMs3isefFQwDDP4kDCvW7dO9Xyzu8vZkI8Zgl0gfcwj0hHz36++kX7t9bed61re25f+w+YG57rXtr+tth1IFi28x/f//FvvSG96/g/q94M/ezi96bk/eOs2PP379JL77s/KY+6N3063trb35HnnPSptJo9HvN9gy5ZtWfukdFv/e5tvXyvk/sHKf16tykJsf32H2gf9XmGsa21tS1/71Tnqd/O7LbJs3/LWdXQk1bo2o6wMwwwOUl8xu3Kh1tq4yGMGEy/Bvn37RJSgFwYsXzT09ZYxF4xU2+LTW/AK77JubR56+AHvN6xPWJc1tTXq/8bGN33uhPrpl8tl/jzh6sBbSYXhupg+43K9XIiptZ/0lQPLJ02amFWOxd+/U9TL7Yhmma5WWuq0zQxp8RK10iWBcqCs+H339xf6jqG8olyX/w1pfffsiyzuxsYdgmGYwQVjRBCPiP7XYu1pr+ljjqUzXTZUAsxHtWvXLhElaNgDfWnEG67dHsekMPemh4Z6vV94r6ioHCuSKzvF8vvvE2vWPCmqpcheL/2/NhCwVf/8hGhrbxfzbp7riSz8solEwkuH3+SiIPB/RYV/GHupFEBKd/UXrxJbt74qrr3m6+r/ivJy8fgTvxRhQMhRppvn3aT+b2vfr/I0gfji4ZMwluO4V6x4VNy+4FavbOaDhWhrG1j3EMMw2XR3d8d0LCJzQlZndDlfdw25URrDBgeCU11dWcsOH0mKfe0HA7cpLAzsQBIKrM3Zs69R1jCs15vmflu0tLynrEUXsGAh3suX3yc2bHxW+XtBwhLDZNIdDdUWaxP4eyGqTz71G/VBee6SD40gYB1jm4ce/pn3gLDLATqtskCklyz5iWo0NC1vPFxsXPkxDDPwoOcbYQ8w8bkyYsZao29dZJDVa7oj8HtHU4toaHxH/Y/ucy46kpmJVMoSw0VvgPhdf0PGMr553lzx4h//Qzy++pc+dwOAmEEIIVToRQG3wM3zblSNZABWaZshbLBIbQsU29ni19L8nudOQC8L9NLAPvBBeWANtzusVmXxysa5u6VbwywrGiVbWnb50uFhYPb8ePDBR8R06WpB/mbZbOsYZa3gQFUMM+iMGjUqjsElNBmrTZaP2Rj5Zw42iQS4IPA5cPCI+h+DSNBH+ZC0lideWKm6w1GfZpsDB4+qbQequxyeQHctutcnko2qy1vGooTQmT0oYEljGf3GdnBjwOKmdBB7uC4oHdaRvxngNwQT+8Bvu3cFRLnaEn/0tqB0tO+rpWVMrJCijG1MUc6Uf5oSdDo+fMNdg25zDMMMLocPH07BYjaE2WcE27Nkw2hWU2pDmLds2VIS9dRSu3a3iub3/iI+VVMtjh07KY4c6RAXVY8P9RvDzQGL+pLJF4pxAzhEe+PTz4g1a59SjWSwLuGXXiZdGgntJ/65FL1mKW6J0oRIlJV6626b/z0xvV5aqN+cq7aDwMOyRVpYyCSSEF90fcM65AdhvP32W5XYLv3RT0Sys1O5XODesBsWYcFT4yTcG1u3blPlSHYmPVcHHgLIxwZuEzwAXnj+RbFy1RPe8WHfpquDYZjBATOYtLa2wnWQ0uKc/2SslZWVkQszemY889wrai9fueqzORvyaJQgmPHZT4qBJqldGrB+XQNIMu6ORODgEjMdXBguH26+eYQBYcWJ6m0eOD64MILKxjDMwGMKs14ULsxwZWjTOl5VVVW0Z8+eyGfJRu+MP7/+tiguLlSDRzDCzwUs5aa3dysxh5uD42UwDDMUqK2tTUyePPk4OlnoRTnn/FNIcU6dOnVqQMJ+ogGv/jOXqN8Nje+qD0b1HTzcIVrbD6nfmeUZS5mDGDEMM5To6uqK6dHVQHdj7iHLYkYCxMuQwhyXroziqF0ZNhQfAy4LX9jPkmLlT0YwI47NzDDMUEI25cGPeEL0WMnB0eX0ABOIMwIYiY6ODjHQQHzxgbsC0eTi8bgoHTGMLWSGYYYsmPOvrKwsJnVWCbJ2IbtdGVqTVdcMzGBSXFw8oIHyTWAVY6j2BaPPY1FmGGZII93EXicL/Fm6dKlvGj9TmFWPDIwxoehyu3fvHpCwnwzDMOcy1kTXsZg19M90ZZCxrP7BZKyHDh1iYWYYhomYoqIiVzc5L16Gz2LWoqy6y8GVceDAgUFzZTAMw5wrjB492huSLXo6Ybj7MaMnBhzQuhEwPhADTBiGYc510CtDNgCeamho6NaLgvsxU6sgTGeE/WxtbWVXBsMwTMRIo1dIUaaJWLNmMHHF0owZG7Mrg2EYJmKkqzg2efJkL7JcaNhPqLYZgq6goICFmWEYJmLs9rtQi1mrtprBBFNrjx8/XjAMwzADS6jFDCgeM0ak7NmzRzAMwzDRMmHCBIyuThuxmH0ms0uY1Tca/zAvVSqVYnVmGIaJCKmpH3R2dsYxVsSYkCRwgAnhzdYqndOIMLejpKSEfRoMwzARIDX1zR07dmDiU7KUqYuyl8Y5wylNd1JXV9fd1dX1X1KYvyIYhmGYfvPRRx89i294JaZMmYKfKnacmcaOp6lMaoxIwTe6c5SVle2SG39HbjhMMAzDMH1Guof3XHHFFfNbW1u7pa5idHVs1apVWelyBsK///77P/zLX/6yQDAMwzD94q9//etPjx49itF+KcxeAnE2uih7vowsYU5rhG4l3LlzZ/q66677vTS/HxMMwzBMn5CC/GBNTc3aqqoqCHOMJmFdunSpGSxf4ZqM1fytPpdcckn84MGDRe++++6PpGvj+4JhGIbJm2Qy+WupnXdJLe0aPnx4Wv5OU5B84Z/FRGFbzL7+dDSlNqzmCy644NR55523/PDhw9+Fn0QwDMMwoaRSqb9Kf/I3qqur/5f8dEOUESND92F2ijJw+ZhdgYvSY8eORfzQrtGjR/+2oqJiirSgFxw/fvw/0fVDMAzDMAoYrtBGacTeu2HDhkvq6+s3wLA9//zzU7CUhTaAzfAXNrEcy8gPEjeWK/fGhAkTYtKCLkAk/vLycrF3796CeDye/vDDD8kFkv7Yxz6m/se3fHJg3qqYLGx61KhRMfkRu3btSsnvuCx0+tChQypzfMsnC/wxKpB0V1dXAXUlQYxo+UDAUwhB/BHTFOnT6D1Cy1EGmZ8aHHPkyJG0/I5j+5EjR2LfAvvX2wmUA/8jb5lH+u23344L/xPMqwt9LEKnVfvF8eD4kJ98WKX2798fkw8w7DOG8qAcclmcyo/0BQUFKZQT33K7mE7rdZcxj2vixInxjo6ObmyHbbAcx4RyyFcitOh69YPjxjE2NzfTsXj1jjyxDGVBXSMPWi7rNIU6wvbYP/LAenlu4zg/Oi63d+7Nc0pp8a3zMtN6x4K8sQ/aN9Zh/3Y6+qbf2A7paD90Dchjw7mLFxYWqrpBnbe1tcUpLzpubI918o0vhrpEHnTeqb5pH1QW+l9PGqGuFUDnyE4P6LzgN11vOL+yLgrktZymusE1gWOhGDQ4H/hGvSB/HA+2pzxxLs16cZWVzpM8ZoHrAt+47jDDPdZTuakO9X2Ge1PlobdPy/s5vnv37pR5vWNfdF2jXPJeSdE9YZ5/qn++/zP3vzyPKpY9xoHoHm7Ii+rW+9Zteaqu7CHZzrCe2KFaqQPn44M+d7IV0RyhAt8zGgfVMlyA8kKK2QclHd0xKdpqIYYhYroqfJ84cSIuTXw60Sq9TJtVlmHDhqWMfJGH+pb5IPpdvKSkRB0oKoPSIQ3WU1pMFY4yYL96W29fWG7uF/lgW11ur+Lof513jI5Flz1rn4QxPVfaONas9NivfMpCbNL6WOgioX2ptDgWSm8cd5zS0Lmh/aDclJbKY6T16gEXMs4H7UMfu5fGOHbv2JC3eY70NaDKjd9UVrNucYzIy6hf5Bsz6iptnmNzH1Q/lB/yp/NF54XOFS23MY4PAkA3f8ysF/Mc4n/z2rbPm32dUTmpvsw8sF5f92mqI/OYrPOnrktznXluzOuQrn3rHjSv4aw6sOomZt4bxu/A47Xrxd63VQba71C7/7PqFN90zjBnqtRHIbL9yDS3qjCW5YU5TDCuLWb0eS6cOXNmYV1dXZH8jU+x/l0iRRozqJbIE1SC5frb+8gCD8My+jbSeh/6H2nM5fShfSB/1/aOdFllMPcVtB8zTdAnrJxh61zHHFCWYbnyCiuza5+u+nccS3GuerTzDEuTz7kw/s86r47jySpnWBmwf3N9UHmwnMrkqsPe1H+u82L/DqvXsG87H8exue614rCy5TomO6113wce11C8/606NctWrMsAbSzUH+hngTRw8U0eiJgdVS4n2mqO6e+4nt3EE2ihRdooQHHQR6dR3+bHSldkfjvWF4ct1w+IYvOhYe/XsV2R9bsopHzOslvpiszlVCbXfmk7s7xh6XKVH/lYaYusMhYF1V0++eeoU185zG+7LCF1knUcrnqw9x2WH6Vz1bG9j6C6y1E/vm3sY7e3zXGu8/rked8UWeuKXf+H3Bd2fbjqscg4V3z/G3lQ3UAfhV+Y4/rj6avoI6TonvWMHVgC7Qk1PlQx9K0L5yuw+b8rjZXOly/9po+1rsiVD+VP6e192N9Bv42KNvMqdByDXaasNK6yh9VVUHnMNxj6bZbTdbzm/q2Lp8jaJq9jM+sv6Lgd64oCrhlzWaF9Hq3rwq67woBjss+Tfbyuj70v+23Rdcyu/WbVacj1mlUuV1q7bgKW+cpA5aTjN8+p67iseg28ju0yn6v3v7aEPRHWaQuEIciGGJPB2y9ihvUsjB34RBoFo8LoQtLHLKDvYxXemc7Ky7cPe13QdrnSIk9KY6ez87G2dR2vry7MtEH7CKujfMrh2Jf90Awqf1Y+lJdxEWaV0T7PVH9B5TXKF3q+zeOg7am+zH3a141Zp/Zvkd91VZijLgPLF/AppHLlU++ucrmOyb4G7PNg3otWfmHXR84P7UfnX2gaZmYZ+f4X3nkwXBbeB7qpPyIyTLUXPdaz+ugTZRamwF4X9D8tsw6kIGg7a19ZB2/v39re28b4P2v/rjJax+faj6/M5Ppx5OU8NnuZqy7tcrs+Vj0V2PtEvq792WUPON7Qcxt0LHmWMey8+dbTMbjKZq4zy2KdY3t7++by0pp1EFIfBWHHG3QdBZ1j4xhMQQg6D4HHEnJNBdar+b+ZJuTaL+D7P6vM6M3mCbHw62a/LeUgfD0z9HRUphWd84YMOVBfWjqwXDc67dssg1EhWWnNChQ5Tobx8bYz/e6u46N9G90MA+vBvuDsfdFF48rLVQ772KgstiC76j6ovHZd5VgfC8rPFsqg8yj8jc6B+3E8BGKuOggof8ysh6Dzn+MhFXOVNd/rJIfwBdV5LJ+6NMTGed7yEKKYff9Z59O7vkIelM7jznHMXtqz7f632uVMd8WAibEP80lgflv+aPsJQQcmrALbfpesbyuNML5dTnR7W2d56SIzHirCWC+MizDwOB3HKwKekM5PjrRZZXBtE1LnvroXjvo26yHX8qCyGnURtN/A+qJ9BJznmH1+Qq4PkWdd+MptuejyPj/2fu20jhvS3I8wj8u8NkPK6jsfQdeFfc0by0W+xxV274Wl4/vfX+9WmU4frotCr/IddMjJFyL7og47wKD1vpNk55ejYoMuEtf+zGMVIvt48yGvfTlu4MC8jG18x58Ofpq7ymEuM9P4luc4l+Z6IRw3j3DXqa9e0wEiGHKDuvI1J7u0jylm5esSAWcZ7WM19uO6Ju3rxbU+FratsM6bcV2Yab3jTRsPH0f5s+rGPlfm8pBzaW4bdM68svP9zzAMwzAMwzBM//n/o8vbU10iReUAAAAASUVORK5CYII=;" vertex="1" parent="WIyWlLk6GJQsqaUBKTNV-1">
          <mxGeometry x="1260" y="40" width="358" height="214" as="geometry" />
        </mxCell>
        <mxCell id="RhfSra3kzSBtpRzGON0T-19" style="edgeStyle=orthogonalEdgeStyle;rounded=0;orthogonalLoop=1;jettySize=auto;html=1;dashed=1;endArrow=none;endFill=0;" edge="1" parent="WIyWlLk6GJQsqaUBKTNV-1" source="zkfFHV4jXpPFQw0GAbJ--0" target="RhfSra3kzSBtpRzGON0T-15">
          <mxGeometry relative="1" as="geometry" />
        </mxCell>
        <mxCell id="zkfFHV4jXpPFQw0GAbJ--0" value="enum: OrderStatus" style="swimlane;fontStyle=2;align=center;verticalAlign=top;childLayout=stackLayout;horizontal=1;startSize=26;horizontalStack=0;resizeParent=1;resizeLast=0;collapsible=1;marginBottom=0;rounded=0;shadow=0;strokeWidth=1;" parent="WIyWlLk6GJQsqaUBKTNV-1" vertex="1">
          <mxGeometry x="310" y="218" width="160" height="112" as="geometry">
            <mxRectangle x="230" y="140" width="160" height="26" as="alternateBounds" />
          </mxGeometry>
        </mxCell>
        <mxCell id="zkfFHV4jXpPFQw0GAbJ--1" value="inWay" style="text;align=left;verticalAlign=top;spacingLeft=4;spacingRight=4;overflow=hidden;rotatable=0;points=[[0,0.5],[1,0.5]];portConstraint=eastwest;" parent="zkfFHV4jXpPFQw0GAbJ--0" vertex="1">
          <mxGeometry y="26" width="160" height="26" as="geometry" />
        </mxCell>
        <mxCell id="zkfFHV4jXpPFQw0GAbJ--2" value="blocked" style="text;align=left;verticalAlign=top;spacingLeft=4;spacingRight=4;overflow=hidden;rotatable=0;points=[[0,0.5],[1,0.5]];portConstraint=eastwest;rounded=0;shadow=0;html=0;" parent="zkfFHV4jXpPFQw0GAbJ--0" vertex="1">
          <mxGeometry y="52" width="160" height="26" as="geometry" />
        </mxCell>
        <mxCell id="zkfFHV4jXpPFQw0GAbJ--3" value="completed" style="text;align=left;verticalAlign=top;spacingLeft=4;spacingRight=4;overflow=hidden;rotatable=0;points=[[0,0.5],[1,0.5]];portConstraint=eastwest;rounded=0;shadow=0;html=0;" parent="zkfFHV4jXpPFQw0GAbJ--0" vertex="1">
          <mxGeometry y="78" width="160" height="26" as="geometry" />
        </mxCell>
        <mxCell id="zkfFHV4jXpPFQw0GAbJ--4" value="" style="line;html=1;strokeWidth=1;align=left;verticalAlign=middle;spacingTop=-1;spacingLeft=3;spacingRight=3;rotatable=0;labelPosition=right;points=[];portConstraint=eastwest;" parent="zkfFHV4jXpPFQw0GAbJ--0" vertex="1">
          <mxGeometry y="104" width="160" height="8" as="geometry" />
        </mxCell>
        <mxCell id="RhfSra3kzSBtpRzGON0T-20" value="Address" style="swimlane;fontStyle=2;align=center;verticalAlign=top;childLayout=stackLayout;horizontal=1;startSize=26;horizontalStack=0;resizeParent=1;resizeLast=0;collapsible=1;marginBottom=0;rounded=0;shadow=0;strokeWidth=1;" vertex="1" parent="WIyWlLk6GJQsqaUBKTNV-1">
          <mxGeometry x="310" y="60" width="160" height="112" as="geometry">
            <mxRectangle x="230" y="140" width="160" height="26" as="alternateBounds" />
          </mxGeometry>
        </mxCell>
        <mxCell id="RhfSra3kzSBtpRzGON0T-21" value="rusName" style="text;align=left;verticalAlign=top;spacingLeft=4;spacingRight=4;overflow=hidden;rotatable=0;points=[[0,0.5],[1,0.5]];portConstraint=eastwest;" vertex="1" parent="RhfSra3kzSBtpRzGON0T-20">
          <mxGeometry y="26" width="160" height="26" as="geometry" />
        </mxCell>
        <mxCell id="RhfSra3kzSBtpRzGON0T-22" value="house" style="text;align=left;verticalAlign=top;spacingLeft=4;spacingRight=4;overflow=hidden;rotatable=0;points=[[0,0.5],[1,0.5]];portConstraint=eastwest;rounded=0;shadow=0;html=0;" vertex="1" parent="RhfSra3kzSBtpRzGON0T-20">
          <mxGeometry y="52" width="160" height="26" as="geometry" />
        </mxCell>
        <mxCell id="RhfSra3kzSBtpRzGON0T-23" value="Street" style="text;align=left;verticalAlign=top;spacingLeft=4;spacingRight=4;overflow=hidden;rotatable=0;points=[[0,0.5],[1,0.5]];portConstraint=eastwest;rounded=0;shadow=0;html=0;" vertex="1" parent="RhfSra3kzSBtpRzGON0T-20">
          <mxGeometry y="78" width="160" height="26" as="geometry" />
        </mxCell>
        <mxCell id="RhfSra3kzSBtpRzGON0T-24" value="" style="line;html=1;strokeWidth=1;align=left;verticalAlign=middle;spacingTop=-1;spacingLeft=3;spacingRight=3;rotatable=0;labelPosition=right;points=[];portConstraint=eastwest;" vertex="1" parent="RhfSra3kzSBtpRzGON0T-20">
          <mxGeometry y="104" width="160" height="8" as="geometry" />
        </mxCell>
        <mxCell id="RhfSra3kzSBtpRzGON0T-25" style="edgeStyle=orthogonalEdgeStyle;rounded=0;orthogonalLoop=1;jettySize=auto;html=1;dashed=1;endArrow=none;endFill=0;" edge="1" parent="WIyWlLk6GJQsqaUBKTNV-1" source="RhfSra3kzSBtpRzGON0T-22" target="zkfFHV4jXpPFQw0GAbJ--22">
          <mxGeometry relative="1" as="geometry" />
        </mxCell>
        <mxCell id="RhfSra3kzSBtpRzGON0T-28" value="" style="shape=image;verticalLabelPosition=bottom;labelBackgroundColor=#ffffff;verticalAlign=top;aspect=fixed;imageAspect=0;image=data:image/png,iVBORw0KGgoAAAANSUhEUgAAAYUAAAKgCAYAAAB0qmFQAAABQWlDQ1BJQ0MgUHJvZmlsZQAAKJFjYGASSCwoyGFhYGDIzSspCnJ3UoiIjFJgf8LAySDNIMJgwaCQmFxc4BgQ4ANUwgCjUcG3awyMIPqyLsisEz4XZ13VfCy/8cgNlylP3jzEVI8CuFJSi5OB9B8gTkouKCphYGBMALKVy0sKQOwWIFukCOgoIHsGiJ0OYa8BsZMg7ANgNSFBzkD2FSBbIDkjMQXIfgJk6yQhiacjsaH2ggCHs5GJm7GlAQGnkg5KUitKQLRzfkFlUWZ6RomCIzCEUhU885L1dBSMDIyAVoLCG6L68w1wODKKcSDEUncwMJg0AwVvIsSy3zEw7FnEwMD3DiGmqg/k32ZgOJRWkFiUCHcA4zeW4jRjIwibezsDA+u0//8/hzMwsGsyMPy9/v//7+3///9dxsDAfIuB4cA3AAWjYolTH9d1AAAAVmVYSWZNTQAqAAAACAABh2kABAAAAAEAAAAaAAAAAAADkoYABwAAABIAAABEoAIABAAAAAEAAAGFoAMABAAAAAEAAAKgAAAAAEFTQ0lJAAAAU2NyZWVuc2hvdGn+2HUAAAHWaVRYdFhNTDpjb20uYWRvYmUueG1wAAAAAAA8eDp4bXBtZXRhIHhtbG5zOng9ImFkb2JlOm5zOm1ldGEvIiB4OnhtcHRrPSJYTVAgQ29yZSA1LjQuMCI+CiAgIDxyZGY6UkRGIHhtbG5zOnJkZj0iaHR0cDovL3d3dy53My5vcmcvMTk5OS8wMi8yMi1yZGYtc3ludGF4LW5zIyI+CiAgICAgIDxyZGY6RGVzY3JpcHRpb24gcmRmOmFib3V0PSIiCiAgICAgICAgICAgIHhtbG5zOmV4aWY9Imh0dHA6Ly9ucy5hZG9iZS5jb20vZXhpZi8xLjAvIj4KICAgICAgICAgPGV4aWY6UGl4ZWxYRGltZW5zaW9uPjM4OTwvZXhpZjpQaXhlbFhEaW1lbnNpb24+CiAgICAgICAgIDxleGlmOlVzZXJDb21tZW50PlNjcmVlbnNob3Q8L2V4aWY6VXNlckNvbW1lbnQ+CiAgICAgICAgIDxleGlmOlBpeGVsWURpbWVuc2lvbj42NzI8L2V4aWY6UGl4ZWxZRGltZW5zaW9uPgogICAgICA8L3JkZjpEZXNjcmlwdGlvbj4KICAgPC9yZGY6UkRGPgo8L3g6eG1wbWV0YT4KYCdBagAAQABJREFUeAHsXQu8V1P2XwxFt3vNMHUrmemh4h+FipEilbfIM8og0XiT50SShjKJJJTIO5QoklcPEXlFD6FuipEet2aa6T5Cmem/v/t3v6f9O/f8Xvd3znXrrvX53Lv32Xvttdf+nvPba++199lnp40bS7aKkiKgCCgCioAiYBDYWVFQBBQBRUARUASIgBoFIqGhIqAIKAKKgM4U9BlQBBQBRUAR2IaAzhS2YaExRUARUASqPQJqFKr9I6AAKAKKgCKwDQE1Ctuw0JgioAgoAtUegV1SIZCXl5OKRfMVAUVAEVAEtjMEiopKAzXWmUIgLJqoCCgCikD1RECNQvW879pqRUARUAQCEVCjEAiLJioCioAiUD0RSLmmUD1h0VYrAoqAIhA+Ahs2bJB58+bJunXrQhX+u9/9Tg4//HDZc889s5Zb6Uaha9euFpD8/HyZPn16uQaMGzdOioqKvPTDDjtM2rdv712PGDFC+vXr510jMnfuXFvm+OOPj0vXi+qDwMaNG+Xxxx+X/fffX9znAM/G5MmTLRDt2rWTs88+OykoeP6WLFkSyM86Vq9eLbm5udK7d2/ZZ599ksrTTEXAReDDDz+Uhg0byrHHHusmZx1fuHChNTZhyK1Uo/D99997FrKwsDAQiOeff16OPPJI+6MDw8CBA+Xcc8+VPn36WP4nnniinFF4+OGHZfny5dZS7rHHHoFyNXHHRQAdP54TjL6OO+44zyhMnDhR7rzzTjniiCPs84Q4RmnDhg2zYKxcudKG7NgHDx4sb7zxhpxwwgmyZs0aW7a4uNh79s444wwpLS2VDh06yHvvvWd5H3vsMWnZsuWOC662LFQE/v3vf8tJJ50kHByHIZwD7GeffTYMcRKpUcCPbNKkSVbRMWPGWAuZjtbuCAwjPzSWRsFfHj9sGJiOHTvK22+/LWeddZafRa93cASuv/56ufjiiwUDCpfeeecdOfPMM63BQHrt2rVtR06eq666yj47GL1hFoCOHrNQzia6d+9ujQiePRgYGJ1p06Z5swPkDx061D6flKmhIpAOAmG6j/wD7JKSEvusp6NHEE+kRqGgoMCrc9WqVWkbBa+QiaBc8+bN3aS4OIzOiSeeKHAzYcagRiEOnmpxgQ4bo32/URg9erTXfnT6GP03bdrUS+vZs6cXxwxzxowZ3jUGG/hxtW3b1qbhOQTl5eXZEP/q168vCxYs8K41oghUBQRef/112ydiEFQRCm330ZdffmndN61atRL4ZbOh/v37y3nnnWenWFOnTrW+20TyMHLDaBDrDnAh4cevVL0QoPsnUasxVcc6A4wCni0SZgScFTANrijwY4rfrFkzb4aKQQcI6xYwGOD74IMPrDuJZTVUBKoCAps3b7Z9YUV1qbBRwOgMi74IQTAK8LeCMG3Phi6//HI7Lcf6Qbdu3eSiiy4K7Ozxw0SdmP5DD4wC8aNVUgRcBODGvPfee23StddeG/gskR/rA+DHusOyZcvs4AR5GHTArYlnEgYDs1IMRpQUgaqIQO2cis0S0JYKGwUs2uEHgpALdmGBg5Ef/+DP3bp1q/zwww/lxE+ZMkUOOugg+fTTT+0fdoR89tln5fg0oXoigIECnk106Pi79NJL7RoCBjAgzEaxLgACHwc44MXMAp3/okWLbD5moDACuMbsFOtccC81adLE5us/RaCqIHDggQdK0323uUkz1SvSNYVMlQnix2wAizKuL5d8c+bMsT9k132Avboogx+2UvVGYOzYsfLcc8/JqFGj7PPzyiuvWED4vGCtCruLQHi+MMDBdtRrrrnGDkLQ+WNnBwiGBEYFswUsRuMZe/PNN2XAgAE2X/8pAlUFgdatW2elSpU0CvjhgeAaysnJsT88/pDZWrqL/OnwEWPBUI0Ckaq+4ciRI20HjxE/CM8SOnw+M9jGSsJCM547GALumINBuP/++y0Lnie6jzBDBmHm4F+TsBn6TxFIgECNGjXsDBODCW5eSMCadvLee+9tZUJ2GLTTxo0lW5MJSnRKKvfZco8sRk4YSYHwY8EPDgvO+GHix4j93HhpA3u9MfJnuWR1a54iEAYCdBfh+UvnPRY8yzAcNB6uDnAjQR7WHtKR5ZbVuCKAl8xWrFgRutsRMvG8crdcOkgnOiW1wkYhnUqVRxFQBBQBRSAeAaxf4biLMKlevXqeqzNduWoU0kVK+RQBRUARqAYIJDIKFd59VA0w0yYqAoqAIlDtEFCjUO1uuTZYEVAEFIHECKhRSIyN5igCioAiUO0QUKNQ7W65NlgRUAQUgcQIqFFIjI3mKAKKgCJQ7RBQo1Dtbrk2WBFQBBSBxAioUUiMjeYoAoqAIlDtEFCjUO1uuTZYEVAEFIHECKhRSIyN5igCioAiUO0QUKNQ7W65NlgRUAQUgcQIqFFIjI3mKAKKgCJQ7RBQo1Dtbrk2WBFQBBSBxAioUUiMjeYoAoqAIlDtEFCjUO1uuTZYEVAEFIHECKhRSIyN5igCioAiUO0QUKNQ7W65NlgRUAQUgcQIqFFIjI3mKAKKgCJQ7RBQo1Dtbrk2WBFQBBSBxAioUUiMjeYoAoqAIlDtEFCjUO1uuTZYEVAEFIHECKhRSIyN5igCioAiUO0QUKNQ7W65NlgRUAQUgcQIqFFIjI3mKAKKgCJQ7RBQo1Dtbrk2WBFQBBSBxAioUUiMjeYoAoqAIlDtEFCjUO1uuTZYEVAEFIHECKhRSIyN5igCioAiUO0Q2KUyWnzNgKFSVFxiq7pv8M3yuz3yvGqZd8D+zeX6Sy/w0r/9xw8y+L7R9nqfvevJ4Juu8vI0oggoAoqAIhANApViFE457mg5u0+sU8/LzZGRd97itWb6u+9LYeE6WblmbZxRuOO+h2XqG9Mt3yfTJ3v8GlEEFAFFQBGIDoFKcR916fgn6dXjdNuKZydOlnHPvZy0RfeOecozCFdcfIE0/WPDpPyaqQgoAoqAIhAOApUyU4CqD/ytv3y1ZJnMX/iF3HHPA9L5iEOlcUBnD7fRkPsetK075YRjjdvoSq+lXc/qY+MNG+TLkyOHeOkoc8kNt9vrE7ocaWccM9//SIaOfNSmzXhxnMDQTHzldXu9f/Omcvt1l8fVj/w3Zr4nubVry+QnRnqy/72xSM66uJ+9vvTCc+TMk47x8ma+/7E8NO45WbJsuU1rUD9fzj39JOlzbswAeowmcnrva6SoJOZCc9MR98v15//H6HDfI0/LpFfftFm5ZrYV1AZkpqOT2yZX35enTZeHn3zB1nHpBaatJ8faCnzvf/RpmT57bij1WyFlug4dOVZWrym0SYnw431nOYR55j6ddOxRcvqJXePckS6PxhUBRSBzBCrNKEC1R4YPlqO7nyelpaVyzqXXycdvTIzTGJ3fSef9xabl160rA667LC5fZKs1KgXf5Ag6Nq5NzJr7iUlfZHn7X93Xht+uXO2lDRz2oDz02FOerG+Wr5BZ782Vd6c86xmGxV8XWP78/LoeHyIb/lPkydlYdJKX55eJjMJ1hZZ3zkfz4owW8t79INahIu4nV64/D5i0P/lc62JjnvG2CduwcParHg7p6uS2qX27g61YdPzXDLhLNpl7c/BBreIMwpHmniGdxPo/+XyhfPDa8179MCqX9NvmGgR/IkyS6foPc+/cwQDvLetnCEyff/k1mfHi40zSUBFQBLJEoFLcR9QRbqAnHrjbXn6z/FvTCQ2RkpJYZ1NcVCy9+w3wOr+p4x8p5zY6octRtiyMyueLvqJYmTZ9to3DkHTpeJiXzsgTz08SuKEmjntQMPsAQcYlNwwkS8bhk0YmqJuRN8+seUyf9LQc3PpAm4a1EBgtkhuHHn8fdIvnTiNPovCl12d4mEB/1HXL9bHZE9rwssknTZr6ho0e1aG9p1O3E2KjfeiEjj+IaIzR8QPDFx8d4bFhbYfp/vqxFvT489vWe/7+YGxmBhnAA3/7Nm1sZXF9CBefL/raM9LIf2TEUHtvUA4EAz5zzkc27v7DvftXwaf2j+5IzDwTtcstq3FFQBFID4FKnSlAJawvHNXhcHn3/Q8F6wukb1Z8K/gDHXVE+3IGAekXnXuajHzkCduhv/rWO1YW0ufNj80SjunUAZfl6Nq/9PYWsWE0uq5eY0b0X0jBNyvK8aab8P382XGs6PrOOf1kKxcZ/zEzDM5kMDIndT++ixzSan/r5hk/IfnaCsoc3HJ/22FCFsqBjj78UBliYyJ75OWWxUS+mjPNiyMCnU42i/zskFd8v8qbGbmMA4c/ZA0POmUYY+oNHuumc1x1SLv+LxfIkHtjLr6NxpiThtxyvY02+sPe3v3bv/m+ZlbzrTU25HvyxSmMynNj7vN4n314uBxz5vk2z72/HrMT+W1ubXsFnYPckA6rRhUBRSADBCrdKGBU92lZJ14rJ0d2MspixIt4rvkrXLdO5i1YaEd//h87Oqvm+zaxHS92LYHgQ0d50AVnd7eh/9/R7Q+NS/q//ZpZGSgHfdx6MPrdq3m7OP5EF5PMKH2aMU4bi0rsesHSb2JrC37+jRu3dZy/22NbJ+7nC7qmIUDe6RddI0sKlktxaWxtArMOd40DPMDj1TdnyspVhVYn+uuRF0SYRdE1NGroQK+Ddnkps6i4VFauXivFCdZGOEtbbjD9vw4nWxFwH6Hjftp0+KSvlnxjo3DVuZsI0Fak4R58WRDjYRmEH3++QLC+gPrhPsMs46G/3+GyaFwRUASyRKBS3UfogLFmwE5otvHp166dY5vQollTGTX0NhtHZw0+1+3Cdl7a+1wbRccBea+8Ncteo+NxO1DyI/R3xL/NzaxjdmUxftgJZ8tfru0vr77xtnxqjNjqtYXSoF78egR5/120babw299ue0eD+emGe2B0bKwo8YO7yHWjocM8+6Ir7QyMOmEdJhlRFnhefWtmOVb4/ilzxnsf2HaWYwpKMHrSeMHQP+PMCoPY00krhqvRyM0tmyVgBvLguGcCn5N05CmPIqAIlEegUo3CdXcM8/zjt1x3ZdwoEarBtUR/OTr9PtcOKKdxlyMOkxwzowC9/MZM+XjefBtP5DpC5meLv7Y8/Ld4SQGjcbMEJGKkSr81wqB3JCa9Pt26RMAPf/hK40r6as5rcsn55yCpHH23cpVNg96ua6YcY0DCiu9/EPzB7//EyLtsPdAJsoDRnSMesaWgExdkh93R39Np1N3J100w24A7DxS0XZhrJ1inWGQWtdHOj9+YYPn9/6jrXsbwgQ+4PDoi5uiCbK4T7NOgni0K/V3DDyOPNFBeTsw9ZC/K/nU98giZMXGc/eN9gWvMXddw+TWuCCgCmSNQaUYBI873zDoC6LyzT/d8/H6V4a/m4ui7H3woKOcSOtUupnMATXxlmtc5J3IdgW/g3fd7i5Hjnn/ZrmcgHbtsKkL/+H61V6zJPnvbODptLnh7mSYC18u9D4+zSc3NbChT+tu9o6Vd19OkVadTvDag0+UMq6jMlfQfx0XVqGEDWw10evDx8SmrHDfiTs/nj+3C6JxJdM3hpUMaNGzf9RM6d+iJv9vv2XbPsAuM9O+y9YcOf2rDJBnk8D4xYdtaA7abJiP3wXXXNZKV0TxFQBFIjUClrClgqyK3hMLNM/LO/kk1GzH4r/LJZwvt+gLKHXV4W29RGQXPO7ObddvAfQBK5jqyDMaD0vaY02zU/Xfuadu2mLrpqeIHtWzhsWBh9ODWrQTrCcazEUfwrcP1QqpIfWwrOme0Ib9uvnXL0O1DmWeY/fo33z7UVoW3xxPpRF3cEJ09XHcoh3qwXfjNFx6zRgA7qrAojxH5YVjPMOsKcAthpkKDAVmQAWMOPswKXp72tlkjqm23pCIf9+jgA2IL5XiPY+zTL1iDTl7wsE1YKwh614NrCuB112+weK+kCCgC4SDgDrjCkeiTglHnADNSB6FjwO6WVIQOBnx0E/W++q9xo1e4mZgHWX3OOzupSCyg7tu0iceDRW24r4I6Ho8pSYRuLrQHBLcN1kRuv+nqhKUwO6pIfajrEeOCYV1YuEXn6W8DMBs2qL/Hl45OrrJsE9JgbDmCx7slrBuLuzAIg0w7OVNxZcCYc6sodISuIMzIsNDsLirD6HB7MHhpEJCGvCCCawntwh/4IRfbZBOtJQXJ0DRFQBFIjsBOGzeWJF2JzMuL+e+Ti6n83P/reJLnf4Z/2e1woM1jxk3EkTP29mOHEVwc2Crq7jbKVnMYPSweo1MOolT5QWUSpUEWtpU2MVs+k7UBfKBkPInqSJSeKXZ4FwHU+I97J8QG+ZALXuCXihf8SoqAIhAOAkVFsV2bfmmV4j7yV1rRa3QgI8xxD3M/ne8ZBIws/QYhkXx0PIk670RlUqWn6nhT5aeS7+ZDVjry0uFx5aYTzxS7dEfvkMutrOnooTyKgCIQLQLblVHYYEb5XJsALHBrlD8KI1rAVLoioAgoAjsyAtuV+4gzBdyQPzTcW844qUvoI/8d+WZr2xQBRUARIAKJ3EfblVFgYzRUBBQBRUARyA6BREYh8t1H2amtpRUBRUARUAQqEwE1CpWJttalCCgCikAVR0CNQhW/QaqeIqAIKAKViYAahcpEW+tSBBQBRaCKI6BGoYrfIFVPEVAEFIHKRECNQmWirXUpAoqAIlDFEVCjUMVvkKqnCCgCikBlIqBGoTLR1roUAUVAEajiCKhRqOI3SNVTBBQBRaAyEVCjUJloa12KgCKgCFRxBNQoVPEbpOopAoqAIlCZCKhRqEy0tS5FQBFQBKo4AmoUqvgNUvUUAUVAEahMBNQoVCbaWpcioAgoAlUcATUKVfwGqXqKgCKgCFQmAlXyy2tbt8Y+G73TTjsJ435Q/Hn+a5cfeaBEslxeN+6Wc+X7465sNw/prgz3OqiMvyx4/JQOD8sk4g1KD0qjHIbgAflxZFmGmfAHyWN5f+iXz/xk6eRJpDPz3TCZPMpxeRhnCFmMM3TlM54sjzIQss5EaUgHQR7JLcM0tz43znx/SHlBslxeymKIPDdOXsrDtSvTTXfzgmS4svwy3GvyIaT8RPkurxt3y7m6+OMoQ9luHtJdGe414v4yblmWA19l069mFAAI/v773//GgfO///0vEAMXJJTbeeedvXIs4IJMgFkO/L/88ov3sDKfcliWspBPHn9IXvKgDPR2ZSEOAi/42C6kI440EuXjepdddvEwYVmErjxeUw6vXX7IYjriIFyTXF62g/LA4+rMfJShTLYHeeS3EfPPrQdpv/nNb7w2gd/N919TBkN/Pq8RkpgGuYjjz9WP6dAD6Wwn0nk/KMsNWQflI4+y/feDPAhRD541P+HeuungJbE8dUUIYjpD8jN00xlnCB62j2kMWR4h0xDij9gxj2mQRb1Y3tWX5ZFHjCnD5WMceZTHsm7dyCchn4QyiXQBD2W59YB/e/r9s614ltgepkUdVrpRwI3CjYcx4I3eddddvXiUDQbA2wPhAd7RqKpgX1l6JKonUfqOdr+rYnu2F+zx+0cfib4Shgwh+sjK6hcq1SiwkWhwjRo1KsUQVMWHU3VSBBQBRSAZAjQAMGQcRKP/ZDoH1MlkVDSvUowCGkODAEVr1qxZUX21nCKgCCgC1QoBGAL8/fzzz3YgDTdklEYhcj8FjAGI0yDMEJQUAUVAEVAEMkMAg2kYAw6y2bdmJiU1d+RGASpg+oPG6Awh9Q1RDkVAEVAEEiGAtQWsx7JPjcIwRGoUaNEwS8CUR0kRUAQUAUUgOwRcw5CdpODSkRoFVEnDEKUPLLhpmqoIKAKKwI6HgL8vDXu2EJlRoKKY6mwvW8F2vMdHW6QIKAI7IgIwDOhbSexveZ1NGJlRgNJQFL4vNQrZ3CItqwgoAopAPALsU9HHoq/1zx7iuTO7isQouFaL26kyU0u5FQFFQBFQBBIhgH6VLwCjv+VfIv5M0iMxClCAhgEzBSVFQBFQBBSBcBEI0xC4moVuFKAoXUeoiMbBrVTjioAioAgoAuEgEHYfG7pRQDNpGMJpskpRBBQBRUARqCwEIjEKUB6GgX+V1RitRxFQBBSB6oxAGLOGyIwCb4yuKRAJDRUBRUARCA8BGAAuNocn1RzfH6YwynK3R3HrFPM0VAQUAUVAEcgeAfSz2IUE48A+l2E20iOZKdBtxDAbBbWsIqAIKAKKQHIEXMOQnDN1biQzhdTVKocioAgoAopANgjwjWbODmAYQLyuqOxIZgquYtkqWNGGaTlFQBFQBHZkBOA6AtEjE1ZfG9lMgVZrR74p2jZFoKogsPqHNfLq1GnSqVNH2W//Fp5a4595XnJr15ZTTusmn378mcx+d47Uq58vXY7uJA0a1vf4GJkyZaos+HyhvTzokNbSvXs3ZgnrWLtmreQYmb169vBkFBUVy3PjJ3i8jPTs1UPy8nJlyddLZfbsOUy2YW7tHOn153NtvNiUH2/KB8kGA3UvLSkpV3c6sqe88posX7bc1hXUrvHPTZAg2bZAwD9gkaxMMhwDxFUoCZt43GOEwnIh7bRxY8m2r7kHqJaXlxOQmjiJVgsciG/evFl23333xAXSzAHIa9cUJuU+udtJ0jDgQU9aKI1MPPD3DR8pzZo1tQ/xmNGP2Yf3uhuusQ98GiKURRGIFAF0mv363Sh16taRp55+zHsuT+t+juTn15GBt90iZ5/dS7p07SyLFi2WfMM3ZuyoOJ3uGXa/vDLlVWnUuJGUlm6S9evWyWWXXWKfeXSCV1zZz6SXSpMmjaSwcL3NHzHiHml3WBvbaaN+P02cON4aDvxmnn3mubhs6Dp5SsyQQM9EsvHbHz5shNTKybF1L/7iy7h2piMbbUnUrgt797V6oV1+2XEKl134sUCZHKPbE0+MtW0NwvHU7qfIjTddGySuwmk//vij91ljd5bgxpMJLyoqDcyOZKaQrlKBGiVIfPP1t2Xx4i8T5MaS2xxycGRGYcaMWbK2sND+QBbMX2h16du3j/fjS6qYZioClYTA+nXr5ZEx48p1QJ/Mm2c70jsGD5CZM2fL7bcNjtMIAx8YBBgN8ICOO6abTHppin3m35k126Y98MBwOxOhEfrs8/nWKBSVFNv8x8aNjpup2ETzr7jYjPBNx/nW9KlM8kLog077phv72RnN12ZWcUmfy2TatDes7PmfL7Id+sOjR9rfG43A0q8LbD5kuwbGE2wimEWAaNzQzrPO6Clz3p9r24XR/iZj6F4wxgsDSsysRo9+VGab9p7izJKskLJ/KAN92Vbi+c47s6XbqSeXwxEGb8b0meXuiSuzInHXG4M4dyJVRJZbJhKjwAqgaNgG4oADWspBB7dmFTb0j0DiMkO4wPQXI6LcvNpW2jX9rpSSohJv6hxCFSpCEQgFgTp169pOqdNRHW2HSaF7129gOrL1gg4Vgxp0oi7hGceovnbZM848dOSgXuefa/+YXlBQYKMN6uXbsLg4ZhRwgZFybq5xWZmZO11UhWvX2jrpBmrWvKl07tzJdvLt2rWJq3snCDEEFxXojsG32hD/4GZaY9xXmDXU37uBTYds6BkkG660yVNe8Mrjd4sZSdOmTW3aXy7tE+cGyzF6g3Jr59ow6J+/DNsON10iHGvl1AoSFVoa+lnXSGQjOFKjAMXCfnkNBuHSyy6Oa7PfKODBWWJGEejE9zYPDvyJpSWlgpkEprokTANXrVptefjwsix4yIsbvd/+ze0IC37R5s32lf322+a3BS9GJMXmgQOxnL0w//CwgqCP6++1ic4/8C0xPzboijo6d+3k5MbkMD/H+GP9fmHW08LoCp3RFoxi9m7QwNPJrSNIBiokD+L7NW/ulcU1iPnQE/7pQ9u29X78MQ79/2shcNxxXW2nP2ToMOtGoh54JjESf+/9D6Tpvk1lwMBbmOWF/A0g4faBd9rO86+9r/fyEeEoHfHz/tzTjuwRp2u3/19vN/IbmZHxlzL55Vc8l0qJeVa++/Y7GfnAQ1LbPLuYlUyaOFmefe5x+6zieQXhN9m//+3WgJxr1ixcwogbI3TQ4MEDPa9AMtksj2eW7q1GjRp5o3bUy7rxG374obF2VnJ02W8P+rgEjNwyyH/qyfFWX6zbgFwcgRdnQa6cqOJhDMIjMwphWa2KgDfTTP3gg8SsotCMjvggwXjgQaZReWTs4zJzxsy4tOFm7WCmcRWB3p8bC3Hj4U+lHORhpDV06GCvk79/xIOeewuzChoGPGh8GA84sKWMeWQUipcj98fGzIkTX/L8vkH5j5hpLqfFKMN6UD+MIXXualwC0CcdGegM2H7q4WJGfynzEGKUduedg7w2I03p10MAHX4f4ye/d/gDnhJ4Dl9/4217XVK8XJ43LpBEPm4+A3i22DlSENbtMLjCgjV+T1wsRhqI63rshOFqQT0dO7aXjh3ae7MNPkfg42+FvzOzGimjHrzf6/RZ9y39Y2sW48Y9KQMHDjazkVxbFrJPPOFYz0AFycZACb+LNatXy0MPj5VL+17l/bYgH/hcffUN5lmuJXf//S5WaddheOF3Ufn1JR9D6uEaT+aFEXLAzVkCdyNlKzuyLalULAzLRVmZhovNGgQWjzCqwI0B4UHGgxhEWNDyd4jgY+eKxSI8WJCFqXj//gODxNgfDDOef/5FRhOG8HO+b3yceOjgp4R/Ex0t9MfDinzOhlA3dIAuIPh8gwg+ZBgx/LCxIO7KAB6ujDfenG5FABcsQkKP1998xeqCDNSN8tAFIzzkUwZGXaVmOg7/r1LVQAC+8fPNc4IBDwcyebl5dlaHmR3+4N4JIhqEm27qZ33u5MGzMWXyVNtRoxOnQXGfP8xuudGDrlaWhyuoeYvmvJQGRgdQSZnbyd/BUg54UC+NB+ru0+dCkyreMwfZ9c1smOTKxjOL8iCUxWi+cWOzoGx+W6gTRINQ1zzXWKR3677BzK74d9WVl1l+loktUAcbMOCI3wp+fxyEeoVDivC0CA7AGWYrPvSZAq1WtoqFUR4d67333W1FwRXDBWKMcjg6YT14QDANhK8SC08kPIz8YfGHgLJvvTXDpuOB8ruEsKgEvyOmmexkYUQSEfieHf+47Xg5lYUe6GzhksrbP9fOWqAjpqZwC60yIx7QJrNLxE/4oXFKyy1/4MHMx5Xx2WfzbVHUA0K74v2veTYdRiA2ZW5hjUWR0Qk/HOiRX6+ufPfdd3YR3jLrvyqBANYAsJiKzg+E52bQHbEF5EQK0iBghv0/syeRnWl305FiQRmDg7VrC72ZAuTk59e14phfsOwbm/9a2SChhdmxB3rTzFK+Ne6jy67oK3nGXz/ppVdsejPjhsUzyYEXBj3zPp1n/sRze/rLTnv9TVv2kLK1RX++K3uNcQ8Pv2eEvD/nA+nR4yyz4F0sK4weeKaBCQ0CfvPHHd9TZhl3K2i//Zrb3zXa7ie3zJ/PL6+viyMMFnHs3CW2huKXV9WuQzcKfmvlv65MABqbWYJL8KXiR4L9yH56ZOw428mfd15PefbZ57zsVWtinS8STjv1HC+9dFOsIy1YWhBnFLB7A7MN7IwAwaAwzSucIIKOF0bo1gGDrGHCKIPGCz8cTMXnfvCRrF8f86smECO3mak1COVdwsM8deobacl4xuzCeObp5+yMZYhxk5HQLswKFi5cnFIPltHw10GAbqR0av/hh9XeLBm/ERoTlEXH2LNXD7vAC8PAWSvcoQPMVldQUD46ePrZoctVxgULty4Igx7MRjC4mDJlqjfwomzwQD6ef39Z5GGmnI5syIcekPvRR5+gqDUIfKaxRshBINyxJJTxD/aYl6gM3bT0NvhxPLRdW2/9grKyCdG3RuGJCd0ouDMFxKNQOl0gsQDlkv+aeZxB4CE8+ZQT44wCeTDrOO74rrz0QndKjMSDzegFDwX8nvllOzNOPukE7wfnFUwQwVpAq1Yt5aMPP7GuoTZtDxFM/TmSgoFBHbnGgGBbYdCuBvB89OHHtvzRR8deUoJRgc8UPwDkH3VkB9lqtnn4tyZSrYb163t63GLcZJhWrzajrn79brQ/6GOO6SLY4YJZF6bJSr8uAug8uQZGTdAhBm0BZb4bNmzYoFx5Nx8DFmxVvd64IjEwwHPqLqgy/xKzTbukuEgamHykkaALZqEYmIDcfLwg574kxzIMk5UFT6p8uG9gtIL0Rl6m7p1UZfz3ge2IIqRhCLOvDd0o+GcG/usogEkkE7sd6C4Bz6JFX1hWvITmEkdFsVFP/Lt8bdu2saylpjN1t9hhEQm+WTzcLmE00KhxIztVxnQZ01SO9l0+Nw43zKefxNY54OYafu/ddlsfOtsXzJpEx6M62JEUZHEPOWYUiQhGqH79enZ0hBkQymAPNQwCdKMMjNBcAlafmKk7ps5YYMTfeb0usrtGsG97aUHsjdBWxnjSlUY3gStH4zsuAujokz3P6KBF8BdMiUbfwdzxqanKJstPpXd8TdvPFQfdbj/LtIq2InSj4CpCK+amVXb8iiuvlfbtD5fl3yz3OtajzOjZT5gu4oHGNNoljKDgY4XhgKzjjjvGW5tAJ/3nstf03TIdzC4LToPPNz7HVITts9hNgdkIXgKCz3Xu3I9ssXr16tlrXGBdgsbo5TKfbKK1CoyMsCUQs5aYkYj9UGEosQsJ9LLJdwnHJEBvtAuLaqvWrLEGATzYt83FyS/MG5xwL2FLKqfKrhyNKwKKQPQIYPeR28fCGLjGoaIaRLb7iNaKYUUVzKYc3EEwCBhxo1NHZwdfYmw0s00y0pNNIYcNH2JdLuiA0WlCFmRj21wQndztRC85yAB5mWURjLwuu/QS65aBzxUGAmsRh/3pUOl5Xg87MuNuI7QFvv4zzzjVGhGICJo1YGTU1bh4QHBlYQZCGWgDDMLpp8dkoF2YJQAD8OAaOsDHCt8v1iYwa4Ch+ZPRCbMm5EEG9AZ9u+I7u1BuL/SfIqAIRI4Adx+xItdAMK0iYehnH0EJWiuEP/30k9SqVasiulW4DNwi9j0F03HjvYAi454J4w1kyoFirj+1wooGFETnDMKbpa5PFmmsPygP+elQOjLIA3lBdVHHqDBIpx3KowhUdwQ2bdokNWvW9NZtMQDPZBBeaWcf0VohpHH4tW8eOld/B1sRncKSk6zuZB1tGPWnIyMVTzIdk7VN8xQBRSA8BIKMAPvfbGoJ3X0ERWkM4PPyT3GyUVbLKgKKgCKgCMQQQD/rfmgnyEhUBKvQF5ppEBDitestW7ZURK+synTu3Mmex5OVEC2sCCgClY4AzuoqNe5evoOA9TK8GOcSj9Jw07CDj99j8H8vAXxTjEsZ34nAy2TudyBcGan4oAve0QmS4ea1OeSguHPL4G7FO0Z4PypIN78O6V5j0M2jLdDfZuI6SlZH6DMFVEbDkKziKPPg/oCLQ90cUaKsshWB8BBAp46ddQ+OGmPemn/bE4z3YL4xb0mnojsG3WWP5z7SvH/z/nsfWFksA7mTXpwsyMMb1r179w3cnAG+OaYs+LDTDrsNsb4GgrHCIYOUcaXJ49qaP2/Ug2Nk1ozZthx48I4R5J1ktorjpAEczx0GuV4Y10OTrezQZwp+a+W/zlZhLa8IKAJVFwGMmHEES545rA473kDoIIvKzjiyCeaf/8iH4ebwvubNmsgFF/ayR2KQD8di43iKZO9GoM7lK76V4WVH2rQ9tI39ZgJnBNjePXToHd4bykvNF9j4HQjWgxB8ox4cYXcnQnecR8bvKrw44SXpfcF5XptWm+M+MPrH+zqfz1sQl/c/81Lo6+YoDsjAGWStWh3g7W7EoX4DBgyKO1fK1SGTOF1HbpkwZgyhzxQ4S0DIP1dpjSsCisCOiQBGwBhN43ykd997X07r3sOOtPHuDdKeemq8zDffckAc52e5dEnfiwI7SpxCgPOK8F4M3q/h6NwtW1BQIE2bNPaS4Ck40Ow8nGc6ZBC+MofjXUCYkSxcsEj4HQibWPYPb1y729Xx9bn65jsUIGxD79Slk43jX7Pm+5qjXhbZ6xtvvtZzdyFhmXnJM9+8XwTCrKWN+awpicYtqB3kSTek6wj8NAZhDMJDnymwQZzOhKEkZWqoCCgCVRcBHETnHnmNg+Hw3Wa+A4TjZPAiJTtGtyVuZ+yml5h3YnCEPI7dxsd14PoZWfb1N/IVG8Oxrzmh1aUc87IlvsgGGmjOXbrpplvlWPMlORCOaOGahU0I+AcDhBE+dOULrTA2pBYtmtv3dXjNEMd4zJ37ofcOE4waDQt58O7PKnNkTLbubR6dDblh9rehGwUoR2URD5riEBwNFQFFYMdAAB0njlFxO/eDzQgZi7vZ0EW9z5fm5iRVykVnjaNfBpV9MpSyaQB47Ybw6ePjQ3j5EjOUOwcPsX599wRhlx91wHWEz38mojWrYu8TufkY/d/5t7+Xe0GWx4O7vP6jxd28dONBM4V0yybji8R9xNkBDIK7GJJMEc1TBBSBHQuB0rKRejatwod0aBAgB+eN4VvpLiENx9i4hLWI5uargVhvwEd7MFvBSB+y+vS5MOF3SF41u5Teemu6/dAOZwY46gZH0LguH5yezGPDUS/yYHxuve1m2d98ApQEN9Jqc1wMCQvXOK3Af2Ya8zMJMfjmADyTcql4QzcKboWwZFxjcNM1rggoAjsWAug4GzduJK+WfdAGvnu4k/jNg4q2FouysY49JmG+mXl0PKK9vcA6AzrZzp07yTrT0bLTRlhoruH6wRfX8M0R5qEgFpnZoWOrKvNQzxNPPhvnAgM/CEfGYGGZhE+Jnnj8sfYS5WEQeptFctcgIPPkk463Boi7mKa+8po9IocGh/IqEqJ/dWcLkBFGfxu6+8htnOtKctMrEsdDhm8tLzc7B7BPuFu3E7zdBBWRF3UZ6otD49YaX2g9c2opfavZ1I2dHPiQCWRiwW7M2FHZiNOyikBoCPC7BxPN9s9169en5btPVTnWD/DNZiwWFxauNwu4dezx3ehkcf4WjnjHuVwXmp1B2EKaX7eu5bv6qthX0tD5XnF5X9tpQwZ8/LVzc7zvQGCLaKlxKeGjRPyOyTln9/LUwkGZ+N3io1kXnG++omY+4wkZTfdt4q1LwFhg9D/MnFuGPxDOU5s8ZYI1TDhE84LzL5acWubDWeY7LInOTPMqzSJCL00WIiSys4+482jz5s2y++67Z6OjLWtvhvFZnmAALjBTRZzOOWLEtm8hZ11BiAI4csjPryNNmza1e5TxDdugBbZMqsUx1vjoOWXWM99rCPoyVCYylVcRCBsBPP9BZ2ZlUw8WcPFdkWSLszAU+OaH+60Gt850ZLj8QfGKyqBuyY73DqovWRrOPtp1112ti941Bm48WflKPfsIikCxMKYykGVX/83eX3xQm/5FvB2ItwvZ0WLqh2lhjuk0u5R9WAZl8Sk87onGw4rvBfA6URl3lI/vznK/NeS5BHkz35ltk9w6cQQ1di7cYD5IgmOx9zNTWHwUB4Qy2HmANMx88FLLoW3beg876sbLMJgFuHUjDXTPPUNseXzkhDKR7upMA4QHkZ8XBA8J7eeX4Ygf8zAT2c8s7OHH5+4vd/edgzeoPsoIwsWVRT5+8jCZLNwjfnrUrwPlaFi1EEjWcVdU03Q6U8wK8vK2+fP9daUjw1/Gf11RGal089eTzrXfdYQy6RqEZPJ/07//LYOSMdSsWSNZdsI8GgQsNsOaZUMAFMdRIwShE3n88WeMT+8Y4zNsYfcvP/TQI8ZgNJTly5eb7x2/ICeeeLw9QfDiPpdJ2zZtxJwfaKeQGF0f0eHwpGXO6XGBbNiwwSwu1TbHVI+XnY2Ba9X6wLgmoJO+8cZbjBPvf1JoOvARI0ZJoz/+UfAJ0McefcLUJjLKvJ05a9Zsa7xq1dzN6jrTXD/44Gh5+62Z5gaKWdSaaV90ob6oe61ZJAO9OvV1+fqrpXL00UfKS5Om2FnCmNHjrNEY+8g42bx5i7Rtd4g1NJdccoWn82OPPWF1bmE+ljN58ivyjZlZTTQv3/zP6Lphw7/lj3/8gzn2+lVZtmyZdDKyXbruur+aKfjvpYUxDIhDlxJjgKHL7Fnv2vuATr9nzwtt23/+ebOMHj1W9txrT2tM0Ilffc31dhoPw/aQebuzXbs2UlCwTL766mvzjYdX5R//+N7ovln2+t2eUrNGTaHuqAc7S4g33jB91LRl1113kQVmb/msd96Vc845y1VX44pAtUUAvyH0rTQE/jAVMD//vCWYZePGkq3J/kznnhGZ1fCt+DPGYKtReqt58SSj8smYZ8x4Z2v3U3psPabryVsH3nanx/rVV0u2rly52rs+4vCjt37y0Tx7zXivnr23jn74UY8nqMys6e8YLIq2mo7L47u+381bh/19hHfNCOQNvO1vvLSykQbqfmoP83e2lYVrlD/W6AyaPPnVrdCJ+qI+5L1i0hGn3uBFe1kO7YVMlgMf5Kwy7Ua5rw0GJLTzL32v5KUps8ryurIh7y+XXGnbOtO0mwTdoQvIjbu6QAe3Psi6vQwLyHTxAkbMg0zku/cB+cQN+dDR+GURjdMZuKH9SoqAIhBDwHzXZOsvv/xi+1r0t+h3M6FE/X5kC82wWkHTm2DTlF5qixYt5JZbbpQ15jX6J8zbkdhPjEWgPYyvEYs92IaGRSA/4S1LLPK4C71BZYrx1TMzG4GfHjsb3npjuvk4/Xq59rpr/CLtF8n6mD3UJLzhyK+tIe3MM7p7M5tze55tP/SDETYIi1B0g6G+xo0bmW1rhR7/IPPSD0bZaAs+aAMqNbrhrU2Wg9sH2+Tw1uYp5hu3s2YV2FE2ymHnBXdX2MIJ/oFvwYKFZiaxwix+jbbfYfazYtHw9dfftjL5FTno8Mwzs736Vnz7nbQ//DBbFG9+4oUjrAGBUEcywiyrQ4fYbhLwoV10adUxi4Y4+wZ7upPtQ08mX/MUgR0VAc4M0D7GjVHw4hVtd+hGAcpBMVIY7ynAXQTfPDqLWKfYRoqNq2HSS1NsR4/tYO3b/0kuvqS3XYw629k9AD3QQT9tvlaG7XJ8kzFVmbZtD5H9zD7nCRNetC+7+Hf5oEOGEQminJz4jwrx5ZUi80FzELbIBRFcL/363SiDBw+0rhicm4KPBYGw3xnrKH7CZzKnTJlqDtp61n5CE+sBMJBwo6Wi1q0OlEF3DLDb+s46o6d89sln5Yq0bt1KOh3VUQqWFlgMu516sn1LFXu58clO1Hfffdte8gEuJxi33tEBnzwtJ9wkYOE8UYePc2iuMvd2+vSZUtcYUiVFQBHYhgBc8y7RMLhpFYmH/p4CDUIYFosNgkFAZ8nFVhiJz80r8xwNYztYW3NcLRaBlixZymJeiJdYzjdbyx56eKwxLrH8RGWQj1EuZhIwQuiMMfL1U+PGjczr95OtPx/64MCsLl07WzaMfGGwODPAuSuYHXCRCqN/npQIQ4DRNRaH8UIMOlV0tBgd48RGEjrmDz/82JOJ8pDTzPDirBWUw4I4yvH7ziybKsSiM2TVNi8K+alF86YWh6M7d7I84F1jZjWYtbC+5Su+84phP/ecOXPtQjUWHLHo/s47s718fwTHE8wwnT6xwuwPu6xAS5cutVv9Hn9irJx51mn+onqtCCgCZQigv+VftqBEOlMIS0l0ztgvfPttg+Xvd99rX6fHN5IH3GYWeg0h7zbzTeE6ZmG3VesDTAdctxwu2IeMkw379x9oFj/vT1gGHXfTfZsKZht16tS1+4qxV9pP2JN959+GWD7kQZ9L+vaxbHidHue0cMYCg4BvQ5NwDXdRh/YxIwL90cYWRc3NiH+8VzfaQkL+aeabypSJ81NuuqmfnTmd27OHNQQ426VunTr2lX64hVLRDLOtF3/8DjPq8BP3XoMH328GDwwP9o6jPsyKWpkZBwm6ABeeM9PELLzzPpHHDeHSw0yB7SJWMBI4RhnYYHZYdraZW1TjikC1RsB1z2OW4PfSVBSc0N9TgCEAMQzzG83YYomRKrZj+re9IQ/EHUr2IsW/ZGWQl853nZPxBeVNmRJz9eDFFuSD/DonSgdvkEykg9CR+nGJ5UTzP1l9yfQM0iZT/iAZmqYIVCcEfvzxR6lRo4a3hkDDkC4Gid5TiMwoQDGzGi5QvLZ5A1kphsAUxygoJoqAIqAIVBQBbOHGi8GYMWAQHpZRCN19xAZypuBOcZhXncPOnfVTodX5/mvbFYGwEEDf6ncZ0ThkU0dkRiEbpXbksnAV+d1FO3J7tW2KgCIQDQLwxPiNAIxEtrRztgKSlYeCUFxJEVAEFAFFYPtAIDKjwGlNGO8pbB9QqpaKgCKgCGz/CETmPtI1he3/4dAWKAKKQNVFgOu1YbiM3FZGNlNgJVu2JDh0iQwaKgKKgCKgCFQIAXpkOAivkBBfociNwi67RDYZ8TVFLxUBRUARqD4IuAvNnC2EYRwiNQpQWheaq89Dqi1VBBSBykWAhoHGgMYhGy0iNQr0eWWjoJZVBBQBRUARKI8A+lf2sWEYA9YQqVGAFaPSrFBDRUARUAQUgewRCPLCcMaQjfRIjQK2owYpno3CWlYRUAQUAUVA4gbcNAZhzBgiNQq4cWoU9PFVBBQBRSB8BNC3RtG/RmYUYLFgvXT3UfgPg0pUBBQBRcBdUwAaYcwSICcSo8CpDCpw47hWUgQUAUVAEQgXAQ7Cw+hvIzEKrsXyfzIuXChUmiKgCCgC1RMBt58lAkFpzEs3jOTNsjCsVboNUD5FQBFQBKojAuhnYQTCMAQufpHPFPRAPBdujSsCioAiEA4CMAYwDPwLyzhEYhTY5CisGGVrqAgoAopAVUFgw4YN5pvpN8myZcusSgj79u0ro0ePjlMR6Q8//HBcWrYXNAY0DtnKC90o0HpBMSgZxZapbBut5RUBRUARCAuBN998Uzp27CiPPfaYLF++3Irt3r27nH766TJ//nxrLFhXly5dpG2btrzMKkT/CkJIw5CVwLLCoa8puApikTk0ZRfdLbJ0isiWn+Pa/b/adaW0yfnyU/6xcel6oQgoAopApgigv6pZs6bk5uamVZQzgpkzZwo6fNJXX30lxx9/vPznP/+Rl19+2SZjJtGjRw859LBDyZZV6J4WgX7Xvc5GcOhGgTOFMJWUebeIFLwR2M6dS9ZJ7lcPyJa8/eW/u+8TyKOJioAioAikgwD6rZ9++kmwFlqrVq2URfbaay9ZsGCB7LnnnnG8f/rTn2TIkCHy7rvvyqmnnmpdRtOmTZMvv/wyji+bi19++UV23XVXK4L9Li6yHYiH7j4CqK5ioWxJ/XaWlZnw3y+bpea6mQmzNUMRUAQUgUwQ2LRpU1rsMAZ+g4CCMAC//e1v5cILL5RjjjlGnnnmGZkyxXg6IqZsDQLUC32mAKE0DIhXFu38S0llVaX1KAKKgCKQFAEYissvv9zytGzZUq644gp58cUXZfz48ZKXl2eNRpAxSSrUlwl3EdZsw97hGfpMAXrDWtFiheLnatHdB0f5yx8bnFo+UVMUAUVAEagAArvttlsFSpUvgnWEE0880RqI4cOHy5w5c+yi9JgxY8ozVyCFBoEDcYYVEOUViWSm4EkPK9LqryKbi0TgRvIvNOfmS0mLy3U9ISysVY4iUI0RwGAWawnprCekgumTjz+RF154Qb7//nvBllUQZgdwK2EBOlvCLAFGgANwyHPjFZUfmVGgsmEoaRvXdohIwE4uTHXyKtp6LacIKAKKQAQIYFdS74t6C3YlgWAM+vTpI8cdd5wUFRXJ008/nXWtnCVkLcgnYKeNG0tiK8O+DF7m5eUwmlbI6QtC/P34449Su3bttMoqkyKgCCgCOzICMBbYsZTtegIwwmI4ts9y4I2Q8XQwLCoqDWSLbKbA2kJZU6AwDRUBRUAR2I4RaNasWWjaZ2IAMqk0koVmKqBvMxMJDRUBRUARCBcBemUgNUwDEalR0FlCuA+BSlMEFAFFIBECMAyuoUjElyo9UqOAynW2kOoWaL4ioAgoApkjwL6VswQYBMYzl7atRORGIaoV8m1N0JgioAgoAtUPAXpiYAxoEKrkTIGWimH1u1XaYkVAEVAEokfA38fSMGRbc+gzBVotKhaG5aIsDRUBRUARUARiCLh9q99AZINR6EYBykBBKAyfV5jKZtNQLasIKAKKwI6IQNh9bOhGgQoihM8rlFNSd8Q7qW1SBBQBRSAEBFzvjDt7qKjo0F9e8yvFxZCKKqjlFAFFQBFQBMoj4N99BA4Oystzp58S+kyBVcM4QMEwlKRMDRUBRUARUATiEfAPxONzM78K3Si4RgDKqvso85uiJRQBRUARSIXALruE7uixVYZuFFyrBQOh7ymkurWarwgoAopA5gjgc5wk9rsMmV6RMHSj4CoBBcNQ0pWpcUVAEVAEFIF4BFwPTXxO5leRGgWow8WQzFXTEoqAIqAIKAKJEAjaxBOGcYjUKEDBIMUTNVLTFQFFQBFQBNJDwB1w0yPDMD0JwVyRGQUYhDAUDFZbUxUBRUARqN4IYL3WfUEYfW4YM4VIlq9hDKgcwyhv35Ytv8i/NhTJ2vUbZNOPP9uq8nJ3l9//7rdSL3/PKKtW2YqAIqAI/GoIwDCwv2WYrTKRGAUYAigIKxb1ltS1hf+SxUu/M5/9/FmwRStnt5qyy66/kZWr/inf/mOt7L57TWnRZB/Zp2HdbLGS1T+skVenTpO1a9ZKjvnEaK+ePaRBw/pZy81WwPhnnpfikvKf1mtQL19OOa1btuIzKl9cVGy+Sztb1q4tlOLiEmlQP196/fncjGT82syzZsy2KnTu2ilOlTGjH5NLL7s4Lk0vxN7vUnPf3WdtypSpsuDzhfZ30q3bCbLf/i0UqggQCMsQuKpF4j6iolGvJyxdvlI+XbDUGoPD2x0gJ3Q5VI48orW0PzQWRxpowZffCHizIRiEC3v3tSIOOri1DXub6yVfL81GbChlJ730iqwxhsolXL/+5ttuUuRxYHT++ZfIsmXLJTcnR5o1ayrdTj058nrDriA3N1dGPTg6Tqzt5BYsjEur7hcYANwz7H55cNSYuGcNxnPSi5PlyCM7SAvzDPTvf7t8+vFn1R2u0NvvDrjR54IYZlNZpDMFKBbVeworf1gnBd+slIb168rBrfYNxOD3e+ZJ1yPbyPxFyyzvHrVrGXfSXoG8qRIHDx4iF5zfM27Uiwf+/hEPypixo2xxPPirVq+WPNOp7LdfC28WMWXyVOnujNgxEm17aBtbZt4nnwlHpDAwxUUlNh1yXNpvv+ZJR1snn3SCtDssJhPloMu4x5/0RHAEj4RD27W1ulFfj8lEWA/5/W2h7ku/LrBtpSzIGP/cBOl9QS85uksn2w7OomAslixZ6rUTvJRTYtq7atVq07bmdsSJ+ogHyn3y6TywW3LzmMYQGHc29ebl5doklIVcYAJclywpIKvs3aBBHFZeRlkEZfLr1rUYEtM3X39bepx9hp0tUi7Y3XqA5957N/DuO/NamLbNMrMnP/GZ4H3w68V0luO9IXZsK/MREjNghWcMPEWm8w56ztA23meUpXzEQW6eXzfkDx/+gNQ3M8ELLuwlb76xbQCyYP5CuebqKzyMi0tKZNq0N7xrlFUKBwF4Y9w+Ngx3fegzBSqF0F0dDweCbVKWrlhpXUOuQVjx3Wr5ZP5SmfvplwKjQTq4VTPTUedYNxPWHzIl/KgWL/6y3KgX0+WBA2+x4jCSHDJ0mHWbvPve+3LFldfaHyMyh98zIq7KUQ+OEXSGkMsRKX7MMDD1TadSXFxs5WC09f6cD2KumDJjEScozQv8uDGCn29+rHDrXHFlP9vhsR78oPFnXT6mHujCET/actPNt9o0VDdx4kty0w23yOx359gZAWZL6LxAy79ZLkvNLOGyy66RwX8bIqd172HL1c6rLQ+akTfaSwIGRaauT+bNk3HjnpRBg+6y9SP99oF3WTZ0vk899axNh25r1qxh8XIh9J89a7aX/sjYcbKmzOHkJfIAAEAASURBVLDOnj3HwxF4ooNKRSeecKzVC3zAo3DdOjnauJOgk2tsoT/lvTbtTZlnrknAmXnQH394FhgHH0bVIx94yKYhxDVpwoQXvXtm22faAcI9gFH2E9x2mM1ipob7dsH5F1vM3ecMBvLOv/3dPmco7z4XGNHjOQZB1vmmPGThuXHbbBnMv0v6XhToTsNMGs8H6XNT/pCy2TXTNMweARgDvzemSs4UqBRCKL1ly5bsW++TgHUErCHQPYTs2XMXms60VPaonWO54TJa/v0a6dQ+5uppuV8j+dAYi39t2JjxbGG16Qjq1K3jjUJddTgabtGiuTz19GMez3m9LhKUy8tL7UtFp3PTTbfKrbfdLA3NGgX+MFpes6ZQ2hzSSk7pnt26wEzTWbZqdYDcMXiAVb3NIQfbDg8zHNTDjoj+8tsH3ilnnnGqNytC/ljTyQ4qK99036Zy403XWlmdjupoZWHUWbhuvaBDeHb84zZv/NPPC2ZYqKdJk8a200ZbYETy8+vYdqIPRYc7eewEW6Znrx5y1hk9PSOUn183sOOxzM6/Pn0utHoQq0WLFptOq4/lAI5HHnmExRGdHnzdqaiTmXU89PBY26nCwPS+4LxUReLygRnaCMJondg++8xzXhz3/a23pnvPDdt+SreT7GyjxKwT9ehxlh1h8x6xkoKCmFFwZyZw49x15yBvRI61pgJjPOrtHVv3Qn0wCHcPu8tiD2MxdOgd3gy0nhn1v//eB9Ld3KMXJ7wkt/S/ycrC/QoyCnhOg6iXuYeXXXqNHHtM7Llt0rhR3HpDUBlNyxwB132E0lzLzVxSfIlI3EduFVHMFrDTCIvKcA+BMCuAQWjZopE0adTApmHW8KVZgEaItN/vuYfUMGXWrv93xkahtpmKbyrdZOUm+tfQjPDHj59gF6FLzHR5nekg6QpCmUv7XuUVXW86QRLkYkR5S/8bZf8Ui3HPmB/5y5NeYVG58upLpYvpvFLR/M8XSWFhoQwynT0I+n377Xc2HvSv0IxowY9RIgj8JaXbFrJhCEj1TYfjyurUaVtet+4ny+gxj1pWdG6YEaDTfs2M1E88/liKkNatDvTi6EAbN25kR9z168fupZeZJAIXzTqDKzo6jKKbNmlkOz4UKS0pNm6O9GWhDPQ47fRT5TlzT5cvX+EZGNTz7YrvrGHLNTOg+cbA7IQCDqHzXWDWH443s41kBgizDtz/+4aP9ErXMmsxSMdgA5ij0w+iAnNvsLlgyNB7rAHH2g2eK7q7UIYL/D/8EKsHzxmMADtztHHp1yXec7Fw0RfGkMU2ZMDwY7SP+jGjzIQwU2x9UCv5y6V97GzwUWNUsfbAgUQmspQ3MQJ+txEG4vTUJC6VOicyo0D3kX96k1ql1BwbSzbJHrm1PMaVa9ZLrnEP0SAgA/GVq9fLP40BYfpuZifSpk0/eeXSjTRsGPthYsTk/ujw44fPG77hG41LBT+kvmWjU7hcXKKbCWn4cZJq5dSS447rKiNHPiTPPhcbYTPPH55qfvhdju7kJcMtky4ddFBrwQg0HaptZlsYWbdt2zaQvcTpJNx4jmlLIgJuQ417DZ02OlnOWhLxV6QTP7z94XY28pnpqI/seIQnGiPuihBH7n86/LC4jvTmm6+3I2fglJNT/h5g1ofRuOtKCqofRgUzUD4z5OF9XW8GFowzjyHXkI4yRviW/gM91ybwRWfvJz5nzz8/yWAfezbhInpw1Gg7I0DnP/Od2fLB+3NtUXTo9xpjBXdUXaMj2poOwQBBbxoA6AI3U5/ef/HS0pGjPKkRcGcKMAhh9bWhrymgKVAQf6AoZgo1dtlZNv/yXysf/3CdiNxDo3bdteI2EKNGdNwwBCQsrMLfCoLrBCNoupPww3AJ6fxz0xGHawEjK/rS/fm8xg+MMhAG/fjJ64Ynn3S88anPtR0MyhUVF9mttS6PG9+32b6CjpV1oXP7eulSj2Xa6296cfjr0WmCOnRoL1OnbvPXY5TdpWtnj/fY446xo+KmTZt4aYh8+OHHHq7AF+s3WFsJIqyP4C+IgP/rZkEYMx1ujwQvZjIY4fsJdU2ZEvOh+/NwjXUfEN1Q9sL8sy63R0bJ8HvvloMPibknmTfRrAOdcMIxnhFhelDYwLQRzwnuB7CGkYCbDvcVuqEjT3WP16xaYwxTjuU74ICWdmbDujA7nTVjNi/L3FZb7agdiWtXrzEzqsZ2oIP6vymbGSIPbYcL7vEnxtpFY6SlQ9TX3ZX37jvvWuOH8snuXzrylScxAuxzE3Okl1PxXjI9+ZFw7b7bbrJ+w7aOYc/f7SFr1m1zFaHS5f9YbX5spdK65b6eDsVFpdKgQczP6yWmGUHHjX33GDnBR7rCdDRNjIti2D1DrIQzjdG4dcAgqVunjuTXq+v9CNIUb0dRN1z3V+vfp/853bKp+DBK79CxvV14zKmVI6Wb4HYYnLAYRsgYJWKhGPy1c3NkwG23ePx4RwMdTmHhetPWOl6eW0627hSXh8JYy+jX70YZMeIeTxYiBx7Y0s6ecmrVknXr15v1lX62U11j3Ch+usMsSB9s1i3oGnHz0U4s1rpG5wyzPnG6uTfsrFx+vHMCnz586H6Cu2P69Jl2xxndLX6eoGuMqIN0C+KFTph1YIE334zGgeeZZ54qGG1fZEbW0DsR4VnDvckxO+puHXCzZRtgNj1cZWahGAAAx2OO6WINGOSRrr/hGrnc+PuxRoH7he3M5/W8yGY33XebscZaEGawaHvQfaA8f+hvE2ZpeN5GPXi/ZU12//yy9Do5AmHNDPy17LRxY0lsSO/PKbvOy0tv2sjirrXCLOHnn3+WWubHHib90ywWY9H48HYt7VoBZL9rFpphBHJzY9N5dOBwKXGhGW6kDz9dLG0PaiH1K7gtFfVgeo4FZIzy/B0N8jDCwqirKlKm+oEf5LYTxqBPnwvt6BKj2aC2BpWDHPBjV9bkKbFFZaRNMSN1+N2xiI18uEvc+sDjEhbwB5hOMNHLUKd1P8euz7huPrd8VY0nwrIi+ibCP5GsdHBPVDZZOmYLebl5cc9IqvuXTJ7mxSOwadMmqVmzpreOAJd9JmsKRWaQHEShzxSglOs+Cqo027Q9TGePReMC80IaFpBBR5ldRt+bBecfVq8zeb+RPzTYtuiM/O/+scpuYc3GIEAOOqxEO4pieeX9uShXFShT/ZJ1zmhPkEFAelA5jEzfemtG0l08ieRBJqnULL4GGYRPP/1MJjz/ot1ltb0ZBLQtnbYTg1RhEP7JyoRZt1tP0H1KdP/cchr/dREIfaaA5nAdAcYhipkC6li6bKUUmHcV3NkC0oNobeEG8+bzEutK+kMIx10E1VFd0jIdhRKXr82oEbt0/B1FpvISjah/MLOMEuOb98tn/RpWDQQS3b+qod32pcWPP/4oNWrUsAvM6GszdSclmimEbhQ4S+Duo6iMAl5Ce/fD2CLvUYe3lkSLyHif4QPjNgLh7WYlRUARUAR2BASwVZyuebqNGKbTvkRGYed0CmfCA6XwB+OAkLOGTGSkwwsjcNAB+9qX2L5c+m3CIkuXf295jig7Bykho2YoAoqAIrAdIYCZAfrZsCl0o+AqiX207gsWYSuP9QS8sLZy1frAA+9wCB7ymptTUnFaqpIioAgoAopAcgRCX2h2q4vKkrl14MU0uIhwOB6oRdN9bAiDgLRGf6hvTmqMpdkM/acIKAKKwA6CADwxGHjTM8Mwm+aFbhRc11EYCqbTuJb7N5bNZo2BhgFleILqgSavOhK2A+LFsrDfeUiFJd76xiFwQd+bwItLU155Tdq1PcRbEEYajwc5yLwIFvTOQKo6NV8RqI4I0DWPPpfkxpmWaRip+4hKZ6pURfhxEmrD+nWsMaBBcE9QrYjM7bUMDkK7+uobBIevVSbhnQOcFMtz9HubF/1gJEAwUjiR85HRj0rB0gJPreHmJTm8U4IyOIwt1VvdXkGNKAKKgIeA67b3EisYCX2mQD2gJNxH7vkczIsqhGGotftuZifSb7zzjsKqy/0mArbVud8HQMfH7yjgCAQSjhhoZ860xxkzQd8lKHLOEEIZfA8AL8bhID13rz3k8Gz8RHWxTtSFw9JGPjBcLulzGZMThjyOgFs5UVdz8y0IjBb4LQO/7omE4eA9nqwJHhyjjUPV0BaczolD/3AoHgltWbToC+9lNrSRJ6RGtXeedWuoCGzvCKB/jcJFH/pMwQUaUxkoXZmE9QMegBdmvfwmAgwCDjzD6aAgvJSFoxVwRj7OsHdPQ8W3EnBQHs+3d7+xgO8GIJ1n6z/11Hh7uicMAkbbJNQHOXghiSNxysMxFNznT/527drYw+bw9bB0CC4m/IHQFrQBRxvgpE5+y+CzzxfIlc73IRLJxUFrrjHDljl8iAj08JiRcXlIw/HPOHuHhDbiyItUB8mRX0NFoDojEOQqCmPGENlMAQrDfVSZLqSoHxB00DjhdIg5fhjHXON68suvyLgnxnoHoMEoYASMzhGHnQ01ZwxxFI7vFOCQOPr53W8842tVIJTDAWeU8Y45ubJVqwNt3lNPjrdnyPAsHp6X39aUIWX6NivLwSDgE57u6aXutwxuuG6tNVpup8+yQSFmLJgF4KwdUJBeOPoZh++5lFPbHAa3ptBN0rgioAgEIAAvDPpXd4dnkKEIKJo0KTKjgFqhcGXPFJK2NstMGAQcEsbvHmA03dgcisdOGuJxfPZnn8/3RsU0CMjDiZrJztcHDwinjVLGG29Ol7v/fpc9JG2TOeLBrSvdg9diUhP/x/ETOIzOf3Q3vhsAI4dDzXDQW7oGAS6pJ8Y9bQ1YkDFwNcF6gp9yTV1KioAikBwB9K00CGEYA9YWmW+Hawo70kwBBgGnaroum1Rn9bu8paYDhEslFeH0StSDmQgIhiBV55pKZrJ8fJWt1Byu9ar5zrFLMHj4DsQA80U4GAW4r1IRdO7/19u9r3sl469XP99+wtPlKVy7VhrUr5oHCrp6alwR+LURQN9KdxHDMHSKzCiEabnCaGgYMuD2Oc58EwBHD4NwRj9cRFysRYc4d+5HcrLzMRu4i0DYeoljit2Pv9iMgH8wAPhw/H33jZSzzzzNciCtceNG1u+PBMijqwrXqQj8+Aui+vXrmVH9CHnCrGvAbeUSFnwx24GbZ1nBcpuFL8C5xo78aD/WW4bcve3rXswLCjt37mS/dUDjh5DfQg7i1zRFQBHYhgC+PklifxuGcdgmldJDDnck9xGggWGAywNbJ7GwyvPw4X4pNZ9WxHn4rosHZXBePc63P9x8jIYff0F6Mupovn8w2mzfvPa6mAECb9B5+em6dLDg3ePsM+zH54Pqhc74VCO+4sVvLSz+4ks57dRzLDu/mwBj8OzTz5ntv/XLycIZ/N99913crqcDDmwpY8wHaYIIhu6Ky/va47RhBPE9gauvSr1jKkiWpikC1Q0BfEBs1113tc2GMaBhyBaHSA7Eg3JQEkpjMWQ381GcHZ0wyvV/C6BD+87y/txZ3qg6ExcQXDXzzXcG3IVfYhhUF/MShceZj6i7C+KJ+H6NdBiaRN+o+DX00ToVge0Bge3mewoAEwYBf1gEcT+HuT0AXVEdk+2rz8QYoH589WvuBx/JqIdGBKqTrK6gAuh08S1g/wwmiPfXSAM+ib5R8Wvoo3UqAtsDAlhT4OyAYRgzhtBnCgCTRgFhVEdnbw83DSP6TDtwtAt+faxXZGpMkmECwxCmvGR1aZ4ioAhEjwA2rey+++5xOzxpHNKpPdHR2ZEbBXwIorb5pq+SIqAIKAKKQHgI0CjQECBkPJ1aEhmF0HcfYXbgEvfRumkaVwQUAUVAEcgOAf8mnkwMQrKaQzcKqIyGwa90MkU0TxFQBBQBRSB9BNw1hfRLpeaMxChwGgOlK/NAvNTNVQ5FQBFQBHYMBDDo5gAcfS7j2bYuEqMApaigzhayvUVaXhFQBBSB8ghg0I0/EPtbhuW500+JzCjQv8UwfZWUUxFQBBQBRSAVAhhw4y/sPjYyo0CLxTBVAzVfEVAEFAFFIHME0MfSMDDMXMq2EpEZBSrH6c22KjWmCCgCioAiECYCHHwzzEZ2ZEYhDOWyaZiWVQQUAUVgR0aAA2+GaKsbr2jbIzMKUA6zBF1oruit0XKKgCKgCCRGgANvhok5M8uJzChADby4FoblyqxJyq0IKAKKwI6PgOuaZz8bhoGI1CjoOwo7/oOpLVQEFIFfBwHXC0NjQOOQjUaRGgUorYYhm9ujZRUBRUARSB8BGof0S5TnjMwoQDlYLffrQOWr1xRFQBFQBBSBbBEIY4ZAHSL78hqUhGFw/V6sNKrwxx9/luLSn0yd/5W9fpdnvkoUWfOiaoLKVQQUAUXgV0Ug9F6TxgAGoTKMwpYtv8iK79fIylXr5ccff5LVhf+UnbbuJPXr7WXOGq8pLZrsI/s0rPurgqyVKwKKgCIQNgJRDbhD/54CDAGIRmHz5s32QxBhAwJ5OA/8kwVLjDH42c4M6tXd07qrdqtZQ0rM95LXrtsg//p3kTUOR7Q7wIZR6KEyFQFFQBGobASi+hxnJEYBBgEzBliyqD6yA0Mwe+5C4yL6jRx0QDP5/Z559p4gfaMxFvXy97TX/9ywURYs/ka2bPmvtG/3f7JHnn7wp7IfXq1PEVAEwkcg6CM7qCXd9YVEH9mJxCiw+TAOP/30k9SqVYtJoYUz3vvMyvLPAJYuWykFK1ZKt+Pae3XBUHzw6WJ7fdThrSNdayg2n72c8sprsnzZcskxX5zr1bNH3Cc5l3y9VF54/sXAPE9hE5kyZaos+HxhIB8+1zlt2huW/aBDWkv37t3col6cfNCjW7cTZL/9W3h5+FTo+OcmSKn5pJ9fRrI8tG/8+Amyds3acuU84RpRBBSByBGIyihEtvsIiNCVFDY6K39YZ11GmCFg3SAVgeegA/a1ZVZ8tyYVe1b5w4ePlG+MQTjyyA7SoF6+XHHltcbNVWxlorO9+uob5KCDW0uLZk2ld+++9nvM/grHjH5MJr042crIza0dJwPGYsjQYTbvpJNOkEkTJ8v4Z573i7BGhXyoq3//2726oMcVV/YTyIaeTz05XmbNmO3pyDzKv2fY/Z58tK+4uMSWe/+9D+T2gXd5eRpRBBSBykMAW/65rpDu7CAd7UJfaE6n0mx5lpqZAHYX0WWUjrzf77mH7GVcTCvXrDMd8j7pFKkQT2FhoYx5ZJRX9o23psvsWbPlFDOaf2TsOLny8r5yymmxkX2xGaVPmPCitDusjcePyFtvzZBRD46Qhg3rS+eunWTB/IUy1cw+ev35XJn/+SI584zuNh28vfucLy9OfMnm4ZoEvquvvEyONuVBqAuzC9SFGUKrVgfIpZddbPNyc3Nl3LgnrcxVq1ZLayfv7mF3Sp/ef5Ebb7pWMMtZtOgLmTxlgi3X9tA2ctYZPQVGpoHRVUkRUAQqFwG+wEaXfRi1RzJTgIKcJYRpwdBg7DaCOwiLyplSvTp72rIonynBbQJ3TCpyDQI6y1Kz4H1I27a22KJFi6X5fs09EUcdfZR88cWX3jUi6HjNHMsaBGZ07NhelpnZB6jNwa1kvjESpGUF30jTpk156YV3DL7VMwhILDDlDzEzFNDyb5ZLJzNDIMFQLF78pZ3RID5o8ABmyZpVa6RO3Tr2+rN5n0vTJo29vLy8XPnT4X+SefPmeWkaUQQUgcpHAP0s/7KtPRKj4CoX9hvNG4s32TbnVWDBuFaZq6k0Q6OAzv38P18i4x5/Us7reZEdGd8+8M5Atw2U+/TTzyzfhcY9dObpp3od/Pp16yQvN7YgDj50qqWlpYh6VFxUIvn58Vtoc4ybB/5DEGcZxx7TTfD3/py5dhTvCQiIzJw5247wD2kXM06F69ZLbTM7cKlO3bpSYup2Ce0eMvQeuebqK2xycUmp7NtsX5fFxlevKSyXpgmKgCIQLQLoZ+k+cgfi2dYaulGAoiDOFDi9yVZRf/ktW7b4k+SfG4qse6hcRlnCLrvumigrafqSJUuNy+ZU6xbqYEbtZ5/dS5YvXyFHHd0psFyLFs1l2LC75K47B8mkl1+x/n0w5uTkxPFzrSEu0VyUmM43EcG/j4XjSS89Z/+gz6V9r0rEbmceT4x72rij7veMUxDzpnLGqVhuuvlWOe64rnHuLSww+ym3dny7/Pl6rQgoAuEjgD7W37+y382mttCNgqsUDUQ2CvrL5pSN9l0XEOLz5n8tH5btMDrcvJMQREVlI+E9cjPbDQW/fq/zz7Ui4Yd/f+4seXb84+U6WbiY4P7BDAA+drhiLriwl2BBFgQ3DHz2JLhmGjVuxEsb1t+7vqw3I3mXlhUsl/x69WzSjOkz5dxzz7J1oB7oA9cPRvV+Qtqdf/u73HrbzXG6Nm3SSAoKCjx28GHG4q4LDBp0l3ToYAxO2boDmOvVz5e1a+NnBYVr10qD+rqe4IGpEUWgkhDgLAHVhdnXhm4UoFyUhgE7ifC3dv0GC/3awn/Z9xXWbyiW5ubtZWw5TbQAvXb9v23ZqI6/wGt715jdRW4HPb9sWymURSeLhWXSa2bhF2kg7CpCuYYNG0jjxo081xQMzdy5H0mnozqCzRqWgiXbOnQYoVpmBlLbuNMQ9+8igkHY39mKChlHdjxC5hi3E+nVqdOkS9fOvDQ7iu6UZsZN5BoEZHbu3Em+/fY7r33Qt9C4xNqYBWclRUARqFwE3N1HYdYc2XsKNAxRvKeAdxGWfPMPOazN/rJp08+ywbyg1nL/Jkm3p8K1hJlE65b7yh8iPPZi/NPPy+gxj8oBB7SUwsL1ZoRfR4bdM8SO7OEuuumGW2xHmlPLdOS5OV7eeb0ukg5HmJH55RfLD6azvcpsGc03M4sVphM+3axLsINGx4/tpciDm2nd+vVy5RVmR5PZ3XTDdX81b3KXWjcXXEqYQbh0wIEtvZ1RcEPNnfuhQI/STaWeewnrD7ffNtgtZuMTJ463M4lXJ0+VJ5561tRf17bv6qsujVvQLldQExQBRSASBPBG82677ebJxoA8kxlDpb+8BqOAvyiOucAOpBcmzzJzJpEzTz4qqTEAYnAv8eW1rkdGP6pF57/06wLZe+8GcS4Z3j3rYjILzq67hnluCL4GRgbcRH6iDMwQgvL9/EHXMD6YKqbSw18W7Vtt3GCJdPPz67UioAiEjwBOi6hRo0bcrqMqbRQAQZTHXOAoi/c/Xiw1a+5iX0zDewhBhBnCgsXL7DEXndq3TmlAgmRomiKgCCgCVQ2B7ersI4BH9xEUr212y0RBnAEg3MsYhXp1fmfqypGfzSF8WzZvMesO/5Z/GdcS1iAOPWg/M6LWXTJR3AeVqQgoApWPAGYK+F4NPnsM4iyBYSqNfhX3Ed5R+OWXX0ynvHsq/bLK/94ce4HzjmAc4o7O3q2m7NOgrjRpVD/S846yUl4LKwKKgCJQAQTcmYJrCNx4MrGJjEJkx1xAMf8e2mQKZpOHhWP8Ya0BM4Odd/6N5NbeXV1F2YCqZRUBRaBKIwD3fLoGIJOGRGYU6D7KRJlsebHVtF7+XtmK0fKKgCKgCFR5BOA2Qj8Lw8AwDCMR+nsKfiR/DePg10GvFQFFQBHY0RCAAXBfYAurfZEYBRqCMKxWWA1VOYqAIqAI7EgIoJ/1u+jZ92bTzkiMAo0BFGQ8GyW1rCKgCCgCikA8AmEYgHiJsavQjQKNAMOoFA9qjKYpAoqAIlCdENgu3Ec0AgyjULo63XRtqyKgCCgCQQjAdUT3EQfhQXyZpoU+U4ACMAhUkkpnqpjyKwKKgCKgCCRGwB1wcxDOfjdxqdQ5kRgFKEYlXcVTq6McioAioAgoApkiQGPAfjfT8i5/JEbBrYCvYLtpGlcEFAFFQBHIDgEaAkihMXDTKio9EqMQpoIVbZiWUwQUAUVAEcgcgUiMAtWAccCfupCIiIaKgCKgCGSPAPrUoFkBB+TZ1BCJUYCy7h8OxVNSBBQBRUARCAcB9KlBBiDIUGRaYyRnH1FZhNh9pDOFTG+L8isCioAikBgBnEDtrteGYQxYW2QzBVYAZWEUaCiYrqEioAgoAopA5giwPw0yBGH0s5EYBTQTCuMP1gwfgsC3mpUUAUVAEVAEskPg559/tv0qvDB+w+C/rkhNkRkFv8XCNRqjpAgoAoqAIlAxBPC1NfSlYXT+iTSIzCi4SiOO2cKWLVvM19F+TKSLpisCioAioAgkQADeFq4l+PtXXLtpCUSklRy6UXAVo6I86qJGjRrWyuEzcrr4nNb9USZFQBGo5ghgZlBSUmL7TPSh7GMZAh6/ZyYbyCLZfUSFoCiVRQMQxxoDDEJpaamdPWAGAdp1111ZTENFQBFQBKo1Augj4VlByNmBu4bAgTYH3uxnwwAtEqNAA0CF0TA0AiHTcI2GYJ0B6QzZKJcXaW6jIYMyye+G5EXIelydKBtlCC6BZ1nkkQ9lSch3r5HONPDD6OGaf+Bl3ZTB0MXElcN8ykXIdiAOokxXF1dfPx9l+kNXDuoADpSJENfEyC1L3ZDmxnmNEOVdTJhH+SiHP+KAfLculkWIdPCS2FbijXTqCvngJQ/LIGQe60XoxpnP+pDnlkM+9UE64iTksTzSUJZp5GGa/xrp+CMWrN+VR5kImU4+fx7yQdCPGLFuhCSWZ/0ctDGf9eAavCC2GXmIIyQf2+DKc+uzAsw/pLllMDikXNZBubh2ZSAdvNQH+S6RFyHbx7pYFiGIMqra7596ARf88Zo6Q3+2AWluHNfZUCRGwa8QGsSbyBvPRnGmgDJIY74rw99g3nTyIB9pDFlfUD7TXH6Uox6U4YYsg9Bfjrq4/ORhOZfHleHmu+WZ7g8px01HORLr9YduPuMI3TopGzM23APm4ZryWBZ5Lo+bzrhbhrIpkzy4Bvl5ycd88gfxIo38nG268liWOvCaZfx1uHzkYRl/6Oa7cfDxGiHjSPfLR57/mUcaed24TXT+JcpDOushjyvPzXPjFI00lvPn+/NYV6IQMv15rMcf4jfI+tw86sI0P49f/vb6+2f7ELLN/tDlIZ97T/z5FbneaePGkm3DhgAJeXk5AanpJbk3j3GG+CEwDmmMAwR2OEG1gI9AsRyu3fJ+Hj8f+d0wqC63nJvPupDm6kIe1s+Q6emGicq59UJWsrrdulguiJ98/jr91+RjGCTTX8a9duOQ4b+mXDdMxZMoP1F6Mtl8FsDjlnfjbh7SSSxLfBOVIb8rx01LFk8mMygPsqhPOnIpgyHL4zqIXD43H3Um+/26vK6MRHGXH3GXz71GOsh/L2yi+cdyiULy+UPyu+msC2lBGLMMQ7dsqjj1d2WzDs4WeO0PU8n25xcVlfqT7HWkRgE1uAAizms8OLToTAvSkCAxDOJx08jH0M1LFUcZEPVxZbhx8PivkRZEyfiQB2J9/vJBZYPS/OUSXfvL8pqhv5yb7o+DN5Herhy3XKJ08JAg0y3jxsnjT2N5Vx/yMGRZf5gq389fWddum9LRMR0e6p6I101346nKMd8Ng8q7+YhnwpMOryszXX5XJ5QB8TlyZbhx8PivkRZEyfiQB2J9LM8ycOWB2Fcijj6TvxGWR3pFKJFRqBT3ERtJI4AG0M9J64c0NB7k8hEApGcKgsvvyoQskj/drQ88rgw37s/DNcsiZL5fPvksg/nHfJb1p7t1Ui79vm4ZyAG5awK4dnlwDXluGmT5y4DPJdaHEMT7xHSX15WNdFyTWBfLuW0jD9MYIp1xYpVuGsshJD7UnfUxpE68Zsg6GfrTec2QfAhT4Yoy5Gd5hC5mbAP1C+JnWfLymrwMmY7Q5UU+ib514EQe6MP6mcYy4AuS79bBfITEJKg8nx3yQwbTXHmIp0PUFbyuTLesP92tD3yuDDfuz8M1yyJkvl8++SyD+cd8lmU68Ca5cfChDEJ/GfJnG0Y+U6CCaADJjbtpftCZh5AAMAxKC5JLGZDNfMbd+tw8v2zKcEPKQBrlUAb5gtKDypGf5V0eVz7i4Ekkl/ksk0ge8kGUE7uKyWbcDclHef48pgfpzTyWcXkYZwgexhn6y/nT3TL+OMsydMsiDkqkn5/X5XPLunysByHTGTIv0XVQOsugbuSDqAf5GSKPPC4f0ynDDd08xEGU4dYTy9lWN6/dkOXcNDdOeW6aW4Z6uflunPkMkce4G7pl3DjqAh+IcX/9zEOYSiZl+MvgmkT5rBfpQeXITz7ysDxD8vmvmZ5p+KvOFKCsv6FuA3gD2FiC4/Igj/mU514zjWWYR1lueaTR2pLPLUd9kBbEl0gmZSGkjGR1sU6ELOuPu9eU6aYh7lIiOW46+Znml+teg5dtcEfZKIt0EOK8duPII36Ig5DvEvMZIo9xVxbLMaQMXFNfxlmePG7olmecIfhcWW66K4Nx1EMCL8u6uCCfchgyLYiPcly5LEf5QXlBMl1ZxARplMd8plEfynLrQR5lMJ0h5fA6KGRZPy+vqQPKunpQlpuPNP8101x+xCnL5XfbgnSXcI18prt6ky+RTJZxZSSri/IQsmyyuMsfZbxS3EdsgNtwpiEMSufNQL57kwg40l2iDOYjZCfGPFeOW9ZNd+MuD+UizZVHHuYzz013yzAeVE+isn5ZvKYs95pyGbp5bhz5JOpOzIP0IL+b58ZdWf64n89/7efHNXncdrj6Id+vE3n96ZQfFFIO60PINJef+W4a4m6d5GHIPH8Zt1xQHsv784LSWUdQm5lHOSzvT/fn89rlY1mGLg/i/nTmuyF5GFLnoPK818jz6+GWo3zKREj+7fn3j3awLUH4sN1RhNuGOlFITyCTDUYI4k3mzUQ6bijTXXD8IlmGvHwQeO3Wwbg/DJKJNNaLkHJdXuYzjXKpE9MRUh/GyevyMM3PyzIuL+J+fpbz1++mM86ylIlr5vlD8iBEHvOZzjTIoBy/fPK6oV8O8/zpvGYI2e7zgXT8sU50KIxDpluO18hnOtMQgoLuNXkZxjhj9wCy3PqQ5/K5ceQF8SMdRF6GidKYznoZIh3E8gj5F8vZ9tzg2tUFfLgO4keaS+Qhv5uHOPndkGWYFlSG+rj3N1EdrMfN571jHchz+RBnGkPL4PxzyyIOPsp12DysmEZ5LMN0hJTJOHldHqa5vMhnussbZbxSZwpuQ9Bw/nHxCSGIP2qmsxzSkYYQ5N4opFEeQEScYCJ0eXHt50G+m4bykIl01kc5yAORn3y4BrFuN3R5XD5bwPnHehkii7q5bcDiE7BACF7mubJZJ0LwgBgiTl6m85p1U6bLS5kur8uPdFwzH2VJSGNbyIMQhDyWdfkRJw/2seMtT+gAcvWzCWX/XB1Rltd4jwEfJ8H15s2bLbdbJ9KpF2TjGpSoHptZ9o9lWR7J1Bv3iDKY7/KTF7q4cVyznM0w/5DmpifSETysH3HKpRyGfH547cqmrgyZR9kMURZxP5Hfzacs6M3fN9JwzbYijrLMp1yWQQgiP+JIgxzKZ4g8Vw9eI83lgSw3DXmQiXTWRznIoxyXD/kgynVDygKPy2cLOP8oDzy4N2wXyziskUUrbaGZLUCjAbR7w/Fjr8xGUxcNFQFFQBGoigiwj4RuMA7oH8PuI3/1hWY0DgaBn5HDqC3sRqIOJUVAEVAEtncEMEPgDIX9JtrE2UOU7YvNw6KsoUw2LB8NgnvSXyVUrVUoAoqAIrDdIoDBMwbR7EMRRkmRGwVYOf6hMTAISoqAIqAIKAKZIVCzZk3rXYHrnX1qZhLS447cKEANNAANQaOUFAFFQBFQBCqGAGYM6Es5W0DfGjZFahSoMHaM8BTSsBug8hQBRUARqE4IYHANVzwoinXZyIwCDQJDLppUp5unbVUEFAFFIGwEaAgwW2D/GmYdkRkFKgmLprMEoqGhIqAIKALZI+AOssM2DJEYBSqJEH+0bNlDoRIUAUVAEVAEsDWVC85Ag31uGMhEYhRcxTDFca2am6dxRUARUAQUgcwRQJ8KoxAFRWIUODNgGIXiKlMRUAQUgeqMgL9/DWu2EPrZR1TMH1bnm6dtVwQUAUUgbATcbal+A5FNXZHMFKgQDEOYylKuhoqAIqAIKALbEAizn43UKGxTWWOKgCKgCCgCYSIAQ8CBN8Mw5EdmFMK0XGE0VGUoAoqAIrAjIgCDwL8w2heZUYCSIIZhKKsyFAFFQBFQBGIIuH0rB+FuWkVxiswoUCEuhvBaQ0VAEVAEFIFoEKBxyEZ65EYhG+W0rCKgCCgCikAwAhhwc9AdxgyBtURmFGix8OadkiKgCCgCikC4COAFNvyxr2WYbS2hv6cAhVyrFdVbd9k2XMsrAjsSAqt/WCOvTp0mnTp1lP32b+E1bfwzz0tu7dpyymnd5NOPP5PZ786RevXzpcvRnaRBw/oeHyNTpkyVBZ8vtJcHHdJaunfvxixBHeOfmyClJSWSY2T26tnDk8H6PeaySM9ePSQvL9fW/dnn8+Oyc2vnSK8/n2vTiouKZfz4CbJ2zdpyssEA3adNe8PyNm3WNE5/5GUiu80hB0nnrp2sLPxL1i6PyRdJVSYZjj5RFb50ZwlhGQQoE/o3ml2DgMPwcGx2rVq1Ktxwf0E8PFNeeU2WL1tus/Bwdjqqo7Q7rI2fVa8VgWqDADrGfv1ulDp168hTTz9mO2I0/rTu50h+fh0ZeNstcvbZvaRL186yaNFiyTd8Y8aOisPnnmH3yytTXpVGjRtJaekmWb9unVx22SW240YneGHvvpa/SZNGsmLFd7KptFQeGzfaGiHWHyfQXEycON4ajjGjH5Nnn3kuLhu6Tp4ywXbKV1zZz9aHutetW29ljxhxj/1do4MdPmyE1MrJEdS9+Iv/Z+9MwKworr5fRhRlmPHVBIZB8oZN0FcFZFOJywjuK7ihoCiiRAQXEkBRgkgUNxQVFEQRUUHZZBA3IiAKYqIoSzACipIoDAOJ+WRmUILLV7+6c5q6PX23uX1hljrPM1PdVadOnfp33zpVp6qrPomqp+htCxfZxIEBdUmmXn7Ztky59mNBniyt2+TJE01dRZ+g8kRGGOGOHTvMGTUYBDEKEiYjf6+c0Rz2nkf0eqY8N828MHaleZGPO66jGj7iDu/HYKe7a4dATUFgm25Qn5wwSQ0ecktUlT9Yvtw0pHeNHKYWLlys7vzjyKj07bqzxe8IowEP95dc1EPNml1gjMLbixabhu/ee++KMgKLFy8x95sKNxt5YgSihOubwsIiUz5GwE+frltnGu0hgwd6IxoMHCMDOnsrPl5tGvQnxj9qft9iYNZ9ut6kl5SUxpS99tN1pjgxblKvJUuXmXox8sG4vaSNVyM9chLZi3V9z7dGSbbOkkcMouD59tuL1XkXnBuFI/kwSs/pdktGRbasynidEfcRFWXEYE+EpFt5eiLjxz9lxGCBzzrjNJWVXVetWLFKLVywSP3lLx+oIYNuL9f7Sbdcl98hUJUQoMdK4+53kRya11A3vNtMo7dS/2boSduEi4cGvW5OXRNdsr3EhMiDeva63PyZG/1v/fr15rJhg1wTlhZH+NeuXacmTpxUzgVUtGWLHrHUV/T6cU81yGugzj/vHNOz7tChXVTZUgZeAOiukXdIlMJT8Nlnn5tRQ96hDU18PNm40uYUvOTlx5CUaiPQrFkzE/e76/tEucFwaUHZdbNNGPTPn6e4uNiw4abz44i+kB9vExniP9pbRgkSpiM6Y0YBpcIcKYy690FTT8CVHgMRXbWv9OSTTlDDh49Ua9Z8YnyPhx/RQq3VDz8WtdTpvPSbNkV6N36+bP3DEL8sxggiDy8Uvkt8sravVfLDu1b/WEp1z6XFYc3V4Ye39Hyu8Igs4ZfQdn0xNEUvvw6bNm9Wnbvkm5eOF43eyZYtRUYEZdk+UpHrD+18Wfrlj+VXtvP58xzeokU5V53obOeTa6mb8Byqf8jUDRcgFKSDXWasutk8PI+O7dtHYY1s+3kkW1/yVWU69bQuatmyv6j773/IvH9SF54DPfHX3/yzeX+HDb9dkrzQnmN46OFHTeN5900jvHQupCfNdZdTu5iePdfF+p2Hxo6doHIb1FNfvv9XteCthZ5LhTTcLPTq6+p3b4HuyM2f/5ZxH9GQ8gfxnvBb53d+uZ6zsOn6vjea3zhxI0cONz17SY8lW9J5Fxh9QI0bN/ZGUnbZjCroeB519JHqlFPzDa//NwuO/jxPPD7RjGSYt4FsHEePftSMgm7S+oZNtK90vO3FPKm4j2Lpk5E5BbFWKPzdd9/plyBi8WMpkSieFwV/KPQnDa48MDvfFT2vURu/3KhO1cNfJsjwQcYiekRPTnxGjzAWBrLwUkx4MuJvPaFTZ8PDsJoRiRAv7ePjHvFegD/8/jb1Vz1asQmee+8daQzM119vVpddeoWd7F3bsuRHJzrQs5K6oDck/ldPgL5Ahu1LttO45oW/6aZB5VxvMmT383OP4bn/vofK5bmg6/nejwq+QbrujNSCaOmyCGZ3Dr/H4E3et3RjwZBdyNYhSE8bH/K8ojEZp3+Itgx6tI8+Ntoz5uLXlTIkHDMm4qeW++oSSqN3xZU9zGTztX36qaOOOlIV6dEBcwq33DJAPTJmnFfdZs2bRT1DScDYDtYjbjpYQ4Zod47PhfKpfo/WrV3vjdDFLbNowWK1Xvfgz9W9f9wwoo+8K/aEN2XJe24/D37nvNvaz6DG6t8Wcmz6QDfsm3XnaNbMOWrjxo1K8iYjG7fRIjpS2o31wgvTDDb2nIq8d/X178judMrvHz14D233l+TJyqoTqO+dw+82bQbP5Pp+19pVCeW6RE/4H3jggWaEIMZAwmQKiDWnkJElqSgmhsG2YskoGsRj9+hb6t53EMlwcEtRkTq8ZQvFg+CvXv36hp0fiMTJEJkEO57rWPS+7vkM0j0teijIZCg+cuQow84PAIPAS0M6Lyu9EXjmzYusmLDl0rjzh09S+PBTBtGUZ6caufDTA4GPSTN0pRz+srKyTFn4QWPR0KF3mkaUHyl5wAJ6/ImJxn8clG/ypOei8vS7/jrDhnuCH5kQvT8Iw4lcyohF5D1N92bRgXkgyNYhSE8baxoOMQhSF+TgEhg6NNIbwwBTDhOT8jzk2U6fPjOWatUmnlEuz4qGnXcFysnOMSMERlX8ZWvXq58wCP363RxoEHjHC+bMU0do2YzOmXeAmHMQYlQnDTkjQoiVShCuoLyGkTju0QEqKXO9xDMIlEv5HXUvnbJvvrm/ySurkeLJRi758QyQ9/obrjW/HbAhDaKTgRH1GwTS+M3L340D+hFlSAwCeYIMmBgEDGsmDILokYoRkDyJwoy6jzAMe4P4UYj7B/8pP4w2x7QOfDh2PL0XXpYgGnBDX2+onJ2dbYai8NI4MqR8/c25+rrE/Ch42XIb1De9GflR2DJleNlQ5ZmhNGkt9TI7P9EDQnd60pKHCUR8mhDDWF7OevXqmUbRn1/u6fEjB+MhE5DonK3v8xpG98YkD+EL054x8sGSBsMmfmQy5Jf4yy+/xBsV0SgHESMg0QGXHJOZpaWlCoOWZ/ze5fWc8/Jc81zAlQlTRggYYFvOvIJXvbo0atRQMUIBG9E9V/u+eV4lOm9NIOYAmEyV95n3Z8RdkYY8Vv0xCIy2mbPbrHvU/B4gGjXcpqwe+kyv+mO1H0tboVatjjYhowTSCdu1PUa9WrZ8tK3+3UFvvvFn9aWW3a9/X5Wj/fV0dqDDdCeP5yqjXzoWr857zaQxX4FLhrzUY5BuYMk7Y8Zsk56MbDqUox8cYwxBnz5XG/cusnh/wITfxgNlXoXWrVupaVMjnTPqwG8EQ+InMQi8h61bd/H0FVenGAQ/jj16Rpbn+uVV9B73kXS+RYb/XuJTCTNqFFJRJB4vPmih7cXbFY2pn0pLohstf3q693YvJ+/Q3eVL48h8A73Q1dpvars1gsrtdsFlJrp0R6nhpacr/kjhx0cqS93yu+RLtAnnan/8e0uWqS/0jyxRWWT4bP3nJl+Tpo1NKP9oOOIRhoDVJXf/6X5j4GLx8mOHGpb1Ds1NjH8yoiMZo9KkiV5iqH+kNEI/EampVP/YBCO5J1ynJzE/Wx9ZisykpRBy/HWhZ0lPctWqNWrbtkhvWfhrSsi8QZ/efZOqLqMrDAJEKNfcYxRo0Ar1NwQYezH4GPjr+kY6KJKOYZClp4wa5b1Glxu1a0hcoYzi6EUzssBFKiMa20WLfPL786ITo8RkZCMfPdBp4MDBZDUGYZR260Ly2+Ba6sU1hFEIIn4T8ruz8+C6Zm5P6uDHkYl1f0cqSH6qcWGPFjJiFOwRQhgfr9HY0MulsZAlcDZw9DT+phtRyG50bJ50r2WYixz7mnteallHfeGFF5ieEj0p+4WBT+iMM081l8V6xQaTgvjjGRXYS9boyTRr2sSk0XuRIaj4ykm/Sr/sLVq2UJMmPev1CKUMO8yum2Vui4qiG0dwkxGIzS/XvXpdZ36s/DgZQnfs0N6b2xEeek08F3pFybzwQSMnZImOXPOsBSPuhYwx/nil3EaFGLDssslKdJIGgMaDlTibCgvVk2Wr16IyVpMbGjCZv5Eq0SDOf2ue3MYNZXQVi4lni8voD4NuNgsucA/Z746kYyRK6LjpdPt9QBdWAfFsIDudRRtBCzdEl3h54UmULkaNjptfb9LktyXlJQoT5fE/h0TyKprOnC1kjw7CMBAZm1NA2TAURA4v13HHH8ulsfg0oEI0Bvj2aZgg/4oF4Us3XPzuUk/E2nXrzbUMQVlHDWEQeGH4gTIJFIvkpcL9ccYZEQNh+2bJR0+Y7y5oIOnl0POFMCLQTdq/Se+YsphMjEct9IohCN88hgAi7K17kaefdp73QzUJZf/48UrvjUl3htGM0vz04osRHz1D72SIuRmZj0CHNWsixhwdmQsSoucJTvSuMJ6sHqIhOaxFM8Py5Rcbo+py1pkXmLogk44DxAgMjOm9McHoKH0E+C3yztkGwZZKA43LzjYIdjpp8dJtXv91orzx0hPp7S+rKtwzX0sby5/dEU9X94yMFEQpFA1johl59FD4EpOGimVjNKJZdbLU1m2Rrx/hYZjIS5kJYkhIL5eVVCyng87Q30pALLGDWGJH48WSVBlCmgTfPya+oGItb/78BebadoeYCP2PF7mbNjQYBUYD/Bj5EhUMJj3znPpWT9ItWfKe13jTeAYR+ZhopQHuP+AW1Vr7gT/f8IUxpBg2fkx+ogEWwkd6jPYNT5kS8QNL/Iiy1RXcr1q1WrFkEJKJZ65ZmTT64fu4NITxvqrXtapTp+M9A4cO6AiJnvCAL3NC6A3PlXpLhM6d840/GgykLqv0ewG1anWkaaxk1MHo8XndgeB5sOIJsnUzEe6fQ6CKIkD76jcG3KfbGc/ISMHGOAz3EfJoIMeOG2NWuOCPpNfLsjR8e7g3xox5MOVhoK1nomuW3m3QvVMxCLgl6MlCTPzKiiRcFBgHWalDz9hPTHzxBy+NG/oP09sQBBE9ZkYLNIyMFm4ZOMCURd2RQSOLLhAf8sUi/LJM4oEbdcDfSbmsnAgi8MbIQhg4yurU6TjTaBPH15vSGHOPPHTkD92ENnzxpVyakEY/V6/ewrUmdbd1QE96+OiJMUSerae8B8RJXUTOLQNvNmXwVamsSALjl/VE9VW9InUhj4xUohRzNw6BKo6AjBrSrUZGvlNAKbFiYXynEFTJIN9kEF+6cbJOGaNDbxb3BEtaaZz8RBoUa2jt50/nvqJl0SAyOQ4lo6fwB9WZz/dZU26v3TaCy/7Z6fKdApNxI7RvOpH+Ui6iYukpPEG6kU/SY+WHx5FDoKoiUGX2PhL/loSZAjzI5ZGpsmy58RqYeGm2jDCuK1oWxizIoMXSKVX+WHL88Yn0T6bcRDyJ0v06uXuHQFVCwN4xIgy3kdQ99DkFGSFIAWHNKYg8F1YeBB7X7rx4lCg9Xl6X5hBwCMRHgF2o99tvP8OU7jyCXVLo7iOE20ulMuU+siuRyWtxc8RyUWSy7OokW1w5Dsfq9FTDrwsfk5VqF6d8g8A8mv+sBNlKwy6dVYhyHoP/HAj4CgoiG/Hx9bN9DoQtIxGffPsSJMNO829GSBvCTgQsVAnSza9Dsvfff/+9MQr2iIG8yRqIPbrNhVQK5ar6SAE3B3+4IhxVHAHwczhWHL/qnpNGnW9wxukN9di0T4jvfT7XX0knortG3GOWLp+kN8dc+u57ijksIeSyXxJp7BzAUmwacT/Bt0TnhY9tQFjdRmcGwliNuvcBT8YAnSYdRn/a2HET1KIFi00+ePhaG3nnnHOWWTlnL6k3TJXsX0bcR2KpGN7gTnLkEHAI1AwEaGzZ0TdHbwUjO/fSQG4v2+NIUJAdf+V+9OjH9M7CTdVVV/c021pIPNtid+9+ibdkWeLtkDJZ5SZLn9t3bGe2T6FBpzPCculhw271ll6v01t1MPqQZdAii2+AWOHIsnZ0X7p0mdl+hU0BZ06frXpfdYVXp816h2J6/3wH8/HylVFpP+2j1Ouvv2l42ZalVaujvJWKtw8drHUZEfWhqpSfaijuI2ljaXel7U1Vls2fkSWpMq/gH9bYBbtrh4BDoHohQA+Y3jRbur+jP/bs1rW76Wlv11vQEMd3Liyb5pp9wmy6ru81gQ0l35VwXgHfm7AXk/TO7byc7cDX/0IYgqP1kmXZILKuXtItG1MyIlm1crWScyAkDyFfXNvfOXH6HPtxQSyNtrebOaxFc2NsSBt86y2eu4t7tmLJbdCASzNqaad3bRYSQxRUD+FJNsxU+xr6SIEKibXiGwWZX0i2oo7PIeAQqJoIzJo9N2rHUD56tLdo4UPEc7ULRRpGu5Z2Y2zHs4EhG+CdeEIns/cSrh97i3R4Ocuhud6h1aYsvXGefMw5XH/7MmTIHeaLd3jYpVfmLOw89jUGiB4+urIvFGS7kFu2bOHtomDnY6n8smXve9//YNTEsAgf31lt2rQ55lJr4UsUSjubiC/V9IwYBZRgtIAlq+pzCqkC6vgdAjURARpOPiS1G/djdA+ZU9bSoWt691It9E6qIpfG+iW9tQrfutgkBsCOk2t8+mwnw4egjFDuHjmq3F5jwktIGbiOOFchFhVuinyTZKfT+2fzSDbbE31J9++VRpy9ySf3FSFxG0nesIxERtxHoqQbJQgSLnQI1DwE5IjOdGrONvV2A9sgL1dxZopNxG34PLJ7rsQzF8F+WpEJ5Z+NT5+ePrL69Lk66hwIyUPI2QrsSHDf/fd4IwM2C2RXAdvlw5nU9tY0pGF87vjjrebMCZGJG2mz3oxRiHkOvsC3t5GRtIqEYggI/UaiIvLIk1GjQAFhKYosRw4Bh0DlRICGs0mTxuoV2ddLN364k+TMg4pqzaSsvVJohR55nPjbTkYc8ww0sp0756utuqGVRpuwSN/j+uHMjh16bkDSyMgkszToBdoISBrlTH72hSgXGPwQx5wysSw0a8YcdfaZp5tb8mMQeutJcg4hsuncc840Bgg9oXlzXzXbttiuKJs/lWvpdIthIG8Y7W3G3EcoivtIFE+lskG8TGJl6WVdQVvsMtyTAy6C8ro4h4BDIPMIyLkHM/Tyz63btiXlu0+kFfMHnMbHRpBFRfpoUX3+M5tj0siyr1WjvDxzPO/VemUQS0jZVwu+m27sZ0TT+PbXB2TRaCMDH3/d7CxvrzEO+ynVLiV2HL5DGyBcYJeVHf2LAPb/Yo8z9je7Sm8lz6aPyGjWvKk3L4GxoPfPYT1yYA8bOLL9C4aJjR3Z4JENPDlDxd7rK1H946XjmreNAG2ubSDi5Y2XlvGP13bu3Knq1KkTT4ek0thHhwc2c/Y0b1hHRqz7wIGDzdnMfj9jUoIdk0PAIRAqAvScw/5IkQlcjhSNtz0KhmIzE7h6h9+gnngyMhIBUVEZoluY2/PwYfD+++/vGQIxCBImqkusj9dCHym7/wa/AABAAElEQVTYlgulwhopIKtUGwV7NQNxcuwf10IYirV6mRpbJrMfv7xIrJduqE9N48Hw4q7VJ3nZa6kP1xNa8LK1tb2Omnz4NrH6tgzK4yUp1j0N0qBYZZvEsn/IkLIkD6EtgyEu23B3OSXf078suwlYWsdHMyzvw6dqj6DQgbXiNsmxglK35R98ZI5OzM8/0Vu/DT+4LNQ7oPqxI03qxrVfL9LQ2a8LvDZRd45stPlkK3GbjwN9OL9hrT4k3iZZ/y7Pr4Nek16gh+R8HNSxfXsPq1j4kO+DD5d7IinHfj/s5yLPHRcEh777Sd4Ru+62Dv6yyC/PQfQTmbYeEldVQ8EzTP2TaUwxBDk50e4bW4dkZNj8QdcVlZFIt6CyEsUl2/gnkuNP33fo0NtH+CPt+9q197dvk7pGWf4wEBgF2Z8jqcwxmKa/NEt10gftsC/+lb16GC5+dA/c/5DZElp/L6LyTznJNJS33TpMHXzw/+gGc4veUnusOvqoo9Sh2uf5e723f61atVT7Dm3VwkWL1cSJz6jLLrvEyCItt/6vVEttGDjEu327diYPP/jbbhumWF6L/Pvve0h9r0c/yIBmzSpQb7wxX5173tnmU/r7tT51s+qYspHfoUM79at6vzK88s8ui7iJEyfrs28/M/JxhT3++JNG/w91w10wd546++wzVe3atSW7Cftc00/9/e9rdU9hPz0xtlCvyX7H6EDimIcf0w3fR+q///2vWqnXZBfMeUVd0+cqk4+6rVr5N/XJ3z81BuXppyarxr/5jeKoTvC8Wi/5Uz//pL755pso7AoK5umvREfqZ1lLT+p9oZ599nmvbnwJ+tTTk43Ofl1MoWX//qAxZhtrng1801+aaeo2Z85co8sL+Ij1mnQOKMrTE3TL9Lbjs83B8D+bdOqy6O13zDPj+T0yZpzewvtd/a5xlsVC88GQYHVZ96vMM6Bo0j79+zp1Cu+Hzjf+iYmmHp/ryUn7/eDZZmUdaN4BsLjhhpuNcT3t9C4KHeGfMX22+sng8x91vN5KfPIzz3vPC/1mzJztPa9XtLF68cUZWoOfo54Dsq+7rr/Rj7rOefkVMwHKu+fIIZAsAv5tLsRISJhIzs6duwJZQh8pUIqMFsIcJSC3rV7ixvkENNT0qp+cOMkYhLy8BvpkrS2wqIb6IPqnJ433er9X9Lwm8OtFw5zgH725Ufc+qFhXnAyxdvmZyRO91RKm7OUfe7okI+Nk3XO393Zh626OEZRRBDIYit58U38ziUYPhBHDnX8c6YnH53nWmaeZj4HACveaTRxiz9GKEGvJWQfOiIkT7I7XhtdO49xpysb3yrkNfMEJYQg++vBjM6TnbISXZkw19Ua3Sy7q4T0jw6z/ocdf9bGjfj4m3uRA+QVvLVJnn3W64gtSaHnZhKCkY5im6IlAIUaOk8rw/lo3tJxHjDzOU+DLUcEMfB7QDb5QHW20RSbPqNCMqiIjPeHBB41fGAJj+Fl2edn7V6jf63MbpDfMIUkDtM9a1r3jc0YHjlZl/TwfVZHXfg6cRYGh4EQ7KLLFuLl0/xwCKSMg7S0ZkzUI8QrJiFGwFbOv4ymSbBonkckpZJzExo8ft4VQo0Mbmo2x6AHTOG7Vh6pUlCZMmGQ+YNFQaxG7t+ugtzv/zciJaUwcNdW9bEjKZq8WKZuGIYjGPT5RTZ4cOckMGYyCoIO035SJK5bUISOIaKSgh0c/anrQQXy4U2IRHxAJsZZcDlPnWE8+FpIT1FjBAdHQM5GWf/KJks0zDjS4LNdj7bcQjTVfmUqjTDz3NLKyvJA6NGmiRydpHJNpy0Mu8sBb8OFkONxr4INOQqxGkQlDTs2zv1SFh9Eaz9uc/LYy9jp7jAS4vP7Gn80feb/4cqNqoI2uECf1+YmlkugAdjl1s81cmZ/H3TsEEiEgHhjaWAxDWG1tRoxCosqkk96jZ3c93J5reqr8cGl4bKMwWjeURbohuPTSi4zffsitd1SoOGTKl4lPaTeQTfSmpWFlTqOobN304EG3m3mAy/ReLRwQHq9svqqURpbeuBA9VE44Y78XZFxqrYQQHuYx6P0PGjxQ17GF4sxoadjh+VI3TP6vKCUvYaFeY61UpGfMWnIadSFGGKfoeQybpJEN+ghH+Phq1CYmGm1i5RgNoZ/iGS8/r/8+SB480isfOXK4mUPy48NIAX2Zs+BjI3ueCiPFiW+MaF6d95q/yMD7Pn2uNs9KEqXudA78X9rCwztL54bRHSf22QZLZLjQIZAIAVzauMMhMQxybSIr+C9j3ylguViSiuJhEg3UcbpRxmXBBlV+2qDPHm7WvJlxh/ApOfuXVIRoGJAvPVtbBu4qftj8cS1ET7uB9oUTT9kcURmLWrZo5sngk3whep7t27YxaRE3g6TsDmnkaMiZnMRwsHZbCH81xORoLJqh11jDxx9rycETwhi98cZb5povLl/RjaKszeYYTc6FJg9uNVweuJCYM4HgFZfKww8/alxeJqHsX+fO+abxkx0iabjXrPlEtWt7jM2W0jWNaaRXH/noSOTxYRH4MGkMPux86Sd0ZdKQpYUrrdEAz51liEHP3S+DtfmNmzRW7OSJPDCTuoMTx7cG7bGDnELt7uRIUfbbwTA4cgikioCMDCq9+8i2WGHPKQho9NJLS0vKDftJv/Tibmqy3ngLXzw/uizdK7SJHz1/QnLcptxLyHnG4ieWuEThxbr3N37CU8ZgUTYNRqpEg/RHPaGr9B8+/KAGo3NnvYOjbugYRTDfwcgFMj7vSyOG8uwzLzBx8o96Ll22yNy2btPKrNvGAKHndX37mHjWYo8ccY83OiFNzo6WNegyciENfoz0rbf+Qa+9nmBwRZ8LNQ4YRpvgG6JHNjyb8Xp9OXyce+3ns/MkusZ9xPYG8gzBDnktt7cwcyB+fEQe5zRLHp7RHXoHTSFkytnbEhcv5MvXG/XoTuSBCwaZNe25ufUC3yEM4+rVfwttvXo8/Vxa9UUg7A63IBX6dwpitQj5C+s7BVE42ZCemvRck80TFl+6ZePDh8RtE0svP58YhRna9WHXXeIxCjReY8bsPm/a5pNykMs5zrHSYulGvZNZn54sn+gTFBYURCad+UDIj4Pwx4qX9DBDf50oO9HzC7N8J6vmIcAZzQcccIBXcTrkMnrwIuNc7LHvFPw6ZGq04C/Hfx/UoPl5MnWfbtnJNiZ+Pu5PPa2zaZjtukm8Hcd1LD3h98uWvLHi48mTvBLGKlfSUw1j6RQrPlX5yfD767Qny05GP8dTPRGg452KIUgGhYyNFCgcg7C3RgrJVL4m8vh7tFUVA3risUYzVbVOTm+HQCoI8I3LgQceaIyCbRjs63jy9spIAeX21kghHhg1Oc3fo62qWNATd73xqvr0nN5hIFClDtmx5xUypXgYoDoZDgGHgEPAIRCNQOhLUhkdYAhklOBGCtGAuzuHgEPAIRAWAuIqko643KcjP3SjgHIYAkI3Skjn0bi8DgGHgEMgPgK0s2EYAruU0I0Cwm0l3XGcNtzu2iHgEHAIhIcAba09SpDrdErIiFFIRyGX1yHgEHAIOAQSI5AJg0CpoRsFW9HE1XIcDgGHgEPAIZAOAuKZIZTrdOSFviGe+LjCGMakUzGX1yHgEHAIVGcEZJsLf1ubrmHIyEiBByGK+RWuzg/J1c0h4BBwCOwpBGTrbLs8aXftuFSvQzcKfgXcklQ/Iu7eIeAQcAikj4DdtooxCKMTnhH3EdUV5dyy1PQfvpPgEHAIOAT8CNDGijEgzb7286Zyn9GRApbMtmapKOZ4HQIOAYeAQyA2AnS4pfNNKNexcySXErpRsK0VSrvvFJJ7EI7LIeAQcAikgsAPP/zgsdvtrhdZwYvQjUJY1qqC9XHZHAIOAYeAQyANBEI3Cmno4rI6BBwCDgGHwF5GIPSJZuoT5lBmL+PjincIOAQcApUSgVq1yjffeGrSbX8zMlKQSQ9C+cCiUqLqlHIIOAQcAgkQeOKJJ/S55Zeqvn37qs8++yyK+4O/fhCYBh/848ePj+InHnlhkH8hD8YgXYOAXhkxCmFU2MlwCDgEHAJ7G4EhQ4aoxx9/XHXr1k21adNGdenSRWEIIBr4iy+5WLVu3dqkHXvsserNN980aV27dlUXXnihWrFihUKGEPnbt2svt2mFmVruX378kZaaEdeRDGEIQ6PV9ym1rkCpXTtDE7nXBR2Qo4pb9FXf556+11VxCjgEagoC9KZr166tsrOzE1Z51apVavIzk1XHYzsa3pUrV6pZs2eZ+zvuuEPddttt6oYbbjBp/+///T911113qTPPPFP9/e9/NyFxL7/8sknHOHTv3t2TlbDwBAysPpKvmqWtrZQjBVEuQX1SS15+u1JrplcvgwAC329X2atHq/22f5IaHo7bIeAQqDACtFHff/+92rFjR0IZ8+fPj2rE//GPf6jGjRubfJ988klUr/+SSy5R69atM2nHHXecGjVqlJo8ebLKz883LqPXXntNPfjggwnLTJbBv9wfgxBG+5sx91EYynngfLnIu6yOFwdsnlcdq+Xq5BCo1AgkYxTsCtDIf/rpp97IgNHAwYcc7LEcdthh6j//+Y+5xwD8z//8j7r66qvVaaedpp5//nlVUKA9HSGSv43131e0qKrjPqpoDV0+h4BDwCGQJgIvvviimjBhglq4cKEn6eCDdxsEIr/55hsv7ZBDDvGMx5FHHqn69++vZs6cqaZOnaoaNWqkkAdPOiRzCuIykjAdmeQNfaSAtbItlvi80lK0Zde0slf2zDt+07Oyq+j0cwhUOwQOOOCApOrExPLdd99tDAKjAaG8vDy1YcMGuVUffPCB+r//+z/vngvmEc4++2xjIEaPHq2WLFliJqYxMOmSbCEk7a2/7a2o/IyMFFBGFA1lSWqr25T673alcCNVo4nmn7JzVWnTK9WPB/66os/P5XMIOARSRIAedZ06dcxfoqyywogRgm0QyHfOOed4E8vcP/PMM6pTp05cGsKYvPTSS+qf//ynN4pgdIBbiQnodEmMgi0njNHCPt9+WxJ3iVBOTpZdZsJrMQZitXbu3JkU+AkFOwaHgEPAIbCHEcD1w9yBTUwoz5gxwzT0l19+uZlnYCVTTk6OYi6Bhh9jwrJU5hHEmAwePFitXr1abd++XT333HNevC07lWvmRFhFhSEQYyBhMnK2by8NZMuYUaA0LJkzCoG4u0iHgEOgmiDAiIAJZ2n841ULY/HLX/4y7fkEyvjuu+/U/vvvX3WMgowUULxu3brxcHJpDgGHgEPAIZAiAkFGARHJjhZijRRCn2hOsV6O3SHgEHAIOAQqgAAdb7wxyRqBZIsIfaKZgm0l/R9YJKuY43MIOAQcAg6B2AjQzspBO9LmShg7V+KUjIwUxHUkYWI1HIdDwCHgEHAIVBQB2towDALlZ2SkUNGKuXwOAYeAQ8AhkBwCstxfjAGGAZL75KSU58rISMFWLF0Fy6vsYhwCDgGHgENAvmgWj0xYbW3GjIJYLffoHAIOAYeAQyB8BJhktj9gC8uFlBGj4AxC+C+Ak+gQcAg4BGwEWMQjowUZJYTR9mbEKKCg/NmVcNcOAYeAQ8AhEA4CtgEIa5SAZhkxClLlMBUVmS50CDgEHAIOgWgE6ITbRiI6NbW7jBoFVLF9Xqmp5rgdAg4Bh4BDIBUExI2USh4/b8aMQlhWy6+wu3cIOAQcAg6B3R1uGSWEYRDANWNGQR5aWIqKPBc6BBwCDgGHgFKyW4R0wCVMF5vQjYIzAuk+EpffIeAQcAjsPQRCNwp+a+W/33tVdSU7BBwCDoHqgwBtayY64aEbBVtJru376vM4XE0cAg4Bh8DeR0A63WG2taHvfSRKClz+e4l3oUPAIeAQcAikh4B0uu12VuIqKjl0o2ArgqLpKmjLi3W9a9cP6t/fbFdbtn2jdny307DlZB+ofnXw/6gGuYfEyubiHQIOAYdAlUWA5f52G0tbaxuHilYsY0ZBFMy0UdhS9G+1Zt1GfTTdTlWrVi2VdUBtVWu/fdVXm/6lvvzHFnXggbVVy6a/Vr9uVL+iGHn5Nn9dqF6Z95raUrhFZenT5Hr26K4aNsrz0vfWxdTnX1TFJeXPW23YIFed3+28PapW8fZitXDhYrVlS5EqLi5RDfNyVc8rL9+jOqRb2KIFi42IzqfmR4maMP5pdX2/a6Pi3I0yz7tUP3f7XSsomKdWfrzK/E7OO+8sdfgRLR1UISMgq49ErG0gJK4iYcbnFDL58dq6DV+pD1euM8bg+A5HqbO6dFQn/ba16tQxck0ctPKTzxW86RAG4erefY2INse0NmFvfb/203XpiA0l76zZc1WhNlQ2cf/6m3+2ozJ+DUa9el2nDy3foLKzsvSZtc3UeRecm/Fywy6AQ9jHjhsfJdY0citXRcXV9Bs6AA8+8IgaN3ZC1LuG8Zw1c4466aQTVEv9Dgwdeqf68K8f1XS4Qq9/GKOCIKVCHymItSLMlNJU5Kuvt6r1n3+lGuXVV8e0ah5UN/WrQ3LUqSe1UytWf2Z4D6pbR7uTfhnImyhy5MhR6qpePaJ6vbzwj4wZpyZMHGuy8+Jv2rxZ5ehG5fDDW3qjiII581RXq8dOT7R9x3Ymz/IPPlLSI8XAFG8vMfHIsenww1vE7W2de85ZqsOxEZnkQ5dJzzzriZAePBEdO7Q3uom+HpO+kHKE318X0X3dp+tNXUUWMqZOm656X9VTndIl39RDRlEYi7Vr13n1hFfklOj6btq0WdethelxUp7gQb4PPlwOuyE7TeIkBOPOutycnGwTRV7kggm4rl27XljVoQ0bRmHlJZRdkCe3fn2DoWD65ut/Vt0vvUjZcmG378Hz0EMbes9d0lrqui3Soyc/yTshz8Gvl8RLPnk2gp3UVdIJ7ecmOG7XjXfQe0bdhJ+8Ip9ryE7z60b66NGPqTw9Erzq6p7qzTd2d0BWrlilbr6pv4dxcUmJeu21N7x78jpKHwG8MH5PjLS/6UjPyEhBjAGjBP8QJx1l7bzrvvjKuIZsg/DFxs3qgxXr1LIPPzFGQ/iPaXWYbqizjJuJ+YdUiR/VmjWflOv1MlwePvx2I46e5Kh7HzBuk3feXar6D7hFkQ8a/eAYE8q/seMmKBpD0qVHSgOCgcnTjUpxcbGRQ29r6ZL3Iq6YMmMhMlIJ+XHTg1+hf6y4dfoPGGgaPCmHHzR/xuWjy0EX6fFTlyG33mHiKHPGjNlqyKDb1eJ3lpgRAaMlGi9ow+cb1Do9SujX72Y18k+jVLeu3U2+ujl11Tjd8xY84AWD7bqsD5YvV5MmPatGjLjHlE/8ncPvgcU06lOmvGDi0a2wsNDEB/1D/8WLFntJT06cpArLDOvixUs8HMGTBioRnX3W6UYv+MCjaOtWdYp2J2FobGOL/iLv1dfeVMv1vRA4Sxr688e7INfw0at+9LHHTRwh90LTp8/0npmpn64HxDPAKPsJt91FF/Uwz4XnBv5gbr9nGMi7/3S/ec/Ib78X9OgLCuYZscjq1etaI4v3xq6zlHtd32sC3WmMpHk/hD7W+duWja4lzoXpI0A7ax+0E2QkKlJKRkYKKILCbOu6a9euiugVNw/zCMwhiHsI5sXLVunGtFQdVDfL5MVltOGfhSq/U8TVc+ThjdX72lj8+5tvUx4tbNYNQb369bxeqK2c9IZbtmyhpjz3tMdzRc9rFPlychL7Uml0hgy5Q93xx1tVIz1HwR+9vMLCItWubSt1ftf05gUW6sayVauj1F0jhxnV27U9xjR4jHAoRxoi8ZffOfxudfFFF3ijItIZBQwecovJ36x5M+86/+QTjSx6nUVbtykahBemPmP4pj73omKERTlNmzYxjTZ1wYjk5tYz9aQNpcGdM3G6ydOjZ3d1iW7YwATKza0f2PCYROtfnz5XGz0Eq9Wr16jr+vYxHOB40km/NTjS6OHrTkT5etTx+BMTTYOKgel91RWJskSlgxl1hOjRC7YvPD/Nu6aO8+e/5b03UvfzzzvHjDZK9DxR9+6XmB62PCMpZP36iFGwRya4ce65e4TXI2euab02Hg0Ojcx7UR4G4b4H7jHYYyzuvfcubwTaQPf6l777nuqqn9HM6bPV7UOHGFk8ryCjwHsaRD31M+x3/c3q9NMi723TJo2j5huC8ri41BGg0y1bZ4cxQhANQjcKCJaRghQSdshKIyaVcQ9BuJIwCEe2bKyaNm5o4hg1fKInoAmJ+9UhB6n9dZ4t2/6TslGoq10aO0p3GLmx/jXSPfypU6ebSegSPVzeqhtIcQWR5/q+N3pZt+lGUAi59ChvHzpYHZFgMu55/SN/edZcyaoG3HS96qIbr0S04uPVqqioSI3QjT2Efl9+udFcB/0r0j1a+JkbgOAvKd09kY0hEMrTDY4tKz9/d9p5Xc9V4yc8ZVhp3BgR0Gi/qnvqZ595uohQrVsd7V3TgDZp0tj0uPPyIs/SS4xzgYtmq8aVho5edLOmjU3DR5bSkmLt5kheFnnQo9uFF6hp+plu2PCFZ2Ao58svNhrDlq1HQCu0gdmHDBbR+K7U8w9n6tFGPAPEqIPn//DoR73cdfRcDPF0NsCcRj+I1utnw+KCUfc+aAw4cze8V+LuIo9M8H/9daQc3jOMgDTm1HHdpyXee7Fq9d+MESYvhp/ePuUzokyFGCm2btNK/e76Pvp5lKintFFl7kE6FanIcryxEbC9MIwSwjIMoRsFv4/Lfx+7ismnfFuyQx2UXcfL8FXhNpWt3UNiEEjg+qvN29S/tAGR+AP0SqQdO7738iV70ahR5IdJj8n+0fHjx+eNb3iwdqnwQ+pb1jvF5WKTuJmI48cpVCerjjrjjFPVo48+rl6YFulhS5o/vED/8Lucku9F45ZJltq0aa3ogSZDdfVoi551+/btA9lLrEbCvs7SdbEJF1mWbuQgcLtXu9dotGlkZdRi89vXFWnEj+90vBmNfKQb6pNO/K0njh53RUh67scdf2xUQ3rrrX8wPWdwysoq/wwY9dEbt11JQeVjVBiByjsjPPJcS7XBkGtJk1DmkE7WRvj2ocM91yb40tj7Sd6zF1+cpbGPvJu4iMaNHW9GBDT+C99erN5busxkpUF/SBsrFlfU1zpS12QIA7RNd4jEAKALbqY+vX/nxSUjx/EkRkBcRzZnGIYh9DkFGSUQyp+tdBjX+9f6hfrvDz96oriPRT/8sHsOYb/9Km4D6TXScGMIhHCp4G+FcJ3QgxZ3Ej8Mm4iXPzuea1wL9KzEl+5Pl3t+YCKDMOjHL7x2eO45Z2qf+jLTwJBve/F2s7TW5rGvmx/WXNGwSlk0bp+uW+exvPb6m941/noaTeiEEzqpefN2++tZvitppJ9+xmmmV9ysWVNuPXr//b96uIIv8zfMrQQR8yP8BRH4v64nhBnpyPJIeBnJ0MP3E2UVFER86P407jFqkLihzI3+Z1xuT45Vox+6Tx3TNuKelLQZeh7orLNO84yIxAeFDXUdeU94HmCNkZioe9U818h79nPCZ1y4qdAYXvIcddSRZmQjZTE6XbRgsdyWua1+Nr12IhkBNNNuPQw25X9eNjIkjbrjgntm8kQzaUxcMiTvpL0q75233zHGj/zxnl8y8h3PbgTEdUSMGIMwOuEVbyV36xZ4FeZwxl/AgQccoLZ9s7thOOTgg1Th1t2uIvg3/GOz/rGVqtZHNveyF28vVQ0bRvy8XmSSFzTcrLun54SP9Avd0DTVLooHHhxlJFysjcYdw0ao+vXqqdwG9b0fQZLiTS9q0O9vM/598T8nmzcRHz/6E07spFdPXauy6mSp0h24HUbGzEYPmV4iE5Xw183OUsP+eLvHzzcaNDhFRdt0Xet5aXY+9fM+UWlkZi5j4MDBasyYBz1ZXBx99JFm9JRVp47aum2bnl8ZaBrVQu1G8dNdekKaUYA0+nY69WSy1jY6TLxeqJ+NNFY2P0YLnz4+dD/h7njrrYVmxZm4W/w8Qff0qMVtE5Rux6ETow4meHN1bxw8L774AkVv+xrds0bvWMS7xrPJ0ivq7hh2q2Ebphc93KhHoXQAwPG007oYA4Y8oT8MulndoP39zFHwvKY8O1Vd0eMak9ys+W5jzVwQI1jqHvQcRJ4/9NeJURrv29hxjxjWeM/PL8vdx0fAXu4fZnu7z7fflvwcr+icnOSGjbYMW9kdO/QQWDciYdK/9GQxk8bHdzjSzBUg+x090YwRyM6OlEUDjktJJppxI73/4RrVvk1LlVfBZamUw/CcCWR6eUENDT08el2VkdCdHmCy+sEP2fXEGPTpc7XpXcaqa1A+5MDPqqw5BZFJZeIKdE8dv/sIPQlOOu4Suzx4bGIC/777IxOldrxcd+t6mZmfwUBUJYqFZUXqEAv/WLKSwT1W3njxjBZysnOi3rdEzy+ePJcWjQBta+3atb1lqRiGVEYK23UnOYhCHynIMIYQn5c9GRKkQEXiDtKNPZPG6/UHaUwgQyfrVUb/1BPOX2/eqtP2Vf/bcPekM+kb/7HJLGFNxyAghwYr3oqiZBtcZO1piuhe3t8cS494jTN5YtU1KB890/nzF8RdxRNLnq1fqZ58Deq5f/jhR2r6izPNKquqZhDiYWnXPdnrIPzj5U0G93j5Y6UFfcUc6/nFkuHiYyNA55u/sNvY0EcKGAOIkL+dO3eqOtotEDat++wrtV5/q2CPFmKVsaXoG/3l81rjSvrfELa7iFVOTYhPtRcqmHyqe42s0vE3FKnKi9Wj/lqPMkq0b94vX8p3YeVAINbzqxzaVS0tgkYK1CDZ0UKskUJGjQIKZsJ9hFw+Qnvn/cgk78nHt1axJpH5nuE97TaC+LrZkUPAIeAQqA4IBBmFZA0C9Y9lFH4RNji2UowUwh7aiL4YgTZHNTcfsX2y7kuJLheu2/BPw/Pbsn2QyjG4CIeAQ8AhUEURkPlbaXfFU5NOdUI3CqKUKJmOconyMp/AB2tfbdoWuOEdm+CR1kLvkspuqY4cAg4Bh0B1QcBekip1CqPdDX2iWZQT4yD3mQr5MA0XEZvjQS2b/dqEGATiGv9vnt6pMRJnEtw/h4BDwCFQDRBglLDffvuZmtDeYhAkTKd6GTMKKIXSQV/dpaNwUN4jj2ii/qvnGMQwwCM7qB6t02oisRyQD8vC/uYhEZZ89c0mcEHnTfDhUsHcV1WH9m29CWHiZHuQNvpDsKBvBhKV6dIdAg6BCAJhjBRCdx/Jw0G5oOGNpIcdshNqo7x6xhiIQbB3UA27vMosj43QbrppkGLztT1JfHPATrGyj769gypGih05nxz/lFq/br2n1mj9kRzflJCHzdgSfdXtZXQXDoEajoBtAOQ6DA9N6CMFlLMVy9REc9D7gGGoc+ABeki1r7ffURBfReLsMxFYVmefD0DvWM5RYAsEIbYY6KDPTWCPmaBzCbZbewiRh/MA+DCOjfTstfbI4fwF1p/HKkvKpCw2S3v0sdHquj79JDpmKNsRyFJOymqhz4KgtyBnGfh1jyWMjfdkZ0142EabTdWoC7tzsukfm+IJUfbq1X/zPmajjrJDaqbWzkvZLnQIVHUE/F4YMQzp1iv0kYIYhDB8WxWpHPMHsgFeRfLHyiNnImAQ2PCM3UEhPspiawX2yGcPe3s3VM5KYKM8dhslzT5jgXMDiJe99adMmWp298Qg0NsWojzkYBCkJy7yZL984SXs0KGd2WyO08OSIVxM/EHUBT35OIydOuUsg48+XqkGWOdDxJLLRmu2MWN3VQ4igp6Y8GhUGnEfLf/Y7L3DNUQd2fIi0UZyEW733yHgEBAEaG/lT+IqGmZ0pBCWkhWtXNj5aKDZ4XSU3n6Yba65n/PyXDVp8kTvK1uMguymymZn9+o9hqQXzjkFbMUsfn77jGdOq4JoVNlZVGS8rXeubFW2tTT71LCHjHzRK/vlt7e2dEj1a1bBCIPAEZ727qX2WQaDfr/FGC270Ze8QSEjFkYB7LUDBenF1s9svmdTVl29GVxhkR3lrh0CDoEABGz3PKMEv5cmIEtSUaEbBQyBUFjDGZG3t0MMApuEybkH9Kab6E3xpJFGP7bP/ujjFV6vWAwCaeyoGW9/fXggdhsVGW+8+ZbZ64dNzXb4tnhIduO1iNTY/9l+gs3o/Ft3c24ARo5NzdjoLVmDgFto8qTnjAELMga2Jswn+Clbl+XIIeAQiI+A3b5Ku2vHxc8dOzV095EUJVZLPq6Q+KocYhDYVVO2ZqAuifbqt3lLdQOISyURsXsl5TASgTA6iRrXRDLjpXMqW6neXOsVfc6xTRg8zoEYpk+EwyjgvkpE6Dz0tju9073i8TfIyzVHeNo8RVu2qIZ5lXNDQVtPd+0Q2NsIyJxCGIbArkvGjIJYLnuIYxdcFa9x+5yhzwRg62GIPfpxEclkLQ3ismV/Uedah9ngLoJYejlr9tyow19MQsA/DAAHxz/88KPq0ou7GQ7imjRpbPz+RCBPXFXcJyL4+QuivLwGulc/Rk3W8xq4rWxiwpfRDm6ez9ZvMEmcAGcbO+Gn/sy3jLpv9+lekhYUdu6cb846EONHKGchB/G7OIeAQ2A3ArSt0vmWWGl35b4iYejuo4ooUZXyYBhwebB0kolV2Q8f9wsnZbEfvu1Oom7sV8/+9sfrw2iCzgEIqv+J+vyD8Xr55i2/jxggeIL2y0/WpcOEd/dLLzKHzweVh84c1cgpXnLWwpq/faK6XXCZYZdzEzAGLzw3TS//zSsniz34N27cGLXq6aijj1QT9IE0QYSh639DXzMBjxHkPIGbbky8YipIlotzCNQ0BPDCYATskYJ9XVE8quyGeBWtcKby0cv1nwVwQqfOaumyRV6vOhUXEK4a1u2Pfvi+cipLLz0VeWfoQ9Rnzp6WUTdUOUWTjKA+8c6oSFKMY3MI1CgEcEUfeOCBnlHAIKRiFGJtiJexkQLKYcn25HcKe/ONiLeuPpXGmzpw6tey9/6ixj4+JrBKqcqj0WV+INV8gYVnIBK94p1RkYEinUiHgEMgBgIZHSkwtOGMZE4HqonE6CGesYiFCX595ivCbMQxDGHKi6W7i3cIOAT2DAKydbY9bxvGSCHjRuG7774L/TjOPQO5K8Uh4BBwCFReBDAKB+jz6oXCch9lbPWRKFqrVsY8VFKECx0CDgGHQI1DwJ5olhFCGKuPMmoUUJo/Rw4Bh4BDwCEQPgJiGMQYiHFIp6SMGgXb15WOki6vQ8Ah4BBwCEQjQPsqbWwYxkCkZ9QoYMVEaSnQhQ4Bh4BDwCGQPgJBXhgZMaQjPaNGgeWoQYqno7DL6xBwCDgEHAIqqsMtxiCMEUNGjQIPzhkF9/o6BBwCDoHwEaBtzUT7mjGjgMXCernVR+G/DE6iQ8Ah4BCw5xRAI4xRAnIyYhRkKEMB9jX3jhwCDgGHgEMgXASkEx5Ge5sRo2BbLNneNVwInDSHgEPAIVCzEbDbWUEiKE7Skg0z8mVZGNYq2Qo4PoeAQ8AhUBMRoJ3FCIRhCGz8Mj5SqCkb4tmgumuHgEPAIZBpBDAGGAb5C8s4ZMQoCBiZsGIi24UOAYeAQ8AhsHuCWYxDupiEbhTEeqEYSmZiyVS6lXb5HQIOAYdAVUeA9hUiDGuUgLzQ5xRsBZlkDlNZFI5H3323UxWXfq8N0Y/qlwfnqP32C7168Yp3aQ4Bh4BDYI8hYO8WQbtr36ejROitpowUwlQyXgV37fpBffHPQvXVpm3qu+++V5uL/qX2+Xkfldfgl/pUotqqZdNfq183qh9PhEtzCDgEHAJVDgHOqtlvv/2M3tLucpNuRzxj5ymgHK6jTJ6nwHFyH6xcq8vYaUYGDeofYj6WO6D2/qpEn5e8Zes36t//2W6Mw287HGVC9HLkEHAIOASqOgL2cZxiCCRMpm6xjuPMiFFglAARZsooYAgWL1ulLeW+qs1Rh6lfHZJjyiT+W20sGuQeYu7/9c23auWaz9WuXT+qTh3+Tx2UU9fEu38OAYeAQ6AqI8AhO4wUWOEpxkDCZOq1R42CKMRIYefOnapOnToSFVq44N2PjCz/CGDdZ1+p9V98pc47o5NXFobivQ/XmPuTj2+d0bmGYn3sZcHcV9WGzzaorLp1Vc8e3aOO5Fz76Tr10oszA9M8hfVFQcE8tfLjVYF8HNf52mtvGPY2bVurrl3Ps7N618KHHuedd5Y6/IiWXhpHhU6dNl2V6sO//TLipVG/qVOnqy2FW8rl84S7C4eAQyDjCASdvEahyRqGWEYh9NVHGUdCF/DV11uNy4gRAvMGiQieNkc1N3m+2FiYiD2t9NGjH1UrV6xSJ510gmrYIFf1H3CL4nxkiMb2ppsGqTbHtFYtD2umevfuq2i4/TRh/NNq1sw5RkZ2dt0oGRiLUfc+YNLOOecsNWvGHDX1+Rf9IoxRET7KGjr0Tq8s9Og/YKBCNnpOeXaqWrRgsZFhp4n8Bx94xJNP/YqLS0y+pe++p+4cfo+X5i4cAg6BPYcAnW7xykipyRoE4Q8KQ59olkJQFgXDUFJkSrhOjwRYXSQuI4mPF/7qkIPUL7WL6avCrbpB/nU81rTSioqK1IQnx3oy3pj/llq8aLE6X/fmn5w4SQ24oa86v1ukZ1+se+nTp89UHY5t5/FzMX/+AjV23BjVqFGe6nxqvjEy8/Too+eVl6sVH69WF1/U1cTD27tPLzVzxmyTxr0QfDcN6KdO0fkhymJ0QVmMEFq1Okpd3+9ak5adna0mTXrWyNy0abNqbaXd98Ddqk/v36nBQ25RjHJWr/6bmlMw3eRr37GduuSiHsbYNdS6OnIIOAT2HAKZ+jA4oyMFDEPYex+x2gh3EJPKqVKDeoeYvORPlXCbBPXq/XJsg0Cvu1RPeLdt396wrV69RrU4vIWX5eRTTlZ/+9sn3j0XNLx6NsYYBEk48cRO6jPtjoLaHdNKrdAjEaHP1n+umjVrJrdeeNfIOzyDQOR6nb+tHqFAGz7foPL1CEEIQ7FmzSdmRMP1iJHDJEkVbipU9erXM/cfLf9YNWvaxEvLyclWxx1/nFq+fLkX5y4cAg6BPYOAf5QQVqkZNQooGdbaWanwt8U7zGVOBSaM65S5mkpTNAo07r2uvE5NeuZZdUWPa0zP+M7hdwe6bVDuww8/MnxXa/fQxRde4DXw27ZuVTnZkQlx+GhUS0tLufSoeHuJys2NXkKbpd08rDSAZJRx+mnnKf6WLllmevGegIALjBk9/LYdIsapaOs2VVePDmyqV7++KtFl20S9R937oB4p9DLRxSWlqvlhzW0Wc725sKhcnItwCDgEMotAJrwwaJxRo5DJr5l37dpVDvF/fbPduIfKJZRF1Cpb0xsrPVb82rXrtMvmAuMWOkH32i+9tKfasOELdfIp+YFZWrZsoR544B51z90j1KyX5xr/PoxZWVlR/DLXEBWpb0p04xuL8O8zcTxr9jTzhz7X970xFrsZeTz66OPaHfWIZ5yysspP/O8oZ5yK1ZBb71BnnHFq1IiDCWY/ZdeNrpc/3d07BBwC4SNgjxTCNBAZNQphjxKANaust2+7gLhevuJT9X7ZCqPj9TcJQbS9rCd8UHb5RjGIX+Lw6/fsdbm5xQ+/dNki9cLUZ7xGVvhwMeH+YQSAjx1XzFVX91RMyEK4YfDZC+GaadyksdyaMO/QPLVN9+Rt+mz9BpXboIGJWvDWQnX55ZeYMigHfXD90Kv3E3F3/+l+dccfb43StYEeiaxfv95jh48Riz0vMGLEPeqEE7TBKZt3gLlBXq7asiV6VFC0ZYtqmOfmEzww3YVDYC8hgGGwDUVF1cioUUCpsEcLrCTib8u2b0ydtxT923yvsO2bYtVCf73MktNYE9Bbtv3H5M3U9hd8nXGzXl1kN9ArypaVoiyNLBPLQq/qiV/iIFYVka9Ro4aqSZPGnmsKQ7Ns2V9U/sknwmbS1q/d3aBjhDA2dbU7jWv/KiIMwhHWUlRknH32mWqJdjsJvTLvNdXl1M5yq1cU3a0O024i2yCQ2Llzvvryy41e/dC3SLvE2ukJZ0cOAYfAnkVA2lYZJWAQ5DodTTLy8RoKoSB///3vf3VDfGA6OpbLy7cIaz//hzq23RFqx46d6hv9gdqRRzSNuzwV1xIjidZHNlf/m8FtL6Y+96Ka8vw01bRJY1VUtE338OupBx4cZXr2uItG6h74hi++VFl1srRfP8tLu6LnNeqE3+qe+Q3Xqq91Y3ujXjKaqxv7L3QjfKGel5AGmoaf5aWk4Wbaum2bGtBfr2jSq5sG/f42/SV3qXFz4VJiBGHTUUcf6a2Mwg21bNn7Ro/SHaWee2nhwsXqzj+OtLOZ6xkzppqRxCtz5qlxT0z06nfTjddHuZfKZXQRDgGHQEYQ4DuF2rVre4YAz0wqhiHWdwqhGwVqj2IQliwTRoEVSC/NWaS/0lDq4nNPjmsM0AP3kny8dupJme/V0viv+3S9OvTQhlEuGXSBjItJTzjb7ppISvR/+BpqGbiJ/JSsDH8++x7jw1AxkR52Hq6p32btBoulm5/f3TsEHALhI8BuEfvvv79nFBglpDJS2GNGQUYIKIdRyNQXzWxlsfSva7SlrGU+TOM7hCBihLByzWdmm4v8Tq0TGpAgGS7OIeAQcAhUNgTskYIYAwmT0XWPGgUUwjjwjQI7+YXtPpIKywiA8JfaKDSod7Cqq1fC7NQuq13/3aXnHf6j/q1dS8xBdGxzuO5xu1Uygp0LHQIOgaqNgBgFe0FPpTQKwGy7jzK1IZ79OP+pt71gvyOMQ9TW2QfUVr9uWF81bZyX0f2ObF3ctUPAIeAQ2BMIiFEQQ+APE+kQa6QQ+jYXYhBEIduKSVzYIRPH/DHXwMjgF7/YV2XXPdC5isIG2slzCDgEKg0C/tVHKCaGIR0lQzcKogzGAQXDUFJkJgpZatog95eJ2Fy6Q8Ah4BCoNghIWxtWhUL/TsE2Aigb9t5HYVXcyXEIOAQcAlUZgVq1MtOnD90o2O4jDESmdvKryg/T6e4QcAg4BNJFgEU8QtLuSijxFQlDNwq2EigYhpK2THftEHAIOAQcAtEI2B6a6JTU7zJqFFBHJkNSV83lcAg4BBwCDoFYCAQt4gnDOGTUKKBgkOKxKuniHQIOAYeAQyA5BOwOt3hkJExOQjBXxowCBiEMBYPVdrEOAYeAQ6BmI8B8LYZBRgeEcp0OMhkxCrYxCEPJdCro8joEHAIOgeqKAIaB9pZ21m5306lvRoyCKIgVc0tS03k8Lq9DwCHgEIiNQFiGwC4hI0ZBLJebT7ChdtcOAYeAQyA8BOwOtxgHCdMpJSNGQUYKKLafPgLTnhBJR1mX1yHgEHAIOASU8cDInIKNRxju+tCNgihlh7ZFsyvgrh0CDgGHgEMgdQToaOOJ8XtjKuVIQZQiFMPgjELqD93lcAg4BBwCsRAIalOlvY2VJ9n40EcKQQVjIMRYBKW7OIeAQ8Ah4BBIDgFGCWxxYe99hEGwO+LJSQrmyphRECXxe/H3/fffB2vgYh0CDgGHgEMgaQQ44pi5WsgeHdjXSQsLYMyYUcBq2f4u7p1hCHgCLsoh4BBwCCSJAG0oo4QgAxCWNyZ0oyDKSkhduZaZck5ic+QQcAg4BBwCqSGAQdi1a5cZJfjbVyTZcalJjubOzIbcVhliEGTUgD8Mw1C7du2okYSVxV06BBwCDgGHQBkCjABKS0vN3f777+81/mEZAT/QGTEKKOsfymAMxEAwc04lmSiRZVXiI/Mr6O4dAg4Bh0BNQ0Amkwn5w9NCWyltqODBfVB7K+kVCTNiFGxFUJhKUSFCjAXX8lEbwyHiOIRaeAkhu7KST4yNzWvzcS338Np8ci+h8AkPZaIb6TYPesMj/KTZRLzUT/KTB8LwcW3LIJ57eMmLkZR8pEFSBi+DLD+Dhz/uSZc8yECelCW62yG88AiRB5IQmVyLm0/0IxQe4Zd7kSc6Ei9627x+GfBIHltHkSu6+kNkSp3Jxx/3kMjhGjn8SZ2IQwfKhOC1Q1sm8aKHXQb5pSyTWf+T8imHNClT5AkfoZQpafASJzjYvDY/fKIP8aIHIST5RZ4dkk55wst9EJEHHrsc8gl+ki557TKJk3yim+BGvOQVHtK4tkMbE1sP4aMM+IVPyhRem49ruZcyhE/uJRQ+QnggKcPmkfzCT5pNxJMPPskv8uQ3acsgr/CSV94fWy7x/NFOIlPu5R2We1uPsK73+fbbkuga+iTn5GT5YpK/lUraIWBwzx8Vk+t4Um1e4ZO8hH6C3ybhlTg7j80rfEEheW3eeLJiyZc8iULJH1SeP6/wEg+/3Ms191zLPaGQ8Mp9MjzCK6Etjzgpzx8KP/GSRpydX+IJ/SR8khakK3lEhp1ffqgiQ/gIRY7wC49djqRJKGVISLz/WngTyRPd4Pfz2nEijzBeWaQJjzQ8hEKSV/iIt8uVa5tfrv1pxIsc0kQ28VIvyWPzkQ4Jvx0SL7K4huReZBHnz0OckM1HnPBKOvdCNq/wBYXw27ySP0hWUJzwxwvtfMJHnMRLKEYCHomTUPIlE27fHnFJ+Xn3iFGgUAAVUOUllXsJ/coF3cNbEQCCZMWLowzRS8qUMChfUJpfBvli6R6UH/5Y8aQJxeMhTUjKTsQvfJIvXhhPVlA+4feHfl7SIVsXySO89r19LekSiixpqCTeDv35KVfySZqEQfkkTUKbh2viIZEr9ZJ7k+j7Z+fxJcV8L4LKD4qz5ZHux8afx39P/qA4f32ER0K7XP91WDx+uRW5t+shekkYJC8ozS+DfMQFEfntZ2DzyTXpEPcSJ7L89xIfL9wrRkEUosJCXPMnhsGO55rK2fySHite8gif5PXz+++FP1YIP4S8iuT157Nl2Nfxyo9VFztPMrJsfq7tPPa1P82fL9G9Lcu+jpfPz+e/j5c3UZpflv8+KH8yPJIPXkiek8QTBsmJxR/Ea8vyXyfLnyyfLT+WjjaPfS1lSGincW3LEx4J/bzCnyyekl/K4F7y+svw30veWKHIRF5F8vrz2TLs60Tlk24bA+EX/SSU+FTCWEYh43MKfiWlElJRO12Gu8SJ0YBPromX/FwHET43kWPngzdRXnikPAklj4TwxCJ5ESQvfKIP134Z/nt4RAbXdl7u4Zd0KUPuJYQPkvTIXfR/SZNQ9LDv/fLk3h+KZOLJDwnuyBWZwmeHkhavnja//1p08cfb91I3ifOXJfESik7c29eSHhT6yxAsBAd/Hvj9utsy/Gl2fnQSX7/E23rKtYTI5Rry55P8QaGtT1A6cegJCa9gS3n+siRNeCU0Aqx/oqtgJ/UQllj5JF3K8ecjPVFeeCSfhJJHQnhikTw3yQuf6MO1X4b/Hh6bkAPBJ1jLfaK8JmMF/2XUfRSkk1ROQnjsa6msHWfLEYBsPjuOfPa9yBd+kWXzSZwdigzi/NfC55chZfh1l/wSSn5btqSJDOHxlyHxdih5/OX65dt55Fry2DJsXaR8+IVX8vr5/PH+e38ZpItMkUWczcd9MmTnh9++t68ljVDqZofEC/nzSbw/hA8SOUHXhqEC//w62Pf2dTzRwmeHto7yDGwZwuuPs+/l2q43cXLvD4PSJI4QolwoSCfiRS+bz46LVyb5hWw+ibNDkUmc/1r4/DJsnYTHzm/LkXSJs0NJ84ciX+L99xKfbLjXRwr+hxyrQkHgSByVtfPJNaHwSJxYWXlwdl6JE14J4RE97Tiu+ZM0+CDK8MsiPohX5Nl5RF6sNIkXmYSQX77cC7/cC6/cSyjxlC84EWffiyziIfveL8efJvx2/WweSSe0SXhEvuhmy+Fa+Mgr9xJKXtLs/II78RB8wivXkZTd/4m3Se5FH9JsGf77oDR4RFf72pZJvJCUyb1cS2jLseMkrx1KehAmpBFP75xr0UXy+OVIusTDZ+eTMkj3p4lMf2jLsuslMqRMySfxEhJv5xMd7DjJK3FyLyGyYpUj8uERogy/LNKCeKUMO4+/LH+a5JHyJIwVL+nphnt8pIDCAoZfeQFYeMKsvF2mX66UK6Ho5b+XeDtMhkfqQ2iXnSivnW5f2+WLbOTaPHLv50333i7DliXxEtp62XyJru38Nm+i+pAPEnxFjoS2rExcJyonUXo8ncgLSd1s3lTlxuL3lyF8EkqZ/nuJ94eJ+ILS7Tj72i+7IvfIE/LjKGVJKHz+e4m3w2R44IcPsstONq/J6MsrcemEsUYKEadVHMlSGUL/H9n8cXIvIrkXsq8lzg4BTPLb4AmPP3+se39e+KTnYKfZ+bmW8qU8ycO98BLKNfxi3SXeTuMaHvkTucITT77kDeIVOciFCIVP0ux7ruXeDuVaZBBKHKH82fFyLXzcQ6JL5C4iR+KEV+TZIfySLnklFD6bR+LsUPjtUDCRUMoQnWxeSbPLsdPteCnXny7l2LxcS3mSLvntMoVH4iS0y/DzSDkSL/d2nqBrm590uSeUv6B4kSX8No+k2aEtS+KD8gbFJZIt8mKFtkzh4bdm62TzyLWEdh65Dgrht3/DNo/IIrT/bB7RyY4Lupb8QWmZiEs40cyOfEGEovLyyjUhJPeSzgccbOIEycccXDNcBRhCeMnHH5MzTFTxZ4Mu8sgrZUk+4uRaQnhkSCxlSZodohNliQzS5OM6rkWGpIt+yBf9TWb9jzjyQFyLDiaiLI50u0ybx5bnlyV1QBYy7HJEPqFfhp2G7jwLkSUybB65Fuz9k4bEkw8ZEHpKSLyU768X96TxwaLIkDrKPflFJ0kj5A+y0/zPRXgkn62Tyaz/SZrNS5q8ayLfzy/3hPCQX2RImp1XMLDrJXy2DK6RI3XhGjmSn/cEvKQ80vzly73IF7141pJP0oJC4Zc0/z3xQXHx4mPJCpITFCf5KxoGyfTH+e+DykqHx85rX/vLiZfm590T93vFfbQnKubKcAjUVAQwcD9//bpS//yz2ufLpWrfWhGDqs1ZtYWkeNpvqkXd9smqo2r95n9VrWM7qlq/7aRUgwYZq1cs95EzChmD3Al2COx9BH4u3qh+XPmQ2vefS5UxDWIf9r5qoWpQXYyCH5TaJ5+o9r+yZ0aMQyyjkHBOwa+ku3cIOASqDgL7ZDdWtU4cq3484lL1k/GQVlOrUHUeSUqa7nxniSq5aaD6YfbLKeVLh9kZhXTQc3kdAlUEgVpth6qf212nfvpBu5CqrxepijyN1NT8ecd36rvJz6ldzz2fWsYKcjujUEHgXDaHQFVDYN8jb1A/NGytft69P15Vq0KN1vf7GbP3yIjBGYUa/Zq5ytc0BPY7cYz6odb+utrOjVQVn/3302cqtWVLRlV3RiGj8DrhDoHKhcA+tQ9W+zTpzLrayqWY0yYpBHAlff/wI0nxVpTJGYWKIufyOQSqKAI/Nzheu5D0SMHZhSr5BHf9fa1SJcFnIYRRIWcUwkDRyXAIVCEEav2ylfqRDw/LPgh0rqQq9PDKVN31cuZWIzmjUPXeB6exQyAtBFimasi4kJhbcEOGCCBV5/+Paz7JmLLOKGQMWifYIVB5EfhBViC5uYXK+5DiaPbjtn/FSU0vyRmF9PBzuR0CVRKB3T98twqpKj7An5xRqIqPzensEKi8CPxsbEGZ68h5jyrvg9oLmu3uMOyFwl2RDgGHwN5BAK/Rzz+JNXCjhb3zFCpnqc4oVM7n4rRyCGQUgX1/obf+9n79YhwyWqQTXkUQ8F6LKqKvU9Mh4BAIAQHmmd12FyEAWQ1FOKNQDR+qq5JDIBECu11HiThdek1DwBmFmvbEXX0dAhoBvluLdhq5eQX3YkQQcEbBvQkOgRqIwC+0VdAno+4m973Cbixq+FXCM5prOD41ovqbvy5Ur8x7TeXnn6gOP6KlV+epz7+osuvWVed3O099+NeP1GJ94EeDvFzV5ZR81bBRnscnFwUF89TKj1eZ2zZtW6uuXc+TeCa05QAAQABJREFUJCVlbCncorK0zJ49unsytm8vVtOmTvd45aJHz+4qJydbrf10nVq8eIlEmzC7bpbqeeXl5rpY55+q8wfJhkF0Ly0pKVd2MrIL5r6qNny2wZQVVK+p06arINkmQ8A/sIiXJx6OAeIqFPWjXnm074/aMOxblt1seRE9dqiQYJepyiPgjEKVf4TpV2DTps3qheenqfnz31JTnnvaNMRInTV7rsrNrafad2ivBg4crLqc2lm9PPsv6r0ly9SEiWOjCn7wgUfU3IJXVOMmjVVp6Q61YMEiVVpcYhpuGsH+Awbq+FLVtGljVbR6jeEdM+ZB1eHYdmrdp+tN+VEC9c35551jdMEgoJ9N9erX84xCr17XxZRNAzv6gTGqTlaWKXuN1mvZsve9eiYje9vWrTHrdXXvvkYt6uWXbesr134syLPgrYVq8uSJxkgG4fjZ+g1q8JBbREQoITbA2AGRxkjBeZAEjRod2gPIGg2Eq7xS27ZuU09OmFQOig+WL1c0wneNHKYG3Hi9WuPbd4WePgYBo/HC1GfUnIKXVJZuhGfNLjCy3l602ISPPTZaTXhyrLp96GBz/9HHK0y4vaTYhE9PGq+WLlvk/clopFgbF+TZaXMKIiOLhQsXa723qgE39DWyR917l5H12mtvmHDFx6tNgz5r9jSTfsWVPUw9MUQQsqlbkGxGEVC/fteZek157imjx5Kly0w8vf0d2tA9oxt06gUfGC4uq69h8v0jD/oKFnf9abgxaG+/vVgF4Vivfn1jNHxiQrn1lqRiDJxBCAXT6iDEjRSqw1MMqQ40QDTu+fqwcHrwQofmNTSN3YTxT6uVK1aZRlTSCHHxzJgxVdXNqWtHmwaUiJ69Ljd/krh+faRBbtgg10QVF0eMAjf0lLOztctKjxLEKBTpQ0VouMUNdFiLZqpz53xTbocO7aLKlrYNFxV018g7TMg/3EyF2n3FqCHv0IYmHtkYnCDZuNIwcEIl20tMA96sWTMT9bvr+0S5wbK03lB23WwTBv3z55G646aLhWOdrDpBotKKw1HERqlmXoEb5z5KC8/qlDkpo8APBmp5RAvz4nJNL6pY/0iydUMgfmh+dPTctmwpMr7nju3bez9s8vhJZPjjuT9U/2hpFKRsuRdeyUs8Oqwt6/nZjZnwiN4M3XGV2Dojf9Pmzapjh/YmTeT7Q5Fr1zFL+7UPb9EiqgH156tK92eccapp9Efd+4Bxr4ju1H3I4IHq3aXvqWbNm6lhw2+XJC+UBpyIO4ffbRrP23r/wUvnAqMibiB67MxVQFsKi0w49LY7tfzGumf8iZrz8lzPpVKi947f+OVG9ehjj6u6GnMM16wZc9QL054x7yONKcTzHTr0TmNALtdzFjZ163qZ6aETN3LkcNWobE4knmzJzzuC+wxq3Lix58qhXCmbd+2JxyeaUckpp+YbXvSxCYzsPKRPeXaq0VewsHEEL0YVYB86aUMQ5SZw7qPQIa6qApMyCvKDoDfIS83LfNNNg8zQ+VTtMhih3QrE4TfmJRaid3fvvSM9oyHxEvIDtvklnpBG4/p+16pJk5417gq5J42yru3Tj0v1ktYJgyA64gYQEvniu35y4jNq4YKFSnQW/y38yJcGS/LbIXIxePff95Cpt512QdfzvYbCjq+K1zT4fbSf/KHRj3nq0+C9/safzX1J8Qb1onaBxPJxYxAWaj85rhRpHEXQubr3367tMWbCGqxlspg4iHQaa2mEcbVQzokndlInntDJG23Ic4NPjLW8fyy0HDvuEa/Rl7LFZcX7NHz4SD0ayTZ5kX32Wad7BipINp0K3qFC3Xl4/ImJ6vq+N0bNqYAPv4cs3aO/7/57pEh16aU9vWt+C+LyItKvr8dYdiF62MbTz5PuvRkgpCvE5a92CCRlFPy1fnLipHIN47xXXjO9Q2m85aV+6cWZxmj4Zdj3xx3XUTU/rLmJWqonMTdu3Ogl86PFh80kKEYCwscNHXX0kebHX6h7/6kSP0p6nPxYH9eNCCMIofnzFxhjZetF2uRJz5l6YwRwsaxft16Nn/CUkYNbQHqNIqcqhjTKvbSBpF4QE8052Tlm5Cf1wb0TRGIQhgwZqM63Vh7JaKyrHhkgn4bc9Pb1nIOsIGqhn7/03hnJ2YQr6NCGEXcP8Q31CiiopMzt5G9gRQ48BXPmmbxiPIijA8GcA3HIzoshm8Z+7dr1qnOX/DLj084YR95HyqRXLwahvn6Pnhj/aNQ7MMjq4edoIyQkeTAiQQZMcMSwCj6SN8xw95yCdrq5JalhQlulZaVsFFjNQU/QT7+74VrFn5A0HPRGEtFJJ/3Wa0QKtSvBNgrnXXCueu65abqR3mZ6kPyQ33w90ms9+8zTy4mmARJiEjAWMbEH9b7qCvPj5gcuDQd+c0Ywtl7w4q7gB427DDeSTfibq4NRoE7MATCZSuMHgc2Iu4aZ61j/pCE76qgjFfus0RhDGAImlBkZ4FaUkQJpubn1Cbz09Z99btJfLZskbnlYxHf/ph6lfKndR/3691U52l/PqijosMNbej1unhcdkuUfLtd/2v2oG3rzrvjyvvb6myZv22NamzCebDobox8co5YueU91736JnpQuVl9oPehI2AaB9+yMM3uoRXokCR1+eAvzjlB3P4lBIM+Vvcrra+OIwRIcMUxhvl9MIbDNhTEMyfxI/RVx99UWgZSMAr1p8YG2anV0oHEAKYbXNCj0tP8w6Oa0wOOHcLQeEfzlLx+YxoM5BGms2up5AD8NHBjx/frj7ftl7//VLJk8Vusnvlw7PdY1hoAljHf/6f4owxWLvyrHixspmTp8/fVm713g2cjzIS8NI98bMMGLYRAXHaO8YX+MzE0EpdtuE3S5UbsmWVoKMVHMaIQRAZ0UcUGKbHiQj1Hw5yWNkZ48d3+6LRv56IFc3j8IgzBKu0Qh3gXpeDw5PjKyIp48Ms/GvU2x8uDSRF/pcPlxZM4rTKPwi6jlRtoqaCPhyCEAAikZBfyx/ACZ+Nqse32xiMnIIt2z54fER0ni9onFnyieXhqycCE1KHMdYHBsN4HI4AcpxGRlqe6R+al+vXqqVDcsf9Uy+UAr2SE66+GpPw0OrgF+qLbf2F9OVbmnMbLnYtAbbOe/FentJ6pHo0YNy+W389CYsZyVDgJLQf2LBiT9ur59tEtou2qoDb/dAKILq4DoZUN2Oh/I2R/J2eVyHS9vMum8uxitIL1JS/XdTpTH/xz89Qnr/iezyYWzBGHhWZ3kpGQU6L2wFp1eFisjbMJts3b9enWl/sqUycFP9Q/4Oj0ZTC8r1R+OLZdrGi2WDeJCYoUHdM7ZZ5rQ/88ui7mBIKPQvHlTda1ugC7TE4G4pnBR2Y2QXyb3NEjSI2VNusSZC/cvKQTAmGcZiyJGPi9Wcszed8wMVkKsnruwxEtPpLfIqGqhN6dQ1RR3+mYUgahVaYlKYuhMby6IHn3sccUQetDvb1OLFixWr86LfDxEnjCo24UXGDEM15HpX9mSahk0QIw2MBpBH2z55dE7FcLvi6+X1U2OHAJVFQG3dXZVfXKZ1Tslo8CkbKQ3V14pluI1btLYuHlY8sfqEu7F/1o+R2ox5553tpeB+YwwCLcUhK6sJolH9BbFNYXflwnITp2OU0ysQjJxHU+GS3MIVBYE3NxyZXkSlU+Pfb79tiTu+5GTk5WS1nyqz0ociBUaYRGNtvjv5buDsGSnIkfqx9e7iVxOqch1vA6BPYnArinHqFq6S+i5kKr4F83F036zJ+GrFGVlvxrZRqaiymzfXn6+FVkpzSkkUzgNZZiNpaxxnzVrjike11E8v3QyOqbDE3b90tHF5XUIVBSBH/V3CfvpIzkdOQT8CIRuFPwFpHu/Xk9ejy9b7sdywbDcUenq5fI7BKo0AvgH9HcKZq8L89GCjnA2oko/0rCUr/RG4eRT8lVeXp7arj8cCvsDnrBAdHIqBwJsQ1Kq3ZfyDQKjTNmJVTSUrTTknpDvT+Q8Bv95CaTzLQTnRPAxmX0OBGk2xeNDF76iDpJhp7Vr20Z1Lts7Cdm4Tdnug/MagnSzy0/pGgMgM4pu36OUoKvuzPJaVNp6MrHNj4SPoMJ0S1XaCjvFUkaARp1tVcaNnaBef/PPXn4OBfpcfyWdiO4acY/ZQvukk05QS999z8iSPMidNXOO/rr9BMUX1r179/U2aRQeQviW6Lzw8TV//wG3mK2wScNYscmgyBig02Rhgz9t7LgJZvUe+eBhPzHknXPOWebDUb6rCYN+ISOFMIQ5GdUKgUo/UqhWaLvKxEVA5o/YJ0h6yyxvZpRok3/EOFpv3tfisKbqqqt7KratEGJbbFaYxZuDoswNX3ypRj98n8nWvmM7dclFPbwRwbJlf9GbOt7lfSOxTp/AxujDLxO+sePGmNV56L5UbxPCuQrsATVz+myznYrUiQ8/ZbO/j5evjEr7SffgX9dbccDLHl+tWh3lfefDpn7Dho1I+mNLwSEoxHPEdiSmV8ioASPh3EdBUNW4uEo/UqhxT6SGVpgeML1p9kd6592lqlvX7qanzQE8xE2ZMlWt0HtScb29bHWbQHVd32sCG0q2xWa/oue1bD62lN655CNkzqpZ0yZeFKNRtlVZXrbpYq5e2DCv7JsbRiSrVq5Wcg6El0lf8MW1vVyb0+fy9DkUEB995nfJN9f8O6xFc7Vq1WpzP/jWWzx3FxGcspbboIFJY9TSTh9rKiSGKKgewpNsyDSCdxQnBsGRQ6AMATdScK9CpUCATe7sHUP5QNDeIoVNCs/VLhRpGG2l7cbYji/RHybOmDHbbLvN3ku4fh7Vp7/ZXy8Xa8MhO/RK3iy96R4nskHD9b5LQ4bcoU4/LbK53WmndYlqxCWPHWKA6OGjK/tCQbbrs2XLFoFf2vPVPEeFggOEURPDYiL0PxZbsAdZmMu9jWw3ShCIa3zoRgo1/hXY+wDQcPKlut24H6N7yFt0Q54OXdO7l9kQj11f2XuJr+LZyt1PYgD88dzj0z/hxE56Z9Zp5tjNDZ9vMPtlBfESh0HAdRRvI8jCTeU/lKT3z0aLrK6zcZDtwe3y/FuL22nJXjM4iP6i2VmFZLGr7nzOKFT3J1xF61da1lNPR30O0rEbWDZT3FIUvZEjcTT0NjEX0UKfqMd8A8529tOip4+sPn2u9s6etvNw/YpepcSmjXzdLyMDNgtk3y7b5bOpcLO3bTj5SMP43PHHW9URelt2IdxImwt3GxA+nGT/LXvLFeGtSOh9uGYyOx9SRTCsjnmcUaiOT7WK1YmGs0mTxuqVsjMY8N3jTpIzDypaHSZlIw17RMIKvaz0xN92MjfMM9DIdu6cr7bqhlYabcIifY/rhxPXdui5AUkjI5PMcg4ES1AljXImP/tClAsMfuhU7XJiYlmIo0TlLBDyYxB660ly2yDAe+45ZxoDhJ7QvLmvmh16xeCYyIr+0zZg90jBjRIqCmN1zOfmFKrjU62CdZJzDWbo5Z9bt21TyfjuE1WT+QM2LWSyuKhom57ArWfcOjSybN7YSH//wsaKV+s9vVhCmlu/vuG76cbIUa80vv1v6GsabWTg46+bneWdA8HZIqV60hv31B3aAOECY+ddIfbKYpTBqXxX6W3XOWcEGc30Lr3yLQXGgt7/A/qsCP4gvtrn6E4M0xlnnKbzXquy6mSp0h2l3nyDlFHhMMoOYCG0pKi4Ckt2Gas4AqHvfVTF8XDq72UE6DmHva8UE7gcKRpvchZDsZkJXN9ZDgJHMjKEN1ZYURmimz1BHquMZON3PttG7b/vPtbeR8nmrJx8bu+j1J9LrL2PnFFIHUuXwyFQ5REwRmE/bRTsmkTd2AmV/9oZhdSfUSyj4OYUUsfS5XAIVAsEfv6xWlTDVSJkBJxRCBlQJ84hUBUQMNsdychAwqqguNMx4wg4o5BxiF0BDoHKh4BsjGo0c6tRK98D2osaOaOwF8F3RTsE9hYCv9BWwdvmAiXcaGFvPYpKV64zCpXukTiFHAJ7AIGo7xR0eW60sAdArxpFOKNQNZ6T09IhECoCnLwWITdECBXYaiDMGYVq8BBdFRwCqSIgJsEMEZhgcLYhVQirLb8zCtX20bqKOQTiI+DZAW/UEJ/fpdYMBJxRqBnP2dXSIRCFQK1f7OObRvBMRBSfu6l5CDijUPOeuauxQ0D9yLFrNrnRgo1Gjb52RqFGP35X+ZqKQLkfvhso1NRXoVy9y70b5ThchEPAIVDtEOCM5t2kLYJv4LA7zV3VNAScUahpT9zV1yGgEcAG7LYD+ooVSI4cAhoBZxTca+AQqKEIRJuB3SaihsLhql2GgDMK7lVwCNRABPTio2hyNiEajxp854xCDX74ruo1FwG32KjmPvtENXdGIRFCLt0hUK0R0EMGRg1uTqFaP+VUKueMQipo1VDeK3peowb9/jZz0P0JnTorDql3VI0QwHXkhg7V6IGmV5Va6WV3uWsCAtf07qXyDs1THGQ/ZPBAfd2wJlS7eteRAYLpEpZNJpiRgptYqN4PPbnaJTQKBXPmqc5d8k2DgEh6iR99vEI1yMtVHdu3N4ehc9j6Bx8uV127nWdK9d8X60PRC+a+qkpLSlW7tseoDse2K6cdcjdt3uzFH9qwoWp5RAu1aOFiUz5hcUmJ6nJKvimTQ9A3bypUnU/N9/Kga8cOEZ2C9ITR1iU//0QVdBi6rUtOdrY6/PCWgYe+U56fKH978fZyui1asFgfCq8bVn2A/Nq16zy9bazsa+RKHcm3du36qKLAx49jLH04sJ7y23dsp9Z9ut48P7vu1BcSeVKuYNtB5+P5vbN4iXl+jbQ8CD70st8P4ikLkvzwfbj8YxMnz8/cuH97DQE8Rj/rjxUihgE1nEHYaw+jkhWc0H00+sExpiFB7wnjn1aj7n1AFReXqFkz56j+A24xLoVNmzYr+ITsexq6iy7qoVatXKUKC7eoYcNGqIKC8o3pq6+9qaZMeUGt1Hz8FWoDsV0bE+QOGXS7iXtv6TLVu3df0xgVby9Rw4ePNDyUS8MDLx/l2HpOeXaqGjlylFHNr8u1ffp5DZhhKPtn6/L6G2969bR5uKa8pUvf83Tmfvny5drwROtGuehaVxuED3T62HHjPVE2VvY1eW66aZAqKSlWhdr4gcmsWXM8jDDMfvLrM/6JiUYf+MaOm2BwnPTMs+rzzz9X1H3q8y8aEdT3tdfe8MQNHXqnpyN69Op1nQJ7njvPT/It1kaCMqdNne7llbpKHRdqY05ZGz7fYN6BSy/t6dxPHlp77+Kn6K/X9p4iruRKh0DCkYKtMb38Hj27m1EDDfbZZ16ge8S7e/fE4WKwiXfvscdGez3yBx94RC199z3VtWtkVGHztm51tBpx1zAv6uuvI7LPPut0dX7ZKOT6vjeql16cqUaMHKaysrLUPN2D7Xnl5eoj3RM96ugjFb3YtlrPc887x1zTCx44cLCR6deFGbZ3313q9Wi9gvWF6IIOl116hSrRDb2/bvB3v/QSr4e94K1FRgQ97nr163u6YQgaN2ls9NGXCYmGtf+AgeqqXj3U+WU4naJHRBg7jIONkV+YrU+3rpdFJec2yFV3adwgnsOs2QUGO5uJMmx6++3FGuc6asKTY01023Zt1AP3PeTlq6OfwZyX56rr+11r0p+cOEnVr1/P63c2bJinnp403nv+zE9g0GRUYpflrvccAm5eec9hXdVKSskoHKp9yU9OmKSKtmzRPdhSU1d6xbh5aKDpMbY4rLn+0a/0cKCRfv75xaYh37KlSBVt3apyc+t76clctO/Q3mNrc0xr3TtfZu67XXiBWrJkmWmg3njzLXXpxd1MfEfdKH/44Ufqbj1C+OLLjeqKK3uY+INy6qpX573m6UJap+OP9WTbF6tW/01hgKjnBV3PD3Qf2fz+6zPOONXT7c3X/+zpBt+O0h1GNteCI9dCV+vR0PFaL4xdmJR/0gmeOBr3uQWvePdcYIzmz39LXXhRV/WyNhjQ+s++UKWlpVH6cg8v1LRpY+N5wPjyHqxevUadccZpRg7pjfQ7M1W/F08/NdnUdevWbUQ72ssIyNzyPlgHM8lsHEp7WStXfGVAICWjQO+1U6fj1LXX9Ta+cVwBED3oW2/9g5oxc7bpydbVBkIIVwMNzI0D+hnf/NRp09WGDRskOeUQF8b/b+9L4Ksqrv9PSMKS7W9tWfVf2URUBFTcUBBZBBcqi0oVqyBKVWrVVnGBIlpEq1j0hwpqEQTBghsuuFRRFMWqqAgoEkWpCyHw+1fJgggh+Z/vJOdm7s29770k7yVvOefzeZmZM2fOnPnOzZxZ7pKTU6kfKxfMUrF1tIUH+KMs59G2bTsaN24M5W/KpwULF5sVzt0z7uVBa71jy9//fm9g/a15po/yIGyZ9Du5T61mt1hRPcb1wrYNGz6lyVNuMrrkz7hxY0w0Pz+fZs9+2MTlzwh2dmgXBl6cB0SLinkrKhShf8dedAGVY3ywqFPHDvSnP11lcchl17hxY2ju3Pk05PRTqXv3bua8SYRnMOaFPBk499yRpv8nXj9JsjRsRAQy8fSa8QPsHkx/65lCI3ZHXFUd9kxBrMU2yg6e5WNwxOEsthVswqEithjwGzXqHCcLM00MsMjP5Zn66tX/dvIijcCRgDBIonzPHj1MGlsQHTq0N7PQ448/1mzPIAO3T37EB9/IP6V/PzPTxQFrKR9Ud+ctKjkA3fzVFoj7UhveakH5rjz7xRYJBu/aEBxlt26H0z333Odsa0n5LN6OgW78unTpImwnxFbMwEEDzFmGzMidzHpEli59xmCIw/Z5jywwdom61e++ZwZ02aYT/tFHdqf16z81STgonJk8+NAjkm1CtKOQVwAP3P8QXTp+nCtv8+avqFPnTg7mpbxKUmp8BPA5To/vb3yj1IK4QCCilQL25GfOvMtswyCOQRKz2UjovPPOJhxcnjpoqNmbxqBcWFgYSdFqGZ7E4P54EM4Nzr9glJPXp09vM9PGrZJCffucSPMeXUTz+JB5x47txm4MXHBKti1wVkH02muvE34g1Hky3/VUW/KzLVId1028mrdsNtPEiZPoscXuQThSHV65Hj27m7MKOPeWvO9/x99uc0RwbuAd0JEJJ7Hpi8080x9NLVu2otJdpXTbtKnIctHZfD0U8IoA24X2uQm29NAX6H+z1eQqpYm4QACLBPUQcdEV8WBE2s6dJSHXjXl52WZAhlPAwIrDZJDfoWuoBtVlK0QOeZcuXUQ5PKD71bts2fP06PzH6Jll1XfAiB2oE+W8ttbFFtFZmxC2zbhzJr348rM1bKiNnmjI4tB57JjR5uC6Lu1Hv+Owva7bWXWpMxrtVh3+CPw8vydlpqdRE9krSHCnULz4IP+GJjE394XKc7+6NrGoqPJc2Fs+opXCwEH9zSwbhb0DrFdhULqug4no86t36pRphG2PoFVLUJ1BfKkrGqHYhkNuP9ujUUddddSl/WhDfdpRlzrr2j4tFx6BNJ4KJrgfCN9IlagTAhGtFOqkOUqFQs0wcccLtoT8HkCLUvV1VhNvtgFHv1VTnRuoBRMagZ/m9aQWTS23YEUTsWG6Uqh9r9VrpVD76qJXItQME9tZ8UrxZlsoHOMVQ7UrdgjAB1Q/0SweIeROcuyMUc1xhUBE20dxZbEaowgoAvVHgP2AvuKi/jAmowY5ZkrGtmmbFAFFIAgBXhRgpWDILBRktRBUQPmpgoA6hVTpaW2nImAh4HrNBXaN9NXZFjqpHVWnkNr9r61PUQTUB6Rox0fQbD1TiAAkFVEEkhEBLBCcTSP9nkLEXdyCvy+SMXKEr3z5O6uplN8kncikTiGRe09tVwTqgYDz4Fo9dKRi0bL1G6iCXwrpR2Xvve/HTiieOoWE6i41VhGIDgLm5ah80Kx3INUez738mn78kpXUKSRrz2q7FIEQCJR7H0lw7SWFKJiCWU1PH0KZvU+oU8v3rX6Xdr/4cp3KNlYhPWhuLOS1XkWgERHAm7Nd5E27MlM7gUGySefO5hcpErWVj1RvQ8jpSqEhUNY6FIE4QwDvPsIdSI4v0JVCYA9hpp9etVIonXxzoJydkT3tFpNMtFUCjNaVgt2TGlcEUgSBfdxO17MKjndIEQC0mYEIqFMIhEYzFIEUQgArBaWIEcA5Q3P+CXnTwk/EUJ1CIvaa2qwIRBuBUCuFrP2I+txKNIA/X4u4l+qb79WXAGkcPMuWEsz1phOgCYEmqlMIhEYzFIHkRcDlA1z7SD5tHjiP6P8OJWrdl6jvPTUF6ptfU6NyGhEBdQqNCL5WrQg0FgIuP4AT51DbR01/UW3m/pXfR69mcKy++S5lmmhsBNQpNHYPaP1JjcADDzzA37c+l8aPH09ffPGFq63v89Ovkoe4EOQgP3v2bGGZEHzoiwaZO4/s/36Xl/DUsO5v1Yx1d1THJVbffNGjYVwgYF8WcWGQGqEIJAsCEydOpPvvv5+GDx9OPXv2pAEDBpAM/hjgzz7nbOrRo4fJG3LaEHr55cqHnIYNG8afmB1BH3/8MUGHEMr3OrqXJOsV4h/feXU2NIV6Q17+S0TLTqn8baj5LXSqb369WqKFo41A2OcUduzYEe06VZ8ikHAIpPFMulmzZpSbmxux7Z988gnNe2QeHXvcsabM2rVr6cmnnjTpSZMm0Q033EBXXHGFyfvxxx/plltuoSFDhtBnn31mQvCefvppkw/nMGrUKEdXxEYECJa7DhVYyJv2ltv1o5fjTtc3360t7lN4Utkmb9rOS7R4WKeQaA1SexWBWCBQwTPp3bt3U3p6OmVlZUVUxSuvvOKS+89//mNWBWB++umndO2fr3XyzznnHJoxY4ZJH3/88TR9+nR688036ayzzjJbRsuXLzdlnAL1jLh9AKfMflI9laZQce9Dad50IkOh20eJ3Htqe4MjsGvXrjrViUF+48aNzsoAq4Ff7F99gHvwwQfTDz/8YHTDAey33340ZswYGjRoEC1cuJCWLVtWp3qDClW/+4gdAh5vdnuJoGIpyy/nt6I26dQx4vantWkdsWy8CepKId56RO1JOgQef/xxmjNnDq1YscJp2y9+Ue0QwPzvf//r5O2///6O8zj88MNpwoQJ9MQTT9CiRYsoLy+P4DQgEx2quvNInUJIOMuefY4yTuxNOf+YQxXbCkPK4r1HlJNNexcuCikXr5m6UojXnlG74hKB5s2b18ouHCxPmzbNOASsBoTatm1LmzdvliS9//77dNhhhzlpRHCOcPrppxsHga2lVatWUZ8+fYyDcQlqIuYI7P3sc9pz191hHQIMKeezpN0Tb6Cf31wVc7tiUYGuFGKBqupMOgRw0IyzhEjPEwCA3GGEFYLtEJB3xhln0MyZM82BMtKPPPII9e7dG1FDcCb//Oc/6ZtvvnFWEVgdYFsJB9D1pZp3oGKpEOphhfrWmPjlMcgn6kBfG/TDOoWWLVvWRp/KKgKKQBUCuLX022+/pS5dujiY4EB56dKl5s6j8847j37961+bO5qwLYQtJhCcydiLxzrbTXAG48aNo8GDB1NRUREtWLDA0VfXSI07UPWgua5QJl25tJ07S0JOD/LyspOu0dogRSBeEMCKAAfO3pWEn31wFr/85S+jcp6w99EjKYM3j6u/vMY1JvC5QvHig/wgS2pe7gv1u/mgqMj/k6JhVwpJjao2ThFoZATkGYZIzIjEcUSiBzL7+PajzAzLC1jRSHWoXHIioAfNydmv2ipFICQC6ewEXE80h5TWzFRCQJ1CKvW2tlURqEKgzLtp7E0rUimLgDqFlO16bXgqI1Dj7iPdPkrly8HVdnUKLjg0oQikBgLYOtLFQWr0dW1bqU6htoipvCKQBAg04f981+JAPUQS9Gp0mqBOITo4qhZFIKEQqPGcgstDJFRT1NgoI6BOIcqAqjpFIFEQUD+QKD3VsHaqU2hYvLU2RSAuEEjnk2bXjpErERcmqhGNhIA6hUYCXqtVBBoTgbIa+0eNaY3WHU8I6BPN8dQbaosi0IAIRPSKi6z9iDoOdlv1wyai79e6eUGpDicRZfLX6koLiFodQ/Txw0GSyo8TBHSlECcdoWYoAg2JAM4TXE80B20fZf+KqPsNdTetZBvRD1/wbwvRjxvrrieKJTPa/5rSW3K7LAIPPyUidQp6FSgCqYhAbU+ZNywhkh9WCVhBdDmtErnMZkTdRlWjiDh4oL38pboD+xEdcjbRnhLDauw/GcceQ82vutJlRvPJN1FahJ9ZdRVMwoRuHyVhp2qTFIFwCJg3ZdtTwnBOAk5AaO9PRFhBdB1PlP8SO4AWlasJOA0QVhZf8fepwR+4mOjz2ewQiolOuIfozUuIdnxZKddIf39+4UXKGTGCMg/rSvh4TrOT+5hnNhAHr4n1uYDyHTuMDExFXnq3w6niq6/p5zUfGeux4sg47FCnJZAv3/G/lHHQr90ynN7Heent2zuyiJR9ttGU37vmQyovrdunXl0Ko5CwL4soqFMVioAikAgIGB/ATzVXUxivMHAeD/BVvw4DqouFiuEs4odPKh3Ed6uJvn2ezyfOClWiQfIqdv1EZa+8QpnHHWvqyxg0kPZUfTozc0B/yuh9AqW1bkXgZ3Aa1GLshdT8UnZoTE0vG0/NTx9i4nAITX832pFvev557FR+RZksI9Ti9mkmnZadXSk3fJjRjTrSsrOo6XV/5pVXlog3eqgrhUbvAjVAEWh4BHCEgF+1K0AqBD033J3ZsrM77ZfKPpBXFLxPf8S46tzS76rjjRjb88ZKyrr9Nsp4/Q1q0qY1YaYOSmvdmspefc18YQ0fXkUaVLZ+A2GFgVVAReF2ymRHQC++TBU80Jd9so52L32KIJ/evbuRlz/Nzx1JFSWllIZvNvNKBL8s1lleWGjKiFyLSy6m8m3bqByrkEb+jKc6BekVDRWBFEKg2hlUNdrtIaKDxA8b+QP27BTeu7tS337teA8mPmbE+7Z8Q+Wbv6IWd0ynstXvurZusAXkpbRWrSibZ//lPMA34QFeXCjiaSX+ZyXYWso8dRDtnvMQNbNWDl7dSO9lx4Jtm6aXX8aOp3rLyk821jx1CrFGWPUrAnGIQI23pIazccC91RKFvBVUyDPrpv+H6Dje+kAIQlzo6D8Rffh3Pne4lAhlS74has23p741QSQaPdyz7FlqPnUK/fzPpY4tTTp3popd7r39tKwW1OyKy6h07CVmpdCUt46ajhhmyqR16kTlPKD7EbaNSm+cXONOJz/Zsg/WGN1pPbqbcwusKBqL4sopFBcV83dpV9K2bYVUXFxC7dq2ptG/O6+xsKlTva+/ttKU6z+wn6v8nNn/oMsuv8TF0wSZ/i7lfv/N8KEOHMuWPU9rP/qEsnNyaOjQ06jroYc4eRqJDgI4aDaHzaKuxtKhKuPHb4lePUekKsPS/+Wp7U98aFy9b06fL6iW+epZokFPVDoFbDthqymnDdFH93G5n6vlGjGWxWcETU7sTXsXLDSDMUxpceUVbGc24e4k/LAV1IS3h8xBMm/tNPvtuVTBq4t0PnMA4YA6o0cPKv3HIyZt/0lr08bR7b391ZaTePMzTzerjwy2yU+fyDVEGDdOYet3BTThD9dQ797HUzve42vDv/4D+jUEBlGtIzc3l6bffifZTsEMcms/iWo9ia4ME4A5c+bS6tX/ptatWzpOAc7z7bdX08X8T1tSXEw33ngz3XTjdXTMcUcnepPjyv6IVwoYxIPuFgrio6WFb1U6DsQhF0oWMg1MZXwukMbbOnIXEarPGHwq7XvqaceSfet4BcCOIb1jBzPjb3rKySZv972zKPOYXrzlVEq7b/2r41T2bfjUnDfg3AHOBucMIKTLnl5m4viz991/E1mrEcga4q2pnyZc6eirZDb834icgszgYd6xDEa7A9vSB+99SN9v3eqyuGvXLmZWJ/J5PEB27XqIkYcgZtG9jj2aNm3MN2VFF/IWLV5CYy8aTaewIygu4lUC1wGCs/j8802uQVb0lLDc999v5Tq7mBkn6pPBGOXe5yWZkJ0nPAmXPfO8cUB5ebmGhbLQi4Ho842buP58EaUD2rULOUChTGvefwQ+MpC9/OK/aBQfONl6odBOQ/6AA9q52g0bDuG2vc6rJy8Nq5pZSz947RK+lJO+EeykrZKPUDADVugnyBTx4L3m/Q8dXIEH+gdtk35GWdGPOMjO89qG/Bkz/ofa8krwojGj6eWX/gWWobUff0JX/XGCg10x79cuX/6SkxY5DeuHgFkl2KuDaJ8prLiqfgbGuPQePiT2o91Vh8mSh8NjEAZ2GeSR3udTvnLLp3LbZ1+VQzCyXNaW31t1OyvyQLbeSk7j/sXZRkjCP/eFF15KH/M/K7Z1MJvHgFPMszik8Q+Nn9ny4cECAwvkv/hiM7351ts08fpJhodKljJQE6+9iVby6Tryx44db3Qhb/OXm2kT8y6//Cq69a/TafiwUaZcTl4O3XffbDM4QQ406745nC6h99esoblz59PUqbeZ+sG/ecptRgYD6qOPPmb4sK2goMDw/f7A/pWvr3SyHnxoLhVUObyVK1fR26veMXoQYoAKR6efdqqxC3LAo3D7djqFt5Ng09xH5jvFYb/oe2H5y7SG00LAWfJgP34z7prptAdymFXf+z/3Gx5CpIWWLHnC6TPTPm4HCH0Ap+wlbNuN4f6QfrvowksM5nAKsxh/EBzCtL/+jdqy8wLZ1wVm9FgRgaDrQi4PXbhu7DYbAf5z6fiLfbfTeh7Zw1wfIvcRlz+KeUrRRUAOSh2ttoNwmKkVKT5zWI1ZOgbseBu0Y90rYVcKK3iw7N69G91y62Rjy9FHHWkGvDkPzTKzRxmIZL/85inT6OyRZzlnAch/iAfZqVXlO3XuRNdNvNro6sd7chjUMess3L6DMCA8tqhyf27Rgsfp1lunE+rpyMs3DNq/GTbUOBFsNxzIKwmMoRhwn3mo8qGZ80ePonNGnu84odZ8H7DYFQrIcePGGDugH7Ru3QYetCpvoysoKKS+fU80dZttIN7rDkf9eLVz/wMPmUEVDmbsRReEK+LKB2ZoIwizdWnDYwsXO3E4m1deeZUeXfAPIyNt/83QM8xqo4SXoqNGnWOwlT6SSvLzK52CvTK5b9Ycum3aVGdGvmjh45TPzqPNAdUrNjiEO+68zWAPZ3H77bc4+/1teNb/9lvv0DDG8IklT/GWz0SjCxMIP6eA/vOj0dyHl192FZ06qLIvOnZo72wt+ckrLxoIwCPUcBPRUKw6EhCBsE7h44/WUSHfUzuVB3tQCS/nv/56i4n7/SnkGS3kMUsEQb6E996E4AiE2vKAY+vq1686b+iwM2n2nIeNKAY3OA8M2i/wTP30IaeKCurR/QgnjgG0Q4f2Zsbdtm3lbNbJDBHBFs12di4Y6DCL7tSxvRn4UKS0pJi3OSLXhTKwY/iIs2jxoiW0mQ+mxMGgnq+/2mIcWy6vgD5mB+OdoGGwX8vnD0N4tYHD1iDCqmMXPwH59xn3OiJZfCgGPrbegDkGfT/K574pZqcx/fa7jAMfetaZtIPbL9tdKCMH/N99V1kPVi5wAjKYo42bNpY418Un69azI2tlqoPjx2oQ9WNFWRvCSrFHz+70+8vGmdXgw+xU77rzHmciURtdKhuMAK676hfiqUMIRir1csI6BUDSs2cPwgw0Esrh03vMrHv16uUrjsNDITuezU/2BREGq9v58BaDNgZZWbUEyddlED+B7yjAauRDHoj79jnRUY0Zd11IZu7Hn3CcayC9/vo/m5kzcMrOzqmheuLESWY2bm8l1RBiBpxKy1YtaXzVikZksN0G2sErL4lLnoRnnnGacQAnsxO+6cYpBKcAAr4Y7L2UxX0zePBAevzxJxn7SSYbW0T3zZptVgQY/Fe8sZLeeXu1ycOAfjc7K2xHtWIb0dZICA4IdstKErZgm2nc2N87vEj0qEx4BOAG8EI8xzGA4Z2hhFejEkmIQNgzhTPPGMJ76qvNAIMZaFFxET33/PJAKDof3NkMrJDFD4Pbxk2bHPnl1gEN9usxaIJOOqk3Pf989X49ZtkDBvZ3yp06eJCZFXfq1NHhIfLuu+8520WYZW/gOwBkz9slyAmcj+DnR1jBvMgHwljpyO2RkMVKBjN8L6GuZcsq99C9eUjjEBwkqwST4D84CJ/z4CyacfcddORR7r3ypU88Q6edNshxIlLGL2zHAzEGUPQHcIaTwDYdBlLYhoHcb4C3dRV8X8COKdvIdet2uFnZSP5l4680NwY4aXM7bYWZtYO3bWsBr6g6GOeC+r+sWhkiD23HFtwj8x4yh8bgRUJiL84uhN58403j/JAO1X8ir2HkCKTZCwR1CJEDl+SSYVcKmKWf1Kc34eAxOyubSndh2+HWQFgwQ8YsEQfFkM/JzabJf7nJkce95xhwCgt3UOs2LZ08uxxVpLnyUBhnGddccx3NnHmXowuRI4443Bx+Z/O7Q7bv2EETJ15jBtUC3kbx0i18IH0kn1vI1oidj3bisNZ2OiP5fGIEbwPJYGXLwzFiTx976F7Cdserr65gzM6PaICX8phR+9km+XYIm7DqwAFva56NA8+zzz6LMNu+mGfWsDuIJk2eavomOyeLJk2+3ohNnnITXclbRJgAAMdBgwYYBwZ9Qn++9iq6gvf7cUaB/nryqWfpgvMvNtmdOlc7a5wFYWWBrSa/fhB93tDbJqzScL3Nuo9fpMYUqv+8ujQdGgFzS2p6aBnNTU0E0nbuLLHnCzVQyMurXPpjawEzQMwKIyHIg+wBFc5g3LgxZnaJ2ayfLr9y0AP5CX+4mp5ZVvUmRuZhpo59dxxiIx/bJXZ9KGfTBaMvpsk8CAY9DDV82G8T8p74ICzttkcaD8I/qHwkuAeVDcXHaiEvN891jYTrv1D6NM+NwN75R1J6E353vjiGBF8pFC8+yN3AFEjlvlD97ENdmltU5L81HnalIJVhsA014IqchOFk/RwCyvqVw8z0lVdeC3kXT5A+sQdhKR+++jmEDz74kJY8/oS5y8o+bLXLxnM8krZHar8f/qHKRrNuux6/fgrqP7ucxiNDAJ/jzIj4CbbIdKpUciAQ8UohGs2t7SxU6tzIs0ZMZLwDRW31Bc2ov+NVRgnvzXv1S/0axgcCQf0XH9YllhV7Hz2SMnil4Bw060ohsTqQrW30lUI0EKvtLFTqPDTg3Te11Rc0q628zTKybTGxScOGRyCo/xreksSvsaycVwpNLE+gdx8lfqdGqQU8V1BSBBSBVEPAcgep1nRtbxgE1CmEAUizFYFkRCDk3SXJ2GBtU8QIqFOIGCoVVASSBwHsHOGleEqKgBeBiO8+8haMRRrvycFL4PAsw+jzR7luR8SDS8uefYGO6XWUcyAM3iJ+yG1bwTbqyQ+C+T0zEAs7VacikOgI1HhLaqI3SO2PGgJxs1LAMwf4DkHfvifRIQd3cr1BFfes442cD85+mPI35TuNn8EPyeFjPCiDl7HJG1IdAY0oAoqAPwKuQwVXwl9euSmDQL1WCvI6ArmV8/XXVlIX/n4CPI18y8D7TYUgZPHiPXmzJmTwGm28VA3PDeDtnPjQCl6KJ4RVxbp1652H2fD+f3lDqt6lIihpqAgEIMBbR87tqHhDqvqFAKBSj12vlQLeXYQfCA+Y4fsJuL3T/pbBhx+tpT/wk8jyTEEQxHjRmv3gGN6uihUD6IE597rywMPrn/HuHSHcnopXXoR7kZzIa6gIpDIC2D4q5xfiKSkCXgTq5RREGRxCAe/r228vlW8Z4I2XHXnw9vuwi5T3hngDJ1YB+C4ByO95BLz6GS/fsyk7h18Gx98/UFIEFIEwCPDKQBcHYTBK0ex6bR8BM7x+Ai+je2yx++PV+G4A3nWEl5rhRW/2KiAU1tiSmjd3gXkJmp8zsMviPMFLuVyXkiKgCIRGQB1CaHxSObfeKwV8la2UP0L9HH/n2KYOHdvTFH7z5uS/XG+cAg6SwxFeY3DjDTc7X/cKJd+Gv/SFT3jaVLhtG7Vrq08m25hoXBHwQwB3o6pj8ENGeRE5hVDvsW/btg3P6mfSvEcXOd9bFlhx4ItDaGzzfJFfOYAv5M88+p0vwCHgAzPT76j+upfo8Qv79+9nvnWAciCE8i1kw9A/ioAiEIgAHAIcg0OuhMPVSAoiENH20XXX3kSjzh1pPj7vhxEOl/GpRnzFS761sGH9pzT8rN8acfluApzBYwsW04E8mz+FPzZjE97Bv2XLFrp03OUOuxsfHOODNH6EraUJV4w3r9Nu3aqV+Z7AH6+sLutXRnmKgCJQiUC684bUGu5BIUpxBCJ6S+pg/oj6XP6KVuWL4+ILMTiarfguMX+JLNwZRHxZrtYoAo2HwO75PalZelrVbansGMxeUuIuF/R7CrW/lur8PQUMuvgWcDw6BMAAR5CXd0jtEdESikAKI2DWB+wDjC/ARhL8QWUihVHRpgOBsGcKGHQfmH2voqUIKAJJhAC/Obv6q2tol7OdlESN1KbUCYGwTgFadVumTthqIUUgbhEwKwX74TV9O17c9lVDGxaRU2hoo7Q+RUARiC0CujCILb6JrF2dQiL3ntquCNQRASwMcIygpAh4EVCn4EVE04pAiiDQRP77sWzQQ+YU6fXwzZTLIrykSigCikDSIIBVQoWcKeiyIWn6NRoNUacQDRRVhyKQYAhk4NNrNukhg41GSsfVKaR092vjUxWBMtyTqqQI+CCgTsEHFGUpAsmOgGedwM1VJ5HsfR5p+9QpRIqUyikCSYRAzd2imm4iiZqrTakFAuoUagGWiioCyYJAzWfVdKWQLH1b33aoU6gvglpeEUhABMzdRwlot5ocewTUKcQeY61BEYhLBNLMf79uG8Vl5zSiUeoUGhF8rVoRaCwEzB2p5jmFqm0j3T1qrK6Iu3rVKcRdl6hBikDsEcAdqZUrhaq6dMEQe9ATpAZ1CgnSUWqmIhB1BOSJ5qgrVoWJjIA6hUTuPbVdEagHAvr8Wj3AS+Ki6hSSuHO1aYpAEAKZOFTAlhFWCwj1TCEIqpTjq1NIuS7XBisCRHjNhTlGwAigDkEvCQuBDCvuG73rznto6NDTqOuh1d9B3vpdAS1avIRKS0qo51E9aNiwoU7ZUHnF/L3nRYuW0LaCbTXKOQo0oggoAg2HgKwSjIdouGq1pvhFIOxK4ZCDO9GNN95MH7z3oWkFBv0Jf7iGcnNzqG/fk+jR+Yvo9ddW1sg744zT6MmlzxCcitCMGfdScXGJKff2W+/QzVNukywNFQFFoAERcBYHTqQBK9eq4hqBsCuF3wwfSsW8Ili+/CU65rijzQqhe/dudNnll5iG5ebm0ty586n/wH70/fdbqYeVd8ed02jc2N/TdROvps83bqJ169bTM8uWmHK9jj2azhl5PsHJtDuwbVyDpMYpAkmPAJyDrhaSvpsjaWDYlQKU5H+xmY46sofRt/nLzdSPVwhCcBQbNnxKRbw1hPjUWydLFhV8X0AtW7U06Q/XfESdOnZw8vLycun4E46nNWvWODyNKAKKQMMggO8puN5/pA6hYYBPgFrCOoUVK1aaGf5Rx/QyzSncvoNyeHVgU8tWraikqMRmmRXA9Nvvoqv+OMHwi0tKqfPBnV0ySGwtKKzBU4YioAjEFgEcNDdJj20dqj0xEQjrFObNXUCz7ruHDgyxxbOrtNTVehwoT7x+Eg0ePNCsHiQTB8xeys3J9rI0rQgoAjFGoMbCQM8WYox44qgP6xQm/eV6l0Po1LE95efnOy3EmUApOwX7XGDq1NvopJN6O+cOEG7TtjVt2+ZeFRRu20bt2up5ggOmRhSBBkIA31Nw+YEaXqKBDNFq4g6BsE7hUOtWVFjft8+JtGrVaqchzz2/nAYM7O+kb54yjQ7mbSI5iJaM/v370ddfbzHbSuDBmRRu305H84GzkiKgCDQsAuZpZuc1F14P0bC2aG3xhUDYu49O6l054Hc74nCa8+Aswt1Im/jgefiwUZSdlU2lu0rN9hKahfOHFa+9blr42MLFTkuXLl1kVhITrhjPt7NeTa35DKKwcAf98crLCQfOSoqAItDACPAyofqFeEhgqeBaOzSwQVpdvCCQtnNnScgrIS/Pf8//O57pY5lhbxtF0ijcpbSVb11td0A7dQiRAKYyikAMEPh5fk9qmp5mOQauJIG3kIoXHxQDlOJbZe4Ly+plYFGR+yxYlIVdKYigNwx18OyVtdNYGeTlVT8dbedpXBFQBBoGAX0ZXsPgnIi1hD1TSMRGqc2KgCIQBoGQ+wNhymp2UiOgTiGpu1cbpwj4I4AjhATeLfJvlHKjgoA6hajAqEoUgQREwP7vNwfNCdgGNTnqCNiXRdSVq0JFQBGITwTM7tE+yzbXOy8svkZTDgF1CinX5dpgRYAI39ipkP0j3UvSS8JCQJ2CBYZGFYGURMCsEsRDpCQC2mgLAXUKFhgaVQRSBQH4AWfHCCsFJ5EqCGg7gxBQpxCEjPIVgSRGAH7AeUsqHIIuFJK4t2vXNHUKtcNLpRWBpEGgwnn3ETdJn1tImn6tb0PUKdQXQS2vCCQgAm4fwMsEXSkkYC/GxmR1CrHBVbUqAnGNAHyA64V4bi8R17arcbFFQJ1CbPFV7YpA3CJQLttHektq3PZRkGFpWS2CsurNV6dQbwhVgSKQeAjgbLkJHlYA6Z1HlTgk0N+M9gfFzFp1CjGDVhUrAvGJwL7iLea19xWuV6XqoUJ89pa/VRnHHeufEQWuOoUogKgqFIFEQqDi/62ndP6Wgot0teCCI94T6Sf2jpmJ6hRiBq0qVgTiE4Hy//yrpmE4V1BKCASandyH0tq0iZmt6hRiBq0qVgTiD4EK3joq27zKvPuo+u4j2Km3H8Vfb9W0qEl2FmX+bnTNjChy1ClEEUxVpQjEOwJ7P7qbP8PpsVJXCR5A4jfZ7NyzY7pKQMvVKcRv/6tlikBUEdiz5naq+HoVpdlOAHE9T4gqzrFS1vzckZQxckSs1Dt66/yNZkeDRhQBRSDuEdi97n5K27CEMqtuQ3VOENQhxH3fYcsIK4SGcAgAQ51C3F8SaqAiUHcEKvbspJ/fuIpo61pK530BnBwYv+DsEbB7SNPzhLojHNuSmYd1pWZ/ujrmW0Z2K9Qp2GhoXBFIAgTK+VHlfVuW075t71LFl69RRvkeflCNG8ZbRXAIzirBRNQhxFOXN2n5K0rHr9vhlDmCt4pyshvcvLSdO0tCXhXl5Xv5gmrC247VYrIn6eUhLXm4MCUOPnQISTnk23LIt/OQFhmJIwRBLj093ZS301LeCFX9AU/0iE3IkjhCW0bKgme3XWREXvKlDZKP8nae3Xbk2fJIQx9kwJcQ5YWQj7aWlZU5OIoOWwZxlBNcxB47FP3eckjbOqWMLSf5sAdxEOL4QV4IaRBkpD6RQVpIytgydp7oER5C0Sn2iU22DOKiO6he4UPWW4+UDdLjl2+3yy7n1zbkCyFf+lXahDyJI8TP1gN78du3r/J7mrb9Igt5XAfIQxwkaZExTP5jlxeehsmPQFFRqW8jw64UmjVr5lswUqZ9MeNilAsQcRDSEhedfrwgWeEj9Oqx8/zypR4JIQOy04iDvLqD+Ea46o/ISHlJQ5fEEcrA5q3D1oU4/qkjJZEV/O1yqNOvLrHJts9PztYVKu5Xj7cOW7/YasvUVr/IS90SCl9C8PED9uEIciDbVikTic2QQVm/8tBtD9aiF2GoepGfkZHhkhF5CSEjZPNgj5IiEIRAWKdgX0yIy4Vtx0W5LSs8yMs/hX0xiizyJW7rlDI2Dzr9ZKUu5NnyIot8qUfy7RBxO23bjLKSjzgI+ULIA0l5iSOUOiW0ZZEPsusSfERe8qWc8CWUfIRCth3giazwRRfyJC4yCEFeO/zKiqwpwH9El6QlX/gSSj5C4UmIMrlYGScAAAYISURBVHa/23yRF72SRhhEUh4hfigroZSR+iTtzQcfvCASnVJOsIO85CGOfJFBGiRpsQGh8JAvbfUra5eXfPBssvkySfDm22mNKwJAIOz2UbNm/n4DF5yQXLyS9uZJGnK48P1mZyIDHaIPPMSDQsiG0id6IGfrQBpk60ZabBA+eCDRIzrAs+NI+5FXRvRD1qtTZCWEjC3vVwY8kF3Gm5Y8CSUfoU2wRwYnm4+4jYfEg0KvvK0LZUCh2mXLSzyoHPKRJ3aLnJRDPdJu5Ekc+RJHKCTlbR7ypKxdxr6GwZc8kQ3SJfqkTrEd5WXFKHm2LrsOW4fwvTzRAf0gW07ywFNKXQSCto/COoUWLZoGoiYXnPyDyEWMAsgDX0LhYR80FhejXbefwcjHbElsFRnbPrHRlkE5kJ/NfnX68YyCOv4JVX8oldG2Q+oK0gu+4CuYBtku+eF0Sn5DhkHtC7LBK+9Ne8tJ2yWEPHCT/wvhS+gtH5QWeQmhE7pBtkNA3OYH6VN+8iMQ5BT8lwEWHvbFZbFdUVyIXsLFJ3zRAR7icuEibZN9sdpxyEjalkfce5F75ew6kCe22Hpgj8hBRuy2eXZdfnzkS91++XYe4pAJxfPW5y2DfCFvfTZfyoEncb96Jd+vrLecV8ZOC5bAGSR1iYyE0g+wHT84YrsdiEtZOy7lRRZpkUPcT1b4CEXWT050ioyUQ9pPHvleCpITPkK5viSEDsErKF/K2/V5eaLPDsV2lBN5hEqKQBACYZ0CCgZdRHKReZWLvJ3v5SFt53vrEXnRbaftcsIXHv4h5B9B/rm9eSLjp9vm2eVtPuJSr/BtntRny0gcocSlrKS9IeqXf3Bbv11ObAzKF77oskPkiX4vX8pJKHbb9dl5iCNP5JAOIsiILGTsuu3yIgcZsRNxkJSXEDzIC0lZCSVf0gjxA0GHkPCQFlm5Xuw8kRc5hKJHbJW0XQ5x0WvzpR0S2volbsv78STf1iE8P3nhaagI2AiEdQpyUSG0Z3OiRPKRti9GO9+Pb+dLXOQQgqBbeEjbcbteiQeFfuW8uqEfJDq8cZPJf7y2BcnZeqSshGKPLWPbE5Rvy4guW4fwvKHYLHqRL+WEJ2m/PPD85MD3kq0HeUhLWaQRB3n5fjy7nCnEf4Qn9Ugo+aLHL7RlRI8tJ7bZPNGPgR7XvzgIW5fERRZpW78d95MFT8pKKHK1CVGPOCS7XH102no0nhoIhHUKAoN9YeMikzRCIb9/mEguSNEhshJCr19c6ka+lLVlUUYcmMjaoS2LuJDISFpCqcNun8hKntSJMrbNkhZ5sQt84Ulol7N5iIu8iXjKCs8ub/PAFx3CRyh12HGvDinn5dt67PLCt3VL/bYOO27L2rpExs7349n5dlxskVDyRIfNR1z6F/kiI/0lIXSIHpSx43YauqQMdIkcQpukHpvnJyM6bDnwUAdI9HjLIs+PB75NXv2h9KFcJPJeHd4ydv21jfvpEp6EoXR6ZSQtIcracb+0rd8ra8tLnjeMpLwt01DxsE4BDfEj4UsoMt40+F6eXKTyT4P03r17zb6qfZGLHHQgbuuRfzo7lMM63L8N2rNnjwmxXwu9tg4pB512PaYA/5F8Sdt1C88uh7jskyMf9ck+sdgl9Us51AGStJ8taAuwQZ7YILiJvNdWo7RKr5STuiUPoa1P0l451AX94EtoywgfcjYJHyFIbERa+sOW94uLfSgDHFCHtB3yUofULW2VtFenrU/Kgwc9EkofgickesGDbrFf2iRyCEWPHdo2iyx0ZWZmmr4Vnl8IPSCE0i67XvAlz+aLLvDk+hM9sB88abfXPuiz249yXt12nZD15gsPcnb9YpeEyBcZwRV54Nk2IA6ekNRnh1KP/P/j/wYkem0dUs5bj1e/pO26hee1D/UIT64TyIpdUr/IwAaQpG1bEMdP2uJXvykcgz9h7z7Ky4vuY9YAAIAJUAAGDRaAYtBGVakIKAKKQEIhgDESYyXGSRAmEKBoOoc6331kLInSH9shoJHRbGCUTFQ1ioAioAg0OgIySZZVDpwEflg5xHrc/P+yMpMb5IOE0AAAAABJRU5ErkJggg==;" vertex="1" parent="WIyWlLk6GJQsqaUBKTNV-1">
          <mxGeometry x="1034.5" y="640" width="389" height="672" as="geometry" />
        </mxCell>
        <mxCell id="RhfSra3kzSBtpRzGON0T-39" value="OrderListView&#xa;" style="swimlane;fontStyle=0;align=center;verticalAlign=top;childLayout=stackLayout;horizontal=1;startSize=26;horizontalStack=0;resizeParent=1;resizeLast=0;collapsible=1;marginBottom=0;rounded=0;shadow=0;strokeWidth=1;" vertex="1" parent="WIyWlLk6GJQsqaUBKTNV-1">
          <mxGeometry x="590" y="730" width="160" height="90" as="geometry">
            <mxRectangle x="550" y="140" width="160" height="26" as="alternateBounds" />
          </mxGeometry>
        </mxCell>
        <mxCell id="RhfSra3kzSBtpRzGON0T-40" value="orders: Order" style="text;align=left;verticalAlign=top;spacingLeft=4;spacingRight=4;overflow=hidden;rotatable=0;points=[[0,0.5],[1,0.5]];portConstraint=eastwest;rounded=0;shadow=0;html=0;" vertex="1" parent="RhfSra3kzSBtpRzGON0T-39">
          <mxGeometry y="26" width="160" height="26" as="geometry" />
        </mxCell>
        <mxCell id="RhfSra3kzSBtpRzGON0T-41" value="" style="line;html=1;strokeWidth=1;align=left;verticalAlign=middle;spacingTop=-1;spacingLeft=3;spacingRight=3;rotatable=0;labelPosition=right;points=[];portConstraint=eastwest;" vertex="1" parent="RhfSra3kzSBtpRzGON0T-39">
          <mxGeometry y="52" width="160" height="8" as="geometry" />
        </mxCell>
        <mxCell id="RhfSra3kzSBtpRzGON0T-50" value="OrderSmallCell" style="swimlane;fontStyle=0;childLayout=stackLayout;horizontal=1;startSize=26;fillColor=none;horizontalStack=0;resizeParent=1;resizeParentMax=0;resizeLast=0;collapsible=1;marginBottom=0;" vertex="1" parent="WIyWlLk6GJQsqaUBKTNV-1">
          <mxGeometry x="810" y="710" width="140" height="104" as="geometry" />
        </mxCell>
        <mxCell id="RhfSra3kzSBtpRzGON0T-51" value="+ field: type" style="text;strokeColor=none;fillColor=none;align=left;verticalAlign=top;spacingLeft=4;spacingRight=4;overflow=hidden;rotatable=0;points=[[0,0.5],[1,0.5]];portConstraint=eastwest;" vertex="1" parent="RhfSra3kzSBtpRzGON0T-50">
          <mxGeometry y="26" width="140" height="26" as="geometry" />
        </mxCell>
        <mxCell id="RhfSra3kzSBtpRzGON0T-52" value="+ field: type" style="text;strokeColor=none;fillColor=none;align=left;verticalAlign=top;spacingLeft=4;spacingRight=4;overflow=hidden;rotatable=0;points=[[0,0.5],[1,0.5]];portConstraint=eastwest;" vertex="1" parent="RhfSra3kzSBtpRzGON0T-50">
          <mxGeometry y="52" width="140" height="26" as="geometry" />
        </mxCell>
        <mxCell id="RhfSra3kzSBtpRzGON0T-53" value="+ field: type" style="text;strokeColor=none;fillColor=none;align=left;verticalAlign=top;spacingLeft=4;spacingRight=4;overflow=hidden;rotatable=0;points=[[0,0.5],[1,0.5]];portConstraint=eastwest;" vertex="1" parent="RhfSra3kzSBtpRzGON0T-50">
          <mxGeometry y="78" width="140" height="26" as="geometry" />
        </mxCell>
        <mxCell id="RhfSra3kzSBtpRzGON0T-57" value="" style="group" vertex="1" connectable="0" parent="WIyWlLk6GJQsqaUBKTNV-1">
          <mxGeometry x="-1005" y="814" width="250" height="210" as="geometry" />
        </mxCell>
        <mxCell id="RhfSra3kzSBtpRzGON0T-54" value="API" style="verticalAlign=top;align=left;spacingTop=8;spacingLeft=2;spacingRight=12;shape=cube;size=10;direction=south;fontStyle=4;html=1;" vertex="1" parent="RhfSra3kzSBtpRzGON0T-57">
          <mxGeometry width="250" height="210" as="geometry" />
        </mxCell>
        <mxCell id="RhfSra3kzSBtpRzGON0T-55" value="&lt;p style=&quot;margin: 0px ; margin-top: 6px ; text-align: center&quot;&gt;&lt;b&gt;Orders&lt;/b&gt;&lt;/p&gt;&lt;hr&gt;&lt;p style=&quot;margin: 0px ; margin-left: 8px&quot;&gt;getAllOrders()&lt;/p&gt;&lt;p style=&quot;margin: 0px ; margin-left: 8px&quot;&gt;searchOrder(orderId: String)&lt;/p&gt;&lt;p style=&quot;margin: 0px ; margin-left: 8px&quot;&gt;&lt;br&gt;&lt;/p&gt;" style="align=left;overflow=fill;html=1;dropTarget=0;" vertex="1" parent="RhfSra3kzSBtpRzGON0T-57">
          <mxGeometry x="35" y="60" width="180" height="90" as="geometry" />
        </mxCell>
        <mxCell id="RhfSra3kzSBtpRzGON0T-56" value="" style="shape=component;jettyWidth=8;jettyHeight=4;" vertex="1" parent="RhfSra3kzSBtpRzGON0T-55">
          <mxGeometry x="1" width="20" height="20" relative="1" as="geometry">
            <mxPoint x="-24" y="4" as="offset" />
          </mxGeometry>
        </mxCell>
        <mxCell id="RhfSra3kzSBtpRzGON0T-59" value="" style="shape=image;verticalLabelPosition=bottom;labelBackgroundColor=#ffffff;verticalAlign=top;aspect=fixed;imageAspect=0;image=data:image/png,iVBORw0KGgoAAAANSUhEUgAAAWQAAADCCAYAAAB+KbhnAAABQWlDQ1BJQ0MgUHJvZmlsZQAAKJFjYGASSCwoyGFhYGDIzSspCnJ3UoiIjFJgf8LAySDNIMJgwaCQmFxc4BgQ4ANUwgCjUcG3awyMIPqyLsisEz4XZ13VfCy/8cgNlylP3jzEVI8CuFJSi5OB9B8gTkouKCphYGBMALKVy0sKQOwWIFukCOgoIHsGiJ0OYa8BsZMg7ANgNSFBzkD2FSBbIDkjMQXIfgJk6yQhiacjsaH2ggCHs5GJm7GlAQGnkg5KUitKQLRzfkFlUWZ6RomCIzCEUhU885L1dBSMDIyAVoLCG6L68w1wODKKcSDEUncwMJg0AwVvIsSy3zEw7FnEwMD3DiGmqg/k32ZgOJRWkFiUCHcA4zeW4jRjIwibezsDA+u0//8/hzMwsGsyMPy9/v//7+3///9dxsDAfIuB4cA3AAWjYolTH9d1AAAAVmVYSWZNTQAqAAAACAABh2kABAAAAAEAAAAaAAAAAAADkoYABwAAABIAAABEoAIABAAAAAEAAAFkoAMABAAAAAEAAADCAAAAAEFTQ0lJAAAAU2NyZWVuc2hvdPzPcpMAAAHWaVRYdFhNTDpjb20uYWRvYmUueG1wAAAAAAA8eDp4bXBtZXRhIHhtbG5zOng9ImFkb2JlOm5zOm1ldGEvIiB4OnhtcHRrPSJYTVAgQ29yZSA1LjQuMCI+CiAgIDxyZGY6UkRGIHhtbG5zOnJkZj0iaHR0cDovL3d3dy53My5vcmcvMTk5OS8wMi8yMi1yZGYtc3ludGF4LW5zIyI+CiAgICAgIDxyZGY6RGVzY3JpcHRpb24gcmRmOmFib3V0PSIiCiAgICAgICAgICAgIHhtbG5zOmV4aWY9Imh0dHA6Ly9ucy5hZG9iZS5jb20vZXhpZi8xLjAvIj4KICAgICAgICAgPGV4aWY6UGl4ZWxYRGltZW5zaW9uPjM1NjwvZXhpZjpQaXhlbFhEaW1lbnNpb24+CiAgICAgICAgIDxleGlmOlVzZXJDb21tZW50PlNjcmVlbnNob3Q8L2V4aWY6VXNlckNvbW1lbnQ+CiAgICAgICAgIDxleGlmOlBpeGVsWURpbWVuc2lvbj4xOTQ8L2V4aWY6UGl4ZWxZRGltZW5zaW9uPgogICAgICA8L3JkZjpEZXNjcmlwdGlvbj4KICAgPC9yZGY6UkRGPgo8L3g6eG1wbWV0YT4KIrKYdQAAQABJREFUeAHtnQe4XUW1xwel5iZBUUghaiCBwKMECKggJVKkNws8iY9iBEGKohTpRYpCFJEqCkgJSDMBROFRjAJBqUkMkgQCUSBVUdIEgi9vfnPv/2SdOfuUe3NuCMla33fvzKy1Zs3s/9lnnbXXnj17hYWRQhWyItX/85//lLTFs+UKK6xQkqsiOTLqtkTH8mhLTt1SER8epDGK9NXPlupTrb90rT3qlm/r0qtnrxG5jiW3b9vV7GiOmk9uS/2QS5b3yfuqrb70s3XJ69lRH/SKbCC3c5I96eYyyXN7tl3UB3lO+dysXPOSjmzW41sbeV194atu7Ytn+1m55auuPtKDXzRXeNJV36JSdmRDOravrUtOqb7U1V+6tpRcPNq2TltUxIcHaQzpUkq/qEQuHFSnFKmP2iotX3XKIrL8D37wg0nF8lRXicIKcVJVHTIKVkzdtv/v//4PlTJeYmT/GBBdOzB2bDvrUgIz59dq17LJWJp/tXHVX2W9sZBXs1WrbzWZ5ih53hbfzs/WJaes1rdIZnWr2SviV+NpDEpLjMN58IEPfKDinCmyZftKLhuUkPi2bo8nKcV/OS9vSy8v6+nZ8dXX9kFedLzoqq9Ky5MtyaxNyeDpe2Xlti5dlXY+si1ZvbK9+rJn5ylePVu1jkE28rKWTdmrpSOZyty+baMDYbcaWRnnQN4uGqeuQ2YwddQkVEomx6yJSV9tleIzOfURL9ehncukUySzNq2erdeyJ71cR22VHR1b9otKa7tIbnnSVWll1eqN6Fod1VVau5ZHXcTJ1shnIP1qJTa4CrMnb65bNAfpt2cO1k6tMZDV0s37FrXzeVWzV41fZBNeI3jlfTWGylze3nZuJ2/LnvgWC/FyHdq5TDpFMmvT6tl6LXvSy3XUVllvbM2DUqRzk3a1ekk3DrToWyVuVkoFY6qrRNXW7YDi5zy1rZy6tZ9NITVzuW3nNukgeS4rahfNRXOQzNqsVteYklPWOjbpq1Q/O2Y1HnyIvvwpWoJn+8t2XqIHiZ/Xk7DBf9iA8nEb4aWO8Z+dh+XlNiSzpR1fdmxZz4Z0rc2iuh0Hue2nel42Yke2KO35IltFNsSTDqVIn4OViScdydSuV0pfZZE+MpHGy3lqWzn1WnaxmcttO7dp9XNZUbtoLvlxWJvV6vmc1NaYspm3S/w4kboOWcpS1SDwxaOuQeBZHWQdoSIbRTxru2gOto/qVs/2b7QuO9X0Jdc40rN4iZeXtk8RlrJt+1le3l960lGZ82mrr+aptnRtqbnBk77k+RjwZUv9ivqov2RFdqSTy9RWKT1KeJDspkb2r1q/an2kX1RWG0u62dAV35dqeuonOaUdS3zp5WU9Ofq1dPLxrH0rq2XD9qlVL7JRxLM2iuZg+6hu9Wz/RuuyU01fco2jknNJ9aK+DaUsbMf85NTAVievq490q03I6uU2aOcHY9vUdbmArsaCJ7vwIduvlbPov2QqpU9p523li3pX2kYv70tb/avJcx0dj52D1aEOyW5rq/H/Rf3E0xyxZuchvuaUt9GXDepQ3m7lLrIruUrJ875WbuvSF0/zFb/ZpcZpj131Uam+1drwIeGc6+dy2VEp/XplZ+nb+dUaw+oVzTXva9vUO/T9nzslrPDEiSH8fXLRkJW83gPDwkFnhYUtn6j4PCqVF3Hyz26RpLzWboes7jkY8OFBcoL5l0F9VCbl+E/9aNuJWz3pyKZK+mg86pDVVVv6KuGrn+XBF8kO7SIdeJDmKX3xk7DtX94/15UNa8/Wrb6tS6dtmDL8LM+mM9RHJ7DmVjRvjSVbto/sSEZZzYb49jilr7nZsYrmVE9u52HHoc68IeqyozHgF81P/aSv/vX6oQfRT3ZbOcXnpmSU6PMnTCSzcxAvn0fReNKtVspuPk+rb3Vs3epQl6za9wq55mzHUz9s5Hy1pWP7i6fx6A+Jb/tW6xce/FIIs15q7djo/zX7h//b6bbSXBlP9jFBXWM3alJ6K6rS3pIBOWm4ASMAVMqW2voy6CSjZBkIfQUmuqrLNm3VKdGxNi1Pdca2trChca0t6cGzpDHoB9m+0oWHHm3NGV3aml+RnRVXXDHZQ1d66kOpupXn9hlbhEzLEKVHqTlLz5YaV/rIVLe24aMrGW3mZ21LBk/1/DjURgd7+txVqp+dl7VHHZKeMEJfdcnRseOojh5EqRuG4qkPuvDER58x7DjMWfOUnBKSndbWorb663hp22PJj0+2ZCefr/j0k03Ny/LQ43x79913S8el40dGH42tY9bcNCZ6klFHn7b+dO6pjY4lYcXxQupv5yksNDYl9tBBpjolMmvT8lRnHGsLGxrX2pLequ11xnSMfd5+++00N80ftuZAqTY40xYvCWr865BD5gD5oCENyMScHIFGEFhppZWSmspG+iwLOu/F8b4XYy4Ln1W9Y1httdVqqujHasGCBckZ8+PYiI9s2CHrl0m/NnzQjXr9mjN3oSPgCDgCyxgCBKqQrkR0pYJjruU3Gwpr5YwVFePpaxldxrD1w3EEHAFHoMMI4C9XXnnlFCHLh8qn5kbrOmR1xBB1ef7ckLcdAUfAEXAEqiOA78SHkmWoRjUdspwxBvjDyzs5Ao6AI+AIdAwBfKiCW/lXa6mqQ0aZtAR/GHBnbGHzuiPgCDgCHUOA+2/VnHJVh8xQNrz2nHHHwPdejoAj4AhYBORLFSGrRKemQ0YB5UaWa6Dr5Ag4Ao6AI1AfAZyylsbJQdOr0CFbj806Or+RVx9g13AEHAFHoFEEdIMPfetvCx2yNeoRskXD646AI+AILD4CNutAhCynXNMhuzNefODdgiPgCDgCRQjgX/nTMrjkb3NFmJBK5TlyPW87Ao6AI+AINA8BIuW6EXLzhnNLjoAj4Ai8DxBYaZUQNj4whE99J4QuH1piEyYIrtjLQvkMlUtsNj6QI+AIOALvJQI44gH7hbDBUSGsvHrrTPp9JYTJN4fw52tDmP+vps8OJyxfS1nhkFFQuoLRUXJyBBwBR2CZREAR8CZDQ8D5FhF865iLdDrA4+EQ7cYnP1u4Qb1NMv/73/8OXbt27cBw3sURcAQcAUegGgJvvfVWcsh2xUXNHDJe29cgV4PT+Y6AI+AINBeBCoesnAbOmBUWNn3R3KHdmiPgCDgCyy8CpCwgmyauyCFLgdKG0rSdHAFHwBFwBJqDQJF/LXTISjATISuf3JwpuBVHwBEoQmDqa9PCPffeFwYP3i5ssOGAksrwm24N3eI9nH323zs89adnwqjfPxp69uoRdvrs4NC7T6+SniojR94bxjw7NjU322Jg2G+/vSUKjDH8ltvCvLlzQ0u0OeSgA0s2NH5Jua1y0JADQ/fu3dLYzzz7XJm4W9eWMOR/vpx4c2bPCcOH3xamT5teYRsF5n7ffb9Nuv3W61c2f2TtsT1oi83CjjsPTrb4V+u4SkpZpV6fWjhmpjrclJ+1Bipu6ilFoTD6nXfeCfXeH2UN1qrrhOKEgDhhdtxxcPrAaTstHQg8/PCo8OjvHwt77r17GDBg/fCjYZeG9eKXSF++pWOWy9Ys+G4cf/yJYc211gw33Pjz0ndi//3+O/TosWY484xTwwEHDAk77bxjGDdufOgR9a6+5rIyEC6+6Mfh7pH3hL7r9A3z5s0Ps2bODEcddXj63HBAhx52RNJfd92+4eWXp4T58+aFn197VfoB0PhlBmPj9tuHJ6d99VU/DzffdEuZmLmOGHlbcohHH3N8Go+xZ86clWxfcsnFYatPDQo4t2EXXRK6tLQExh7/5+fLjlPztsZlGx4YcCyNHFdu29pUPceCPi1xbtdff006Vs2naDzZaEY5f/78sMoqq5RWshExV+SQ7UDNjI75QDnhOGEeeuiR9MeHdMjBX0sfqB3X6+8tAi9Oeil9PtNenxpmx8iHz+vRx0a/t5NaTkafFZ3ZT6+Oa14zevLpp5MTO+fc08Mxxx4Zxo9/vkyDz4nvFg775uHXRaf+s+Rk7rxrZNL73SOjUvsnPxkWrv7pZeH8885O/FGjHk3l69OmphIH/NjoR0p/isKnTZuRxrcynDH0wsSJyWGedOLxaWzZVkT83LPjkjO9865b0thf+Z+Dov6sMPGFSan/3Lnzqtqe8MLEpMMPiz0unY9E/PywXBedKccl26Pi8VYj9REW53zvzPgDNi/87nej0vlucRwx8pdxbmuFG28s/zGqZru9fEXJlATBhSkLa1QRs+W1t86vr35d991vnzB4h+3CtKlTwxVXXpM+GAA68aRvtdes63cSAnvtvWcYtMXmYcCG66cRiHS6dfelj50Ed5lZIjUcQn5Zvnav3um7QmAz5rmxyYHZjqQVcKZd2z6nubNbr0KxBw05+MvpT30mTWp1hr179kiseXNa9SdMmBiuuebairTDjOnTY6S+Vop2SYn07NUz7BPPExz2VlsNKhtbY5AWgc459zSxAqmNF198KUXLvdbunfi1bJO+wSmKcOI4z379+iXW148cWpZ6IY0CdevaLZVF//I+c+bMSWqkhnIcmS9ExN5sUsArp4z9qg4ZJUJodVqcyQA8v54TX5xsHO+g8Mxz48LDDz0cJk+eXGYeBz4hnjDz4i9nSwQ4z5chh3AYAAhoXGav3bt3ukRCVs+G1aG+wfrrl/rSLiLGGXn3r9O81l+vf1keC33NY/r0GWneuU1+7ee0fVGs/bUjPopExLfzxzly6SdinAnxxMRJ0pdjZ8xcj0uz12OUa+1rDhY72VLusk/8ks2dMzvc3Xas2JWMOWh86nZeuW3kTu1DYOdddgqjR/8x/OAHPwwbbLAolwzOfId+c///phzy6WeeWmHYnkM//NGlyXGdd9zZZXo29bDTzjul3DQKc+J3DbrssqtDj55rhlee+FN46MGHS5fxyLi0J5rtGr+TXDU98MCDKWXBd5A/iHPuggsvTg7syzFHbenII44tRfbnnntm4DwTVbMtOd8HrrChvn37lvyIHZvz76qrfhY23mSj8NmdBydd+YrUiP/AMe9z5RXXBNIT5Okhi+OwmK4jXXJcnG+zyW7BiW18bkUOGYGcMNHx22+/Hbp06QK76fSVg74apkyZkk40gWFPGDugcmHwtt1mxyQiIoCUv9o5Xq6dHS/pGrFhT45kJP6zY4in8p6R94bL4wfH5ZHI5vtwij/4/g/L5OhxCXXkUV9LXYrGlC2rVzR/rix0FaGTk5NIuULZsXqyY20rH6fcoPJ7wg476ieblJ/+9CfDsB99P7E0vs3zIZBtImrrqFMn/1cTAWHKZ8WNva8NPSpsvPFGYUa8tCeH/K1vHRN+fMnlJRv9+vcrnQ8lZqzwY3niCacmx3fSSceHfcxNPfReiE5r4oRJ4bkYZT8cnarO+UceGhUmxciVqyMcpeaj88neXMSOzhH7WeOM+S7GhVzhsst/XOZw6fNkdKpT45XxnXeMSN979W3ENimZRwg8Yurk5ptvSdjYHDrO+LjjTghrxUj2yqsuLf1AyFcwfn6+qk9LS5fC+Z515nkJI/v9wU6ziIfueDWeIuQUBOfG8xSFnHOutzhtkuY4J5wxH7icMaArtQEIfGDIIeXC8nHJrenmxbdP+GbKAckGv8LWBichxMnGiY5D+839dycd+LXyRH/4w+OlGxW/jD8EfFnIgylXdf21NyY582XMo448HJOl40mNtn/o4BD5y/WYm+ZPRIQtclhcxvIlsDTllSkxL9glcJyygx5OtqPEl0rjY5PxiUj++McnK8bv6BjerzYCXI2APXlizm2oe7fuKTJmhQV/3bpVppBwxkcd9c1CZ8x5NXLEvWHDaHu/GAmSi4bs94qrPkWtXFVBugFP+qFXvAIVMQdobtvlfi1nzLiM/8kYnTL2N795dOqrHHMt29ilPykY+h75ja+l7x7YIIMIlvgBy50xshPid0h/xx4T96hoIzlj+hT9eMgZ86OmgEp9m1XKEVt7hSkLKeKci9bKWQMdqeM0RJNfmpyA5TKBSwluGgA0bU6wiRMnSbWinB0vq2/4xfD0y2dXAOQ2ft223Gbyy68kG0RvNi+lk69LdG7ViOiQHwxdmnHZBilXdfMt18U0wsR0ac+8lZdCR8dDHeLLpMuilrYvlnJUmis3Z/RDxU2cs844NzwWb6zlJ8f3f3B+6Us0NaYtwPax+ONhlzu1jtrYf/L5EBExeUeILxCXi1yi5uPzRRPZqwfxvOwYAmDPjSscD8T5cvY5rU60mkWcMT/SBBpTYySpH3A+M5aV8UP7Ykwbcg+H5XPQpptukkqiY+SUpKh0Hm6x+cAkv/+3/xteibaPOvqI0D3mZ/neQevFtArnt65SOW9/fe99SUZ+mnOYvhzHCdG50ff22+9K8kZsk3IbdvElyQkPHXpoSmVii+8LmHBlelFcHAANHLhpuGV46/mr9B1OPCc5Y87XgQN3Ks1XaUg54xzHg4a0LgHM7XW0rb0s8LcKhAsdsoSdER0z+Z9fe1WY+vq0+Mt0dfqgjj7mWykXhYwPF6cw+vE/hlmzWqMD+EXEJQqgctllCcB/eesdYezY8XVt3BTXed4U76C2tLTE3Ne51kxFHWf82mtTw7FHfzvZJYpXrgonzB3r8773gxT5V3Q2jF/96u7wwP0PJQ7HaMeeEZ0q9ETM4e2/73+nuv4RkVvipFREA3+99VtvdEyfURs3ayOv8wMJjYv5wnrjMx8ctVPnIECeeOhhRzRknPMSZwxRqk4bh4wzmRbXCPODrYCIXOvhRwxFpSTHKesKifNbQQFzOTamI1gZBbGEjeiR848rMkXypEFE2Kd/3he5vTLO5dY29pkHc9K5xnmv7yorgkQ6LrWrpc34nip4sH1I27G+WceQ48hNTAVkGqMZpfwttgodsiJkFGyddkcJh8WvHZdj+lu4QkiRH19sHDHEWknA4pd28/jr3C06QaLDItp6608l8Ljs2nvfvRJY2JGj5kPnbvXr06aFn8ZkfxH16dUrRgkbhT8+8WQ49ZQzy9aAFunzgfTr3zcCE1LEqF/Vgw8+PJ2UnIRcInGDUSdQbmfddfqGzdoij5deeimNfX505FdefWm6YYK+1cn7qz0/rjW1pDvlit6trNG6+jYyPj8k+39+35LpEfGHZl787JzajwDOgys7SzijBx5sLP3Up0/viv7WFuctaYrvxLQeKxXsjV70JMdBc0O3d0xZWOfDXLiqJNiBrJyrsVpXZLX6YqueXD8oRfNGxl97qF6f/HNoj+326Nqd3nDK+NpCh9weo43oKgpda82YcI9ORx+0/XVjuc5TTz2TnDGXCspx1cqHfj2ePL3i8ht+PX8Y74bSh6edcOg4Rt0E46aBJU6qCfHGxgYbrJ8iXKLcrwyJNxhjZEFOOL8Rwo/JU08+E2bPnZNOvGE//H5psftvfnN/TEF0K0UIrIWEdOLacVXHGduTiBsP5NM54Xr07Cm1kg6XZWDFZZglnB8pA0UCypH36NGa37O6jdb7xzwi+WJIc9T4/PhYIsUjHfgPPPCQO2QL0FJY57un86VoejjHEBatfsh17GqbXFavXa9vLXm9edcbe2mU8yT0iiu2umClLao6ZDw2+eNmvMJpqy23SBHqlOhAeBCkR7xJxfIZnBBENAzg5JcgHCP5L5a8kU6A8mgwMeM/LsVwyFxm4KDlNFhGoxwaKQJLXLLQh0sfEv3kzXSJ1yuu98yJl1qxDAkHyF1exuBOMcQNCa3XpU3+icj+hhtac2zwcmIdJjcqIDlR6bBUiOVG48c/n2zxg4Oj0yVh/mU6/fSzw6fjlQKpDvpAugyVTXK/rF2FZOfccy9I7RltN41SI/7jLjuRbtH4XDraR1bVx0tHwBFoPwLKPig6xkKFQ5anRtisHDK/fKwEIGeMQ1AulFwRaQcuoyCcDWkG8jo4TOSHHHxQWv2AM7TRYOoQ/+HIceg4ZJwMS2GeeXZMmY3Px8tqnAzjcmOOqG5OXAjPOGee2ZoO0Vi5w2Mcxjj55O+k+TMvkXJwyJXnYh78cRzkY3FsT8eVIPv0WXRz4U8xAuVPlI+tsbADIceejUbh84Oy6667JKykd0y86dIa5cBpJY5bmIsn5622SvpeGp/mOuWUs9JxiF80vmReOgKOQPsRKAp2K9YhK8FMyV+z1yHjEJULIk2BM8sJHZa5VJPn+kXtRmxIh/5a9VBky/KU6y6am+wVyayNRuvVxuKH6fjjW/c94PHVZo+r+VUbX3IvHQFHoOMIsJfFqquuWjLQUA65WVGyRsUBF0WhklOiU+SorU69eiM2GtHJx6nluDtiL7dv27XGsnrNHle2Gx1f+l46Ao5A+xCw6Qp6fqBad+U3OmMdcrUxne8IOAKOwPKCgA125W+rpiwABe9NWO3v1Fv6ThGlEzyKXfo+m+V5RqzImRdTjlq/THot3+tYj2dbnFjJpP2U832c0Rs5snWfZ26i232crY16esyFpwOLbFhZvrET3zWejeCpxaK55XNotG2335RDLoyQlT+m9Ai5UXiXrB6O2J3xksXcR6uOAA6VLREuj5sTsQGSiCcCX4qriurROWefn260b7/9tulJ07POPL/UBbusakI2IO7LfVh8VgEHmhN6j8anVNHjaVgeOOP+CsQPxQUXXlSycUyUKajJZSw+YG8PCB2eQsTennvunp5QzJfRJsUm/StcZYG3xhn7G0OahLKbcQTeJwjg6F6PGwB1j2vrtcQR5zS7bc8KHcaOOw0uu88zbNhP4nLQdcMhhw5Jj0pLj601DzzwSzXvGzEm2xpo86otPzkofOkLB5W2Khg7dlw4/fSTSzsOsmskUXd+L4pd8i67/JK0yoi5s9WAniu447a7wmGHfKV0TGwzQNTLswrPPj2mTPZ/8aEvni/ABnvlbLrpxqUVTqeecmKcy9lNe1mDImP8LfWKCBkBuQ2PjnVKeekILB8IEPkRRbKV6+//8Fjcve/A5BR5IAoea+tZN099draN7OFHfLXQSfG8Afu68HAYzwUoKrWIsjdzv3XXKbG4Sb1JfLBLG3d1jcs+7733t0lOJD52zLigfZxLnWKFJwntkk92QtRzBSzzHBx/RETrrd8/bq0wLjVPPPlbpRQLjBcnTS49oMW+MIPim41E+hEoOg7ptKeUI1afiggZgSJk6uzZ6eQIOALLPgJ33nV3jDAXbZvJQ05s1qP17zxctFe8bJdTsohYR2j5c+PzA2wmtN2226S9NEg3sM7dPpXHXsw8IWqpJT4kxrMC0JlxH42TTjotfG6X1rX8u8Q9o5Wjtn1sHedPZMtc2ecDwtGLeDXZvDi3nHjCdvToJxIOyPhBkVOXLs8FsA1EM1KG1tdSL3TIGthLR8ARWD4QwGmx5YB1rJvHyFAvTO0oCl897OCwftwRTnZxlGz8xb7lluR8LU91cri77rpzeiqXyPy8+AAY0bzd4VG6lIxBuoJ9kavRtLi5WU5EvWwOxsZFmi862mLU6jfjDTpyxpSqV6QsJLCDe90RcASWPwS0WdXiHDn7vFjn1rNXjzB9RuuOhrILT7sMikfuef34Fp/Wm3cLU5ROhIutoUMPLdvHWX0o2RuZrQLYllYRMRsvsRGWTTPwDkFeSSVChuM/7YyT057R4rO3zNS4OZmIm4Q8bczmSs0ifC5EWeGQ85xGswZ1O46AI7D0IoDTWmedvuGetj1WyNWSwtCexR2dOTfA7IqI554dG7b7zDbJHHllHNyOOw6Ob6qeWXKYOEf2WCHdwD4x7GNjnSk39ORMWQ4nGeNc/4uby9IumjevxuImnujO20eEPXb7XGrKGR8Wb0iygb+lvfbcLTl/rda4N77WjC0T5OytbnvrenQan6u/ipSFImSVKDaDuMTQe7tkr2g9omReOgKOwJJFQPsS3x6XmM2cNSs0kqutN0Pti9Ij7rsyY0Z8HVV8Xx971+Dg2BKX7W/ZbfHQuAKCZWpsPIbecccelUzj+I7+xhEpesVGeqdft5Zw+hmnJjkb5c+LaQw29D8tOn/SLv99wJDStNhjhhw4LzY9JG6Ry5uKsNGv/7qlPDSOmqiXje612T37xLAtAT8K7BfDpmgtXVrCvPnzSvnl0iAdrGj7Tdu94sEQhHLCrLbgvU/NeDCE961BvB9MxHvCbHJffC8dAUfgvUOAiLFZ+7HoKLhZxmuoat0Iw0lP5WZZthdze2xIt1rZyDyK+mpuzfRX9p16pbRFdL5lIbCalPw1a3MhHDKXBPlew6xxZN0hGw5xKaJXr3BSPPnU08Gud0SXnBS/WlyeoF/0VmoABUBeiiiyb6TmQ+Htz9ixhP3ea/dKPxJ5f/TYP1kfCOPrzdh6HTo61gZtXa7lYyFzcgQcgeUXAbu5EA6Zv4ocsoWHCNk+b21lzarzVMxJ8S251173izBmzNi0ixnpDX6hr7rymuSoNRZ7EnPHc2TMG3F5Mj0m/sfGPiylwYFaos27uB577PFkl1eTc/cVYj9kxsuJ5TnIIPVnTvwxF8l4sofd1rgRwRs/DoiXSHK81gZ2fn3f/elxTepOjoAj4AgIAZ6CzgPgqjlkOtFhSaxD7tGzR+kNIekxyfhKJpa0rLNO3/QyRkXEvKGCfBOvEyc3RQKeSBqHyKVO9+7lCXmO4dvHfzNdJuGMcayiGfG9c2wSzxNJG8RlOfmllJbF6MWS5J5EAwYMSO8FVLTM20aKnhySvpeOgCPgCOQI6CWn8JWyqHDI8th5585sD47Pnou2GLRZ6SWMQ4cemh5T5PFG3oK76aabJDVeJ04Ei5N8+ZUp6Q3Jco6yo5JN60niz4o3Kc4772yxU4mDfumll9MC8RtubI2erQKJ/SJaPUbvvFn35z+7PtmeGTeAt2RfYspNgG3iJvxOjoAj4AjUQ6DCIdfr0BnyOfHRzCLSq5FIB4wbNz6+hPTEMrWhQw9NbS2tKcrTosMibh695LFQ7pxCLJtR9LtrfAJIj2kmYfyXr1MUn3JYfH8fr0w64IAvpOj6pJNPs+L0FhSeaIJuu+2OMpk3HAFHwBGohkBhDlkJZoXR1To3i397XBNI6oG1j+wWxTo/iCUvrB+89NIrYmth6SYc6Qce6cQBbxDXKfIo47S4IUoR8XZdoufecfF5/hoj9HH2PELZre19frLBesnNNlv0DLv4lGzDR5qFzUdmxzf08sy8Jd6Dx9z44xFQJ0fAEXAEcgT0glPLL4yQtcKCUouXbadm1wdutmlaZ8haQNIEWmPIOIN32C6lMHhvnmjw4O3SO9/0fjscuN04RHqU5JchnPZRRx2e6vzjJai87VnvqyM3fdvtdyU5W//pfXYaI/UZ/3yS77HHbnEt4tWpP2OzPtLJEXAEHIH2IKBFE7pPlwLh6HRrLntr1jrkahO1y+GIkvObayxR+9rQo8Ivbx9e9ggm9tBv9npJ7OKQ4wakFc/bw+8VI21ttlI0X/o7OQKOgCNQD4G33norLZrAISsrUREhI8BHq6xntJny3Bmz4uLBBx9Ob1y2z8NrzFxf/MUtB22+aaEJ+KyDFnXW+LLvpSPgCCy7CNhVFoqLK57UkwAYmvmkXjVYa0W5L8TomG03qq2gqGbT+Y6AI+AILO0I2Cf1mCvLjKs6ZBwzf52dsljaQfP5OQKOgCPQGQjYd+phn6xExSoLmBKmiv9zBBwBR8ARaDoCel8pPld/FQ5ZkbFGL9qRSDIvHQFHwBFwBDqGgLalUJqYsvCmHualtCSWvXXscLyXI+AIOALvXwTkkO0RFEbIVsHrjoAj4Ag4As1HQCkLa7nCIUuoXLLaXjoCjoAj4Ag0D4EiH1vVIStlURRWN29KbskRcAQcAUdACFR1yFLw0hFwBBwBR6D5CBD0EvDaSLniph7DWgU9Z9386bhFR8ARcASWXwTws+SRcczyuYURMgr2b/mFzI/cEXAEHIHOR0BOuTBC7vzhfQRHwBFwBJZvBLSkWNExTrkwQgYmKalcvqHzo3cEHAFHoLkIaNmbshH42qoOGSUnR8ARcAQcgc5BgBt6dhVb1QjZnXHnfABu1RFwBBwBIcCCCUXJykQU5pAlVEcvHQFHwBFwBJqLgA18U3QcV1xUTVkwNErunJv7Ibg1R8ARcARyBPCzySnngrxtcxy5zNuOgCPgCCxNCFx55ZXh1ltvLZsSvAMOOCAcccQR4cUXXyyTPfmnJwtl6KF/1VVXlenDx15nUdUI2YbTnTW423UEHAFHoBkIvPHGG2HrrbcOp59+ehgxYkTJ5EknnRSuuOKKsP/++4fVV1897LTTTgFdCOf6xS99MQwcODC+YX6z8KlPfSrcf//9SbbffvuFz3/+8+G5554L2BDRf8tBW6q5WKWCXUXHlHXfGPLOO++E1VZbbbEGpvNlL00IN/z1pfDmgncX25YbcAQcgWUfgdVXWjHs3/vj4bQNi99xaRHYddddw/bbbx/efPPNMGXKlHD77bcn8cc//vHw8MMPh/XWWy+1cdp77713OPXUU1NkPHjw4PCNb3wjyS644IJw7733hieeeCKlaglKf/nLX4Zf/epXyR6OGd7FF19sh+5wPX+FEw65IkKG2Wy64IVx4SfRIbszbjaybs8RWHYRwF/84q8vx2DuhboH+cADD4TTTjutTI9ol5cSyxkjxBmPGTMm6T3//PNl0e6XvvSlMHHixCT79Kc/HXDQ119/fcBpk6a47777muaM0yAF/yoccp6qyNsFNuqyfjX1b3V1XMERcAQcgSIEbvjr5CJ2Q7zu3buX6X3oQx9KUTTMv/zlL+HDa3y4JMdx//Of/0xtnC+6hx56aNhll13CTTfdFEaOHFnSbUYF35oHwBXL3lCQE6aed2jGRNyGI+AIOAJLAoHZs2dXHebDH17kjFFSbpn6GmusUUplbLTRRuHoo48Od9xxRxg+fHjo06dPunGIzuKSnLJ87RKJkA/5RL/Fnbf3dwQcgeUUgc/HPHJHqF+/fmHatGllXUlXfOITn0i8Xr16hcmTF0XfTz75ZPiv//qvMn3yxnvssUdyzsOGDQuPPvpougl49dVXl+l1tKGAF8fMX4VDtoblvS2vI/Vj+28YDvvEuoEkvZMj4Ag4Ao0ggL84rv+AcGoDN/WK7JGCGDBgQMoFIycCJq/M6glozz33DOecc06q8++6664L22yzTanNkjhu6nETT9EzUTGpjH/9618lvY5WWGWBjxXhnKt6SITNcsgMCKgdBVYT9tIRcAQcgfYgcOONN6albqye4Ibd0KFDw2677ZZMfPe73w1jx44NrMTg5h/5ZkW+LIk77KuHpRUaKOOI6ctqDtIg2F1cyveaT/42/lvkottGEIvyrbfeCl26dFncsb2/I+AIOALvGQJEu/3X658caz4JZNzcs6sxch21cdQf+chHCu1Ip9Fy/vz5YZVVVindp0t55Nwh44QVHRNSv/322+6QG0XY9RwBR8ARaBAB1iHjkEX43YocspwxSjjkPKxWZy8dAUfAEXAEOo4Awa/dpL7QIaMEUbI1nDp0fFjv6Qg4Ao6AI5AjQMCr7TfldysiZDpJmBvwtiPgCDgCjkBzELDZB2UmKlZZILCUt63M646AI+AIOAIdQ6Ao+1ARISs6ptRfx4bzXo6AI+AIOALVEFC6Ajm+tjCHrM6KjFWK76Uj4Ag4Ao7A4iNADlmEn8UpV0TIEshjF4XVMuKlI+AIOAKOQMcQyCNkrFQ4ZDlihDhjm3iG5+QIOAKOgCOw+AgQIdsoGYsVDtkOgwfHQTs5Ao6AI+AINBcB/KuNkrFe0yGTvsg9eHOn5NYcAUfAEXAEhECFQ7Y38YiOPWUhqLx0BBwBR6C5CCjgld+tcMhKUUihucO7NUfAEXAEHAEQyNMViVcNGjnmanLnOwKOgCPgCHQcAaJjOWX524oI2Zqngy97s4h43RFwBByBzkOgqkMmZSHv3XnDu2VHwBFwBJZPBGxaWPUKhyyBIPKbekLCS0fAEXAEmodAnn3A91ZsLqRcBmXunJs3lXJLCxa8G/7xxuwwfdYbYf6/307C7t1WCx/98IdCzx6L/2bX8tG85Qg4Ao7A0oWA/O4KsVLx5Acs/XX2G0Omz/hHGD9xSvh3dMQrrrhiaFl1lbDiSh8Mb86ZH959992w2mqrhAHrfix8rM9ai43g1NemhXvuvS9MnzY9tHTtGoYcdGDo3afXYttdXAPDb7o1zJk7r8JM7549wj77713B70zGnNlz4nvERoXp02eEOXPmht69eoQh//Plzhyy6bYfeWhUsrnjzoPLbF991c/DkUd9rYznjZA+73nxc7fn2siR94Yxz45N35O99949bLDhAIeqyQjYVzgR/PJXkbKw/rmzI+SJk18NT42ZmBzx1lttHHbf6ZNh+88MDNt8srUODxrz/EsB3cUhnPGhhx2RTGy2+cBUHhbbE16YuDhmm9L3zrvujq8rn15mi/Zv7v/fMl5nN8Do4IMPDy++ODl0a2mJ7xjrF/bed6/OHrbp9nlh5WWXX1VmNzmYMWPLeMt7gx/fiy/6cbj8sqvLzjV+uO68Y0TYfvttw4B4DpxyylnhqT89s7zD1fTjt/5VAXBFykKjoswqCy1cFr9Z5auvzQyTXno19Om1Vth80/6FZj+6Rvew8/aDwnPjXky6q3ftElMYHynUrcc899wLwiEHH1QW7XGy/fiSy8PV11yWunPSvT51augev9AbbDCgFD2PHHFv2M9EqkRgW35yUOrz9JPPBEViOPc5s+cmPnYsbbDB+jWjjL323D1s9alWm/RjLtde94uSCUWuMD651ZZpbppvSSlWNI7082PR3Ce+MCkdq2xhY/gtt4XDDhkSPrvT4HQcunrAUU+YMLF0nOjKztx4vK+/PjUe2/op0mI84UG/J596GvVEViaeSjDeMY7bvXu3xKIvdsEEXCdMmCTVsHbv3mVYlQRtFfr0WGuthKEwvf83/xsOPOALwdpF3bbBc+21e5c+d8kGxGN7JF415KRzQp9DPi/x1U+fjbDTsUpOaT834Tg7Os6i84xjkz59ZZ86ZGX53JAPG/aT0CteAR1y6JBw/28X/fiPeW5s+OZxR5cwnjN3brjvvt+W2vR1WnwElEPG1yoQroiQNUxJIT5v3Rk08eVXUzrCOuOXp0wNTz43MYx+6vmAwxZtvul60Um2pNQG+eb2Eif0+PHPV0R7XKKdeeapyRwR1AUXXpQu1X//h8fC0cd8K77ue06SDbv4krIhL7v86oAjQq5IjC8vzr1X/ELPmTMn2SHKeOzRx1sv/9scdZmhBht8sYhcn4tfFFIJRx9zfHI2GocvE38pzRDHYS6KdDmWk04+LfEY7vbb7wonnXBqGPX7R1MkzFUCjgOa/NLkMDFGx0cd9c1w7vcuCPvvd2Dq17V713B5jDiFB7pgMDuO9eTTT4drr/1FOPvs89P48M8683xUkkO94YabE5+5TZs2LfGL/jH/UY+MKol+es21YVrbj9qoUY+WcARPnEM92mP3z6V5oQceM2bODJ+NKQycvP2hY/6y9+v77g9Px7YInCVj/vxxLqiOHtHkpT+5IvEoaYtuu+2O0meWji8eB8RnwA9iTqSKvvCFg9LnwucG/mBuzzN+nM773g/SeUZ/e14QyY4ceW8yi62DD/5assV5Y49Z4x5+xFcLUzhcQXJ+iJ6N/bdou6oUz8vFR4BVbNYZY7FqhLz4w1W3QN6YnLFSEmiOGj02OrJ5YfWuLakjaYrJf5sWBm/Tml7YaIO+4YnoqP/xxpvtjpKnxi/hmmutWYq+7MwUBQ4YsH644cafl3S+MuSrgX7du9fPnfGFP+mk08JpZ5wc+sScNH9EN9OmzQiDttg07LPf4uWBH46OatNNNw7nnHt6mvqgLTZPzobInnHkBJQfPevM88IXv7Bv6WoAOdHviSd9K/Xv179fqT54h+2SLaKtGTNnBb6MNw+/LukNv/HWwJUF46y77jrJYXIsOPAePdZMx4n/wtmNuOa21OegIQeGL0WnAiZQjx5rFX7pk9D8Gzr00DQPYTVu3Phw+BFDkwY4br/9ZxKOOBxym/VocIy2r7jymuTMcO6HHfKVel3K5GDGMUJEssL25ptuKdU5xgceeLB03ujY99l7zxRlz433BQ488EspstRnpEEmTWp1yDYiJ3Vw/nlnlyJR7i1Mio6759qt9zkYD2f8/YvOT9jjqC+88JzSlVfPGO0+9ofHw37xM7rjtrvCqaeclGzxeRU5ZM7TIhoSP8Ojjvxm+Nwureftuuv0LcsvF/VxXvsRIPtA4GtTFzUdstIW7R+qdg9WVHADj5QERDSMM95oQN+wbt/eiUe0/Hy82UcJ76NrrB5Wjn2mz/pnux1y13gZPX/e/GS32r8+MbIdPvy2dMNvbrxEmxmdk9IP9DnyiGNLXWdFByTCLpHUqaecGDasc+PjpvgF+9Wdd6trOOa4I8NO0XHUo+eeHRdmzJgRzo6OFmJ+r7wyJdWL/s2IkRz65IIh9OfOW3TTECcs6hW/7NbW4MGLZHvvt1e46uqfJVUcC5EwDvPXMULdY7fPyUQYuOkmpTrOa511+qZIs1ev1s+yJKxRIS0wM+KKkyF67Ldu3+R06DJv7px4ad24Lfowj/0/v2+4JX6mkye/XHLujPPKy1PSj0q3GPk/F537CnQwhOMbE/PNu8Uou5bzJ9rm8//RsEtLvbvE3Dt8fujBHIdbRJPiZ8ON3AsuvDj9eJKr57xSioU+upn62mut43Ce4YDlSDnGiS/MLZ0XY8f9Of0A0pcfXaJcxudKqj3EFdLAzTYNXz9yaPw85oafxR80cs36QW+PLddtHwJVHbKccWesQ35z7vywercupZm+Om1W6BZTEnLGCKi/OnVW+Ht03uKvGldczJ//Vqlfo5U+fVq/FEQK9oTni0eOk1zgifEynpP4iLaojMt8S0ptwOOLIerS0iXsuuvO4dJLrwg339IaWUqWl/vGL91Onx1cYpMKaJQ222xgIPJqhLrGqwwiyi233LJQfa75gtp6SzwWS6RlWqKDgcDtwpjSwWHi4BStW31b74gD3XqbrVMU/kx0kttv95mSOSLNjpAi1k9v/akyJ3byyd9JESM4tbRUfgZc7RCF2vRF0fg4dK68dM5IR5/rvOisVZdMpe4Z7BB/AE895cxSOg18cbQ56Ty79dY7I/at5yZpicsvuypFwjjeh383Kjz+2OjUFWf6w/hDwY3steIcOdZGCOc/KwYjcr7MhdTG0MO+XuI1Ysd1OoZA1QRxZ+aQV17xA+Gdd/9TmjHtasTSN9FKK1X9/ZBK1ZJoCaeJExZxGU9+DeJynchRKQxOSkvw9Wf51LmcJaJQ7jSXq83JLRuURV886dpyrz13iznU0enLTb/Zc2an5XtWx9b7r9c/4NQ0Fo7lhYkTSyr3/eb+Up38LA4L2nbbbcK99y7Kz7JEUDLkn9t1lxQN9uu3Ls0SPfHEn0q4gi/5enLpRUQ+nL8iAv/fxJtvRPhagoUuETyRbU6MNXJka840l9HmBwVS6iM14r+U5vnpZWHYD78fNt+iNSUm2e0x77/77ruUHLj4RWXveIycJ3weYI2DviZGk3yurefZwrqf8bTXp6UfPfpsvPFGKaLXWFyVPfLQKDXbUiULU7QKk8i3X0wl8WPJ+C+1XREh49hJ+1x3/TXpBh28RkjnpF199Pvf/T798NC/1ufXiH3XWYSAnoQm+FXaoq6HW7BgQVhllVUWWWlCbbVVVw2z3lj0pVzjw6uHaTMXpScYYvJfp8YTfV4YuFH/0ohzZs8LvXu35vVKzAYrOE3W1RIxkBN7OX7J142XxRddfEGy8MXosE87/eyw1pprhh491yqdgA2aT9HDCd/+bsrnKt/YaN96enzhtt1um7hK5GuhpUtLmDefS91zq3YjMiQ64qYQ+l27tYTTzzi1pM8abL7sM2bMise6Zklm+4WFK5TJ6Ezu+vjjTwyXXHJxyRaVTTbZKF01tHTpEmbOmhXz6ccnhzYtXrrndE68+Uf0K4dr5RwnN8asw+cm1+fjZyNHYfX5wSCHS840Jy6xH3zw4bSyRpf4uU5Rm0hSqYIiueUxJ6Jtbqb1iFEoeH7xi/sGosyvxoiSeVcjzjU+m5a4cui0009OaqfHG8zHxqsvfnzBcZdddko/HtgTfeeEb4ZvxPwuOWk+rxt+MTx85aCvJnG//ot+KMn9c+XGsRd9DrKXl/kxcXXC+XbZ5T9OqrU+v9yWt+sjgCNW8JuccmyUUUw0L+QvLslYGKPThf/+97/L5M1ozPrHvxbec//jCylFox4fk3i/e3zsQv6Q/y7yRLP+8WbiTZ3+d7E6VL755uyFL/xlwkLKInr91alF7KWCx5zbMz/08+P8+uHHLHzyj0+n46lmq6gfHdDfb98DyrAYMeKehWed8b2SvXy8MuXYGHLQYQtfrYHxfvseWJpf3ndpblfDsiNzroZ/NVuMXQ/3an1r8fme5MdV7/OrZc9l5QjEK5zkY+VzKWtGyFGhU9Yhrx4jNm7QTYoPe3CzDtohrqb4W7y599rUmVH2wfDx3otu8CGf8tfX0zK5Xh1ch4wNiAig1soJLv2WVmqde2V+sdp80a9F1Y61qB8R2QMPPFRztUI1e3YO8+KNrqKI9amnngm33XpHWk1CpPx+o0aOvdFjKsK/Vt9mjm3HKXo6r9rnZ/t5vXEE8LFKV1BWPDodfXiyRslfZz06PfHFV8OkuBZ56602KjnlaocxfcYb8Ym+CSl98fEmPEJdbZzlgc9NI6i9X/oX4vpXViPkX9L22iO3WuRAXov8uTEXm9tPk/V/Sw0C1T6/pWaC76OJ5I9OM/WaDpknSfhbNeZ8m0084PH7J1pvqO2w9cBQ7YYd65Uff2p8Gp6n9pwcAUfAEVgWEGA56mqrrZYiZEXJH6h1YCx5I6TuDMIBb7Zx//SAyPMTX6k6xMTJf0s6n2nb16KqogscAUfAEXgfIaBVFkxZmYmaDhnFznLI2CZ/zMMgr74+q3DzIDYUQrZ+3O2NXd+cHAFHwBFYVhAoukdX9aYeITQdeKKuM4mHPkhLsNEQNKDfx1KJM4bX9+O94o5Trbwk8H+OgCPgCCwDCBAh2ygZn1vobQmfldNQKN2Zx7/RhuuEd2JOWU6ZsbQT3CZRtjwSC/N5aKPZa5rrYcnTjGyoU7RfNA8FjLz712GrLbco3XyDp0fON4sPWRStCa43pssdgeUdAfwtvrYwZSFnDEjaIq6zAWNHtz691kyOWM7Y7gTX2eMvTfbZVOa4404IbGSzJImn3tjxTvvg2p3g+IFgZ7GfXvWzMGnipNK0hsUHUHjghj5sbFPvacVSR684Ass5AtbPCoqqEbIUlmSJU+6y2qpxxcUHS/tXNGt8u6cxS3fs/r5EhdoHmcdqRTy2ulXc95g9A4r2FZ5t9oSgD/v5skMcmxLZtbTYYf9klppVG0tjMhYbz1z6k2Hh8KFHiV211COuWi7GWOvHvZz5pdVexPncqxljEyPtEIYOW3GyQQ3Hwi5jbKDEBkMixh437s9hxMjWnd44Ru30VrS0Tf28dAQcgdYbeThl65jrRsidsblQrQ+DfLE2E6ql116Z9jTGGbN5DLucQTzwwOO67HHLHrR2Vzf2OmbTIXZNQ2b3SGbfX/jaG/eGG4anXcpwxkSZIsbDDs5YEajsab9b6VJutdWgtHEPb71ohEhr8AdxLMyTBy/YcUx7ET/z7JhwjNnfuZpdNq2xPyQsy2ETf+jKqy8tk8F75uln014K1CGOkceo623K06rt/x2B5RsBHDFpCv3RLoyQBVPuvcV/v5Y4R3ZquyBuYchWmbRH/OrucG3cgEVPj+GQtSscG8dcGPeMUPTJPsNs56i8rn0nH29ZgHBo7JAmG7+LO3Bt2rY9JfsOsCeAxtJ+t1uaJ9Pa+8CGPgucMa99sruw2b2IT/j29PSDYR2u+haVROpEv+ydABXNi+0j2cjIUkvXuLHOtBmW5XVHwBGogYB1zBUOGaGWuuG5Va9h730jwhmz4Yr2LSaKXCduMCQHyYGwBeczzz5XigbljJGxM1it/XHRgdg1TTZ+e/+D4fs/OD9tODM/e2y40U1sWq1W/88jzWzsk2//yb6//MCwQQyb5jTqjElFXH/tjenHo8gR25mQP86pWxzLyRFwBGojgH+FKPG7UEXKQkI5Zikm7ff5P5wxu4PpcV8Op95eu1Z3XnQ+XMbXI3bhYhwicAiHX8+x1bNZS87bRObNnx/uie+ls8SPDfs4nx7fZIJDJmVSj5jzKd89q/RWilr6PXv1SK99sjozpk+Pb6peevcDsXP1uiPwXiJgl7zJ71Y4ZDlgFGyH93LizRqbVMOucU9fti+E2GOXtIRujOGMRo/+Y9jLbARPigJieRdvh7YbpydBwT+cLy/Z/NGPLg0HfHH/pAFvnXX6pjwvDOwpPUK7HqHPXxH16tUzRrOXhOtjHptUiSVurhHlk1p4cdLkJOLNJfaHRvocP/n1C76/6K0UkhWVO+44OO1VrB8eSr27rkjfeY6AI7AIAbvXO34Xn1uRsoAJSWFJLXtbNM3OreGUucxmeRY3sU4+uXU/Wy75ecMD+9naFAazYb9Z9qfdOm7kXrSPb9GMt4v7F18Vl4h969utzh+dov1uG00jcHORtyZ/1qwCseMyZ17vw9sntFfy+D8/H/bf97+TmvY9xhHffOMtcYlhrwpb7KE7ZcqUstUdG2+yUbg6buZeRPzIHP2NI9LNTn6A2A/4uGPrrwwpsuU8R8ARqLK5kJwyZdwPOV7uVr7mZlkDj+iO1+3Y1MK22+wYHhv9SCmatLJ6x096gHW5w370/QpVRaftsbdrfOHkHXfdUja/CsPvEYPjYbkfb9BozzG9R9P1YR2BpQIBdntbaaWVAivZlJmoiJCZqYQ45GUtbVHtk6i1bra9Toa3VYx+/I/hsisuKRyuvfZweOSD29uvcPBOYDKvWntMd8KQbtIRWCYQ0LJifC1+t+r2mxwtKyw6az/k9wOaRM21HHW1YyCPS366mQ4Up9xMe9Xm7nxHwBFYMgjY7TcZsaZDVtoCh8yenU6OgCPgCDgCzUOAdPDKK69cykjgkCtWWdjhcMrL2k09e3xedwQcAUfgvUJAQa8dv6ZDRnF5ySFbULzuCDgCjkBnI6B7dXacmg55WXpKzx601x0BR8AReK8RsBGynHNNh+zR8Xv9kfn4joAjsLwgUDeHDBAeJS8vp4MfpyPgCCxJBORbFR0TMdeMkJmc1sktyYn6WI6AI+AILOsIKAOBI+avMEKWt1a5rIPix+cIOAKOwHuBQO5jCyNkeWtNkLaTI+AIOAKOQHMRsL5VzrkwZYEQZXIcUmzuVNyaI+AIOAKOAAhYH1vhkCWkJMfhD4b4SeMIOAKOQOchYLMSFZsL2TCaKSjx3HnTccuOgCPgCCx/COSrLECgIkIWLDhmomRFzOJ76Qg4Ao6AI9A8BGwQXOGQrQNG0VMWzQPeLTkCjoAjIARWXLEiQVH9jSF0wjkvyXXI//7322HOvLfizcT/hI98uHvcvLlywjoYLx0BR8AReD8jwCuc2KAeUkaipsdDyYbTnXHwCxa8G17+27Tw6uuz4ttJ3gpTZ/w9btK8QujV8yNx289VwoB1PxY+1metzhjabToCjoAjsFQgoMxE1Q3q5Yw78xVOs2fPC0+OmRAd8dspIu651hqBMH7VVVYOc+P77abPfCP845+zk2P+zFYbp3KpQM8n4Qg4Ao7AYiLAK5xWWWWVsnt1NR0y47311luhS3wBaLMJJzxq9NgYsn8wbLbxeuGja3RPQ8B/Mzrqnj3WSO2/v/FmGDP+pbBgwX/CNlv9V1g9vvfOyRFwBByB9zsC7XpjCAfLsozOeoXTQ39ofV19HvlOfPHVMOnlV8Peu25Twhsn/fhT41N7h60HdkAIXxUAABBzSURBVGpueU58VdLIu38dJr84ObTEl7sOOejAstc4TXhhYvjlrXcUykoTjpWRI+8NY54dW6jHK57uu++3SX2zLQaG/fbb23Yt1aXHPPbee/ewwYYDSjJeLzX8ltvCvLlzQ26jlozjGz78tjB92vSKfiXjXnEEHIFOR4DsAxkB/shIsMS4YpUFs7B5Y+U2mjm7V1+bmdIURMbkiesROptt3D/1eXnKtHrqiyUfNuzSMOa5sWH77bcNvXv2SK+45312EI7uuONOCJttPjAMWK9fOOywIwJOM6err/p5uPOOEclGt25dy2zgqC+48KIk23PP3cOdt48Iw2+6NTeRHLr0GOuUU84qjcU8jj7m+IBt5nnDL4aHRx4alWxYmezz0lURxzdnztzUj7din3Xm+RJ56Qg4AksYARZN4G/xs8nvxn9lFKPihfzF5W4L33nnnYVz5swpkzej8eDvn174+J/+XGhqwqS/Lbzn/scLZY8/+eeF9O1M+voRx5SZH3LQYQvvHnFP4p15xvcW3v2r1jqMm2+8ZeF3jj+5TJ/GfvseuPDVV6eW+F8//JikC+PMM84r1Wk/9NDvFuZjSu+RB39HNRFjnRXHhy76wSXRTmud9pN/fHohY6guPdqvvvr6ws/tvFeSvfCXCXFuB6Q6/958c3aSvW7mWhJ6xRFwBDoVgZhDXhhXWiRfK79bNULGY3fGU3qsqiAFwQ289lLPNddIfenfXuJSvSiaze1c/dPLSiyizXnx5uIWW26ZeOPGjQ/rb7B+Sb7DZ3cIf/7z86U2FVIa8Roj9OnTq8TfbrttwosxBQIN2nzT8FyMwEUvTnop9OvXT81Sec65p4XP7jy41J4U+28RI3No8kuTw+AYGYu2+tSgMH7884FInvrZ554uUZj2+rSw5lprpvYzTz8b+q27TknGW6w/vfWnw9NPP13iecURcASWDAL2GY/o+dOghQ65FD5HlWavQ35zzvw0cPcO3Jzr0pbemNdOh4xjPfh/Dg/XXveL8JWDvppSD2edeV5hqoDJPfXUM0nv0JiS+OLn9y0511kzZ4bu3VpvPqKHQ5s3bx7VEs2ZPTf06FG+TK8lphZI4EP77N+aL/7cLnsH/h57dHQ48aRvlfoXVfghGTfuz2GLrVp/GGbMnBW6dutWprrmWmuFuXFsSxz3BRdeHIYednBiz5k7L/Rfr79VSfWp02ZU8JzhCDgCnY8A9+ksVThk5Ywpc2XbcXHrCxYsqDDx9zdmh1enzazgi7Fi2yJqtRstJ0yYGL74hX0D0e+2MVo94IAhYfLkl8MOnx1caGLAgPXDRRedH84/7+xw56/uTvlcFFtaWsr0lVsuY8bG3Oj4qhH5XG7S3XnXLemP+Rx5xLHV1FPEfemlV4TLLv9x6YehpaVy1cv8ih+GOeGkk08Lu+66c1mkzc28nLp1LT+uXO5tR8ARaD4CBLt5FqLCISt0plTCuZlTaWmLcm3agfrTz70QnmhbSbF1XHNcRLPbIsDVu1U6pCJ98XaMl/5DDv5yah551NfCY6MfCTcPv67k4KRHWoOUA5Fv75hy4PL/kEOHBG5+QVz6v/76VKmndEDfdfqW2lR6rd0rzIoRrKUXJ00OPXr2TKyHHnw4fPnLX0pjMA7zId1ANJsTvPO+94Nw2hknl821Z4zAJ02aVFJHj0idOYvOPvv8sO220dlH+6KevXqE6dPLo+EZ06eH3r0W9ZOul46AI9C5CNiUBSOlNHG9IZsdJbNigr/ps95IQ0+f8Y+0HnnWG3PC+vGpPJa1aU1yPrfps/6Z+nbWI9Vkcb4ZV1FY5/hc29I15oKDu+22O0rT+nVcugYPYvUE/fr06R3WWadvKR2Ckx89+o9h8A7boZZkkyYscqb8AODou8YUDvV8tQTOeEOz3A0be+yxW3g0pjpE99x7X9hp5x3VjCsnzgvrxdSEdcYId9xxcHjllSml42O+M2IaZtAnByF2cgQcgSWIgE0HK01c9cEQ5oUz7ox1yKw1nvDSX8OnBm0Y5s9/O7wRH/7YaMN1ay6BI51BBD1wo/7h4534KPXwG28NN9x0S1h3nb5hxoxZMbJdM1x08QUpoiVFcW6MPCe//Epo6dIS87gtJdlXhnw1bPuZGJF+42vhtejojo3L0npER/tydICfj3loOUecLkvYkJHamDlrVjjm6CPCPnEt8gnf/m58QnFeSq2QxiBytrTxJhslGTxSH6NHP5HmMW/+vFJK4+GHR4WzzjjXdkv1228fniLoe0bcGy6/8prS8R137JFlKY2Kjs5wBByBTkEgfzCE9EWhQ7Zpi854dJqVFr8c8UiM0UP44l471HTEIEFKQw+G7Lx950dzON6JL0wKa6/duywNoE8lpTXizT2bIpDMluj1jjZITeTUqI28n23j+Mk51ZuH7UOd45saUy/V5pbre9sRcASaj0DukImS3xOHzKHxePRjfxofn+VeMT308dE1Vi88YiLjMeNfTI9OD95mYF3nXWjEmY6AI+AILGUI2L0smFpVh6x5d1bKQvYV+VJ+JDrknmt+OHSNd/zffuedsOCdBTHP/M/wj5jOIOf8yc02iJGmrwYQdl46Ao7A+xuBhhwyh0jKQn+dkUPOYfxbfJSa/StwzGXbb666SvhY77XCun17der+Ffl8vO0IOAKOQGcj0LBD1soKnPKScMg6cHLLRMQf+MAHQ7euq3l6QsB46Qg4AsscAtyfW3nlldNaZHwtN/UqNqhHAGkZxpJEgeVsPXt8ZEkO6WM5Ao6AI/CeIMA6ZPlZlRUPhqTEctvOQ9QVLb8nM/ZBHQFHwBFYRhEgIlYArEOscMhWAQ9uFy+rk5eOgCPgCDgCzUegwiHbIYo8uJV73RFwBBwBR6DjCCgDoUC4wiGTpoDysuNDek9HwBFwBByBHAE5Y6WJkVc4ZHlqhOpA3ckRcAQcAUegcxCQ361wyBoOBVIW+Y5EknvpCDgCjoAj0HEE8K95WriqQ2YYQmk6ODkCjoAj4Ag0FwGlha3Vqt4WZaJkT1tYuLzuCDgCjkBzECD7kPvXqg6ZIVH2CLk54LsVR8ARcAQsAvhWLStWtFzVISuHjIHci1ujXncEHAFHwBFoHwK6N6ebeSqrOmQ8tv7UuX1DurYj4Ag4Ao5AEQL41BVXXLRzRd0IGSOKkj1CLoLUeY6AI+AIdAwBfKqiYiyoXhghy1ujiBfHm6sDPCdHwBFwBByBjiGAM3733XcL788VOmScL39yzCSe33rrrY6N7r0cAUfAEXAESgi8E1/AsdJKK6W2fKzKCocsQal3rHA3ED57Izs5Ao6AI+AIdAwBAlsb7GLF+twKh6xhUJIiDpk/UhceKQshLx0BR8ARaBwBAlrSFQpwKS3hb8s5bVI54tyTk7qAh1P2G30WSq87Ao6AI1CMAD6TN0wT0OJDk+NtyzrI16pnxVunEWAAQpk6zlcOWPUFCxYkT08uBE+vnEjq6P8cAUfAEViOEcBP4iNxwlDuhPMHQqRT1SHLGcs5yzHTkcHE524hdbWRqy4b8KjTTzxK8dXfhvDo0lYf9UMXvsaQDUrxpEtJf6uTGm3/0Nc8xNeYassWbenmc5CdfPwiG1ZXtnXc+TFrTPFp09/agKcrFyuDL/uqU4rQhWSLOvrCG77mJV3pUKpfXkqW4wgfgm/tqW6xlc18PrT5y/u0Wl70AJN0NJb66djQx4bsaK7qV6SvPpToi2Qj70Ob8axcdfW385FdeJDsqQ8lnzNfcNmmlC6l1ZUMHnVKjUtd/GSg7R9y7Fs9yWVDJXzqOgbqImxD1XTt2NKBp3Hpi13a1j460qMUaWzxZJPS4il9leirr3gaU23Zoi3dfA6yY8eXLqvUqNtjU5tSerJf6JARyjh1iDZ/HKDq4tuSei1iAhYkjWMnpv7wJKcs0sl1pae+aqOX1+HVsmn1ZY8+UC1Zq0b5f/QtaVzZUWl18rrVsfOxfPURj1Kkk01jw5eetVeLjyzXhVeLNAf10/ji01c86vCZq5XDh+DlukVteOovOW31V9lqtf5/2dAcimzjMHVuS0/9ao0nGaU+I3v82LB2ZZMxqGsutNtDGo8+mgPjyL5sq9Q4ktt+Gld21M5L+upYZBcda1N9rLwRu+hIT33VxmZeh1c0LnzI6steq6S6THqU+pMd2hCfLX+WJKvqkFGWIUr+xANQnThWlhTa/qmv+jCgeLJl9XO5Jigd9SnSs7Jcn3beRzoqrVy8ejbRU7+8rjal7FCHbJ9WTiVPOpQQNmzd9rPyfKx6ekU26WPH19jWtu0n3aKxxFMpXVsis7alSym9vK42pSXZsf2Q04YkTw3zz+pLV/p523QrrFpbKKg/pRyR7Sg5PM1PPLWRwaNtZZYnXcuTTfGsHepQkQwepPGq2U5KbXqqU8pmkR3JrH7eR+NanaI5SM/K1Ee8ItvSUak5ab7w1b+Il/ejbfVqtaulKko248CLQihx20oroq6Ji68TTO2se9Wm7OQK2LGRQS7P27Jj+1HPwVE/6VMy9yK9Wv1lp6iU7SIZvFze0XGq2YdfyyYyyM6j0eOvZtfaTMbNPzuO2LKTl8jFk25RaXVy+1amvujoHLX61NtDtq/6aTyV4tuylszq1apr7NxW3q5loyOyavaZT/7dka7KeuPpmHI9+i8r33+OEVIkrLaOWW2VJX4EoapDRkliOurkVmfJcr6V0w89DWzruZ7aKot0kVXjS0ap8ajnVKs/urlcVwO5nbxNPyg/ZniyqRJeTuoPX/OvNXaRLcuTvaL55HbVz/Jtf+ZE216WW13kRSS7KhdXh/6Mq1wqbTvPWuOgK2pUT/q2bOS40a+nZ+dt7RfNTTzZVGn7qS5dtRspq81FfRnPYi5+rVLzUImuratvEa+abi2+ZJT6/lDPqdp40svltbBWn6KSfpY0p7ws04mD13TIUrZqmrB4KqVbVOZOIbeR97H61ezrwGzfarpWx9Y1jniyWWRHulZHPPrXq0tercxt5G36WdIcxact21bP1q1uzs/717IlWT17GkP6tKvVpZuX0leZy2lLRglZbFSHXySXvmzQhnLdVm7r/1zXyjpSz+2prVI21c5LyW0pHcujLr7KavKcb9vqq9LKiurSo4Tycy3vY/Xt52f1ZMvyqulaHVvXOOLJZpEd6Vod8eif13Ob1eTSSzbiwO12yNaAutvBrLyRet63XrsRm9LJbYnfzJIxLIFJPq5t27rtp7rkeWnl1IU9dXQhy0uMOv/yMWzbdpVdK9dxSk86aqvU3GirT1Ep/bzUmOKrrRK+red6RXL0ITuPxGj7Z+WWT11jqRSPshoG0rHyvH81GX1Fto94eZnr5O1q+uhZEjbw7Nysjur1xpBeUZn3rdcuslGNl9uqprc4fMawJNxUIrPzyPVt35o39ayi6hrElsg0CHxI8tQo+Gfltl6gmliN6Khvo7rV9Cx4slnEk6xeacdRnRKS3WqldJJyB/9pzKLukqmUjp2feHmZ97HyXCZ76HCskNWx9VqyXC8ZavsnmUors3XJi0r0ND/quQ48S5JbXiN1+onsZy9eXqJTLXeb69p2Po6VNVq3x2jreX8dB/xaerm8nm6uT7sWNWKP/tX07HFonCKeZI2U9G+E/h/O5pzIKJFdzgAAAABJRU5ErkJggg==;" vertex="1" parent="WIyWlLk6GJQsqaUBKTNV-1">
          <mxGeometry x="1051" y="280" width="356" height="194" as="geometry" />
        </mxCell>
        <mxCell id="RhfSra3kzSBtpRzGON0T-29" value="OrderListModel" style="swimlane;fontStyle=0;align=center;verticalAlign=top;childLayout=stackLayout;horizontal=1;startSize=26;horizontalStack=0;resizeParent=1;resizeLast=0;collapsible=1;marginBottom=0;rounded=0;shadow=0;strokeWidth=1;" vertex="1" parent="WIyWlLk6GJQsqaUBKTNV-1">
          <mxGeometry x="590" y="920" width="160" height="90" as="geometry">
            <mxRectangle x="550" y="140" width="160" height="26" as="alternateBounds" />
          </mxGeometry>
        </mxCell>
        <mxCell id="RhfSra3kzSBtpRzGON0T-33" value="orders: Order" style="text;align=left;verticalAlign=top;spacingLeft=4;spacingRight=4;overflow=hidden;rotatable=0;points=[[0,0.5],[1,0.5]];portConstraint=eastwest;rounded=0;shadow=0;html=0;" vertex="1" parent="RhfSra3kzSBtpRzGON0T-29">
          <mxGeometry y="26" width="160" height="26" as="geometry" />
        </mxCell>
        <mxCell id="RhfSra3kzSBtpRzGON0T-38" value="" style="line;html=1;strokeWidth=1;align=left;verticalAlign=middle;spacingTop=-1;spacingLeft=3;spacingRight=3;rotatable=0;labelPosition=right;points=[];portConstraint=eastwest;" vertex="1" parent="RhfSra3kzSBtpRzGON0T-29">
          <mxGeometry y="52" width="160" height="8" as="geometry" />
        </mxCell>
        <mxCell id="RhfSra3kzSBtpRzGON0T-42" value="OrderListViewModel" style="swimlane;fontStyle=0;align=center;verticalAlign=top;childLayout=stackLayout;horizontal=1;startSize=26;horizontalStack=0;resizeParent=1;resizeLast=0;collapsible=1;marginBottom=0;rounded=0;shadow=0;strokeWidth=1;" vertex="1" parent="WIyWlLk6GJQsqaUBKTNV-1">
          <mxGeometry x="333.5" y="830" width="160" height="90" as="geometry">
            <mxRectangle x="550" y="140" width="160" height="26" as="alternateBounds" />
          </mxGeometry>
        </mxCell>
        <mxCell id="RhfSra3kzSBtpRzGON0T-43" value="refreshOrders" style="text;align=left;verticalAlign=top;spacingLeft=4;spacingRight=4;overflow=hidden;rotatable=0;points=[[0,0.5],[1,0.5]];portConstraint=eastwest;rounded=0;shadow=0;html=0;" vertex="1" parent="RhfSra3kzSBtpRzGON0T-42">
          <mxGeometry y="26" width="160" height="26" as="geometry" />
        </mxCell>
        <mxCell id="RhfSra3kzSBtpRzGON0T-44" value="" style="line;html=1;strokeWidth=1;align=left;verticalAlign=middle;spacingTop=-1;spacingLeft=3;spacingRight=3;rotatable=0;labelPosition=right;points=[];portConstraint=eastwest;" vertex="1" parent="RhfSra3kzSBtpRzGON0T-42">
          <mxGeometry y="52" width="160" height="8" as="geometry" />
        </mxCell>
        <mxCell id="RhfSra3kzSBtpRzGON0T-63" value="&lt;h1&gt;rules&lt;/h1&gt;&lt;p&gt;Префикс для классов проекта - ?&lt;/p&gt;&lt;p&gt;Id - в названии переменных и функциях пишем только как Id (не ID)&lt;/p&gt;" style="text;html=1;strokeColor=none;fillColor=none;spacing=5;spacingTop=-20;whiteSpace=wrap;overflow=hidden;rounded=0;" vertex="1" parent="WIyWlLk6GJQsqaUBKTNV-1">
          <mxGeometry x="-990" y="1049" width="190" height="120" as="geometry" />
        </mxCell>
        <mxCell id="RhfSra3kzSBtpRzGON0T-84" value="Utils" style="verticalAlign=top;align=left;spacingTop=8;spacingLeft=2;spacingRight=12;shape=cube;size=10;direction=south;fontStyle=4;html=1;" vertex="1" parent="WIyWlLk6GJQsqaUBKTNV-1">
          <mxGeometry x="-1070" y="28" width="410" height="372" as="geometry" />
        </mxCell>
        <mxCell id="RhfSra3kzSBtpRzGON0T-64" value="enum Colors" style="swimlane;fontStyle=0;childLayout=stackLayout;horizontal=1;startSize=26;fillColor=none;horizontalStack=0;resizeParent=1;resizeParentMax=0;resizeLast=0;collapsible=1;marginBottom=0;" vertex="1" parent="WIyWlLk6GJQsqaUBKTNV-1">
          <mxGeometry x="-1040" y="78" width="320" height="156" as="geometry" />
        </mxCell>
        <mxCell id="RhfSra3kzSBtpRzGON0T-65" value="+ baseTextColor: UIColor.color(light: .white, dark: .black)" style="text;strokeColor=none;fillColor=none;align=left;verticalAlign=top;spacingLeft=4;spacingRight=4;overflow=hidden;rotatable=0;points=[[0,0.5],[1,0.5]];portConstraint=eastwest;" vertex="1" parent="RhfSra3kzSBtpRzGON0T-64">
          <mxGeometry y="26" width="320" height="26" as="geometry" />
        </mxCell>
        <mxCell id="RhfSra3kzSBtpRzGON0T-70" value="+ boldTextColor: Color" style="text;strokeColor=none;fillColor=none;align=left;verticalAlign=top;spacingLeft=4;spacingRight=4;overflow=hidden;rotatable=0;points=[[0,0.5],[1,0.5]];portConstraint=eastwest;" vertex="1" parent="RhfSra3kzSBtpRzGON0T-64">
          <mxGeometry y="52" width="320" height="26" as="geometry" />
        </mxCell>
        <mxCell id="RhfSra3kzSBtpRzGON0T-74" value="+ hintTextColor: Color" style="text;strokeColor=none;fillColor=none;align=left;verticalAlign=top;spacingLeft=4;spacingRight=4;overflow=hidden;rotatable=0;points=[[0,0.5],[1,0.5]];portConstraint=eastwest;" vertex="1" parent="RhfSra3kzSBtpRzGON0T-64">
          <mxGeometry y="78" width="320" height="26" as="geometry" />
        </mxCell>
        <mxCell id="RhfSra3kzSBtpRzGON0T-75" value="+ ...." style="text;strokeColor=none;fillColor=none;align=left;verticalAlign=top;spacingLeft=4;spacingRight=4;overflow=hidden;rotatable=0;points=[[0,0.5],[1,0.5]];portConstraint=eastwest;" vertex="1" parent="RhfSra3kzSBtpRzGON0T-64">
          <mxGeometry y="104" width="320" height="26" as="geometry" />
        </mxCell>
        <mxCell id="RhfSra3kzSBtpRzGON0T-76" value="+  orange:Color" style="text;strokeColor=none;fillColor=none;align=left;verticalAlign=top;spacingLeft=4;spacingRight=4;overflow=hidden;rotatable=0;points=[[0,0.5],[1,0.5]];portConstraint=eastwest;" vertex="1" parent="RhfSra3kzSBtpRzGON0T-64">
          <mxGeometry y="130" width="320" height="26" as="geometry" />
        </mxCell>
        <mxCell id="RhfSra3kzSBtpRzGON0T-77" value="enum Fonts" style="swimlane;fontStyle=0;childLayout=stackLayout;horizontal=1;startSize=26;fillColor=none;horizontalStack=0;resizeParent=1;resizeParentMax=0;resizeLast=0;collapsible=1;marginBottom=0;" vertex="1" parent="WIyWlLk6GJQsqaUBKTNV-1">
          <mxGeometry x="-1040" y="260" width="320" height="104" as="geometry" />
        </mxCell>
        <mxCell id="RhfSra3kzSBtpRzGON0T-78" value="+ baseTextFont: UIFont" style="text;strokeColor=none;fillColor=none;align=left;verticalAlign=top;spacingLeft=4;spacingRight=4;overflow=hidden;rotatable=0;points=[[0,0.5],[1,0.5]];portConstraint=eastwest;" vertex="1" parent="RhfSra3kzSBtpRzGON0T-77">
          <mxGeometry y="26" width="320" height="26" as="geometry" />
        </mxCell>
        <mxCell id="RhfSra3kzSBtpRzGON0T-79" value="+ boldTextFont: UIFOnt" style="text;strokeColor=none;fillColor=none;align=left;verticalAlign=top;spacingLeft=4;spacingRight=4;overflow=hidden;rotatable=0;points=[[0,0.5],[1,0.5]];portConstraint=eastwest;" vertex="1" parent="RhfSra3kzSBtpRzGON0T-77">
          <mxGeometry y="52" width="320" height="26" as="geometry" />
        </mxCell>
        <mxCell id="RhfSra3kzSBtpRzGON0T-82" value="+ ...." style="text;strokeColor=none;fillColor=none;align=left;verticalAlign=top;spacingLeft=4;spacingRight=4;overflow=hidden;rotatable=0;points=[[0,0.5],[1,0.5]];portConstraint=eastwest;" vertex="1" parent="RhfSra3kzSBtpRzGON0T-77">
          <mxGeometry y="78" width="320" height="26" as="geometry" />
        </mxCell>
        <mxCell id="RhfSra3kzSBtpRzGON0T-85" value="BaseElements" style="verticalAlign=top;align=left;spacingTop=8;spacingLeft=2;spacingRight=12;shape=cube;size=10;direction=south;fontStyle=4;html=1;" vertex="1" parent="WIyWlLk6GJQsqaUBKTNV-1">
          <mxGeometry x="-510" y="28" width="170" height="372" as="geometry" />
        </mxCell>
        <mxCell id="RhfSra3kzSBtpRzGON0T-86" value="ButtonCell" style="html=1;" vertex="1" parent="WIyWlLk6GJQsqaUBKTNV-1">
          <mxGeometry x="-490" y="80" width="110" height="50" as="geometry" />
        </mxCell>
        <mxCell id="RhfSra3kzSBtpRzGON0T-87" value="AlertView" style="html=1;" vertex="1" parent="WIyWlLk6GJQsqaUBKTNV-1">
          <mxGeometry x="-490" y="156" width="110" height="50" as="geometry" />
        </mxCell>
        <mxCell id="RhfSra3kzSBtpRzGON0T-88" value="splashView" style="html=1;" vertex="1" parent="WIyWlLk6GJQsqaUBKTNV-1">
          <mxGeometry x="-490" y="230" width="110" height="50" as="geometry" />
        </mxCell>
      </root>
    </mxGraphModel>
  </diagram>
</mxfile>
